<?xml version="1.0" encoding="utf-8" ?>
<svg baseProfile="tiny" height="173px" version="1.2" width="1174px" xmlns="http://www.w3.org/2000/svg" xmlns:ev="http://www.w3.org/2001/xml-events" xmlns:xlink="http://www.w3.org/1999/xlink"><defs /><rect fill="white" height="100%" width="100%" x="0" y="0" /><circle cx="23.0" cy="73.0" fill="#1f77b4" r="2" stroke="none" /><circle cx="22.0" cy="75.8245" fill="#1f77b4" r="2" stroke="none" /><circle cx="20.4286" cy="80.5714" fill="#1f77b4" r="2" stroke="none" /><circle cx="20.6724" cy="87.6724" fill="#1f77b4" r="2" stroke="none" /><circle cx="23.1313" cy="93.1313" fill="#1f77b4" r="2" stroke="none" /><circle cx="27.3409" cy="96.0" fill="#1f77b4" r="2" stroke="none" /><circle cx="32.7387" cy="96.0" fill="#1f77b4" r="2" stroke="none" /><circle cx="39.8815" cy="95.0" fill="#1f77b4" r="2" stroke="none" /><circle cx="47.9581" cy="91.0419" fill="#1f77b4" r="2" stroke="none" /><circle cx="53.1755" cy="88.0" fill="#1f77b4" r="2" stroke="none" /><circle cx="56.0" cy="87.0" fill="#1f77b4" r="2" stroke="none" /><polyline fill="none" points="23.0,73.0 22.0,75.8245 20.4286,80.5714 20.6724,87.6724 23.1313,93.1313 27.3409,96.0 32.7387,96.0 39.8815,95.0 47.9581,91.0419 53.1755,88.0 56.0,87.0" stroke="#1f77b4" stroke-opacity="0.5" stroke-width="2" /><circle cx="80.0" cy="91.0" fill="#ff7f0e" r="2" stroke="none" /><circle cx="78.2495" cy="90.0" fill="#ff7f0e" r="2" stroke="none" /><circle cx="74.3344" cy="89.0" fill="#ff7f0e" r="2" stroke="none" /><circle cx="68.0005" cy="86.0005" fill="#ff7f0e" r="2" stroke="none" /><circle cx="64.0" cy="81.7494" fill="#ff7f0e" r="2" stroke="none" /><circle cx="63.0" cy="76.7519" fill="#ff7f0e" r="2" stroke="none" /><circle cx="64.8807" cy="72.1193" fill="#ff7f0e" r="2" stroke="none" /><circle cx="69.7656" cy="68.2344" fill="#ff7f0e" r="2" stroke="none" /><circle cx="75.3341" cy="66.0" fill="#ff7f0e" r="2" stroke="none" /><circle cx="80.5273" cy="66.5273" fill="#ff7f0e" r="2" stroke="none" /><circle cx="85.5829" cy="70.0" fill="#ff7f0e" r="2" stroke="none" /><circle cx="90.0" cy="73.8342" fill="#ff7f0e" r="2" stroke="none" /><circle cx="92.0" cy="79.4998" fill="#ff7f0e" r="2" stroke="none" /><circle cx="91.0" cy="84.4973" fill="#ff7f0e" r="2" stroke="none" /><circle cx="86.7635" cy="89.2365" fill="#ff7f0e" r="2" stroke="none" /><circle cx="83.1647" cy="91.0" fill="#ff7f0e" r="2" stroke="none" /><circle cx="81.0" cy="91.0" fill="#ff7f0e" r="2" stroke="none" /><polyline fill="none" points="80.0,91.0 78.2495,90.0 74.3344,89.0 68.0005,86.0005 64.0,81.7494 63.0,76.7519 64.8807,72.1193 69.7656,68.2344 75.3341,66.0 80.5273,66.5273 85.5829,70.0 90.0,73.8342 92.0,79.4998 91.0,84.4973 86.7635,89.2365 83.1647,91.0 81.0,91.0" stroke="#ff7f0e" stroke-opacity="0.5" stroke-width="2" /><circle cx="111.0" cy="65.0" fill="#2ca02c" r="2" stroke="none" /><circle cx="110.0" cy="67.8214" fill="#2ca02c" r="2" stroke="none" /><circle cx="108.3788" cy="73.6212" fill="#2ca02c" r="2" stroke="none" /><circle cx="107.0" cy="81.6785" fill="#2ca02c" r="2" stroke="none" /><circle cx="107.0" cy="88.1498" fill="#2ca02c" r="2" stroke="none" /><circle cx="108.0352" cy="92.0352" fill="#2ca02c" r="2" stroke="none" /><circle cx="111.5355" cy="94.0" fill="#2ca02c" r="2" stroke="none" /><circle cx="115.4355" cy="93.0" fill="#2ca02c" r="2" stroke="none" /><circle cx="119.4141" cy="89.5859" fill="#2ca02c" r="2" stroke="none" /><circle cx="122.6313" cy="83.3687" fill="#2ca02c" r="2" stroke="none" /><circle cx="125.0" cy="75.7214" fill="#2ca02c" r="2" stroke="none" /><circle cx="126.0" cy="70.7429" fill="#2ca02c" r="2" stroke="none" /><circle cx="127.0" cy="69.0" fill="#2ca02c" r="2" stroke="none" /><polyline fill="none" points="111.0,65.0 110.0,67.8214 108.3788,73.6212 107.0,81.6785 107.0,88.1498 108.0352,92.0352 111.5355,94.0 115.4355,93.0 119.4141,89.5859 122.6313,83.3687 125.0,75.7214 126.0,70.7429 127.0,69.0" stroke="#2ca02c" stroke-opacity="0.5" stroke-width="2" /><circle cx="140.0" cy="77.0" fill="#d62728" r="2" stroke="none" /><circle cx="139.0" cy="75.2301" fill="#d62728" r="2" stroke="none" /><circle cx="139.0976" cy="70.9024" fill="#d62728" r="2" stroke="none" /><circle cx="141.0" cy="64.046" fill="#d62728" r="2" stroke="none" /><circle cx="142.0" cy="60.092" fill="#d62728" r="2" stroke="none" /><circle cx="142.0" cy="59.0" fill="#d62728" r="2" stroke="none" /><polyline fill="none" points="140.0,77.0 139.0,75.2301 139.0976,70.9024 141.0,64.046 142.0,60.092 142.0,59.0" stroke="#d62728" stroke-opacity="0.5" stroke-width="2" /><circle cx="137.0" cy="90.0" fill="#9467bd" r="2" stroke="none" /><circle cx="136.0" cy="87.1528" fill="#9467bd" r="2" stroke="none" /><circle cx="137.0" cy="82.1314" fill="#9467bd" r="2" stroke="none" /><circle cx="140.8739" cy="76.1261" fill="#9467bd" r="2" stroke="none" /><circle cx="147.4477" cy="71.0" fill="#9467bd" r="2" stroke="none" /><circle cx="153.4008" cy="67.0" fill="#9467bd" r="2" stroke="none" /><circle cx="156.9441" cy="65.0559" fill="#9467bd" r="2" stroke="none" /><circle cx="159.0952" cy="65.0" fill="#9467bd" r="2" stroke="none" /><circle cx="162.4351" cy="67.4351" fill="#9467bd" r="2" stroke="none" /><circle cx="164.0" cy="72.2225" fill="#9467bd" r="2" stroke="none" /><circle cx="162.7659" cy="78.2341" fill="#9467bd" r="2" stroke="none" /><circle cx="159.3829" cy="86.6171" fill="#9467bd" r="2" stroke="none" /><circle cx="157.0" cy="92.1528" fill="#9467bd" r="2" stroke="none" /><circle cx="156.0" cy="95.0" fill="#9467bd" r="2" stroke="none" /><polyline fill="none" points="137.0,90.0 136.0,87.1528 137.0,82.1314 140.8739,76.1261 147.4477,71.0 153.4008,67.0 156.9441,65.0559 159.0952,65.0 162.4351,67.4351 164.0,72.2225 162.7659,78.2341 159.3829,86.6171 157.0,92.1528 156.0,95.0" stroke="#9467bd" stroke-opacity="0.5" stroke-width="2" /><circle cx="179.0" cy="94.0" fill="#8c564b" r="2" stroke="none" /><circle cx="180.0" cy="91.1669" fill="#8c564b" r="2" stroke="none" /><circle cx="182.0" cy="85.5007" fill="#8c564b" r="2" stroke="none" /><circle cx="185.0" cy="77.0013" fill="#8c564b" r="2" stroke="none" /><circle cx="187.0" cy="70.2526" fill="#8c564b" r="2" stroke="none" /><circle cx="188.0" cy="66.3371" fill="#8c564b" r="2" stroke="none" /><circle cx="187.6667" cy="65.3333" fill="#8c564b" r="2" stroke="none" /><polyline fill="none" points="179.0,94.0 180.0,91.1669 182.0,85.5007 185.0,77.0013 187.0,70.2526 188.0,66.3371 187.6667,65.3333" stroke="#8c564b" stroke-opacity="0.5" stroke-width="2" /><circle cx="176.0" cy="65.0" fill="#e377c2" r="2" stroke="none" /><circle cx="179.2071" cy="65.0" fill="#e377c2" r="2" stroke="none" /><circle cx="185.6213" cy="65.0" fill="#e377c2" r="2" stroke="none" /><circle cx="194.2929" cy="62.7071" fill="#e377c2" r="2" stroke="none" /><circle cx="200.0" cy="61.0" fill="#e377c2" r="2" stroke="none" /><circle cx="204.1953" cy="61.1953" fill="#e377c2" r="2" stroke="none" /><circle cx="206.0" cy="62.0" fill="#e377c2" r="2" stroke="none" /><polyline fill="none" points="176.0,65.0 179.2071,65.0 185.6213,65.0 194.2929,62.7071 200.0,61.0 204.1953,61.1953 206.0,62.0" stroke="#e377c2" stroke-opacity="0.5" stroke-width="2" /><circle cx="191.0" cy="62.75" fill="#7f7f7f" r="2" stroke="none" /><circle cx="191.0" cy="60.5383" fill="#7f7f7f" r="2" stroke="none" /><circle cx="191.6258" cy="56.3742" fill="#7f7f7f" r="2" stroke="none" /><circle cx="192.0" cy="52.1058" fill="#7f7f7f" r="2" stroke="none" /><circle cx="192.0" cy="51.0" fill="#7f7f7f" r="2" stroke="none" /><polyline fill="none" points="191.0,62.75 191.0,60.5383 191.6258,56.3742 192.0,52.1058 192.0,51.0" stroke="#7f7f7f" stroke-opacity="0.5" stroke-width="2" /><circle cx="216.0" cy="73.0" fill="#bcbd22" r="2" stroke="none" /><circle cx="215.0" cy="70.0" fill="#bcbd22" r="2" stroke="none" /><circle cx="216.0" cy="67.0" fill="#bcbd22" r="2" stroke="none" /><polyline fill="none" points="216.0,73.0 215.0,70.0 216.0,67.0" stroke="#bcbd22" stroke-opacity="0.5" stroke-width="2" /><circle cx="211.0" cy="93.0" fill="#17becf" r="2" stroke="none" /><circle cx="211.0" cy="90.8029" fill="#17becf" r="2" stroke="none" /><circle cx="212.0" cy="85.7244" fill="#17becf" r="2" stroke="none" /><circle cx="214.0" cy="77.7644" fill="#17becf" r="2" stroke="none" /><circle cx="218.6785" cy="71.3215" fill="#17becf" r="2" stroke="none" /><circle cx="223.3392" cy="66.6608" fill="#17becf" r="2" stroke="none" /><circle cx="226.4464" cy="63.5536" fill="#17becf" r="2" stroke="none" /><circle cx="228.0" cy="62.0" fill="#17becf" r="2" stroke="none" /><polyline fill="none" points="211.0,93.0 211.0,90.8029 212.0,85.7244 214.0,77.7644 218.6785,71.3215 223.3392,66.6608 226.4464,63.5536 228.0,62.0" stroke="#17becf" stroke-opacity="0.5" stroke-width="2" /><circle cx="256.0" cy="91.0" fill="#1f77b4" r="2" stroke="none" /><circle cx="257.0" cy="88.1841" fill="#1f77b4" r="2" stroke="none" /><circle cx="258.0" cy="83.2148" fill="#1f77b4" r="2" stroke="none" /><circle cx="259.0" cy="76.092" fill="#1f77b4" r="2" stroke="none" /><circle cx="260.0" cy="68.9693" fill="#1f77b4" r="2" stroke="none" /><circle cx="261.0" cy="65.0767" fill="#1f77b4" r="2" stroke="none" /><circle cx="261.0" cy="64.0" fill="#1f77b4" r="2" stroke="none" /><polyline fill="none" points="256.0,91.0 257.0,88.1841 258.0,83.2148 259.0,76.092 260.0,68.9693 261.0,65.0767 261.0,64.0" stroke="#1f77b4" stroke-opacity="0.5" stroke-width="2" /><circle cx="263.0" cy="33.0" fill="#ff7f0e" r="2" stroke="none" /><circle cx="263.0879" cy="29.9121" fill="#ff7f0e" r="2" stroke="none" /><circle cx="264.0" cy="25.0828" fill="#ff7f0e" r="2" stroke="none" /><circle cx="264.0" cy="23.0" fill="#ff7f0e" r="2" stroke="none" /><polyline fill="none" points="263.0,33.0 263.0879,29.9121 264.0,25.0828 264.0,23.0" stroke="#ff7f0e" stroke-opacity="0.5" stroke-width="2" /><circle cx="285.0" cy="75.0" fill="#2ca02c" r="2" stroke="none" /><circle cx="287.4273" cy="77.0" fill="#2ca02c" r="2" stroke="none" /><circle cx="291.354" cy="78.0" fill="#2ca02c" r="2" stroke="none" /><circle cx="297.4512" cy="77.0" fill="#2ca02c" r="2" stroke="none" /><circle cx="303.8052" cy="74.0" fill="#2ca02c" r="2" stroke="none" /><circle cx="307.6991" cy="70.3009" fill="#2ca02c" r="2" stroke="none" /><circle cx="309.0" cy="67.584" fill="#2ca02c" r="2" stroke="none" /><circle cx="307.7577" cy="63.7577" fill="#2ca02c" r="2" stroke="none" /><circle cx="304.1448" cy="62.0" fill="#2ca02c" r="2" stroke="none" /><circle cx="299.1328" cy="63.0" fill="#2ca02c" r="2" stroke="none" /><circle cx="293.9039" cy="66.0961" fill="#2ca02c" r="2" stroke="none" /><circle cx="287.4719" cy="71.5281" fill="#2ca02c" r="2" stroke="none" /><circle cx="283.4488" cy="76.5512" fill="#2ca02c" r="2" stroke="none" /><circle cx="282.2667" cy="81.2667" fill="#2ca02c" r="2" stroke="none" /><circle cx="284.0" cy="84.8897" fill="#2ca02c" r="2" stroke="none" /><circle cx="287.4023" cy="87.0" fill="#2ca02c" r="2" stroke="none" /><circle cx="290.9397" cy="88.9397" fill="#2ca02c" r="2" stroke="none" /><circle cx="292.0" cy="89.0" fill="#2ca02c" r="2" stroke="none" /><polyline fill="none" points="285.0,75.0 287.4273,77.0 291.354,78.0 297.4512,77.0 303.8052,74.0 307.6991,70.3009 309.0,67.584 307.7577,63.7577 304.1448,62.0 299.1328,63.0 293.9039,66.0961 287.4719,71.5281 283.4488,76.5512 282.2667,81.2667 284.0,84.8897 287.4023,87.0 290.9397,88.9397 292.0,89.0" stroke="#2ca02c" stroke-opacity="0.5" stroke-width="2" /><circle cx="330.0" cy="90.0" fill="#d62728" r="2" stroke="none" /><circle cx="332.2981" cy="92.2981" fill="#d62728" r="2" stroke="none" /><circle cx="335.714" cy="95.714" fill="#d62728" r="2" stroke="none" /><circle cx="339.9289" cy="96.0" fill="#d62728" r="2" stroke="none" /><circle cx="341.4818" cy="94.5182" fill="#d62728" r="2" stroke="none" /><circle cx="342.0" cy="90.3995" fill="#d62728" r="2" stroke="none" /><circle cx="339.8666" cy="85.8666" fill="#d62728" r="2" stroke="none" /><circle cx="335.2114" cy="80.2114" fill="#d62728" r="2" stroke="none" /><circle cx="329.5563" cy="75.5563" fill="#d62728" r="2" stroke="none" /><circle cx="326.1404" cy="72.1404" fill="#d62728" r="2" stroke="none" /><circle cx="325.3154" cy="70.3154" fill="#d62728" r="2" stroke="none" /><circle cx="327.0416" cy="66.9584" fill="#d62728" r="2" stroke="none" /><circle cx="331.4575" cy="64.5425" fill="#d62728" r="2" stroke="none" /><circle cx="338.7574" cy="61.2426" fill="#d62728" r="2" stroke="none" /><circle cx="348.4679" cy="58.5321" fill="#d62728" r="2" stroke="none" /><circle cx="355.8309" cy="58.0" fill="#d62728" r="2" stroke="none" /><circle cx="360.8333" cy="59.0" fill="#d62728" r="2" stroke="none" /><circle cx="363.0" cy="59.0" fill="#d62728" r="2" stroke="none" /><polyline fill="none" points="330.0,90.0 332.2981,92.2981 335.714,95.714 339.9289,96.0 341.4818,94.5182 342.0,90.3995 339.8666,85.8666 335.2114,80.2114 329.5563,75.5563 326.1404,72.1404 325.3154,70.3154 327.0416,66.9584 331.4575,64.5425 338.7574,61.2426 348.4679,58.5321 355.8309,58.0 360.8333,59.0 363.0,59.0" stroke="#d62728" stroke-opacity="0.5" stroke-width="2" /><circle cx="449.0" cy="89.0" fill="#9467bd" r="2" stroke="none" /><circle cx="446.835" cy="89.0" fill="#9467bd" r="2" stroke="none" /><circle cx="442.5049" cy="89.0" fill="#9467bd" r="2" stroke="none" /><circle cx="434.9273" cy="89.0" fill="#9467bd" r="2" stroke="none" /><circle cx="428.4188" cy="86.4188" fill="#9467bd" r="2" stroke="none" /><circle cx="424.2987" cy="83.2987" fill="#9467bd" r="2" stroke="none" /><circle cx="422.5927" cy="78.5927" fill="#9467bd" r="2" stroke="none" /><circle cx="424.0" cy="73.1716" fill="#9467bd" r="2" stroke="none" /><circle cx="427.8226" cy="67.1774" fill="#9467bd" r="2" stroke="none" /><circle cx="434.2392" cy="61.7608" fill="#9467bd" r="2" stroke="none" /><circle cx="442.424" cy="58.0" fill="#9467bd" r="2" stroke="none" /><circle cx="449.5874" cy="57.0" fill="#9467bd" r="2" stroke="none" /><circle cx="453.9175" cy="57.0" fill="#9467bd" r="2" stroke="none" /><circle cx="455.0" cy="57.0" fill="#9467bd" r="2" stroke="none" /><polyline fill="none" points="449.0,89.0 446.835,89.0 442.5049,89.0 434.9273,89.0 428.4188,86.4188 424.2987,83.2987 422.5927,78.5927 424.0,73.1716 427.8226,67.1774 434.2392,61.7608 442.424,58.0 449.5874,57.0 453.9175,57.0 455.0,57.0" stroke="#9467bd" stroke-opacity="0.5" stroke-width="2" /><circle cx="494.0" cy="81.0" fill="#8c564b" r="2" stroke="none" /><circle cx="492.4159" cy="83.5841" fill="#8c564b" r="2" stroke="none" /><circle cx="488.5973" cy="87.4027" fill="#8c564b" r="2" stroke="none" /><circle cx="485.5424" cy="90.4576" fill="#8c564b" r="2" stroke="none" /><circle cx="482.5268" cy="91.0" fill="#8c564b" r="2" stroke="none" /><circle cx="479.0247" cy="89.0247" fill="#8c564b" r="2" stroke="none" /><circle cx="478.0" cy="85.1288" fill="#8c564b" r="2" stroke="none" /><circle cx="479.0" cy="80.1427" fill="#8c564b" r="2" stroke="none" /><circle cx="482.0" cy="72.7447" fill="#8c564b" r="2" stroke="none" /><circle cx="487.5832" cy="66.4168" fill="#8c564b" r="2" stroke="none" /><circle cx="493.7285" cy="63.0" fill="#8c564b" r="2" stroke="none" /><circle cx="498.5053" cy="61.4947" fill="#8c564b" r="2" stroke="none" /><circle cx="501.8531" cy="62.8531" fill="#8c564b" r="2" stroke="none" /><circle cx="503.0" cy="65.6183" fill="#8c564b" r="2" stroke="none" /><circle cx="501.0" cy="69.1102" fill="#8c564b" r="2" stroke="none" /><circle cx="498.4044" cy="75.5956" fill="#8c564b" r="2" stroke="none" /><circle cx="496.7637" cy="79.2363" fill="#8c564b" r="2" stroke="none" /><circle cx="496.0" cy="80.0" fill="#8c564b" r="2" stroke="none" /><polyline fill="none" points="494.0,81.0 492.4159,83.5841 488.5973,87.4027 485.5424,90.4576 482.5268,91.0 479.0247,89.0247 478.0,85.1288 479.0,80.1427 482.0,72.7447 487.5832,66.4168 493.7285,63.0 498.5053,61.4947 501.8531,62.8531 503.0,65.6183 501.0,69.1102 498.4044,75.5956 496.7637,79.2363 496.0,80.0" stroke="#8c564b" stroke-opacity="0.5" stroke-width="2" /><circle cx="494.0" cy="93.0" fill="#e377c2" r="2" stroke="none" /><circle cx="494.1748" cy="89.8252" fill="#e377c2" r="2" stroke="none" /><circle cx="496.0" cy="85.1693" fill="#e377c2" r="2" stroke="none" /><circle cx="495.7654" cy="81.7654" fill="#e377c2" r="2" stroke="none" /><circle cx="495.0" cy="81.0" fill="#e377c2" r="2" stroke="none" /><polyline fill="none" points="494.0,93.0 494.1748,89.8252 496.0,85.1693 495.7654,81.7654 495.0,81.0" stroke="#e377c2" stroke-opacity="0.5" stroke-width="2" /><circle cx="525.3333" cy="76.6667" fill="#7f7f7f" r="2" stroke="none" /><circle cx="524.7807" cy="74.2193" fill="#7f7f7f" r="2" stroke="none" /><circle cx="526.0" cy="70.3727" fill="#7f7f7f" r="2" stroke="none" /><circle cx="528.1686" cy="65.8314" fill="#7f7f7f" r="2" stroke="none" /><circle cx="529.0" cy="64.0" fill="#7f7f7f" r="2" stroke="none" /><polyline fill="none" points="525.3333,76.6667 524.7807,74.2193 526.0,70.3727 528.1686,65.8314 529.0,64.0" stroke="#7f7f7f" stroke-opacity="0.5" stroke-width="2" /><circle cx="518.0" cy="91.0" fill="#bcbd22" r="2" stroke="none" /><circle cx="519.0" cy="88.1903" fill="#bcbd22" r="2" stroke="none" /><circle cx="521.3034" cy="82.6966" fill="#bcbd22" r="2" stroke="none" /><circle cx="526.2612" cy="76.7388" fill="#bcbd22" r="2" stroke="none" /><circle cx="533.9789" cy="72.0211" fill="#bcbd22" r="2" stroke="none" /><circle cx="540.9367" cy="68.0633" fill="#bcbd22" r="2" stroke="none" /><circle cx="545.3219" cy="65.6781" fill="#bcbd22" r="2" stroke="none" /><circle cx="548.9254" cy="66.0" fill="#bcbd22" r="2" stroke="none" /><circle cx="550.0" cy="66.0" fill="#bcbd22" r="2" stroke="none" /><polyline fill="none" points="518.0,91.0 519.0,88.1903 521.3034,82.6966 526.2612,76.7388 533.9789,72.0211 540.9367,68.0633 545.3219,65.6781 548.9254,66.0 550.0,66.0" stroke="#bcbd22" stroke-opacity="0.5" stroke-width="2" /><circle cx="631.0" cy="68.25" fill="#17becf" r="2" stroke="none" /><circle cx="630.0" cy="71.0968" fill="#17becf" r="2" stroke="none" /><circle cx="627.0" cy="75.2892" fill="#17becf" r="2" stroke="none" /><circle cx="622.0" cy="81.9143" fill="#17becf" r="2" stroke="none" /><circle cx="616.6802" cy="87.3198" fill="#17becf" r="2" stroke="none" /><circle cx="612.5441" cy="90.4559" fill="#17becf" r="2" stroke="none" /><circle cx="609.5085" cy="91.0" fill="#17becf" r="2" stroke="none" /><circle cx="608.0" cy="89.7487" fill="#17becf" r="2" stroke="none" /><circle cx="608.3623" cy="86.6377" fill="#17becf" r="2" stroke="none" /><circle cx="610.8528" cy="81.1472" fill="#17becf" r="2" stroke="none" /><circle cx="615.5876" cy="74.4124" fill="#17becf" r="2" stroke="none" /><circle cx="621.369" cy="70.0" fill="#17becf" r="2" stroke="none" /><circle cx="629.2367" cy="68.0" fill="#17becf" r="2" stroke="none" /><circle cx="634.391" cy="67.0727" fill="#17becf" r="2" stroke="none" /><circle cx="636.9385" cy="65.0615" fill="#17becf" r="2" stroke="none" /><circle cx="638.0" cy="65.0" fill="#17becf" r="2" stroke="none" /><polyline fill="none" points="631.0,68.25 630.0,71.0968 627.0,75.2892 622.0,81.9143 616.6802,87.3198 612.5441,90.4559 609.5085,91.0 608.0,89.7487 608.3623,86.6377 610.8528,81.1472 615.5876,74.4124 621.369,70.0 629.2367,68.0 634.391,67.0727 636.9385,65.0615 638.0,65.0" stroke="#17becf" stroke-opacity="0.5" stroke-width="2" /><circle cx="627.0" cy="102.0" fill="#1f77b4" r="2" stroke="none" /><circle cx="627.0" cy="99.8254" fill="#1f77b4" r="2" stroke="none" /><circle cx="628.0" cy="94.8032" fill="#1f77b4" r="2" stroke="none" /><circle cx="630.0" cy="86.9334" fill="#1f77b4" r="2" stroke="none" /><circle cx="632.7239" cy="78.2761" fill="#1f77b4" r="2" stroke="none" /><circle cx="635.0" cy="72.6953" fill="#1f77b4" r="2" stroke="none" /><circle cx="635.4624" cy="68.5376" fill="#1f77b4" r="2" stroke="none" /><circle cx="635.0" cy="67.0" fill="#1f77b4" r="2" stroke="none" /><polyline fill="none" points="627.0,102.0 627.0,99.8254 628.0,94.8032 630.0,86.9334 632.7239,78.2761 635.0,72.6953 635.4624,68.5376 635.0,67.0" stroke="#1f77b4" stroke-opacity="0.5" stroke-width="2" /><circle cx="661.0" cy="75.0" fill="#ff7f0e" r="2" stroke="none" /><circle cx="660.0" cy="72.0929" fill="#ff7f0e" r="2" stroke="none" /><circle cx="662.0" cy="68.4929" fill="#ff7f0e" r="2" stroke="none" /><circle cx="664.0" cy="66.0" fill="#ff7f0e" r="2" stroke="none" /><polyline fill="none" points="661.0,75.0 660.0,72.0929 662.0,68.4929 664.0,66.0" stroke="#ff7f0e" stroke-opacity="0.5" stroke-width="2" /><circle cx="654.0" cy="97.0" fill="#2ca02c" r="2" stroke="none" /><circle cx="654.0" cy="94.8439" fill="#2ca02c" r="2" stroke="none" /><circle cx="655.0" cy="89.8679" fill="#2ca02c" r="2" stroke="none" /><circle cx="657.0" cy="82.072" fill="#2ca02c" r="2" stroke="none" /><circle cx="662.1516" cy="75.0" fill="#2ca02c" r="2" stroke="none" /><circle cx="669.5536" cy="69.4464" fill="#2ca02c" r="2" stroke="none" /><circle cx="674.5943" cy="66.0" fill="#2ca02c" r="2" stroke="none" /><circle cx="677.0" cy="64.0" fill="#2ca02c" r="2" stroke="none" /><polyline fill="none" points="654.0,97.0 654.0,94.8439 655.0,89.8679 657.0,82.072 662.1516,75.0 669.5536,69.4464 674.5943,66.0 677.0,64.0" stroke="#2ca02c" stroke-opacity="0.5" stroke-width="2" /><circle cx="701.3333" cy="73.6667" fill="#d62728" r="2" stroke="none" /><circle cx="701.0" cy="71.5814" fill="#d62728" r="2" stroke="none" /><circle cx="702.2349" cy="67.7651" fill="#d62728" r="2" stroke="none" /><circle cx="703.0" cy="67.0" fill="#d62728" r="2" stroke="none" /><polyline fill="none" points="701.3333,73.6667 701.0,71.5814 702.2349,67.7651 703.0,67.0" stroke="#d62728" stroke-opacity="0.5" stroke-width="2" /><circle cx="692.0" cy="93.0" fill="#9467bd" r="2" stroke="none" /><circle cx="694.0" cy="91.1422" fill="#9467bd" r="2" stroke="none" /><circle cx="696.0" cy="86.5172" fill="#9467bd" r="2" stroke="none" /><circle cx="698.2686" cy="78.7314" fill="#9467bd" r="2" stroke="none" /><circle cx="702.5459" cy="73.4541" fill="#9467bd" r="2" stroke="none" /><circle cx="708.0735" cy="71.0" fill="#9467bd" r="2" stroke="none" /><circle cx="711.7227" cy="69.2773" fill="#9467bd" r="2" stroke="none" /><circle cx="716.1646" cy="66.8354" fill="#9467bd" r="2" stroke="none" /><circle cx="718.0" cy="66.0" fill="#9467bd" r="2" stroke="none" /><polyline fill="none" points="692.0,93.0 694.0,91.1422 696.0,86.5172 698.2686,78.7314 702.5459,73.4541 708.0735,71.0 711.7227,69.2773 716.1646,66.8354 718.0,66.0" stroke="#9467bd" stroke-opacity="0.5" stroke-width="2" /><circle cx="763.0" cy="101.0" fill="#8c564b" r="2" stroke="none" /><circle cx="762.0" cy="98.1525" fill="#8c564b" r="2" stroke="none" /><circle cx="763.0" cy="93.1305" fill="#8c564b" r="2" stroke="none" /><circle cx="766.2296" cy="85.7704" fill="#8c564b" r="2" stroke="none" /><circle cx="768.0" cy="81.0675" fill="#8c564b" r="2" stroke="none" /><circle cx="767.6796" cy="77.6796" fill="#8c564b" r="2" stroke="none" /><circle cx="766.8739" cy="77.0" fill="#8c564b" r="2" stroke="none" /><circle cx="765.0" cy="78.9736" fill="#8c564b" r="2" stroke="none" /><circle cx="763.0" cy="83.5814" fill="#8c564b" r="2" stroke="none" /><circle cx="758.6216" cy="89.3784" fill="#8c564b" r="2" stroke="none" /><circle cx="753.24" cy="94.76" fill="#8c564b" r="2" stroke="none" /><circle cx="749.396" cy="98.604" fill="#8c564b" r="2" stroke="none" /><circle cx="745.6254" cy="100.0" fill="#8c564b" r="2" stroke="none" /><circle cx="742.8429" cy="98.8429" fill="#8c564b" r="2" stroke="none" /><circle cx="742.0" cy="95.9303" fill="#8c564b" r="2" stroke="none" /><circle cx="743.7102" cy="92.2898" fill="#8c564b" r="2" stroke="none" /><circle cx="746.0" cy="85.6276" fill="#8c564b" r="2" stroke="none" /><circle cx="751.0612" cy="77.9388" fill="#8c564b" r="2" stroke="none" /><circle cx="757.5044" cy="72.4956" fill="#8c564b" r="2" stroke="none" /><circle cx="762.9942" cy="70.0" fill="#8c564b" r="2" stroke="none" /><circle cx="767.3431" cy="70.0" fill="#8c564b" r="2" stroke="none" /><circle cx="769.0731" cy="71.0731" fill="#8c564b" r="2" stroke="none" /><circle cx="769.2659" cy="74.7341" fill="#8c564b" r="2" stroke="none" /><circle cx="767.6667" cy="77.3333" fill="#8c564b" r="2" stroke="none" /><polyline fill="none" points="763.0,101.0 762.0,98.1525 763.0,93.1305 766.2296,85.7704 768.0,81.0675 767.6796,77.6796 766.8739,77.0 765.0,78.9736 763.0,83.5814 758.6216,89.3784 753.24,94.76 749.396,98.604 745.6254,100.0 742.8429,98.8429 742.0,95.9303 743.7102,92.2898 746.0,85.6276 751.0612,77.9388 757.5044,72.4956 762.9942,70.0 767.3431,70.0 769.0731,71.0731 769.2659,74.7341 767.6667,77.3333" stroke="#8c564b" stroke-opacity="0.5" stroke-width="2" /><circle cx="797.0" cy="76.0" fill="#e377c2" r="2" stroke="none" /><circle cx="796.0" cy="73.2172" fill="#e377c2" r="2" stroke="none" /><circle cx="797.4929" cy="68.5071" fill="#e377c2" r="2" stroke="none" /><circle cx="799.0" cy="67.0" fill="#e377c2" r="2" stroke="none" /><polyline fill="none" points="797.0,76.0 796.0,73.2172 797.4929,68.5071 799.0,67.0" stroke="#e377c2" stroke-opacity="0.5" stroke-width="2" /><circle cx="791.0" cy="96.0" fill="#7f7f7f" r="2" stroke="none" /><circle cx="791.0" cy="93.826" fill="#7f7f7f" r="2" stroke="none" /><circle cx="791.0" cy="89.478" fill="#7f7f7f" r="2" stroke="none" /><circle cx="792.5069" cy="82.4931" fill="#7f7f7f" r="2" stroke="none" /><circle cx="796.5984" cy="76.7008" fill="#7f7f7f" r="2" stroke="none" /><circle cx="802.8581" cy="73.1419" fill="#7f7f7f" r="2" stroke="none" /><circle cx="806.3189" cy="71.0" fill="#7f7f7f" r="2" stroke="none" /><circle cx="811.3397" cy="70.0" fill="#7f7f7f" r="2" stroke="none" /><circle cx="814.9005" cy="71.9005" fill="#7f7f7f" r="2" stroke="none" /><circle cx="816.0" cy="75.7931" fill="#7f7f7f" r="2" stroke="none" /><circle cx="815.0" cy="81.0724" fill="#7f7f7f" r="2" stroke="none" /><circle cx="812.0" cy="86.3518" fill="#7f7f7f" r="2" stroke="none" /><circle cx="809.1377" cy="93.8623" fill="#7f7f7f" r="2" stroke="none" /><circle cx="808.0" cy="98.826" fill="#7f7f7f" r="2" stroke="none" /><circle cx="808.0" cy="101.0" fill="#7f7f7f" r="2" stroke="none" /><polyline fill="none" points="791.0,96.0 791.0,93.826 791.0,89.478 792.5069,82.4931 796.5984,76.7008 802.8581,73.1419 806.3189,71.0 811.3397,70.0 814.9005,71.9005 816.0,75.7931 815.0,81.0724 812.0,86.3518 809.1377,93.8623 808.0,98.826 808.0,101.0" stroke="#7f7f7f" stroke-opacity="0.5" stroke-width="2" /><circle cx="825.0" cy="142.0" fill="#bcbd22" r="2" stroke="none" /><circle cx="823.471" cy="143.529" fill="#bcbd22" r="2" stroke="none" /><circle cx="821.8272" cy="147.1728" fill="#bcbd22" r="2" stroke="none" /><circle cx="821.8166" cy="150.8166" fill="#bcbd22" r="2" stroke="none" /><circle cx="824.1558" cy="153.0" fill="#bcbd22" r="2" stroke="none" /><circle cx="828.3397" cy="152.6603" fill="#bcbd22" r="2" stroke="none" /><circle cx="834.3912" cy="151.6088" fill="#bcbd22" r="2" stroke="none" /><circle cx="841.6788" cy="148.3212" fill="#bcbd22" r="2" stroke="none" /><circle cx="848.8523" cy="142.1477" fill="#bcbd22" r="2" stroke="none" /><circle cx="855.1405" cy="132.8595" fill="#bcbd22" r="2" stroke="none" /><circle cx="862.0" cy="123.8079" fill="#bcbd22" r="2" stroke="none" /><circle cx="866.0" cy="114.653" fill="#bcbd22" r="2" stroke="none" /><circle cx="868.7684" cy="108.2316" fill="#bcbd22" r="2" stroke="none" /><circle cx="870.0" cy="104.417" fill="#bcbd22" r="2" stroke="none" /><circle cx="869.6667" cy="102.3333" fill="#bcbd22" r="2" stroke="none" /><polyline fill="none" points="825.0,142.0 823.471,143.529 821.8272,147.1728 821.8166,150.8166 824.1558,153.0 828.3397,152.6603 834.3912,151.6088 841.6788,148.3212 848.8523,142.1477 855.1405,132.8595 862.0,123.8079 866.0,114.653 868.7684,108.2316 870.0,104.417 869.6667,102.3333" stroke="#bcbd22" stroke-opacity="0.5" stroke-width="2" /><circle cx="867.0" cy="101.0" fill="#17becf" r="2" stroke="none" /><circle cx="868.7559" cy="102.0" fill="#17becf" r="2" stroke="none" /><circle cx="871.4221" cy="100.5779" fill="#17becf" r="2" stroke="none" /><circle cx="873.0769" cy="96.9231" fill="#17becf" r="2" stroke="none" /><circle cx="875.0" cy="91.2093" fill="#17becf" r="2" stroke="none" /><circle cx="873.9477" cy="85.9739" fill="#17becf" r="2" stroke="none" /><circle cx="870.0" cy="80.4106" fill="#17becf" r="2" stroke="none" /><circle cx="865.1428" cy="77.0" fill="#17becf" r="2" stroke="none" /><circle cx="859.0466" cy="76.0" fill="#17becf" r="2" stroke="none" /><circle cx="852.2796" cy="78.0" fill="#17becf" r="2" stroke="none" /><circle cx="846.2411" cy="81.7589" fill="#17becf" r="2" stroke="none" /><circle cx="842.2845" cy="87.7155" fill="#17becf" r="2" stroke="none" /><circle cx="841.0" cy="92.6087" fill="#17becf" r="2" stroke="none" /><circle cx="842.4383" cy="97.4383" fill="#17becf" r="2" stroke="none" /><circle cx="846.5675" cy="100.5675" fill="#17becf" r="2" stroke="none" /><circle cx="853.1554" cy="103.0" fill="#17becf" r="2" stroke="none" /><circle cx="857.7523" cy="105.0" fill="#17becf" r="2" stroke="none" /><circle cx="862.7634" cy="104.0" fill="#17becf" r="2" stroke="none" /><circle cx="866.6083" cy="100.7833" fill="#17becf" r="2" stroke="none" /><circle cx="868.0" cy="95.8647" fill="#17becf" r="2" stroke="none" /><circle cx="870.5779" cy="90.4221" fill="#17becf" r="2" stroke="none" /><circle cx="872.2327" cy="86.7673" fill="#17becf" r="2" stroke="none" /><circle cx="873.0" cy="86.0" fill="#17becf" r="2" stroke="none" /><polyline fill="none" points="867.0,101.0 868.7559,102.0 871.4221,100.5779 873.0769,96.9231 875.0,91.2093 873.9477,85.9739 870.0,80.4106 865.1428,77.0 859.0466,76.0 852.2796,78.0 846.2411,81.7589 842.2845,87.7155 841.0,92.6087 842.4383,97.4383 846.5675,100.5675 853.1554,103.0 857.7523,105.0 862.7634,104.0 866.6083,100.7833 868.0,95.8647 870.5779,90.4221 872.2327,86.7673 873.0,86.0" stroke="#17becf" stroke-opacity="0.5" stroke-width="2" /><circle cx="904.0" cy="91.0" fill="#1f77b4" r="2" stroke="none" /><circle cx="906.4131" cy="93.0" fill="#1f77b4" r="2" stroke="none" /><circle cx="910.7352" cy="93.0" fill="#1f77b4" r="2" stroke="none" /><circle cx="917.9184" cy="92.0816" fill="#1f77b4" r="2" stroke="none" /><circle cx="927.4471" cy="89.0" fill="#1f77b4" r="2" stroke="none" /><circle cx="933.836" cy="86.164" fill="#1f77b4" r="2" stroke="none" /><circle cx="937.185" cy="83.815" fill="#1f77b4" r="2" stroke="none" /><circle cx="937.994" cy="81.994" fill="#1f77b4" r="2" stroke="none" /><circle cx="935.5784" cy="80.0" fill="#1f77b4" r="2" stroke="none" /><circle cx="931.6706" cy="79.0" fill="#1f77b4" r="2" stroke="none" /><circle cx="926.6822" cy="80.0" fill="#1f77b4" r="2" stroke="none" /><circle cx="918.8665" cy="82.0" fill="#1f77b4" r="2" stroke="none" /><circle cx="910.5648" cy="85.4352" fill="#1f77b4" r="2" stroke="none" /><circle cx="902.4789" cy="92.0" fill="#1f77b4" r="2" stroke="none" /><circle cx="897.0" cy="99.6694" fill="#1f77b4" r="2" stroke="none" /><circle cx="894.0068" cy="105.9932" fill="#1f77b4" r="2" stroke="none" /><circle cx="893.0" cy="109.8982" fill="#1f77b4" r="2" stroke="none" /><circle cx="895.0" cy="114.4723" fill="#1f77b4" r="2" stroke="none" /><circle cx="898.74" cy="117.74" fill="#1f77b4" r="2" stroke="none" /><circle cx="904.7011" cy="119.0" fill="#1f77b4" r="2" stroke="none" /><circle cx="913.3452" cy="119.0" fill="#1f77b4" r="2" stroke="none" /><circle cx="924.8167" cy="118.0" fill="#1f77b4" r="2" stroke="none" /><circle cx="935.1468" cy="116.8532" fill="#1f77b4" r="2" stroke="none" /><circle cx="943.6896" cy="114.0" fill="#1f77b4" r="2" stroke="none" /><circle cx="949.7585" cy="113.0" fill="#1f77b4" r="2" stroke="none" /><circle cx="953.0" cy="113.0" fill="#1f77b4" r="2" stroke="none" /><polyline fill="none" points="904.0,91.0 906.4131,93.0 910.7352,93.0 917.9184,92.0816 927.4471,89.0 933.836,86.164 937.185,83.815 937.994,81.994 935.5784,80.0 931.6706,79.0 926.6822,80.0 918.8665,82.0 910.5648,85.4352 902.4789,92.0 897.0,99.6694 894.0068,105.9932 893.0,109.8982 895.0,114.4723 898.74,117.74 904.7011,119.0 913.3452,119.0 924.8167,118.0 935.1468,116.8532 943.6896,114.0 949.7585,113.0 953.0,113.0" stroke="#1f77b4" stroke-opacity="0.5" stroke-width="2" /><circle cx="1011.0" cy="100.0" fill="#ff7f0e" r="2" stroke="none" /><circle cx="1013.8462" cy="101.0" fill="#ff7f0e" r="2" stroke="none" /><circle cx="1018.1935" cy="101.0" fill="#ff7f0e" r="2" stroke="none" /><circle cx="1024.3002" cy="102.0" fill="#ff7f0e" r="2" stroke="none" /><circle cx="1027.872" cy="103.872" fill="#ff7f0e" r="2" stroke="none" /><circle cx="1029.0" cy="107.7521" fill="#ff7f0e" r="2" stroke="none" /><circle cx="1029.0" cy="114.273" fill="#ff7f0e" r="2" stroke="none" /><circle cx="1029.0" cy="122.9676" fill="#ff7f0e" r="2" stroke="none" /><circle cx="1030.3595" cy="134.3595" fill="#ff7f0e" r="2" stroke="none" /><circle cx="1033.0" cy="143.0471" fill="#ff7f0e" r="2" stroke="none" /><circle cx="1034.1087" cy="149.1087" fill="#ff7f0e" r="2" stroke="none" /><circle cx="1035.0" cy="152.0" fill="#ff7f0e" r="2" stroke="none" /><polyline fill="none" points="1011.0,100.0 1013.8462,101.0 1018.1935,101.0 1024.3002,102.0 1027.872,103.872 1029.0,107.7521 1029.0,114.273 1029.0,122.9676 1030.3595,134.3595 1033.0,143.0471 1034.1087,149.1087 1035.0,152.0" stroke="#ff7f0e" stroke-opacity="0.5" stroke-width="2" /><circle cx="1029.0" cy="100.75" fill="#2ca02c" r="2" stroke="none" /><circle cx="1029.0" cy="98.5806" fill="#2ca02c" r="2" stroke="none" /><circle cx="1029.0" cy="94.2417" fill="#2ca02c" r="2" stroke="none" /><circle cx="1030.6627" cy="87.3373" fill="#2ca02c" r="2" stroke="none" /><circle cx="1032.6161" cy="78.3839" fill="#2ca02c" r="2" stroke="none" /><circle cx="1034.0" cy="68.1099" fill="#2ca02c" r="2" stroke="none" /><circle cx="1035.0" cy="60.931" fill="#2ca02c" r="2" stroke="none" /><circle cx="1037.0" cy="56.3358" fill="#2ca02c" r="2" stroke="none" /><circle cx="1041.2594" cy="54.0" fill="#2ca02c" r="2" stroke="none" /><circle cx="1046.483" cy="54.483" fill="#2ca02c" r="2" stroke="none" /><circle cx="1051.6708" cy="57.6708" fill="#2ca02c" r="2" stroke="none" /><circle cx="1057.3328" cy="62.3328" fill="#2ca02c" r="2" stroke="none" /><circle cx="1060.5806" cy="68.5806" fill="#2ca02c" r="2" stroke="none" /><circle cx="1061.0" cy="73.8306" fill="#2ca02c" r="2" stroke="none" /><circle cx="1061.0" cy="76.0" fill="#2ca02c" r="2" stroke="none" /><polyline fill="none" points="1029.0,100.75 1029.0,98.5806 1029.0,94.2417 1030.6627,87.3373 1032.6161,78.3839 1034.0,68.1099 1035.0,60.931 1037.0,56.3358 1041.2594,54.0 1046.483,54.483 1051.6708,57.6708 1057.3328,62.3328 1060.5806,68.5806 1061.0,73.8306 1061.0,76.0" stroke="#2ca02c" stroke-opacity="0.5" stroke-width="2" /><circle cx="1026.6667" cy="102.3333" fill="#d62728" r="2" stroke="none" /><circle cx="1029.3369" cy="101.0" fill="#d62728" r="2" stroke="none" /><circle cx="1033.6337" cy="101.0" fill="#d62728" r="2" stroke="none" /><circle cx="1041.153" cy="101.0" fill="#d62728" r="2" stroke="none" /><circle cx="1049.7465" cy="101.0" fill="#d62728" r="2" stroke="none" /><circle cx="1055.8426" cy="100.1574" fill="#d62728" r="2" stroke="none" /><circle cx="1059.0" cy="100.0" fill="#d62728" r="2" stroke="none" /><polyline fill="none" points="1026.6667,102.3333 1029.3369,101.0 1033.6337,101.0 1041.153,101.0 1049.7465,101.0 1055.8426,100.1574 1059.0,100.0" stroke="#d62728" stroke-opacity="0.5" stroke-width="2" /><circle cx="1089.0" cy="125.0" fill="#9467bd" r="2" stroke="none" /><circle cx="1086.1706" cy="124.0" fill="#9467bd" r="2" stroke="none" /><circle cx="1080.9476" cy="120.9476" fill="#9467bd" r="2" stroke="none" /><circle cx="1078.0" cy="115.6812" fill="#9467bd" r="2" stroke="none" /><circle cx="1077.0" cy="112.8518" fill="#9467bd" r="2" stroke="none" /><circle cx="1078.7487" cy="109.2513" fill="#9467bd" r="2" stroke="none" /><circle cx="1083.4751" cy="105.0" fill="#9467bd" r="2" stroke="none" /><circle cx="1089.801" cy="102.0" fill="#9467bd" r="2" stroke="none" /><circle cx="1096.9553" cy="101.0" fill="#9467bd" r="2" stroke="none" /><circle cx="1101.9472" cy="102.0" fill="#9467bd" r="2" stroke="none" /><circle cx="1105.7854" cy="105.7854" fill="#9467bd" r="2" stroke="none" /><circle cx="1107.0" cy="109.6071" fill="#9467bd" r="2" stroke="none" /><circle cx="1105.5765" cy="114.4235" fill="#9467bd" r="2" stroke="none" /><circle cx="1101.4609" cy="117.5391" fill="#9467bd" r="2" stroke="none" /><circle cx="1096.5233" cy="122.4767" fill="#9467bd" r="2" stroke="none" /><circle cx="1093.2437" cy="125.0" fill="#9467bd" r="2" stroke="none" /><circle cx="1090.0" cy="125.0" fill="#9467bd" r="2" stroke="none" /><polyline fill="none" points="1089.0,125.0 1086.1706,124.0 1080.9476,120.9476 1078.0,115.6812 1077.0,112.8518 1078.7487,109.2513 1083.4751,105.0 1089.801,102.0 1096.9553,101.0 1101.9472,102.0 1105.7854,105.7854 1107.0,109.6071 1105.5765,114.4235 1101.4609,117.5391 1096.5233,122.4767 1093.2437,125.0 1090.0,125.0" stroke="#9467bd" stroke-opacity="0.5" stroke-width="2" /><circle cx="1124.0" cy="128.0" fill="#8c564b" r="2" stroke="none" /><circle cx="1124.835" cy="126.165" fill="#8c564b" r="2" stroke="none" /><circle cx="1126.0" cy="121.1953" fill="#8c564b" r="2" stroke="none" /><circle cx="1128.0" cy="114.3905" fill="#8c564b" r="2" stroke="none" /><circle cx="1130.0" cy="109.7667" fill="#8c564b" r="2" stroke="none" /><circle cx="1131.0" cy="108.0" fill="#8c564b" r="2" stroke="none" /><polyline fill="none" points="1124.0,128.0 1124.835,126.165 1126.0,121.1953 1128.0,114.3905 1130.0,109.7667 1131.0,108.0" stroke="#8c564b" stroke-opacity="0.5" stroke-width="2" /><circle cx="1130.3333" cy="109.6667" fill="#e377c2" r="2" stroke="none" /><circle cx="1132.7285" cy="111.7285" fill="#e377c2" r="2" stroke="none" /><circle cx="1138.1672" cy="114.0" fill="#e377c2" r="2" stroke="none" /><circle cx="1144.5467" cy="114.0" fill="#e377c2" r="2" stroke="none" /><circle cx="1150.5121" cy="113.0" fill="#e377c2" r="2" stroke="none" /><circle cx="1153.9553" cy="111.0447" fill="#e377c2" r="2" stroke="none" /><circle cx="1155.0" cy="111.0" fill="#e377c2" r="2" stroke="none" /><polyline fill="none" points="1130.3333,109.6667 1132.7285,111.7285 1138.1672,114.0 1144.5467,114.0 1150.5121,113.0 1153.9553,111.0447 1155.0,111.0" stroke="#e377c2" stroke-opacity="0.5" stroke-width="2" /></svg>