<?xml version="1.0" encoding="utf-8" ?>
<svg baseProfile="tiny" height="176px" version="1.2" width="1147px" xmlns="http://www.w3.org/2000/svg" xmlns:ev="http://www.w3.org/2001/xml-events" xmlns:xlink="http://www.w3.org/1999/xlink"><defs /><rect fill="white" height="100%" width="100%" x="0" y="0" /><circle cx="25.0" cy="150.0" fill="#1f77b4" r="2" stroke="none" /><circle cx="25.4605" cy="148.4605" fill="#1f77b4" r="2" stroke="none" /><circle cx="25.0" cy="144.2967" fill="#1f77b4" r="2" stroke="none" /><circle cx="24.0" cy="137.0905" fill="#1f77b4" r="2" stroke="none" /><circle cx="25.0" cy="128.7957" fill="#1f77b4" r="2" stroke="none" /><circle cx="25.0" cy="118.7379" fill="#1f77b4" r="2" stroke="none" /><circle cx="25.0" cy="111.1175" fill="#1f77b4" r="2" stroke="none" /><circle cx="25.0" cy="106.763" fill="#1f77b4" r="2" stroke="none" /><circle cx="26.0" cy="105.0" fill="#1f77b4" r="2" stroke="none" /><polyline fill="none" points="25.0,150.0 25.4605,148.4605 25.0,144.2967 24.0,137.0905 25.0,128.7957 25.0,118.7379 25.0,111.1175 25.0,106.763 26.0,105.0" stroke="#1f77b4" stroke-opacity="0.5" stroke-width="2" /><circle cx="21.0" cy="78.0" fill="#ff7f0e" r="2" stroke="none" /><circle cx="23.0" cy="79.8849" fill="#ff7f0e" r="2" stroke="none" /><circle cx="23.0" cy="83.184" fill="#ff7f0e" r="2" stroke="none" /><circle cx="23.0" cy="88.6825" fill="#ff7f0e" r="2" stroke="none" /><circle cx="24.0" cy="97.066" fill="#ff7f0e" r="2" stroke="none" /><circle cx="25.0" cy="102.1503" fill="#ff7f0e" r="2" stroke="none" /><circle cx="29.0694" cy="106.0694" fill="#ff7f0e" r="2" stroke="none" /><circle cx="35.5535" cy="109.0" fill="#ff7f0e" r="2" stroke="none" /><circle cx="43.6625" cy="109.3375" fill="#ff7f0e" r="2" stroke="none" /><circle cx="52.4183" cy="106.5817" fill="#ff7f0e" r="2" stroke="none" /><circle cx="61.5176" cy="102.0" fill="#ff7f0e" r="2" stroke="none" /><circle cx="70.0207" cy="95.9793" fill="#ff7f0e" r="2" stroke="none" /><circle cx="76.0" cy="88.4523" fill="#ff7f0e" r="2" stroke="none" /><circle cx="79.0" cy="80.8973" fill="#ff7f0e" r="2" stroke="none" /><circle cx="79.0" cy="74.2991" fill="#ff7f0e" r="2" stroke="none" /><circle cx="79.0" cy="71.0" fill="#ff7f0e" r="2" stroke="none" /><polyline fill="none" points="21.0,78.0 23.0,79.8849 23.0,83.184 23.0,88.6825 24.0,97.066 25.0,102.1503 29.0694,106.0694 35.5535,109.0 43.6625,109.3375 52.4183,106.5817 61.5176,102.0 70.0207,95.9793 76.0,88.4523 79.0,80.8973 79.0,74.2991 79.0,71.0" stroke="#ff7f0e" stroke-opacity="0.5" stroke-width="2" /><circle cx="74.0" cy="94.0" fill="#2ca02c" r="2" stroke="none" /><circle cx="75.0" cy="96.9072" fill="#2ca02c" r="2" stroke="none" /><circle cx="75.0" cy="102.4428" fill="#2ca02c" r="2" stroke="none" /><circle cx="76.0" cy="110.8856" fill="#2ca02c" r="2" stroke="none" /><circle cx="77.0" cy="120.4355" fill="#2ca02c" r="2" stroke="none" /><circle cx="78.0654" cy="131.0654" fill="#2ca02c" r="2" stroke="none" /><circle cx="81.0" cy="139.814" fill="#2ca02c" r="2" stroke="none" /><circle cx="84.2271" cy="146.2271" fill="#2ca02c" r="2" stroke="none" /><circle cx="87.4343" cy="150.4343" fill="#2ca02c" r="2" stroke="none" /><circle cx="89.0" cy="152.0" fill="#2ca02c" r="2" stroke="none" /><polyline fill="none" points="74.0,94.0 75.0,96.9072 75.0,102.4428 76.0,110.8856 77.0,120.4355 78.0654,131.0654 81.0,139.814 84.2271,146.2271 87.4343,150.4343 89.0,152.0" stroke="#2ca02c" stroke-opacity="0.5" stroke-width="2" /><circle cx="127.0" cy="129.0" fill="#d62728" r="2" stroke="none" /><circle cx="128.069" cy="128.931" fill="#d62728" r="2" stroke="none" /><circle cx="131.7591" cy="127.2409" fill="#d62728" r="2" stroke="none" /><circle cx="135.7084" cy="122.2916" fill="#d62728" r="2" stroke="none" /><circle cx="138.0" cy="119.2582" fill="#d62728" r="2" stroke="none" /><circle cx="137.1996" cy="115.1996" fill="#d62728" r="2" stroke="none" /><circle cx="134.8024" cy="111.8024" fill="#d62728" r="2" stroke="none" /><circle cx="130.7446" cy="111.0" fill="#d62728" r="2" stroke="none" /><circle cx="124.9914" cy="113.0086" fill="#d62728" r="2" stroke="none" /><circle cx="119.2659" cy="117.7341" fill="#d62728" r="2" stroke="none" /><circle cx="115.1786" cy="124.8214" fill="#d62728" r="2" stroke="none" /><circle cx="114.0" cy="130.9184" fill="#d62728" r="2" stroke="none" /><circle cx="115.8393" cy="137.8393" fill="#d62728" r="2" stroke="none" /><circle cx="119.0126" cy="142.0126" fill="#d62728" r="2" stroke="none" /><circle cx="121.8963" cy="143.0" fill="#d62728" r="2" stroke="none" /><circle cx="126.6857" cy="141.3143" fill="#d62728" r="2" stroke="none" /><circle cx="131.3422" cy="136.6578" fill="#d62728" r="2" stroke="none" /><circle cx="135.3605" cy="130.6395" fill="#d62728" r="2" stroke="none" /><circle cx="138.4648" cy="127.5352" fill="#d62728" r="2" stroke="none" /><circle cx="138.5522" cy="123.5522" fill="#d62728" r="2" stroke="none" /><circle cx="137.0" cy="122.0" fill="#d62728" r="2" stroke="none" /><polyline fill="none" points="127.0,129.0 128.069,128.931 131.7591,127.2409 135.7084,122.2916 138.0,119.2582 137.1996,115.1996 134.8024,111.8024 130.7446,111.0 124.9914,113.0086 119.2659,117.7341 115.1786,124.8214 114.0,130.9184 115.8393,137.8393 119.0126,142.0126 121.8963,143.0 126.6857,141.3143 131.3422,136.6578 135.3605,130.6395 138.4648,127.5352 138.5522,123.5522 137.0,122.0" stroke="#d62728" stroke-opacity="0.5" stroke-width="2" /><circle cx="138.0" cy="128.0" fill="#9467bd" r="2" stroke="none" /><circle cx="139.5591" cy="129.5591" fill="#9467bd" r="2" stroke="none" /><circle cx="144.0602" cy="132.0" fill="#9467bd" r="2" stroke="none" /><circle cx="149.8913" cy="133.8913" fill="#9467bd" r="2" stroke="none" /><circle cx="157.1491" cy="133.0" fill="#9467bd" r="2" stroke="none" /><circle cx="165.6353" cy="129.1823" fill="#9467bd" r="2" stroke="none" /><circle cx="172.3133" cy="122.6867" fill="#9467bd" r="2" stroke="none" /><circle cx="178.622" cy="115.378" fill="#9467bd" r="2" stroke="none" /><circle cx="184.6646" cy="111.3354" fill="#9467bd" r="2" stroke="none" /><circle cx="189.148" cy="108.852" fill="#9467bd" r="2" stroke="none" /><circle cx="191.0" cy="108.0" fill="#9467bd" r="2" stroke="none" /><polyline fill="none" points="138.0,128.0 139.5591,129.5591 144.0602,132.0 149.8913,133.8913 157.1491,133.0 165.6353,129.1823 172.3133,122.6867 178.622,115.378 184.6646,111.3354 189.148,108.852 191.0,108.0" stroke="#9467bd" stroke-opacity="0.5" stroke-width="2" /><circle cx="164.0" cy="78.0" fill="#8c564b" r="2" stroke="none" /><circle cx="164.2024" cy="81.2024" fill="#8c564b" r="2" stroke="none" /><circle cx="165.0" cy="87.4447" fill="#8c564b" r="2" stroke="none" /><circle cx="166.0" cy="96.8893" fill="#8c564b" r="2" stroke="none" /><circle cx="167.3711" cy="108.3711" fill="#8c564b" r="2" stroke="none" /><circle cx="168.0" cy="116.8741" fill="#8c564b" r="2" stroke="none" /><circle cx="167.0" cy="123.0325" fill="#8c564b" r="2" stroke="none" /><circle cx="167.2254" cy="126.2254" fill="#8c564b" r="2" stroke="none" /><circle cx="168.0" cy="127.0" fill="#8c564b" r="2" stroke="none" /><polyline fill="none" points="164.0,78.0 164.2024,81.2024 165.0,87.4447 166.0,96.8893 167.3711,108.3711 168.0,116.8741 167.0,123.0325 167.2254,126.2254 168.0,127.0" stroke="#8c564b" stroke-opacity="0.5" stroke-width="2" /><circle cx="165.0" cy="130.0" fill="#e377c2" r="2" stroke="none" /><circle cx="166.6801" cy="131.6801" fill="#e377c2" r="2" stroke="none" /><circle cx="168.4933" cy="134.4933" fill="#e377c2" r="2" stroke="none" /><circle cx="169.3333" cy="135.3333" fill="#e377c2" r="2" stroke="none" /><polyline fill="none" points="165.0,130.0 166.6801,131.6801 168.4933,134.4933 169.3333,135.3333" stroke="#e377c2" stroke-opacity="0.5" stroke-width="2" /><circle cx="169.0" cy="141.0" fill="#7f7f7f" r="2" stroke="none" /><circle cx="168.7839" cy="137.7839" fill="#7f7f7f" r="2" stroke="none" /><circle cx="169.5535" cy="135.4465" fill="#7f7f7f" r="2" stroke="none" /><circle cx="172.4766" cy="135.4766" fill="#7f7f7f" r="2" stroke="none" /><circle cx="176.2531" cy="137.0" fill="#7f7f7f" r="2" stroke="none" /><circle cx="183.1376" cy="139.0" fill="#7f7f7f" r="2" stroke="none" /><circle cx="191.9525" cy="139.0" fill="#7f7f7f" r="2" stroke="none" /><circle cx="203.4657" cy="137.5343" fill="#7f7f7f" r="2" stroke="none" /><circle cx="213.4346" cy="135.0" fill="#7f7f7f" r="2" stroke="none" /><circle cx="220.3191" cy="133.0" fill="#7f7f7f" r="2" stroke="none" /><circle cx="224.2209" cy="131.7791" fill="#7f7f7f" r="2" stroke="none" /><circle cx="225.0" cy="131.0" fill="#7f7f7f" r="2" stroke="none" /><polyline fill="none" points="169.0,141.0 168.7839,137.7839 169.5535,135.4465 172.4766,135.4766 176.2531,137.0 183.1376,139.0 191.9525,139.0 203.4657,137.5343 213.4346,135.0 220.3191,133.0 224.2209,131.7791 225.0,131.0" stroke="#7f7f7f" stroke-opacity="0.5" stroke-width="2" /><circle cx="228.0" cy="132.0" fill="#bcbd22" r="2" stroke="none" /><circle cx="225.0847" cy="131.0847" fill="#bcbd22" r="2" stroke="none" /><circle cx="223.3928" cy="127.3928" fill="#bcbd22" r="2" stroke="none" /><circle cx="222.0" cy="121.3808" fill="#bcbd22" r="2" stroke="none" /><circle cx="223.5614" cy="115.4386" fill="#bcbd22" r="2" stroke="none" /><circle cx="226.7368" cy="111.2632" fill="#bcbd22" r="2" stroke="none" /><circle cx="232.3883" cy="109.0" fill="#bcbd22" r="2" stroke="none" /><circle cx="237.0506" cy="109.0" fill="#bcbd22" r="2" stroke="none" /><circle cx="240.4348" cy="111.4348" fill="#bcbd22" r="2" stroke="none" /><circle cx="242.0" cy="115.179" fill="#bcbd22" r="2" stroke="none" /><circle cx="241.0" cy="120.2556" fill="#bcbd22" r="2" stroke="none" /><circle cx="237.5744" cy="125.4256" fill="#bcbd22" r="2" stroke="none" /><circle cx="232.466" cy="129.0" fill="#bcbd22" r="2" stroke="none" /><circle cx="230.0" cy="131.0" fill="#bcbd22" r="2" stroke="none" /><polyline fill="none" points="228.0,132.0 225.0847,131.0847 223.3928,127.3928 222.0,121.3808 223.5614,115.4386 226.7368,111.2632 232.3883,109.0 237.0506,109.0 240.4348,111.4348 242.0,115.179 241.0,120.2556 237.5744,125.4256 232.466,129.0 230.0,131.0" stroke="#bcbd22" stroke-opacity="0.5" stroke-width="2" /><circle cx="229.0" cy="132.0" fill="#17becf" r="2" stroke="none" /><circle cx="231.3227" cy="134.3227" fill="#17becf" r="2" stroke="none" /><circle cx="236.1025" cy="136.0" fill="#17becf" r="2" stroke="none" /><circle cx="244.0335" cy="138.0" fill="#17becf" r="2" stroke="none" /><circle cx="255.1762" cy="140.1762" fill="#17becf" r="2" stroke="none" /><circle cx="264.2751" cy="142.0" fill="#17becf" r="2" stroke="none" /><circle cx="270.8447" cy="142.0" fill="#17becf" r="2" stroke="none" /><circle cx="275.1587" cy="141.8413" fill="#17becf" r="2" stroke="none" /><circle cx="277.0" cy="141.0" fill="#17becf" r="2" stroke="none" /><polyline fill="none" points="229.0,132.0 231.3227,134.3227 236.1025,136.0 244.0335,138.0 255.1762,140.1762 264.2751,142.0 270.8447,142.0 275.1587,141.8413 277.0,141.0" stroke="#17becf" stroke-opacity="0.5" stroke-width="2" /><circle cx="352.0" cy="105.0" fill="#1f77b4" r="2" stroke="none" /><circle cx="351.0" cy="107.8769" fill="#1f77b4" r="2" stroke="none" /><circle cx="347.2084" cy="111.7916" fill="#1f77b4" r="2" stroke="none" /><circle cx="342.4169" cy="118.5831" fill="#1f77b4" r="2" stroke="none" /><circle cx="339.2454" cy="122.7546" fill="#1f77b4" r="2" stroke="none" /><circle cx="336.4701" cy="124.0" fill="#1f77b4" r="2" stroke="none" /><circle cx="334.0" cy="122.81" fill="#1f77b4" r="2" stroke="none" /><circle cx="334.0" cy="119.5189" fill="#1f77b4" r="2" stroke="none" /><circle cx="335.0" cy="113.3509" fill="#1f77b4" r="2" stroke="none" /><circle cx="338.8363" cy="106.1637" fill="#1f77b4" r="2" stroke="none" /><circle cx="342.8521" cy="100.1479" fill="#1f77b4" r="2" stroke="none" /><circle cx="348.0923" cy="96.9077" fill="#1f77b4" r="2" stroke="none" /><circle cx="352.0738" cy="96.0738" fill="#1f77b4" r="2" stroke="none" /><circle cx="355.4696" cy="98.4696" fill="#1f77b4" r="2" stroke="none" /><circle cx="359.0" cy="102.4924" fill="#1f77b4" r="2" stroke="none" /><circle cx="360.0" cy="107.5634" fill="#1f77b4" r="2" stroke="none" /><circle cx="358.0" cy="112.2201" fill="#1f77b4" r="2" stroke="none" /><circle cx="357.0" cy="114.0" fill="#1f77b4" r="2" stroke="none" /><polyline fill="none" points="352.0,105.0 351.0,107.8769 347.2084,111.7916 342.4169,118.5831 339.2454,122.7546 336.4701,124.0 334.0,122.81 334.0,119.5189 335.0,113.3509 338.8363,106.1637 342.8521,100.1479 348.0923,96.9077 352.0738,96.0738 355.4696,98.4696 359.0,102.4924 360.0,107.5634 358.0,112.2201 357.0,114.0" stroke="#1f77b4" stroke-opacity="0.5" stroke-width="2" /><circle cx="350.6667" cy="108.6667" fill="#ff7f0e" r="2" stroke="none" /><circle cx="352.9683" cy="110.9683" fill="#ff7f0e" r="2" stroke="none" /><circle cx="354.0" cy="115.966" fill="#ff7f0e" r="2" stroke="none" /><circle cx="355.6907" cy="120.6907" fill="#ff7f0e" r="2" stroke="none" /><circle cx="359.8197" cy="123.8197" fill="#ff7f0e" r="2" stroke="none" /><circle cx="363.0" cy="124.0" fill="#ff7f0e" r="2" stroke="none" /><polyline fill="none" points="350.6667,108.6667 352.9683,110.9683 354.0,115.966 355.6907,120.6907 359.8197,123.8197 363.0,124.0" stroke="#ff7f0e" stroke-opacity="0.5" stroke-width="2" /><circle cx="429.0" cy="96.0" fill="#2ca02c" r="2" stroke="none" /><circle cx="429.0" cy="99.2993" fill="#2ca02c" r="2" stroke="none" /><circle cx="429.0" cy="104.7982" fill="#2ca02c" r="2" stroke="none" /><circle cx="431.0" cy="111.6682" fill="#2ca02c" r="2" stroke="none" /><circle cx="435.4313" cy="116.4313" fill="#2ca02c" r="2" stroke="none" /><circle cx="442.0658" cy="119.0" fill="#2ca02c" r="2" stroke="none" /><circle cx="448.2502" cy="120.0" fill="#2ca02c" r="2" stroke="none" /><circle cx="454.0204" cy="118.0" fill="#2ca02c" r="2" stroke="none" /><circle cx="459.0" cy="112.938" fill="#2ca02c" r="2" stroke="none" /><circle cx="461.0" cy="107.1678" fill="#2ca02c" r="2" stroke="none" /><circle cx="460.0588" cy="102.0588" fill="#2ca02c" r="2" stroke="none" /><circle cx="456.7365" cy="95.7365" fill="#2ca02c" r="2" stroke="none" /><circle cx="453.5553" cy="91.5553" fill="#2ca02c" r="2" stroke="none" /><circle cx="452.0" cy="90.0" fill="#2ca02c" r="2" stroke="none" /><polyline fill="none" points="429.0,96.0 429.0,99.2993 429.0,104.7982 431.0,111.6682 435.4313,116.4313 442.0658,119.0 448.2502,120.0 454.0204,118.0 459.0,112.938 461.0,107.1678 460.0588,102.0588 456.7365,95.7365 453.5553,91.5553 452.0,90.0" stroke="#2ca02c" stroke-opacity="0.5" stroke-width="2" /><circle cx="494.0" cy="113.0" fill="#d62728" r="2" stroke="none" /><circle cx="490.711" cy="113.0" fill="#d62728" r="2" stroke="none" /><circle cx="485.7479" cy="111.7479" fill="#d62728" r="2" stroke="none" /><circle cx="482.0" cy="107.8186" fill="#d62728" r="2" stroke="none" /><circle cx="481.0" cy="102.751" fill="#d62728" r="2" stroke="none" /><circle cx="482.9309" cy="98.0691" fill="#d62728" r="2" stroke="none" /><circle cx="487.2377" cy="94.0" fill="#d62728" r="2" stroke="none" /><circle cx="492.5731" cy="91.0" fill="#d62728" r="2" stroke="none" /><circle cx="499.1512" cy="91.0" fill="#d62728" r="2" stroke="none" /><circle cx="504.1547" cy="92.1547" fill="#d62728" r="2" stroke="none" /><circle cx="507.0" cy="95.3615" fill="#d62728" r="2" stroke="none" /><circle cx="507.0" cy="100.0148" fill="#d62728" r="2" stroke="none" /><circle cx="503.8205" cy="104.1795" fill="#d62728" r="2" stroke="none" /><circle cx="499.1691" cy="108.8309" fill="#d62728" r="2" stroke="none" /><circle cx="495.7752" cy="111.2248" fill="#d62728" r="2" stroke="none" /><circle cx="495.0" cy="112.0" fill="#d62728" r="2" stroke="none" /><polyline fill="none" points="494.0,113.0 490.711,113.0 485.7479,111.7479 482.0,107.8186 481.0,102.751 482.9309,98.0691 487.2377,94.0 492.5731,91.0 499.1512,91.0 504.1547,92.1547 507.0,95.3615 507.0,100.0148 503.8205,104.1795 499.1691,108.8309 495.7752,111.2248 495.0,112.0" stroke="#d62728" stroke-opacity="0.5" stroke-width="2" /><circle cx="494.6667" cy="112.6667" fill="#9467bd" r="2" stroke="none" /><circle cx="495.4448" cy="113.4448" fill="#9467bd" r="2" stroke="none" /><circle cx="498.1021" cy="115.0" fill="#9467bd" r="2" stroke="none" /><circle cx="503.6045" cy="115.0" fill="#9467bd" r="2" stroke="none" /><circle cx="510.6319" cy="113.3681" fill="#9467bd" r="2" stroke="none" /><circle cx="520.2415" cy="110.0" fill="#9467bd" r="2" stroke="none" /><circle cx="526.7894" cy="107.2106" fill="#9467bd" r="2" stroke="none" /><circle cx="531.0" cy="102.2447" fill="#9467bd" r="2" stroke="none" /><circle cx="532.0" cy="97.1565" fill="#9467bd" r="2" stroke="none" /><circle cx="534.508" cy="90.492" fill="#9467bd" r="2" stroke="none" /><circle cx="538.6644" cy="86.0" fill="#9467bd" r="2" stroke="none" /><circle cx="543.5321" cy="84.4679" fill="#9467bd" r="2" stroke="none" /><circle cx="548.3016" cy="85.3016" fill="#9467bd" r="2" stroke="none" /><circle cx="550.929" cy="86.929" fill="#9467bd" r="2" stroke="none" /><circle cx="551.0" cy="88.0" fill="#9467bd" r="2" stroke="none" /><polyline fill="none" points="494.6667,112.6667 495.4448,113.4448 498.1021,115.0 503.6045,115.0 510.6319,113.3681 520.2415,110.0 526.7894,107.2106 531.0,102.2447 532.0,97.1565 534.508,90.492 538.6644,86.0 543.5321,84.4679 548.3016,85.3016 550.929,86.929 551.0,88.0" stroke="#9467bd" stroke-opacity="0.5" stroke-width="2" /><circle cx="530.0" cy="106.0" fill="#8c564b" r="2" stroke="none" /><circle cx="531.0" cy="108.9408" fill="#8c564b" r="2" stroke="none" /><circle cx="531.9163" cy="111.9163" fill="#8c564b" r="2" stroke="none" /><circle cx="533.0" cy="112.0" fill="#8c564b" r="2" stroke="none" /><polyline fill="none" points="530.0,106.0 531.0,108.9408 531.9163,111.9163 533.0,112.0" stroke="#8c564b" stroke-opacity="0.5" stroke-width="2" /><circle cx="565.0" cy="86.0" fill="#e377c2" r="2" stroke="none" /><circle cx="565.1406" cy="88.1406" fill="#e377c2" r="2" stroke="none" /><circle cx="567.0" cy="91.7679" fill="#e377c2" r="2" stroke="none" /><circle cx="572.086" cy="95.086" fill="#e377c2" r="2" stroke="none" /><circle cx="579.4766" cy="98.4766" fill="#e377c2" r="2" stroke="none" /><circle cx="588.055" cy="99.0" fill="#e377c2" r="2" stroke="none" /><circle cx="594.6513" cy="99.0" fill="#e377c2" r="2" stroke="none" /><circle cx="598.7417" cy="99.7417" fill="#e377c2" r="2" stroke="none" /><circle cx="600.0" cy="101.4192" fill="#e377c2" r="2" stroke="none" /><circle cx="598.0785" cy="103.9215" fill="#e377c2" r="2" stroke="none" /><circle cx="594.1213" cy="108.8787" fill="#e377c2" r="2" stroke="none" /><circle cx="587.832" cy="116.168" fill="#e377c2" r="2" stroke="none" /><circle cx="580.6247" cy="126.3753" fill="#e377c2" r="2" stroke="none" /><circle cx="576.0" cy="135.4536" fill="#e377c2" r="2" stroke="none" /><circle cx="574.0" cy="144.5197" fill="#e377c2" r="2" stroke="none" /><circle cx="573.0" cy="150.7018" fill="#e377c2" r="2" stroke="none" /><circle cx="573.0" cy="154.0" fill="#e377c2" r="2" stroke="none" /><polyline fill="none" points="565.0,86.0 565.1406,88.1406 567.0,91.7679 572.086,95.086 579.4766,98.4766 588.055,99.0 594.6513,99.0 598.7417,99.7417 600.0,101.4192 598.0785,103.9215 594.1213,108.8787 587.832,116.168 580.6247,126.3753 576.0,135.4536 574.0,144.5197 573.0,150.7018 573.0,154.0" stroke="#e377c2" stroke-opacity="0.5" stroke-width="2" /><circle cx="599.6667" cy="100.3333" fill="#7f7f7f" r="2" stroke="none" /><circle cx="601.9725" cy="98.0275" fill="#7f7f7f" r="2" stroke="none" /><circle cx="604.4013" cy="93.5987" fill="#7f7f7f" r="2" stroke="none" /><circle cx="606.0" cy="91.0" fill="#7f7f7f" r="2" stroke="none" /><polyline fill="none" points="599.6667,100.3333 601.9725,98.0275 604.4013,93.5987 606.0,91.0" stroke="#7f7f7f" stroke-opacity="0.5" stroke-width="2" /><circle cx="675.0" cy="101.0" fill="#bcbd22" r="2" stroke="none" /><circle cx="677.926" cy="101.926" fill="#bcbd22" r="2" stroke="none" /><circle cx="683.4113" cy="102.0" fill="#bcbd22" r="2" stroke="none" /><circle cx="689.6162" cy="101.0" fill="#bcbd22" r="2" stroke="none" /><circle cx="693.1418" cy="98.8582" fill="#bcbd22" r="2" stroke="none" /><circle cx="694.4451" cy="95.4451" fill="#bcbd22" r="2" stroke="none" /><circle cx="692.812" cy="92.812" fill="#bcbd22" r="2" stroke="none" /><circle cx="688.6187" cy="89.6187" fill="#bcbd22" r="2" stroke="none" /><circle cx="681.2922" cy="86.0" fill="#bcbd22" r="2" stroke="none" /><circle cx="676.2333" cy="82.2333" fill="#bcbd22" r="2" stroke="none" /><circle cx="673.8201" cy="78.8201" fill="#bcbd22" r="2" stroke="none" /><circle cx="673.0329" cy="76.9671" fill="#bcbd22" r="2" stroke="none" /><circle cx="675.5277" cy="75.0" fill="#bcbd22" r="2" stroke="none" /><circle cx="681.3184" cy="73.0" fill="#bcbd22" r="2" stroke="none" /><circle cx="688.6265" cy="72.0" fill="#bcbd22" r="2" stroke="none" /><circle cx="695.6608" cy="73.6608" fill="#bcbd22" r="2" stroke="none" /><circle cx="700.147" cy="76.147" fill="#bcbd22" r="2" stroke="none" /><circle cx="702.0" cy="77.0" fill="#bcbd22" r="2" stroke="none" /><polyline fill="none" points="675.0,101.0 677.926,101.926 683.4113,102.0 689.6162,101.0 693.1418,98.8582 694.4451,95.4451 692.812,92.812 688.6187,89.6187 681.2922,86.0 676.2333,82.2333 673.8201,78.8201 673.0329,76.9671 675.5277,75.0 681.3184,73.0 688.6265,72.0 695.6608,73.6608 700.147,76.147 702.0,77.0" stroke="#bcbd22" stroke-opacity="0.5" stroke-width="2" /><circle cx="724.0" cy="78.0" fill="#17becf" r="2" stroke="none" /><circle cx="724.0" cy="80.2067" fill="#17becf" r="2" stroke="none" /><circle cx="725.0" cy="85.3093" fill="#17becf" r="2" stroke="none" /><circle cx="726.3644" cy="91.3644" fill="#17becf" r="2" stroke="none" /><circle cx="728.7781" cy="94.7781" fill="#17becf" r="2" stroke="none" /><circle cx="731.9962" cy="95.0" fill="#17becf" r="2" stroke="none" /><circle cx="735.411" cy="92.589" fill="#17becf" r="2" stroke="none" /><circle cx="740.0922" cy="87.9078" fill="#17becf" r="2" stroke="none" /><circle cx="742.5059" cy="84.4941" fill="#17becf" r="2" stroke="none" /><circle cx="745.7663" cy="83.7663" fill="#17becf" r="2" stroke="none" /><circle cx="747.0" cy="85.462" fill="#17becf" r="2" stroke="none" /><circle cx="749.7404" cy="88.7404" fill="#17becf" r="2" stroke="none" /><circle cx="752.9429" cy="89.0" fill="#17becf" r="2" stroke="none" /><circle cx="757.4464" cy="86.5536" fill="#17becf" r="2" stroke="none" /><circle cx="761.4205" cy="81.5795" fill="#17becf" r="2" stroke="none" /><circle cx="765.8688" cy="79.0" fill="#17becf" r="2" stroke="none" /><circle cx="769.3209" cy="79.3209" fill="#17becf" r="2" stroke="none" /><circle cx="771.0" cy="81.9356" fill="#17becf" r="2" stroke="none" /><circle cx="774.0" cy="87.3131" fill="#17becf" r="2" stroke="none" /><circle cx="777.0742" cy="92.0742" fill="#17becf" r="2" stroke="none" /><circle cx="781.7933" cy="94.0" fill="#17becf" r="2" stroke="none" /><circle cx="784.0" cy="94.0" fill="#17becf" r="2" stroke="none" /><polyline fill="none" points="724.0,78.0 724.0,80.2067 725.0,85.3093 726.3644,91.3644 728.7781,94.7781 731.9962,95.0 735.411,92.589 740.0922,87.9078 742.5059,84.4941 745.7663,83.7663 747.0,85.462 749.7404,88.7404 752.9429,89.0 757.4464,86.5536 761.4205,81.5795 765.8688,79.0 769.3209,79.3209 771.0,81.9356 774.0,87.3131 777.0742,92.0742 781.7933,94.0 784.0,94.0" stroke="#17becf" stroke-opacity="0.5" stroke-width="2" /><circle cx="829.0" cy="80.0" fill="#1f77b4" r="2" stroke="none" /><circle cx="827.452" cy="81.548" fill="#1f77b4" r="2" stroke="none" /><circle cx="823.5821" cy="85.4179" fill="#1f77b4" r="2" stroke="none" /><circle cx="817.7666" cy="87.2334" fill="#1f77b4" r="2" stroke="none" /><circle cx="813.0254" cy="87.0" fill="#1f77b4" r="2" stroke="none" /><circle cx="810.0" cy="84.4755" fill="#1f77b4" r="2" stroke="none" /><circle cx="809.0" cy="79.4168" fill="#1f77b4" r="2" stroke="none" /><circle cx="811.2279" cy="73.7721" fill="#1f77b4" r="2" stroke="none" /><circle cx="816.2316" cy="68.7684" fill="#1f77b4" r="2" stroke="none" /><circle cx="820.972" cy="67.0" fill="#1f77b4" r="2" stroke="none" /><circle cx="824.9548" cy="67.9548" fill="#1f77b4" r="2" stroke="none" /><circle cx="827.3436" cy="71.3436" fill="#1f77b4" r="2" stroke="none" /><circle cx="830.0" cy="75.7163" fill="#1f77b4" r="2" stroke="none" /><circle cx="830.0" cy="79.0" fill="#1f77b4" r="2" stroke="none" /><polyline fill="none" points="829.0,80.0 827.452,81.548 823.5821,85.4179 817.7666,87.2334 813.0254,87.0 810.0,84.4755 809.0,79.4168 811.2279,73.7721 816.2316,68.7684 820.972,67.0 824.9548,67.9548 827.3436,71.3436 830.0,75.7163 830.0,79.0" stroke="#1f77b4" stroke-opacity="0.5" stroke-width="2" /><circle cx="829.6667" cy="79.6667" fill="#ff7f0e" r="2" stroke="none" /><circle cx="831.9957" cy="81.9957" fill="#ff7f0e" r="2" stroke="none" /><circle cx="836.1703" cy="85.1703" fill="#ff7f0e" r="2" stroke="none" /><circle cx="840.2184" cy="86.0" fill="#ff7f0e" r="2" stroke="none" /><circle cx="842.0" cy="85.0" fill="#ff7f0e" r="2" stroke="none" /><polyline fill="none" points="829.6667,79.6667 831.9957,81.9957 836.1703,85.1703 840.2184,86.0 842.0,85.0" stroke="#ff7f0e" stroke-opacity="0.5" stroke-width="2" /><circle cx="856.0" cy="26.0" fill="#2ca02c" r="2" stroke="none" /><circle cx="858.0" cy="27.8756" fill="#2ca02c" r="2" stroke="none" /><circle cx="858.8924" cy="31.8924" fill="#2ca02c" r="2" stroke="none" /><circle cx="859.0" cy="38.4275" fill="#2ca02c" r="2" stroke="none" /><circle cx="858.0" cy="46.7862" fill="#2ca02c" r="2" stroke="none" /><circle cx="857.0" cy="58.4348" fill="#2ca02c" r="2" stroke="none" /><circle cx="857.0" cy="68.3043" fill="#2ca02c" r="2" stroke="none" /><circle cx="858.0" cy="75.5664" fill="#2ca02c" r="2" stroke="none" /><circle cx="860.1563" cy="80.1563" fill="#2ca02c" r="2" stroke="none" /><circle cx="861.0" cy="82.0" fill="#2ca02c" r="2" stroke="none" /><polyline fill="none" points="856.0,26.0 858.0,27.8756 858.8924,31.8924 859.0,38.4275 858.0,46.7862 857.0,58.4348 857.0,68.3043 858.0,75.5664 860.1563,80.1563 861.0,82.0" stroke="#2ca02c" stroke-opacity="0.5" stroke-width="2" /><circle cx="877.3333" cy="45.6667" fill="#d62728" r="2" stroke="none" /><circle cx="877.3796" cy="42.6204" fill="#d62728" r="2" stroke="none" /><circle cx="879.1265" cy="37.8735" fill="#d62728" r="2" stroke="none" /><circle cx="882.0" cy="33.5933" fill="#d62728" r="2" stroke="none" /><circle cx="883.1806" cy="32.0" fill="#d62728" r="2" stroke="none" /><circle cx="884.9679" cy="32.9679" fill="#d62728" r="2" stroke="none" /><circle cx="885.3518" cy="36.6482" fill="#d62728" r="2" stroke="none" /><circle cx="883.0" cy="41.1445" fill="#d62728" r="2" stroke="none" /><circle cx="878.6702" cy="45.3298" fill="#d62728" r="2" stroke="none" /><circle cx="875.0" cy="48.6942" fill="#d62728" r="2" stroke="none" /><circle cx="873.4029" cy="54.5971" fill="#d62728" r="2" stroke="none" /><circle cx="874.477" cy="61.477" fill="#d62728" r="2" stroke="none" /><circle cx="878.0" cy="67.6764" fill="#d62728" r="2" stroke="none" /><circle cx="882.7724" cy="72.7724" fill="#d62728" r="2" stroke="none" /><circle cx="885.8669" cy="75.8669" fill="#d62728" r="2" stroke="none" /><circle cx="886.0" cy="78.0" fill="#d62728" r="2" stroke="none" /><polyline fill="none" points="877.3333,45.6667 877.3796,42.6204 879.1265,37.8735 882.0,33.5933 883.1806,32.0 884.9679,32.9679 885.3518,36.6482 883.0,41.1445 878.6702,45.3298 875.0,48.6942 873.4029,54.5971 874.477,61.477 878.0,67.6764 882.7724,72.7724 885.8669,75.8669 886.0,78.0" stroke="#d62728" stroke-opacity="0.5" stroke-width="2" /><circle cx="967.3333" cy="76.3333" fill="#9467bd" r="2" stroke="none" /><circle cx="966.0" cy="73.6083" fill="#9467bd" r="2" stroke="none" /><circle cx="966.0" cy="68.1462" fill="#9467bd" r="2" stroke="none" /><circle cx="966.0" cy="60.4991" fill="#9467bd" r="2" stroke="none" /><circle cx="966.0" cy="49.5748" fill="#9467bd" r="2" stroke="none" /><circle cx="967.0" cy="37.9723" fill="#9467bd" r="2" stroke="none" /><circle cx="967.5425" cy="29.4575" fill="#9467bd" r="2" stroke="none" /><circle cx="968.0" cy="24.1849" fill="#9467bd" r="2" stroke="none" /><circle cx="968.0" cy="22.0" fill="#9467bd" r="2" stroke="none" /><polyline fill="none" points="967.3333,76.3333 966.0,73.6083 966.0,68.1462 966.0,60.4991 966.0,49.5748 967.0,37.9723 967.5425,29.4575 968.0,24.1849 968.0,22.0" stroke="#9467bd" stroke-opacity="0.5" stroke-width="2" /><circle cx="966.0" cy="78.0" fill="#8c564b" r="2" stroke="none" /><circle cx="968.3329" cy="75.6671" fill="#8c564b" r="2" stroke="none" /><circle cx="972.0" cy="71.6874" fill="#8c564b" r="2" stroke="none" /><circle cx="977.735" cy="65.265" fill="#8c564b" r="2" stroke="none" /><circle cx="982.6937" cy="61.3063" fill="#8c564b" r="2" stroke="none" /><circle cx="986.39" cy="60.39" fill="#8c564b" r="2" stroke="none" /><circle cx="987.9453" cy="61.9453" fill="#8c564b" r="2" stroke="none" /><circle cx="988.2274" cy="66.2274" fill="#8c564b" r="2" stroke="none" /><circle cx="989.0" cy="73.6055" fill="#8c564b" r="2" stroke="none" /><circle cx="990.0" cy="81.9892" fill="#8c564b" r="2" stroke="none" /><circle cx="993.0" cy="88.4447" fill="#8c564b" r="2" stroke="none" /><circle cx="996.7884" cy="91.7884" fill="#8c564b" r="2" stroke="none" /><circle cx="1000.0" cy="92.0" fill="#8c564b" r="2" stroke="none" /><polyline fill="none" points="966.0,78.0 968.3329,75.6671 972.0,71.6874 977.735,65.265 982.6937,61.3063 986.39,60.39 987.9453,61.9453 988.2274,66.2274 989.0,73.6055 990.0,81.9892 993.0,88.4447 996.7884,91.7884 1000.0,92.0" stroke="#8c564b" stroke-opacity="0.5" stroke-width="2" /><circle cx="1031.6667" cy="60.3333" fill="#e377c2" r="2" stroke="none" /><circle cx="1029.5459" cy="60.0" fill="#e377c2" r="2" stroke="none" /><circle cx="1025.9755" cy="62.0" fill="#e377c2" r="2" stroke="none" /><circle cx="1019.6607" cy="65.3393" fill="#e377c2" r="2" stroke="none" /><circle cx="1013.8541" cy="71.1459" fill="#e377c2" r="2" stroke="none" /><circle cx="1011.0" cy="77.6617" fill="#e377c2" r="2" stroke="none" /><circle cx="1011.1133" cy="83.1133" fill="#e377c2" r="2" stroke="none" /><circle cx="1013.0" cy="86.7306" fill="#e377c2" r="2" stroke="none" /><circle cx="1018.061" cy="90.061" fill="#e377c2" r="2" stroke="none" /><circle cx="1024.2703" cy="91.0" fill="#e377c2" r="2" stroke="none" /><circle cx="1031.1398" cy="89.0" fill="#e377c2" r="2" stroke="none" /><circle cx="1037.1279" cy="84.8721" fill="#e377c2" r="2" stroke="none" /><circle cx="1041.0" cy="80.9774" fill="#e377c2" r="2" stroke="none" /><circle cx="1042.0" cy="76.9928" fill="#e377c2" r="2" stroke="none" /><circle cx="1040.2282" cy="72.2282" fill="#e377c2" r="2" stroke="none" /><circle cx="1035.9062" cy="66.9062" fill="#e377c2" r="2" stroke="none" /><circle cx="1032.7253" cy="62.7253" fill="#e377c2" r="2" stroke="none" /><circle cx="1032.1933" cy="59.8067" fill="#e377c2" r="2" stroke="none" /><circle cx="1034.5262" cy="57.4738" fill="#e377c2" r="2" stroke="none" /><circle cx="1037.9295" cy="55.0705" fill="#e377c2" r="2" stroke="none" /><circle cx="1039.0" cy="55.0" fill="#e377c2" r="2" stroke="none" /><polyline fill="none" points="1031.6667,60.3333 1029.5459,60.0 1025.9755,62.0 1019.6607,65.3393 1013.8541,71.1459 1011.0,77.6617 1011.1133,83.1133 1013.0,86.7306 1018.061,90.061 1024.2703,91.0 1031.1398,89.0 1037.1279,84.8721 1041.0,80.9774 1042.0,76.9928 1040.2282,72.2282 1035.9062,66.9062 1032.7253,62.7253 1032.1933,59.8067 1034.5262,57.4738 1037.9295,55.0705 1039.0,55.0" stroke="#e377c2" stroke-opacity="0.5" stroke-width="2" /><circle cx="1052.0" cy="25.0" fill="#7f7f7f" r="2" stroke="none" /><circle cx="1052.1424" cy="27.1424" fill="#7f7f7f" r="2" stroke="none" /><circle cx="1053.0" cy="32.2906" fill="#7f7f7f" r="2" stroke="none" /><circle cx="1053.0" cy="39.9955" fill="#7f7f7f" r="2" stroke="none" /><circle cx="1053.0" cy="48.801" fill="#7f7f7f" r="2" stroke="none" /><circle cx="1053.0" cy="60.0802" fill="#7f7f7f" r="2" stroke="none" /><circle cx="1053.0" cy="69.9864" fill="#7f7f7f" r="2" stroke="none" /><circle cx="1055.0" cy="77.9635" fill="#7f7f7f" r="2" stroke="none" /><circle cx="1058.0" cy="83.325" fill="#7f7f7f" r="2" stroke="none" /><circle cx="1060.9288" cy="85.9288" fill="#7f7f7f" r="2" stroke="none" /><circle cx="1062.0" cy="86.0" fill="#7f7f7f" r="2" stroke="none" /><polyline fill="none" points="1052.0,25.0 1052.1424,27.1424 1053.0,32.2906 1053.0,39.9955 1053.0,48.801 1053.0,60.0802 1053.0,69.9864 1055.0,77.9635 1058.0,83.325 1060.9288,85.9288 1062.0,86.0" stroke="#7f7f7f" stroke-opacity="0.5" stroke-width="2" /><circle cx="1073.0" cy="73.0" fill="#bcbd22" r="2" stroke="none" /><circle cx="1075.1404" cy="73.1404" fill="#bcbd22" r="2" stroke="none" /><circle cx="1079.9056" cy="73.0944" fill="#bcbd22" r="2" stroke="none" /><circle cx="1086.5184" cy="70.4816" fill="#bcbd22" r="2" stroke="none" /><circle cx="1093.6155" cy="66.3845" fill="#bcbd22" r="2" stroke="none" /><circle cx="1097.795" cy="63.205" fill="#bcbd22" r="2" stroke="none" /><circle cx="1099.0" cy="60.4063" fill="#bcbd22" r="2" stroke="none" /><circle cx="1097.5923" cy="56.5923" fill="#bcbd22" r="2" stroke="none" /><circle cx="1094.2689" cy="54.0" fill="#bcbd22" r="2" stroke="none" /><circle cx="1089.8718" cy="54.0" fill="#bcbd22" r="2" stroke="none" /><circle cx="1084.3668" cy="56.6332" fill="#bcbd22" r="2" stroke="none" /><circle cx="1080.4101" cy="61.5899" fill="#bcbd22" r="2" stroke="none" /><circle cx="1079.0" cy="66.5023" fill="#bcbd22" r="2" stroke="none" /><circle cx="1080.4133" cy="71.4133" fill="#bcbd22" r="2" stroke="none" /><circle cx="1084.5662" cy="77.5662" fill="#bcbd22" r="2" stroke="none" /><circle cx="1091.5239" cy="82.0" fill="#bcbd22" r="2" stroke="none" /><circle cx="1101.2741" cy="85.0" fill="#bcbd22" r="2" stroke="none" /><circle cx="1111.8527" cy="86.0" fill="#bcbd22" r="2" stroke="none" /><circle cx="1119.1335" cy="87.0" fill="#bcbd22" r="2" stroke="none" /><circle cx="1123.8596" cy="88.8596" fill="#bcbd22" r="2" stroke="none" /><circle cx="1126.0" cy="89.0" fill="#bcbd22" r="2" stroke="none" /><polyline fill="none" points="1073.0,73.0 1075.1404,73.1404 1079.9056,73.0944 1086.5184,70.4816 1093.6155,66.3845 1097.795,63.205 1099.0,60.4063 1097.5923,56.5923 1094.2689,54.0 1089.8718,54.0 1084.3668,56.6332 1080.4101,61.5899 1079.0,66.5023 1080.4133,71.4133 1084.5662,77.5662 1091.5239,82.0 1101.2741,85.0 1111.8527,86.0 1119.1335,87.0 1123.8596,88.8596 1126.0,89.0" stroke="#bcbd22" stroke-opacity="0.5" stroke-width="2" /></svg>