<?xml version="1.0" encoding="utf-8" ?>
<svg baseProfile="tiny" height="200px" version="1.2" width="1140px" xmlns="http://www.w3.org/2000/svg" xmlns:ev="http://www.w3.org/2001/xml-events" xmlns:xlink="http://www.w3.org/1999/xlink"><defs /><rect fill="white" height="100%" width="100%" x="0" y="0" /><circle cx="21.0" cy="24.0" fill="#1f77b4" r="2" stroke="none" /><circle cx="22.1929" cy="26.1929" fill="#1f77b4" r="2" stroke="none" /><circle cx="25.4748" cy="28.0" fill="#1f77b4" r="2" stroke="none" /><circle cx="29.0911" cy="27.0" fill="#1f77b4" r="2" stroke="none" /><circle cx="36.3236" cy="25.0" fill="#1f77b4" r="2" stroke="none" /><circle cx="47.1218" cy="21.8782" fill="#1f77b4" r="2" stroke="none" /><circle cx="55.7483" cy="20.0" fill="#1f77b4" r="2" stroke="none" /><circle cx="61.0865" cy="20.0865" fill="#1f77b4" r="2" stroke="none" /><circle cx="63.9364" cy="22.9364" fill="#1f77b4" r="2" stroke="none" /><circle cx="64.8492" cy="29.1508" fill="#1f77b4" r="2" stroke="none" /><circle cx="62.6848" cy="36.3152" fill="#1f77b4" r="2" stroke="none" /><circle cx="58.3775" cy="46.6225" fill="#1f77b4" r="2" stroke="none" /><circle cx="52.0" cy="60.1027" fill="#1f77b4" r="2" stroke="none" /><circle cx="45.0" cy="77.3556" fill="#1f77b4" r="2" stroke="none" /><circle cx="41.0" cy="93.1641" fill="#1f77b4" r="2" stroke="none" /><circle cx="39.0" cy="105.7705" fill="#1f77b4" r="2" stroke="none" /><circle cx="38.0" cy="114.7607" fill="#1f77b4" r="2" stroke="none" /><circle cx="39.0" cy="121.064" fill="#1f77b4" r="2" stroke="none" /><circle cx="40.481" cy="124.481" fill="#1f77b4" r="2" stroke="none" /><circle cx="44.8667" cy="125.1333" fill="#1f77b4" r="2" stroke="none" /><circle cx="48.9596" cy="122.0404" fill="#1f77b4" r="2" stroke="none" /><circle cx="53.9524" cy="116.0476" fill="#1f77b4" r="2" stroke="none" /><circle cx="60.0" cy="106.4612" fill="#1f77b4" r="2" stroke="none" /><circle cx="67.5383" cy="93.4617" fill="#1f77b4" r="2" stroke="none" /><circle cx="74.9168" cy="83.0832" fill="#1f77b4" r="2" stroke="none" /><circle cx="80.8143" cy="75.1857" fill="#1f77b4" r="2" stroke="none" /><circle cx="84.15" cy="69.85" fill="#1f77b4" r="2" stroke="none" /><circle cx="85.0" cy="67.0" fill="#1f77b4" r="2" stroke="none" /><polyline fill="none" points="21.0,24.0 22.1929,26.1929 25.4748,28.0 29.0911,27.0 36.3236,25.0 47.1218,21.8782 55.7483,20.0 61.0865,20.0865 63.9364,22.9364 64.8492,29.1508 62.6848,36.3152 58.3775,46.6225 52.0,60.1027 45.0,77.3556 41.0,93.1641 39.0,105.7705 38.0,114.7607 39.0,121.064 40.481,124.481 44.8667,125.1333 48.9596,122.0404 53.9524,116.0476 60.0,106.4612 67.5383,93.4617 74.9168,83.0832 80.8143,75.1857 84.15,69.85 85.0,67.0" stroke="#1f77b4" stroke-opacity="0.5" stroke-width="2" /><circle cx="85.0" cy="69.0" fill="#ff7f0e" r="2" stroke="none" /><circle cx="85.1836" cy="65.8164" fill="#ff7f0e" r="2" stroke="none" /><circle cx="88.0" cy="60.4664" fill="#ff7f0e" r="2" stroke="none" /><circle cx="91.0" cy="55.1924" fill="#ff7f0e" r="2" stroke="none" /><circle cx="92.0" cy="53.0" fill="#ff7f0e" r="2" stroke="none" /><polyline fill="none" points="85.0,69.0 85.1836,65.8164 88.0,60.4664 91.0,55.1924 92.0,53.0" stroke="#ff7f0e" stroke-opacity="0.5" stroke-width="2" /><circle cx="77.0" cy="82.0" fill="#2ca02c" r="2" stroke="none" /><circle cx="78.8682" cy="85.1318" fill="#2ca02c" r="2" stroke="none" /><circle cx="77.0" cy="89.711" fill="#2ca02c" r="2" stroke="none" /><circle cx="75.0" cy="98.2503" fill="#2ca02c" r="2" stroke="none" /><circle cx="73.0" cy="110.8045" fill="#2ca02c" r="2" stroke="none" /><circle cx="72.0" cy="119.7581" fill="#2ca02c" r="2" stroke="none" /><circle cx="73.0" cy="126.0352" fill="#2ca02c" r="2" stroke="none" /><circle cx="74.4495" cy="129.4495" fill="#2ca02c" r="2" stroke="none" /><circle cx="79.1134" cy="130.8866" fill="#2ca02c" r="2" stroke="none" /><circle cx="83.4843" cy="128.5157" fill="#2ca02c" r="2" stroke="none" /><circle cx="88.0" cy="122.3566" fill="#2ca02c" r="2" stroke="none" /><circle cx="94.1432" cy="112.8568" fill="#2ca02c" r="2" stroke="none" /><circle cx="101.0" cy="99.6379" fill="#2ca02c" r="2" stroke="none" /><circle cx="108.8473" cy="84.1527" fill="#2ca02c" r="2" stroke="none" /><circle cx="117.1456" cy="68.8544" fill="#2ca02c" r="2" stroke="none" /><circle cx="124.0193" cy="56.9807" fill="#2ca02c" r="2" stroke="none" /><circle cx="128.0541" cy="47.9459" fill="#2ca02c" r="2" stroke="none" /><circle cx="132.7365" cy="42.2635" fill="#2ca02c" r="2" stroke="none" /><circle cx="134.8682" cy="39.1318" fill="#2ca02c" r="2" stroke="none" /><circle cx="133.0" cy="36.0" fill="#2ca02c" r="2" stroke="none" /><polyline fill="none" points="77.0,82.0 78.8682,85.1318 77.0,89.711 75.0,98.2503 73.0,110.8045 72.0,119.7581 73.0,126.0352 74.4495,129.4495 79.1134,130.8866 83.4843,128.5157 88.0,122.3566 94.1432,112.8568 101.0,99.6379 108.8473,84.1527 117.1456,68.8544 124.0193,56.9807 128.0541,47.9459 132.7365,42.2635 134.8682,39.1318 133.0,36.0" stroke="#2ca02c" stroke-opacity="0.5" stroke-width="2" /><circle cx="131.0" cy="43.0" fill="#d62728" r="2" stroke="none" /><circle cx="130.3964" cy="39.6036" fill="#d62728" r="2" stroke="none" /><circle cx="131.3333" cy="38.6667" fill="#d62728" r="2" stroke="none" /><polyline fill="none" points="131.0,43.0 130.3964,39.6036 131.3333,38.6667" stroke="#d62728" stroke-opacity="0.5" stroke-width="2" /><circle cx="133.6667" cy="40.3333" fill="#9467bd" r="2" stroke="none" /><circle cx="132.6157" cy="39.6157" fill="#9467bd" r="2" stroke="none" /><circle cx="132.4083" cy="35.7959" fill="#9467bd" r="2" stroke="none" /><circle cx="135.8843" cy="31.1157" fill="#9467bd" r="2" stroke="none" /><circle cx="137.0" cy="29.0" fill="#9467bd" r="2" stroke="none" /><polyline fill="none" points="133.6667,40.3333 132.6157,39.6157 132.4083,35.7959 135.8843,31.1157 137.0,29.0" stroke="#9467bd" stroke-opacity="0.5" stroke-width="2" /><circle cx="100.0" cy="115.0" fill="#8c564b" r="2" stroke="none" /><circle cx="102.4754" cy="114.5246" fill="#8c564b" r="2" stroke="none" /><circle cx="108.0782" cy="111.9218" fill="#8c564b" r="2" stroke="none" /><circle cx="114.3329" cy="107.6671" fill="#8c564b" r="2" stroke="none" /><circle cx="121.8914" cy="100.1086" fill="#8c564b" r="2" stroke="none" /><circle cx="130.6324" cy="90.3676" fill="#8c564b" r="2" stroke="none" /><circle cx="141.0" cy="78.2851" fill="#8c564b" r="2" stroke="none" /><circle cx="149.3077" cy="65.6923" fill="#8c564b" r="2" stroke="none" /><circle cx="159.7054" cy="56.2946" fill="#8c564b" r="2" stroke="none" /><circle cx="166.0874" cy="46.9126" fill="#8c564b" r="2" stroke="none" /><circle cx="169.635" cy="40.365" fill="#8c564b" r="2" stroke="none" /><circle cx="170.9448" cy="36.9448" fill="#8c564b" r="2" stroke="none" /><circle cx="170.0" cy="36.0" fill="#8c564b" r="2" stroke="none" /><polyline fill="none" points="100.0,115.0 102.4754,114.5246 108.0782,111.9218 114.3329,107.6671 121.8914,100.1086 130.6324,90.3676 141.0,78.2851 149.3077,65.6923 159.7054,56.2946 166.0874,46.9126 169.635,40.365 170.9448,36.9448 170.0,36.0" stroke="#8c564b" stroke-opacity="0.5" stroke-width="2" /><circle cx="135.0" cy="88.0" fill="#e377c2" r="2" stroke="none" /><circle cx="135.0" cy="91.2187" fill="#e377c2" r="2" stroke="none" /><circle cx="132.4439" cy="95.5561" fill="#e377c2" r="2" stroke="none" /><circle cx="129.302" cy="103.698" fill="#e377c2" r="2" stroke="none" /><circle cx="127.3608" cy="109.6392" fill="#e377c2" r="2" stroke="none" /><circle cx="127.3796" cy="113.3796" fill="#e377c2" r="2" stroke="none" /><circle cx="129.8207" cy="114.0" fill="#e377c2" r="2" stroke="none" /><circle cx="132.735" cy="111.265" fill="#e377c2" r="2" stroke="none" /><circle cx="137.0" cy="104.9374" fill="#e377c2" r="2" stroke="none" /><circle cx="143.2614" cy="96.7386" fill="#e377c2" r="2" stroke="none" /><circle cx="151.6767" cy="91.0" fill="#e377c2" r="2" stroke="none" /><circle cx="156.7651" cy="87.0" fill="#e377c2" r="2" stroke="none" /><circle cx="160.2814" cy="86.2814" fill="#e377c2" r="2" stroke="none" /><circle cx="161.2354" cy="87.2354" fill="#e377c2" r="2" stroke="none" /><circle cx="161.0703" cy="91.9297" fill="#e377c2" r="2" stroke="none" /><circle cx="159.0" cy="99.1664" fill="#e377c2" r="2" stroke="none" /><circle cx="157.0" cy="106.4323" fill="#e377c2" r="2" stroke="none" /><circle cx="156.0461" cy="110.0461" fill="#e377c2" r="2" stroke="none" /><circle cx="157.0" cy="111.0" fill="#e377c2" r="2" stroke="none" /><polyline fill="none" points="135.0,88.0 135.0,91.2187 132.4439,95.5561 129.302,103.698 127.3608,109.6392 127.3796,113.3796 129.8207,114.0 132.735,111.265 137.0,104.9374 143.2614,96.7386 151.6767,91.0 156.7651,87.0 160.2814,86.2814 161.2354,87.2354 161.0703,91.9297 159.0,99.1664 157.0,106.4323 156.0461,110.0461 157.0,111.0" stroke="#e377c2" stroke-opacity="0.5" stroke-width="2" /><circle cx="153.0" cy="62.0" fill="#7f7f7f" r="2" stroke="none" /><circle cx="153.0" cy="58.7905" fill="#7f7f7f" r="2" stroke="none" /><circle cx="155.0784" cy="52.9216" fill="#7f7f7f" r="2" stroke="none" /><circle cx="160.0" cy="46.8843" fill="#7f7f7f" r="2" stroke="none" /><circle cx="166.2815" cy="38.7185" fill="#7f7f7f" r="2" stroke="none" /><circle cx="172.9484" cy="33.0516" fill="#7f7f7f" r="2" stroke="none" /><circle cx="176.0483" cy="28.9517" fill="#7f7f7f" r="2" stroke="none" /><circle cx="177.0" cy="28.0" fill="#7f7f7f" r="2" stroke="none" /><polyline fill="none" points="153.0,62.0 153.0,58.7905 155.0784,52.9216 160.0,46.8843 166.2815,38.7185 172.9484,33.0516 176.0483,28.9517 177.0,28.0" stroke="#7f7f7f" stroke-opacity="0.5" stroke-width="2" /><circle cx="166.3333" cy="39.6667" fill="#bcbd22" r="2" stroke="none" /><circle cx="168.6667" cy="41.3333" fill="#bcbd22" r="2" stroke="none" /><polyline fill="none" points="166.3333,39.6667 168.6667,41.3333" stroke="#bcbd22" stroke-opacity="0.5" stroke-width="2" /><circle cx="167.0" cy="105.25" fill="#17becf" r="2" stroke="none" /><circle cx="168.2865" cy="107.2865" fill="#17becf" r="2" stroke="none" /><circle cx="168.0" cy="111.7153" fill="#17becf" r="2" stroke="none" /><circle cx="168.0" cy="113.0" fill="#17becf" r="2" stroke="none" /><polyline fill="none" points="167.0,105.25 168.2865,107.2865 168.0,111.7153 168.0,113.0" stroke="#17becf" stroke-opacity="0.5" stroke-width="2" /><circle cx="155.0" cy="112.0" fill="#1f77b4" r="2" stroke="none" /><circle cx="157.2019" cy="110.7981" fill="#1f77b4" r="2" stroke="none" /><circle cx="162.7925" cy="108.0" fill="#1f77b4" r="2" stroke="none" /><circle cx="169.0" cy="102.1631" fill="#1f77b4" r="2" stroke="none" /><circle cx="175.3995" cy="94.6005" fill="#1f77b4" r="2" stroke="none" /><circle cx="182.6215" cy="87.3785" fill="#1f77b4" r="2" stroke="none" /><circle cx="187.0" cy="81.0927" fill="#1f77b4" r="2" stroke="none" /><circle cx="191.0455" cy="77.9545" fill="#1f77b4" r="2" stroke="none" /><circle cx="192.0" cy="77.0" fill="#1f77b4" r="2" stroke="none" /><polyline fill="none" points="155.0,112.0 157.2019,110.7981 162.7925,108.0 169.0,102.1631 175.3995,94.6005 182.6215,87.3785 187.0,81.0927 191.0455,77.9545 192.0,77.0" stroke="#1f77b4" stroke-opacity="0.5" stroke-width="2" /><circle cx="168.0" cy="107.0" fill="#ff7f0e" r="2" stroke="none" /><circle cx="170.2182" cy="106.0" fill="#ff7f0e" r="2" stroke="none" /><circle cx="174.7557" cy="104.2443" fill="#ff7f0e" r="2" stroke="none" /><circle cx="178.0" cy="99.0072" fill="#ff7f0e" r="2" stroke="none" /><circle cx="178.4036" cy="94.4036" fill="#ff7f0e" r="2" stroke="none" /><circle cx="177.6667" cy="93.3333" fill="#ff7f0e" r="2" stroke="none" /><polyline fill="none" points="168.0,107.0 170.2182,106.0 174.7557,104.2443 178.0,99.0072 178.4036,94.4036 177.6667,93.3333" stroke="#ff7f0e" stroke-opacity="0.5" stroke-width="2" /><circle cx="189.6667" cy="79.6667" fill="#2ca02c" r="2" stroke="none" /><circle cx="191.0" cy="81.7977" fill="#2ca02c" r="2" stroke="none" /><circle cx="189.4696" cy="86.5304" fill="#2ca02c" r="2" stroke="none" /><circle cx="186.0" cy="93.1432" fill="#2ca02c" r="2" stroke="none" /><circle cx="182.0" cy="103.5613" fill="#2ca02c" r="2" stroke="none" /><circle cx="178.2562" cy="112.7438" fill="#2ca02c" r="2" stroke="none" /><circle cx="177.0" cy="118.9318" fill="#2ca02c" r="2" stroke="none" /><circle cx="178.3837" cy="122.3837" fill="#2ca02c" r="2" stroke="none" /><circle cx="183.0571" cy="123.9429" fill="#2ca02c" r="2" stroke="none" /><circle cx="187.4377" cy="121.5623" fill="#2ca02c" r="2" stroke="none" /><circle cx="193.0" cy="116.4021" fill="#2ca02c" r="2" stroke="none" /><circle cx="198.891" cy="108.109" fill="#2ca02c" r="2" stroke="none" /><circle cx="206.0" cy="97.637" fill="#2ca02c" r="2" stroke="none" /><circle cx="212.8521" cy="88.574" fill="#2ca02c" r="2" stroke="none" /><circle cx="216.9049" cy="81.0951" fill="#2ca02c" r="2" stroke="none" /><circle cx="219.0" cy="76.5962" fill="#2ca02c" r="2" stroke="none" /><circle cx="218.0666" cy="74.1332" fill="#2ca02c" r="2" stroke="none" /><circle cx="213.6108" cy="72.0" fill="#2ca02c" r="2" stroke="none" /><circle cx="210.0" cy="73.0" fill="#2ca02c" r="2" stroke="none" /><polyline fill="none" points="189.6667,79.6667 191.0,81.7977 189.4696,86.5304 186.0,93.1432 182.0,103.5613 178.2562,112.7438 177.0,118.9318 178.3837,122.3837 183.0571,123.9429 187.4377,121.5623 193.0,116.4021 198.891,108.109 206.0,97.637 212.8521,88.574 216.9049,81.0951 219.0,76.5962 218.0666,74.1332 213.6108,72.0 210.0,73.0" stroke="#2ca02c" stroke-opacity="0.5" stroke-width="2" /><circle cx="211.0" cy="94.0" fill="#d62728" r="2" stroke="none" /><circle cx="214.0" cy="91.4828" fill="#d62728" r="2" stroke="none" /><circle cx="213.0" cy="89.0" fill="#d62728" r="2" stroke="none" /><polyline fill="none" points="211.0,94.0 214.0,91.4828 213.0,89.0" stroke="#d62728" stroke-opacity="0.5" stroke-width="2" /><circle cx="209.3333" cy="92.6667" fill="#9467bd" r="2" stroke="none" /><circle cx="211.3821" cy="94.3821" fill="#9467bd" r="2" stroke="none" /><circle cx="211.0" cy="99.112" fill="#9467bd" r="2" stroke="none" /><circle cx="209.0" cy="106.3836" fill="#9467bd" r="2" stroke="none" /><circle cx="207.7034" cy="115.2966" fill="#9467bd" r="2" stroke="none" /><circle cx="208.2411" cy="121.2411" fill="#9467bd" r="2" stroke="none" /><circle cx="211.4984" cy="125.0" fill="#9467bd" r="2" stroke="none" /><circle cx="216.3424" cy="125.6576" fill="#9467bd" r="2" stroke="none" /><circle cx="221.9916" cy="123.0" fill="#9467bd" r="2" stroke="none" /><circle cx="230.7205" cy="118.0" fill="#9467bd" r="2" stroke="none" /><circle cx="237.7774" cy="112.2226" fill="#9467bd" r="2" stroke="none" /><circle cx="242.0" cy="107.2216" fill="#9467bd" r="2" stroke="none" /><circle cx="244.0" cy="104.0" fill="#9467bd" r="2" stroke="none" /><polyline fill="none" points="209.3333,92.6667 211.3821,94.3821 211.0,99.112 209.0,106.3836 207.7034,115.2966 208.2411,121.2411 211.4984,125.0 216.3424,125.6576 221.9916,123.0 230.7205,118.0 237.7774,112.2226 242.0,107.2216 244.0,104.0" stroke="#9467bd" stroke-opacity="0.5" stroke-width="2" /><circle cx="219.0" cy="75.0" fill="#8c564b" r="2" stroke="none" /><circle cx="220.9657" cy="73.0343" fill="#8c564b" r="2" stroke="none" /><circle cx="223.9142" cy="70.0858" fill="#8c564b" r="2" stroke="none" /><circle cx="228.6101" cy="68.0" fill="#8c564b" r="2" stroke="none" /><circle cx="230.0" cy="68.0" fill="#8c564b" r="2" stroke="none" /><polyline fill="none" points="219.0,75.0 220.9657,73.0343 223.9142,70.0858 228.6101,68.0 230.0,68.0" stroke="#8c564b" stroke-opacity="0.5" stroke-width="2" /><circle cx="226.3333" cy="67.6667" fill="#e377c2" r="2" stroke="none" /><circle cx="226.8902" cy="64.1098" fill="#e377c2" r="2" stroke="none" /><circle cx="229.4879" cy="58.5121" fill="#e377c2" r="2" stroke="none" /><circle cx="234.917" cy="50.083" fill="#e377c2" r="2" stroke="none" /><circle cx="239.0" cy="42.4311" fill="#e377c2" r="2" stroke="none" /><circle cx="241.7633" cy="38.2367" fill="#e377c2" r="2" stroke="none" /><circle cx="242.0" cy="37.0" fill="#e377c2" r="2" stroke="none" /><polyline fill="none" points="226.3333,67.6667 226.8902,64.1098 229.4879,58.5121 234.917,50.083 239.0,42.4311 241.7633,38.2367 242.0,37.0" stroke="#e377c2" stroke-opacity="0.5" stroke-width="2" /><circle cx="262.0" cy="66.0" fill="#7f7f7f" r="2" stroke="none" /><circle cx="263.9414" cy="64.0586" fill="#7f7f7f" r="2" stroke="none" /><circle cx="266.8536" cy="61.1464" fill="#7f7f7f" r="2" stroke="none" /><circle cx="270.0293" cy="56.9707" fill="#7f7f7f" r="2" stroke="none" /><circle cx="271.0" cy="56.0" fill="#7f7f7f" r="2" stroke="none" /><polyline fill="none" points="262.0,66.0 263.9414,64.0586 266.8536,61.1464 270.0293,56.9707 271.0,56.0" stroke="#7f7f7f" stroke-opacity="0.5" stroke-width="2" /><circle cx="258.0" cy="121.0" fill="#bcbd22" r="2" stroke="none" /><circle cx="261.6408" cy="120.0" fill="#bcbd22" r="2" stroke="none" /><circle cx="267.5706" cy="118.0" fill="#bcbd22" r="2" stroke="none" /><circle cx="277.1412" cy="115.0" fill="#bcbd22" r="2" stroke="none" /><circle cx="282.7574" cy="112.2426" fill="#bcbd22" r="2" stroke="none" /><circle cx="284.6689" cy="110.3311" fill="#bcbd22" r="2" stroke="none" /><circle cx="283.1709" cy="107.1709" fill="#bcbd22" r="2" stroke="none" /><circle cx="277.8063" cy="103.8063" fill="#bcbd22" r="2" stroke="none" /><circle cx="272.4417" cy="100.4417" fill="#bcbd22" r="2" stroke="none" /><circle cx="270.9886" cy="96.9886" fill="#bcbd22" r="2" stroke="none" /><circle cx="273.376" cy="92.624" fill="#bcbd22" r="2" stroke="none" /><circle cx="279.4035" cy="87.5965" fill="#bcbd22" r="2" stroke="none" /><circle cx="286.5469" cy="82.0" fill="#bcbd22" r="2" stroke="none" /><circle cx="290.5027" cy="78.4973" fill="#bcbd22" r="2" stroke="none" /><circle cx="293.0" cy="78.0" fill="#bcbd22" r="2" stroke="none" /><polyline fill="none" points="258.0,121.0 261.6408,120.0 267.5706,118.0 277.1412,115.0 282.7574,112.2426 284.6689,110.3311 283.1709,107.1709 277.8063,103.8063 272.4417,100.4417 270.9886,96.9886 273.376,92.624 279.4035,87.5965 286.5469,82.0 290.5027,78.4973 293.0,78.0" stroke="#bcbd22" stroke-opacity="0.5" stroke-width="2" /><circle cx="283.0" cy="74.0" fill="#17becf" r="2" stroke="none" /><circle cx="285.1939" cy="75.0" fill="#17becf" r="2" stroke="none" /><circle cx="289.4112" cy="77.4112" fill="#17becf" r="2" stroke="none" /><circle cx="290.3333" cy="78.3333" fill="#17becf" r="2" stroke="none" /><polyline fill="none" points="283.0,74.0 285.1939,75.0 289.4112,77.4112 290.3333,78.3333" stroke="#17becf" stroke-opacity="0.5" stroke-width="2" /><circle cx="385.0" cy="92.0" fill="#1f77b4" r="2" stroke="none" /><circle cx="387.1975" cy="88.8025" fill="#1f77b4" r="2" stroke="none" /><circle cx="392.3314" cy="84.6686" fill="#1f77b4" r="2" stroke="none" /><circle cx="396.7899" cy="83.7899" fill="#1f77b4" r="2" stroke="none" /><circle cx="398.7263" cy="85.7263" fill="#1f77b4" r="2" stroke="none" /><circle cx="400.0" cy="90.6757" fill="#1f77b4" r="2" stroke="none" /><circle cx="401.0" cy="93.0" fill="#1f77b4" r="2" stroke="none" /><polyline fill="none" points="385.0,92.0 387.1975,88.8025 392.3314,84.6686 396.7899,83.7899 398.7263,85.7263 400.0,90.6757 401.0,93.0" stroke="#1f77b4" stroke-opacity="0.5" stroke-width="2" /><circle cx="384.0" cy="124.0" fill="#ff7f0e" r="2" stroke="none" /><circle cx="386.0" cy="120.8065" fill="#ff7f0e" r="2" stroke="none" /><circle cx="389.7034" cy="114.2966" fill="#ff7f0e" r="2" stroke="none" /><circle cx="395.0" cy="105.7654" fill="#ff7f0e" r="2" stroke="none" /><circle cx="398.0" cy="97.6236" fill="#ff7f0e" r="2" stroke="none" /><circle cx="403.2516" cy="92.7484" fill="#ff7f0e" r="2" stroke="none" /><circle cx="406.5493" cy="91.0" fill="#ff7f0e" r="2" stroke="none" /><circle cx="407.6293" cy="91.6293" fill="#ff7f0e" r="2" stroke="none" /><circle cx="408.0" cy="96.0099" fill="#ff7f0e" r="2" stroke="none" /><circle cx="406.0" cy="103.2253" fill="#ff7f0e" r="2" stroke="none" /><circle cx="403.9137" cy="113.0863" fill="#ff7f0e" r="2" stroke="none" /><circle cx="403.0" cy="119.411" fill="#ff7f0e" r="2" stroke="none" /><circle cx="404.0132" cy="123.0132" fill="#ff7f0e" r="2" stroke="none" /><circle cx="407.6264" cy="124.0" fill="#ff7f0e" r="2" stroke="none" /><circle cx="413.3544" cy="121.6456" fill="#ff7f0e" r="2" stroke="none" /><circle cx="420.3581" cy="115.8209" fill="#ff7f0e" r="2" stroke="none" /><circle cx="427.1591" cy="107.0" fill="#ff7f0e" r="2" stroke="none" /><circle cx="434.8158" cy="99.1842" fill="#ff7f0e" r="2" stroke="none" /><circle cx="440.5037" cy="93.4963" fill="#ff7f0e" r="2" stroke="none" /><circle cx="443.1223" cy="87.8777" fill="#ff7f0e" r="2" stroke="none" /><circle cx="442.7409" cy="84.7409" fill="#ff7f0e" r="2" stroke="none" /><circle cx="440.8449" cy="85.1551" fill="#ff7f0e" r="2" stroke="none" /><circle cx="437.053" cy="88.947" fill="#ff7f0e" r="2" stroke="none" /><circle cx="432.0723" cy="94.9277" fill="#ff7f0e" r="2" stroke="none" /><circle cx="428.0" cy="101.2848" fill="#ff7f0e" r="2" stroke="none" /><circle cx="426.5791" cy="105.5791" fill="#ff7f0e" r="2" stroke="none" /><circle cx="427.3333" cy="106.6667" fill="#ff7f0e" r="2" stroke="none" /><polyline fill="none" points="384.0,124.0 386.0,120.8065 389.7034,114.2966 395.0,105.7654 398.0,97.6236 403.2516,92.7484 406.5493,91.0 407.6293,91.6293 408.0,96.0099 406.0,103.2253 403.9137,113.0863 403.0,119.411 404.0132,123.0132 407.6264,124.0 413.3544,121.6456 420.3581,115.8209 427.1591,107.0 434.8158,99.1842 440.5037,93.4963 443.1223,87.8777 442.7409,84.7409 440.8449,85.1551 437.053,88.947 432.0723,94.9277 428.0,101.2848 426.5791,105.5791 427.3333,106.6667" stroke="#ff7f0e" stroke-opacity="0.5" stroke-width="2" /><circle cx="421.0" cy="116.0" fill="#2ca02c" r="2" stroke="none" /><circle cx="422.0" cy="118.2847" fill="#2ca02c" r="2" stroke="none" /><circle cx="423.1896" cy="123.1896" fill="#2ca02c" r="2" stroke="none" /><circle cx="426.4881" cy="125.0" fill="#2ca02c" r="2" stroke="none" /><circle cx="431.3335" cy="123.6665" fill="#2ca02c" r="2" stroke="none" /><circle cx="437.6445" cy="119.3555" fill="#2ca02c" r="2" stroke="none" /><circle cx="445.278" cy="111.722" fill="#2ca02c" r="2" stroke="none" /><circle cx="453.8658" cy="103.1342" fill="#2ca02c" r="2" stroke="none" /><circle cx="461.3323" cy="94.6677" fill="#2ca02c" r="2" stroke="none" /><circle cx="466.3503" cy="88.6497" fill="#2ca02c" r="2" stroke="none" /><circle cx="468.7529" cy="84.2471" fill="#2ca02c" r="2" stroke="none" /><circle cx="469.0" cy="83.0" fill="#2ca02c" r="2" stroke="none" /><polyline fill="none" points="421.0,116.0 422.0,118.2847 423.1896,123.1896 426.4881,125.0 431.3335,123.6665 437.6445,119.3555 445.278,111.722 453.8658,103.1342 461.3323,94.6677 466.3503,88.6497 468.7529,84.2471 469.0,83.0" stroke="#2ca02c" stroke-opacity="0.5" stroke-width="2" /><circle cx="463.6667" cy="92.6667" fill="#d62728" r="2" stroke="none" /><circle cx="464.6176" cy="93.6176" fill="#d62728" r="2" stroke="none" /><circle cx="466.5194" cy="95.5194" fill="#d62728" r="2" stroke="none" /><circle cx="471.6993" cy="96.0" fill="#d62728" r="2" stroke="none" /><circle cx="477.5948" cy="94.0" fill="#d62728" r="2" stroke="none" /><circle cx="481.1519" cy="93.1519" fill="#d62728" r="2" stroke="none" /><circle cx="482.1028" cy="94.1028" fill="#d62728" r="2" stroke="none" /><circle cx="482.0" cy="98.6961" fill="#d62728" r="2" stroke="none" /><circle cx="479.0" cy="104.1773" fill="#d62728" r="2" stroke="none" /><circle cx="474.0" cy="112.8644" fill="#d62728" r="2" stroke="none" /><circle cx="469.561" cy="120.439" fill="#d62728" r="2" stroke="none" /><circle cx="467.1716" cy="124.8284" fill="#d62728" r="2" stroke="none" /><circle cx="467.316" cy="127.316" fill="#d62728" r="2" stroke="none" /><circle cx="469.7222" cy="128.0" fill="#d62728" r="2" stroke="none" /><circle cx="474.1929" cy="125.8071" fill="#d62728" r="2" stroke="none" /><circle cx="480.1912" cy="120.8088" fill="#d62728" r="2" stroke="none" /><circle cx="488.0913" cy="113.9087" fill="#d62728" r="2" stroke="none" /><circle cx="496.9422" cy="106.0578" fill="#d62728" r="2" stroke="none" /><circle cx="502.1843" cy="98.8157" fill="#d62728" r="2" stroke="none" /><circle cx="505.2808" cy="94.7192" fill="#d62728" r="2" stroke="none" /><circle cx="507.4755" cy="94.4755" fill="#d62728" r="2" stroke="none" /><circle cx="509.0" cy="97.8783" fill="#d62728" r="2" stroke="none" /><circle cx="509.0" cy="104.6021" fill="#d62728" r="2" stroke="none" /><circle cx="506.0" cy="111.4281" fill="#d62728" r="2" stroke="none" /><circle cx="505.0" cy="117.7377" fill="#d62728" r="2" stroke="none" /><circle cx="506.4968" cy="122.4968" fill="#d62728" r="2" stroke="none" /><circle cx="509.9085" cy="124.0" fill="#d62728" r="2" stroke="none" /><circle cx="514.3247" cy="121.6753" fill="#d62728" r="2" stroke="none" /><circle cx="519.0791" cy="116.9209" fill="#d62728" r="2" stroke="none" /><circle cx="525.9792" cy="109.0208" fill="#d62728" r="2" stroke="none" /><circle cx="532.465" cy="101.535" fill="#d62728" r="2" stroke="none" /><circle cx="535.8053" cy="96.1947" fill="#d62728" r="2" stroke="none" /><circle cx="537.0" cy="94.0" fill="#d62728" r="2" stroke="none" /><polyline fill="none" points="463.6667,92.6667 464.6176,93.6176 466.5194,95.5194 471.6993,96.0 477.5948,94.0 481.1519,93.1519 482.1028,94.1028 482.0,98.6961 479.0,104.1773 474.0,112.8644 469.561,120.439 467.1716,124.8284 467.316,127.316 469.7222,128.0 474.1929,125.8071 480.1912,120.8088 488.0913,113.9087 496.9422,106.0578 502.1843,98.8157 505.2808,94.7192 507.4755,94.4755 509.0,97.8783 509.0,104.6021 506.0,111.4281 505.0,117.7377 506.4968,122.4968 509.9085,124.0 514.3247,121.6753 519.0791,116.9209 525.9792,109.0208 532.465,101.535 535.8053,96.1947 537.0,94.0" stroke="#d62728" stroke-opacity="0.5" stroke-width="2" /><circle cx="566.0" cy="49.0" fill="#9467bd" r="2" stroke="none" /><circle cx="569.1381" cy="46.8619" fill="#9467bd" r="2" stroke="none" /><circle cx="575.5858" cy="43.0" fill="#9467bd" r="2" stroke="none" /><circle cx="585.7071" cy="38.2929" fill="#9467bd" r="2" stroke="none" /><circle cx="595.073" cy="35.0" fill="#9467bd" r="2" stroke="none" /><circle cx="602.7061" cy="34.0" fill="#9467bd" r="2" stroke="none" /><circle cx="607.4645" cy="35.4645" fill="#9467bd" r="2" stroke="none" /><circle cx="609.3613" cy="37.3613" fill="#9467bd" r="2" stroke="none" /><circle cx="608.9665" cy="42.0335" fill="#9467bd" r="2" stroke="none" /><circle cx="604.9316" cy="47.0684" fill="#9467bd" r="2" stroke="none" /><circle cx="598.7587" cy="55.2413" fill="#9467bd" r="2" stroke="none" /><circle cx="590.689" cy="65.311" fill="#9467bd" r="2" stroke="none" /><circle cx="585.2232" cy="73.7768" fill="#9467bd" r="2" stroke="none" /><circle cx="582.0" cy="79.1479" fill="#9467bd" r="2" stroke="none" /><circle cx="582.1213" cy="83.1213" fill="#9467bd" r="2" stroke="none" /><circle cx="585.2594" cy="85.2594" fill="#9467bd" r="2" stroke="none" /><circle cx="590.3175" cy="86.0" fill="#9467bd" r="2" stroke="none" /><circle cx="593.0" cy="86.0" fill="#9467bd" r="2" stroke="none" /><polyline fill="none" points="566.0,49.0 569.1381,46.8619 575.5858,43.0 585.7071,38.2929 595.073,35.0 602.7061,34.0 607.4645,35.4645 609.3613,37.3613 608.9665,42.0335 604.9316,47.0684 598.7587,55.2413 590.689,65.311 585.2232,73.7768 582.0,79.1479 582.1213,83.1213 585.2594,85.2594 590.3175,86.0 593.0,86.0" stroke="#9467bd" stroke-opacity="0.5" stroke-width="2" /><circle cx="692.0" cy="39.0" fill="#8c564b" r="2" stroke="none" /><circle cx="693.3413" cy="39.0" fill="#8c564b" r="2" stroke="none" /><circle cx="698.2067" cy="37.7933" fill="#8c564b" r="2" stroke="none" /><circle cx="705.5116" cy="36.0" fill="#8c564b" r="2" stroke="none" /><circle cx="716.242" cy="36.0" fill="#8c564b" r="2" stroke="none" /><circle cx="726.144" cy="34.0" fill="#8c564b" r="2" stroke="none" /><circle cx="732.8505" cy="34.0" fill="#8c564b" r="2" stroke="none" /><circle cx="736.3254" cy="35.3254" fill="#8c564b" r="2" stroke="none" /><circle cx="736.9506" cy="39.0494" fill="#8c564b" r="2" stroke="none" /><circle cx="734.3297" cy="44.6703" fill="#8c564b" r="2" stroke="none" /><circle cx="731.0" cy="54.0214" fill="#8c564b" r="2" stroke="none" /><circle cx="726.2088" cy="66.7912" fill="#8c564b" r="2" stroke="none" /><circle cx="719.0" cy="82.5833" fill="#8c564b" r="2" stroke="none" /><circle cx="712.0" cy="97.1207" fill="#8c564b" r="2" stroke="none" /><circle cx="707.38" cy="108.62" fill="#8c564b" r="2" stroke="none" /><circle cx="703.0" cy="116.1949" fill="#8c564b" r="2" stroke="none" /><circle cx="701.0" cy="120.7316" fill="#8c564b" r="2" stroke="none" /><circle cx="702.0" cy="123.0" fill="#8c564b" r="2" stroke="none" /><polyline fill="none" points="692.0,39.0 693.3413,39.0 698.2067,37.7933 705.5116,36.0 716.242,36.0 726.144,34.0 732.8505,34.0 736.3254,35.3254 736.9506,39.0494 734.3297,44.6703 731.0,54.0214 726.2088,66.7912 719.0,82.5833 712.0,97.1207 707.38,108.62 703.0,116.1949 701.0,120.7316 702.0,123.0" stroke="#8c564b" stroke-opacity="0.5" stroke-width="2" /><circle cx="698.0" cy="130.0" fill="#e377c2" r="2" stroke="none" /><circle cx="698.2458" cy="128.7542" fill="#e377c2" r="2" stroke="none" /><circle cx="700.643" cy="124.357" fill="#e377c2" r="2" stroke="none" /><circle cx="706.779" cy="119.221" fill="#e377c2" r="2" stroke="none" /><circle cx="714.4019" cy="111.5981" fill="#e377c2" r="2" stroke="none" /><circle cx="725.1762" cy="101.8238" fill="#e377c2" r="2" stroke="none" /><circle cx="739.3949" cy="90.6051" fill="#e377c2" r="2" stroke="none" /><circle cx="753.2736" cy="76.7264" fill="#e377c2" r="2" stroke="none" /><circle cx="765.4923" cy="63.5077" fill="#e377c2" r="2" stroke="none" /><circle cx="777.2697" cy="53.7303" fill="#e377c2" r="2" stroke="none" /><circle cx="785.3841" cy="43.6159" fill="#e377c2" r="2" stroke="none" /><circle cx="792.0" cy="34.2284" fill="#e377c2" r="2" stroke="none" /><circle cx="796.8485" cy="28.1515" fill="#e377c2" r="2" stroke="none" /><circle cx="799.0" cy="25.0" fill="#e377c2" r="2" stroke="none" /><polyline fill="none" points="698.0,130.0 698.2458,128.7542 700.643,124.357 706.779,119.221 714.4019,111.5981 725.1762,101.8238 739.3949,90.6051 753.2736,76.7264 765.4923,63.5077 777.2697,53.7303 785.3841,43.6159 792.0,34.2284 796.8485,28.1515 799.0,25.0" stroke="#e377c2" stroke-opacity="0.5" stroke-width="2" /><circle cx="746.3333" cy="105.6667" fill="#7f7f7f" r="2" stroke="none" /><circle cx="746.8871" cy="102.1129" fill="#7f7f7f" r="2" stroke="none" /><circle cx="750.0" cy="96.7359" fill="#7f7f7f" r="2" stroke="none" /><circle cx="754.9006" cy="88.0994" fill="#7f7f7f" r="2" stroke="none" /><circle cx="762.0" cy="77.7072" fill="#7f7f7f" r="2" stroke="none" /><circle cx="768.5707" cy="68.4293" fill="#7f7f7f" r="2" stroke="none" /><circle cx="772.8132" cy="62.1868" fill="#7f7f7f" r="2" stroke="none" /><circle cx="774.5843" cy="58.4157" fill="#7f7f7f" r="2" stroke="none" /><circle cx="774.6667" cy="57.3333" fill="#7f7f7f" r="2" stroke="none" /><polyline fill="none" points="746.3333,105.6667 746.8871,102.1129 750.0,96.7359 754.9006,88.0994 762.0,77.7072 768.5707,68.4293 772.8132,62.1868 774.5843,58.4157 774.6667,57.3333" stroke="#7f7f7f" stroke-opacity="0.5" stroke-width="2" /><circle cx="736.0" cy="35.0" fill="#bcbd22" r="2" stroke="none" /><circle cx="739.467" cy="33.533" fill="#bcbd22" r="2" stroke="none" /><circle cx="746.5671" cy="31.0" fill="#bcbd22" r="2" stroke="none" /><circle cx="756.6045" cy="29.0" fill="#bcbd22" r="2" stroke="none" /><circle cx="768.944" cy="26.0" fill="#bcbd22" r="2" stroke="none" /><circle cx="777.6231" cy="24.0" fill="#bcbd22" r="2" stroke="none" /><circle cx="782.6418" cy="23.0" fill="#bcbd22" r="2" stroke="none" /><circle cx="784.0" cy="23.0" fill="#bcbd22" r="2" stroke="none" /><polyline fill="none" points="736.0,35.0 739.467,33.533 746.5671,31.0 756.6045,29.0 768.944,26.0 777.6231,24.0 782.6418,23.0 784.0,23.0" stroke="#bcbd22" stroke-opacity="0.5" stroke-width="2" /><circle cx="738.0" cy="115.0" fill="#17becf" r="2" stroke="none" /><circle cx="740.8397" cy="112.1603" fill="#17becf" r="2" stroke="none" /><circle cx="745.812" cy="106.188" fill="#17becf" r="2" stroke="none" /><circle cx="753.3166" cy="101.6834" fill="#17becf" r="2" stroke="none" /><circle cx="760.5283" cy="96.4717" fill="#17becf" r="2" stroke="none" /><circle cx="764.9003" cy="94.0997" fill="#17becf" r="2" stroke="none" /><circle cx="769.8582" cy="94.8582" fill="#17becf" r="2" stroke="none" /><circle cx="772.0" cy="97.9869" fill="#17becf" r="2" stroke="none" /><circle cx="771.0" cy="102.9273" fill="#17becf" r="2" stroke="none" /><circle cx="768.0" cy="109.7165" fill="#17becf" r="2" stroke="none" /><circle cx="767.0" cy="115.9955" fill="#17becf" r="2" stroke="none" /><circle cx="767.1294" cy="119.1294" fill="#17becf" r="2" stroke="none" /><circle cx="769.0319" cy="119.0" fill="#17becf" r="2" stroke="none" /><circle cx="772.3946" cy="115.6054" fill="#17becf" r="2" stroke="none" /><circle cx="777.3668" cy="109.6332" fill="#17becf" r="2" stroke="none" /><circle cx="784.4717" cy="100.5283" fill="#17becf" r="2" stroke="none" /><circle cx="791.3371" cy="92.6629" fill="#17becf" r="2" stroke="none" /><circle cx="798.8417" cy="88.1583" fill="#17becf" r="2" stroke="none" /><circle cx="802.8674" cy="83.1326" fill="#17becf" r="2" stroke="none" /><circle cx="806.0" cy="81.0" fill="#17becf" r="2" stroke="none" /><polyline fill="none" points="738.0,115.0 740.8397,112.1603 745.812,106.188 753.3166,101.6834 760.5283,96.4717 764.9003,94.0997 769.8582,94.8582 772.0,97.9869 771.0,102.9273 768.0,109.7165 767.0,115.9955 767.1294,119.1294 769.0319,119.0 772.3946,115.6054 777.3668,109.6332 784.4717,100.5283 791.3371,92.6629 798.8417,88.1583 802.8674,83.1326 806.0,81.0" stroke="#17becf" stroke-opacity="0.5" stroke-width="2" /><circle cx="797.6667" cy="89.3333" fill="#1f77b4" r="2" stroke="none" /><circle cx="798.0" cy="91.9224" fill="#1f77b4" r="2" stroke="none" /><circle cx="795.6963" cy="96.3037" fill="#1f77b4" r="2" stroke="none" /><circle cx="790.5082" cy="103.4918" fill="#1f77b4" r="2" stroke="none" /><circle cx="787.0" cy="111.3757" fill="#1f77b4" r="2" stroke="none" /><circle cx="786.0" cy="116.2969" fill="#1f77b4" r="2" stroke="none" /><circle cx="786.6821" cy="118.6821" fill="#1f77b4" r="2" stroke="none" /><circle cx="790.5521" cy="119.0" fill="#1f77b4" r="2" stroke="none" /><circle cx="795.985" cy="116.015" fill="#1f77b4" r="2" stroke="none" /><circle cx="804.4092" cy="110.5908" fill="#1f77b4" r="2" stroke="none" /><circle cx="815.6629" cy="102.3371" fill="#1f77b4" r="2" stroke="none" /><circle cx="825.3877" cy="93.6123" fill="#1f77b4" r="2" stroke="none" /><circle cx="833.8119" cy="88.1881" fill="#1f77b4" r="2" stroke="none" /><circle cx="838.8207" cy="84.1793" fill="#1f77b4" r="2" stroke="none" /><circle cx="841.0" cy="83.0" fill="#1f77b4" r="2" stroke="none" /><polyline fill="none" points="797.6667,89.3333 798.0,91.9224 795.6963,96.3037 790.5082,103.4918 787.0,111.3757 786.0,116.2969 786.6821,118.6821 790.5521,119.0 795.985,116.015 804.4092,110.5908 815.6629,102.3371 825.3877,93.6123 833.8119,88.1881 838.8207,84.1793 841.0,83.0" stroke="#1f77b4" stroke-opacity="0.5" stroke-width="2" /><circle cx="809.0" cy="60.0" fill="#ff7f0e" r="2" stroke="none" /><circle cx="812.7757" cy="60.7757" fill="#ff7f0e" r="2" stroke="none" /><circle cx="815.0" cy="62.0" fill="#ff7f0e" r="2" stroke="none" /><polyline fill="none" points="809.0,60.0 812.7757,60.7757 815.0,62.0" stroke="#ff7f0e" stroke-opacity="0.5" stroke-width="2" /><circle cx="830.0" cy="119.0" fill="#2ca02c" r="2" stroke="none" /><circle cx="833.3988" cy="117.6012" fill="#2ca02c" r="2" stroke="none" /><circle cx="838.5375" cy="114.0" fill="#2ca02c" r="2" stroke="none" /><circle cx="844.0" cy="108.5771" fill="#2ca02c" r="2" stroke="none" /><circle cx="847.0" cy="104.5155" fill="#2ca02c" r="2" stroke="none" /><circle cx="846.9034" cy="101.9034" fill="#2ca02c" r="2" stroke="none" /><circle cx="842.8598" cy="98.8598" fill="#2ca02c" r="2" stroke="none" /><circle cx="836.5021" cy="95.0" fill="#2ca02c" r="2" stroke="none" /><circle cx="832.6043" cy="91.6043" fill="#2ca02c" r="2" stroke="none" /><circle cx="831.6667" cy="90.6667" fill="#2ca02c" r="2" stroke="none" /><polyline fill="none" points="830.0,119.0 833.3988,117.6012 838.5375,114.0 844.0,108.5771 847.0,104.5155 846.9034,101.9034 842.8598,98.8598 836.5021,95.0 832.6043,91.6043 831.6667,90.6667" stroke="#2ca02c" stroke-opacity="0.5" stroke-width="2" /><circle cx="870.0" cy="181.0" fill="#d62728" r="2" stroke="none" /><circle cx="871.0" cy="178.7463" fill="#d62728" r="2" stroke="none" /><circle cx="873.0" cy="172.9048" fill="#d62728" r="2" stroke="none" /><circle cx="876.0" cy="163.4757" fill="#d62728" r="2" stroke="none" /><circle cx="879.0" cy="156.7145" fill="#d62728" r="2" stroke="none" /><circle cx="881.9796" cy="153.0204" fill="#d62728" r="2" stroke="none" /><circle cx="881.5838" cy="150.5838" fill="#d62728" r="2" stroke="none" /><circle cx="882.6667" cy="151.3333" fill="#d62728" r="2" stroke="none" /><polyline fill="none" points="870.0,181.0 871.0,178.7463 873.0,172.9048 876.0,163.4757 879.0,156.7145 881.9796,153.0204 881.5838,150.5838 882.6667,151.3333" stroke="#d62728" stroke-opacity="0.5" stroke-width="2" /><circle cx="880.0" cy="154.0" fill="#9467bd" r="2" stroke="none" /><circle cx="879.3964" cy="150.6036" fill="#9467bd" r="2" stroke="none" /><circle cx="880.3333" cy="149.6667" fill="#9467bd" r="2" stroke="none" /><polyline fill="none" points="880.0,154.0 879.3964,150.6036 880.3333,149.6667" stroke="#9467bd" stroke-opacity="0.5" stroke-width="2" /><circle cx="883.0" cy="148.0" fill="#8c564b" r="2" stroke="none" /><circle cx="886.0" cy="145.46" fill="#8c564b" r="2" stroke="none" /><circle cx="887.504" cy="140.496" fill="#8c564b" r="2" stroke="none" /><circle cx="887.6543" cy="136.6543" fill="#8c564b" r="2" stroke="none" /><circle cx="886.6667" cy="135.6667" fill="#8c564b" r="2" stroke="none" /><polyline fill="none" points="883.0,148.0 886.0,145.46 887.504,140.496 887.6543,136.6543 886.6667,135.6667" stroke="#8c564b" stroke-opacity="0.5" stroke-width="2" /><circle cx="884.0" cy="147.0" fill="#e377c2" r="2" stroke="none" /><circle cx="882.1164" cy="145.1164" fill="#e377c2" r="2" stroke="none" /><circle cx="882.8225" cy="140.1775" fill="#e377c2" r="2" stroke="none" /><circle cx="887.0592" cy="133.9408" fill="#e377c2" r="2" stroke="none" /><circle cx="892.0" cy="124.0" fill="#e377c2" r="2" stroke="none" /><circle cx="899.7663" cy="111.2337" fill="#e377c2" r="2" stroke="none" /><circle cx="907.0" cy="98.2468" fill="#e377c2" r="2" stroke="none" /><circle cx="912.0" cy="88.3305" fill="#e377c2" r="2" stroke="none" /><circle cx="915.0" cy="81.5816" fill="#e377c2" r="2" stroke="none" /><circle cx="916.0" cy="78.0" fill="#e377c2" r="2" stroke="none" /><polyline fill="none" points="884.0,147.0 882.1164,145.1164 882.8225,140.1775 887.0592,133.9408 892.0,124.0 899.7663,111.2337 907.0,98.2468 912.0,88.3305 915.0,81.5816 916.0,78.0" stroke="#e377c2" stroke-opacity="0.5" stroke-width="2" /><circle cx="895.0" cy="102.0" fill="#7f7f7f" r="2" stroke="none" /><circle cx="897.0" cy="100.7235" fill="#7f7f7f" r="2" stroke="none" /><circle cx="898.0" cy="95.7564" fill="#7f7f7f" r="2" stroke="none" /><circle cx="901.0" cy="87.5817" fill="#7f7f7f" r="2" stroke="none" /><circle cx="906.0778" cy="78.9222" fill="#7f7f7f" r="2" stroke="none" /><circle cx="911.1109" cy="73.0" fill="#7f7f7f" r="2" stroke="none" /><circle cx="919.8604" cy="68.1396" fill="#7f7f7f" r="2" stroke="none" /><circle cx="927.0461" cy="66.0" fill="#7f7f7f" r="2" stroke="none" /><circle cx="933.2536" cy="67.2536" fill="#7f7f7f" r="2" stroke="none" /><circle cx="936.0" cy="70.152" fill="#7f7f7f" r="2" stroke="none" /><circle cx="937.0" cy="76.4645" fill="#7f7f7f" r="2" stroke="none" /><circle cx="935.0" cy="85.0534" fill="#7f7f7f" r="2" stroke="none" /><circle cx="930.6432" cy="95.3568" fill="#7f7f7f" r="2" stroke="none" /><circle cx="924.0" cy="106.0585" fill="#7f7f7f" r="2" stroke="none" /><circle cx="916.2095" cy="116.0" fill="#7f7f7f" r="2" stroke="none" /><circle cx="907.9321" cy="122.0" fill="#7f7f7f" r="2" stroke="none" /><circle cx="902.9026" cy="126.0974" fill="#7f7f7f" r="2" stroke="none" /><circle cx="901.0" cy="128.0" fill="#7f7f7f" r="2" stroke="none" /><polyline fill="none" points="895.0,102.0 897.0,100.7235 898.0,95.7564 901.0,87.5817 906.0778,78.9222 911.1109,73.0 919.8604,68.1396 927.0461,66.0 933.2536,67.2536 936.0,70.152 937.0,76.4645 935.0,85.0534 930.6432,95.3568 924.0,106.0585 916.2095,116.0 907.9321,122.0 902.9026,126.0974 901.0,128.0" stroke="#7f7f7f" stroke-opacity="0.5" stroke-width="2" /><circle cx="918.0" cy="115.0" fill="#bcbd22" r="2" stroke="none" /><circle cx="919.8862" cy="116.8862" fill="#bcbd22" r="2" stroke="none" /><circle cx="922.4803" cy="122.4803" fill="#bcbd22" r="2" stroke="none" /><circle cx="924.6025" cy="125.6025" fill="#bcbd22" r="2" stroke="none" /><circle cx="928.9443" cy="126.0" fill="#bcbd22" r="2" stroke="none" /><circle cx="934.3703" cy="123.0" fill="#bcbd22" r="2" stroke="none" /><circle cx="941.4492" cy="117.5508" fill="#bcbd22" r="2" stroke="none" /><circle cx="949.5228" cy="109.4772" fill="#bcbd22" r="2" stroke="none" /><circle cx="960.4256" cy="98.5744" fill="#bcbd22" r="2" stroke="none" /><circle cx="969.8244" cy="90.0878" fill="#bcbd22" r="2" stroke="none" /><circle cx="975.7557" cy="83.2443" fill="#bcbd22" r="2" stroke="none" /><circle cx="978.8209" cy="79.1791" fill="#bcbd22" r="2" stroke="none" /><circle cx="981.0" cy="78.0" fill="#bcbd22" r="2" stroke="none" /><polyline fill="none" points="918.0,115.0 919.8862,116.8862 922.4803,122.4803 924.6025,125.6025 928.9443,126.0 934.3703,123.0 941.4492,117.5508 949.5228,109.4772 960.4256,98.5744 969.8244,90.0878 975.7557,83.2443 978.8209,79.1791 981.0,78.0" stroke="#bcbd22" stroke-opacity="0.5" stroke-width="2" /><circle cx="973.3333" cy="119.6667" fill="#17becf" r="2" stroke="none" /><circle cx="973.8478" cy="116.1522" fill="#17becf" r="2" stroke="none" /><circle cx="976.0" cy="115.0" fill="#17becf" r="2" stroke="none" /><polyline fill="none" points="973.3333,119.6667 973.8478,116.1522 976.0,115.0" stroke="#17becf" stroke-opacity="0.5" stroke-width="2" /><circle cx="969.0" cy="91.0" fill="#1f77b4" r="2" stroke="none" /><circle cx="969.9494" cy="91.9494" fill="#1f77b4" r="2" stroke="none" /><circle cx="968.6165" cy="95.3835" fill="#1f77b4" r="2" stroke="none" /><circle cx="965.2837" cy="100.7163" fill="#1f77b4" r="2" stroke="none" /><circle cx="959.8097" cy="109.1903" fill="#1f77b4" r="2" stroke="none" /><circle cx="956.0" cy="117.0111" fill="#1f77b4" r="2" stroke="none" /><circle cx="956.0" cy="123.7245" fill="#1f77b4" r="2" stroke="none" /><circle cx="957.9463" cy="126.9463" fill="#1f77b4" r="2" stroke="none" /><circle cx="961.9521" cy="127.0" fill="#1f77b4" r="2" stroke="none" /><circle cx="967.299" cy="123.701" fill="#1f77b4" r="2" stroke="none" /><circle cx="976.5074" cy="120.0" fill="#1f77b4" r="2" stroke="none" /><circle cx="988.2715" cy="113.7285" fill="#1f77b4" r="2" stroke="none" /><circle cx="998.3515" cy="105.6485" fill="#1f77b4" r="2" stroke="none" /><circle cx="1006.8962" cy="97.1038" fill="#1f77b4" r="2" stroke="none" /><circle cx="1012.1279" cy="89.8721" fill="#1f77b4" r="2" stroke="none" /><circle cx="1015.0" cy="84.3483" fill="#1f77b4" r="2" stroke="none" /><circle cx="1015.8123" cy="80.8123" fill="#1f77b4" r="2" stroke="none" /><circle cx="1014.8629" cy="79.8629" fill="#1f77b4" r="2" stroke="none" /><circle cx="1010.1865" cy="79.8135" fill="#1f77b4" r="2" stroke="none" /><circle cx="1003.3184" cy="82.6816" fill="#1f77b4" r="2" stroke="none" /><circle cx="995.1373" cy="88.8627" fill="#1f77b4" r="2" stroke="none" /><circle cx="987.2997" cy="97.7003" fill="#1f77b4" r="2" stroke="none" /><circle cx="982.7751" cy="105.2249" fill="#1f77b4" r="2" stroke="none" /><circle cx="982.0" cy="112.1315" fill="#1f77b4" r="2" stroke="none" /><circle cx="983.3333" cy="115.6667" fill="#1f77b4" r="2" stroke="none" /><polyline fill="none" points="969.0,91.0 969.9494,91.9494 968.6165,95.3835 965.2837,100.7163 959.8097,109.1903 956.0,117.0111 956.0,123.7245 957.9463,126.9463 961.9521,127.0 967.299,123.701 976.5074,120.0 988.2715,113.7285 998.3515,105.6485 1006.8962,97.1038 1012.1279,89.8721 1015.0,84.3483 1015.8123,80.8123 1014.8629,79.8629 1010.1865,79.8135 1003.3184,82.6816 995.1373,88.8627 987.2997,97.7003 982.7751,105.2249 982.0,112.1315 983.3333,115.6667" stroke="#1f77b4" stroke-opacity="0.5" stroke-width="2" /><circle cx="994.0" cy="54.0" fill="#ff7f0e" r="2" stroke="none" /><circle cx="997.0" cy="55.0" fill="#ff7f0e" r="2" stroke="none" /><polyline fill="none" points="994.0,54.0 997.0,55.0" stroke="#ff7f0e" stroke-opacity="0.5" stroke-width="2" /><circle cx="988.0" cy="115.0" fill="#2ca02c" r="2" stroke="none" /><circle cx="988.9463" cy="115.9463" fill="#2ca02c" r="2" stroke="none" /><circle cx="993.8629" cy="117.0" fill="#2ca02c" r="2" stroke="none" /><circle cx="1001.0641" cy="115.0" fill="#2ca02c" r="2" stroke="none" /><circle cx="1011.3194" cy="110.6806" fill="#2ca02c" r="2" stroke="none" /><circle cx="1023.1932" cy="103.8068" fill="#2ca02c" r="2" stroke="none" /><circle cx="1035.3599" cy="97.6401" fill="#2ca02c" r="2" stroke="none" /><circle cx="1044.2396" cy="90.0" fill="#2ca02c" r="2" stroke="none" /><circle cx="1053.289" cy="86.0" fill="#2ca02c" r="2" stroke="none" /><circle cx="1058.8145" cy="83.1855" fill="#2ca02c" r="2" stroke="none" /><circle cx="1061.0" cy="82.0" fill="#2ca02c" r="2" stroke="none" /><polyline fill="none" points="988.0,115.0 988.9463,115.9463 993.8629,117.0 1001.0641,115.0 1011.3194,110.6806 1023.1932,103.8068 1035.3599,97.6401 1044.2396,90.0 1053.289,86.0 1058.8145,83.1855 1061.0,82.0" stroke="#2ca02c" stroke-opacity="0.5" stroke-width="2" /><circle cx="1033.0" cy="99.25" fill="#d62728" r="2" stroke="none" /><circle cx="1032.0996" cy="102.9004" fill="#d62728" r="2" stroke="none" /><circle cx="1028.3064" cy="106.6936" fill="#d62728" r="2" stroke="none" /><circle cx="1024.7379" cy="113.2621" fill="#d62728" r="2" stroke="none" /><circle cx="1024.0" cy="118.3208" fill="#d62728" r="2" stroke="none" /><circle cx="1026.3647" cy="121.3647" fill="#d62728" r="2" stroke="none" /><circle cx="1032.3928" cy="123.0" fill="#d62728" r="2" stroke="none" /><circle cx="1039.7249" cy="121.2751" fill="#d62728" r="2" stroke="none" /><circle cx="1050.017" cy="116.983" fill="#d62728" r="2" stroke="none" /><circle cx="1062.6246" cy="111.3754" fill="#d62728" r="2" stroke="none" /><circle cx="1075.4687" cy="103.5313" fill="#d62728" r="2" stroke="none" /><circle cx="1084.8332" cy="97.0" fill="#d62728" r="2" stroke="none" /><circle cx="1090.8648" cy="92.1352" fill="#d62728" r="2" stroke="none" /><circle cx="1093.7097" cy="89.2903" fill="#d62728" r="2" stroke="none" /><circle cx="1093.1008" cy="87.1008" fill="#d62728" r="2" stroke="none" /><circle cx="1088.6066" cy="85.0" fill="#d62728" r="2" stroke="none" /><circle cx="1082.5158" cy="86.4842" fill="#d62728" r="2" stroke="none" /><circle cx="1074.9986" cy="91.0" fill="#d62728" r="2" stroke="none" /><circle cx="1064.6373" cy="98.3627" fill="#d62728" r="2" stroke="none" /><circle cx="1058.0" cy="104.4154" fill="#d62728" r="2" stroke="none" /><circle cx="1054.379" cy="109.621" fill="#d62728" r="2" stroke="none" /><circle cx="1053.0517" cy="113.0517" fill="#d62728" r="2" stroke="none" /><circle cx="1054.0" cy="114.0" fill="#d62728" r="2" stroke="none" /><polyline fill="none" points="1033.0,99.25 1032.0996,102.9004 1028.3064,106.6936 1024.7379,113.2621 1024.0,118.3208 1026.3647,121.3647 1032.3928,123.0 1039.7249,121.2751 1050.017,116.983 1062.6246,111.3754 1075.4687,103.5313 1084.8332,97.0 1090.8648,92.1352 1093.7097,89.2903 1093.1008,87.1008 1088.6066,85.0 1082.5158,86.4842 1074.9986,91.0 1064.6373,98.3627 1058.0,104.4154 1054.379,109.621 1053.0517,113.0517 1054.0,114.0" stroke="#d62728" stroke-opacity="0.5" stroke-width="2" /><circle cx="1051.6667" cy="116.3333" fill="#9467bd" r="2" stroke="none" /><circle cx="1053.6145" cy="119.6145" fill="#9467bd" r="2" stroke="none" /><circle cx="1058.9266" cy="123.0" fill="#9467bd" r="2" stroke="none" /><circle cx="1067.6453" cy="124.6453" fill="#9467bd" r="2" stroke="none" /><circle cx="1079.1701" cy="124.0" fill="#9467bd" r="2" stroke="none" /><circle cx="1094.4563" cy="122.0" fill="#9467bd" r="2" stroke="none" /><circle cx="1106.128" cy="121.0" fill="#9467bd" r="2" stroke="none" /><circle cx="1114.7877" cy="119.2123" fill="#9467bd" r="2" stroke="none" /><circle cx="1119.6571" cy="118.0" fill="#9467bd" r="2" stroke="none" /><circle cx="1121.0" cy="118.0" fill="#9467bd" r="2" stroke="none" /><polyline fill="none" points="1051.6667,116.3333 1053.6145,119.6145 1058.9266,123.0 1067.6453,124.6453 1079.1701,124.0 1094.4563,122.0 1106.128,121.0 1114.7877,119.2123 1119.6571,118.0 1121.0,118.0" stroke="#9467bd" stroke-opacity="0.5" stroke-width="2" /></svg>