<?xml version="1.0" encoding="utf-8" ?>
<svg baseProfile="full" height="100%" version="1.1" viewBox="0,0,1000,300" width="100%" xmlns="http://www.w3.org/2000/svg" xmlns:ev="http://www.w3.org/2001/xml-events" xmlns:xlink="http://www.w3.org/1999/xlink"><defs /><rect fill="white" height="300" width="1000" x="0" y="0" /><path d="M0,0 M377.9732971191406,63.018470764160156 L378.15673828125,62.36735916137695 L378.3953857421875,60.97229766845703 L378.6067199707031,58.78528594970703 L378.6873779296875,56.096778869628906 L378.67889404296875,53.348228454589844 L378.6180725097656,51.02195739746094 L378.56243896484375,49.39006805419922 L378.5368957519531,48.500328063964844 L378.53387451171875,48.162940979003906 M378.2287292480469,47.20623016357422 L378.5075378417969,47.73823547363281 L379.0561218261719,48.962158203125 L379.85028076171875,51.02935028076172 L380.79022216796875,53.80166244506836 L381.8241271972656,56.94753646850586 L382.8326110839844,59.95726776123047 L383.7140808105469,62.38934326171875 L384.50079345703125,63.992862701416016 L385.1558837890625,64.69789123535156 L385.6986083984375,64.54841613769531 L386.1275634765625,63.55708694458008 L386.3655090332031,61.732749938964844 L386.3978271484375,59.14555358886719 L386.2940979003906,56.033241271972656 L386.0850524902344,52.8273811340332 L385.8553466796875,50.05642318725586 L385.6387939453125,48.07036590576172 L385.4659729003906,46.97447204589844 L385.3627014160156,46.561805725097656 M392.552978515625,58.917236328125 L392.2810363769531,59.65157699584961 L391.8500061035156,61.0147590637207 L391.33477783203125,62.86391830444336 L390.93157958984375,64.75079345703125 L390.78033447265625,66.25969696044922 L391.0110778808594,67.0850830078125 L391.6282958984375,67.08839416503906 L392.50506591796875,66.2982177734375 L393.394775390625,64.95791625976562 L394.080810546875,63.43877410888672 L394.46124267578125,62.218162536621094 L394.5962219238281,61.51692199707031 M390.41033935546875,57.855899810791016 L390.5960998535156,57.312782287597656 L391.0431213378906,56.512481689453125 L391.8101501464844,55.75730514526367 L392.8144226074219,55.51637649536133 L393.8975524902344,56.0609130859375 L394.8650817871094,57.40580368041992 L395.5863952636719,59.2373046875 L396.0342712402344,61.09087371826172 L396.25970458984375,62.47370910644531 L396.3395690917969,63.215736389160156 M396.3133850097656,63.64366912841797 L396.5162048339844,63.13705825805664 L396.7571716308594,62.54702377319336 L396.96063232421875,62.05879211425781 M396.95849609375,60.195701599121094 L397.1617431640625,60.80965805053711 L397.6478271484375,61.95769500732422 L398.4596252441406,63.46998596191406 L399.5076904296875,64.90912628173828 L400.6146545410156,65.83316802978516 L401.5907287597656,65.92893981933594 L402.2784423828125,65.15933990478516 L402.6200866699219,63.78950119018555 L402.65380859375,62.20097351074219 L402.5316467285156,60.922637939453125 L402.39190673828125,60.175662994384766 M413.78448486328125,53.26204299926758 L414.0901794433594,53.37678146362305 L414.55389404296875,53.8637580871582 L415.05615234375,54.97556686401367 L415.47894287109375,56.793453216552734 L415.8226623535156,59.1121940612793 L416.1097717285156,61.52703857421875 L416.3651428222656,63.55320739746094 L416.5666198730469,64.86215209960938 L416.672607421875,65.47747802734375 M414.65631103515625,50.759647369384766 L414.56640625,49.90991973876953 L414.4775390625,48.52769470214844 L414.4810485839844,46.903438568115234 L414.6353759765625,45.609375 L414.9639587402344,45.0 L415.4031982421875,45.283790588378906 L415.8509521484375,46.48695373535156 L416.2026672363281,48.48115158081055 L416.4200744628906,50.986114501953125 L416.47528076171875,53.57923889160156 L416.4446716308594,55.798309326171875 L416.39154052734375,57.273860931396484 L416.35675048828125,57.99259567260742 M413.33148193359375,58.906063079833984 L413.9500427246094,58.9073371887207 L415.0893249511719,58.79049301147461 L416.61712646484375,58.393157958984375 L418.13543701171875,57.522804260253906 L419.3494873046875,56.06270217895508 L420.0660705566406,54.07632827758789 L420.3331298828125,51.86225891113281 L420.3153076171875,49.83599853515625 L420.20587158203125,48.41625213623047 L420.10931396484375,47.69246292114258 M419.8132629394531,56.69496536254883 L420.0091247558594,57.29719161987305 L420.2777404785156,58.432342529296875 L420.5565185546875,59.96543502807617 L420.78704833984375,61.460662841796875 L421.03717041015625,62.436946868896484 L421.4014587402344,62.54486846923828 L421.9198303222656,61.71257400512695 L422.570556640625,60.167545318603516 L423.27728271484375,58.3752326965332 L423.9498291015625,56.871421813964844 L424.5570068359375,56.06633377075195 L425.10260009765625,56.190765380859375 L425.609375,57.229068756103516 L426.1053771972656,58.952396392822266 L426.62542724609375,60.96610641479492 L427.19403076171875,62.79100036621094 L427.86358642578125,63.98899459838867 L428.62689208984375,64.27082824707031 L429.4222106933594,63.55900573730469 L430.1602783203125,62.076141357421875 L430.7724609375,60.260372161865234 L431.2471923828125,58.63273620605469 L431.67889404296875,57.703826904296875 L432.15802001953125,57.75665283203125 L432.7120361328125,58.77707290649414 L433.33062744140625,60.515872955322266 L433.93890380859375,62.53498077392578 L434.4385681152344,64.32806396484375 L434.770751953125,65.54237365722656 L434.9403381347656,66.13240814208984 M438.3038024902344,62.645408630371094 L438.95904541015625,62.77204895019531 L440.07635498046875,62.85573959350586 L441.39111328125,62.75002670288086 L442.37860107421875,62.29940414428711 L442.6776428222656,61.487525939941406 L442.19329833984375,60.31616973876953 L441.14013671875,58.90163040161133 L439.9982604980469,57.432777404785156 L439.2476806640625,56.11888885498047 L439.1743469238281,55.181304931640625 L439.7550048828125,54.740806579589844 L440.720947265625,54.77684783935547 L441.60205078125,55.04546356201172 L442.1473083496094,55.327552795410156 M455.50787353515625,56.46529769897461 L455.6259460449219,57.118289947509766 L455.7750244140625,58.44709014892578 L455.9234924316406,60.377174377441406 L456.0299072265625,62.478736877441406 L456.1170654296875,64.25501251220703 L456.1876220703125,65.38439178466797 L456.2385559082031,65.87969207763672 M460.0622863769531,61.73468017578125 L460.27178955078125,62.27104187011719 L460.8626708984375,63.1082763671875 L461.9394836425781,63.99789047241211 L463.3719177246094,64.54016876220703 L464.81060791015625,64.51109313964844 L465.83697509765625,63.87995529174805 L466.0912780761719,62.79617691040039 L465.4317626953125,61.40644454956055 L464.0359802246094,59.87126159667969 L462.28131103515625,58.35329818725586 L460.66455078125,56.98865509033203 L459.6483459472656,55.86548614501953 L459.4570007324219,55.0402946472168 L460.05633544921875,54.51890182495117 L461.1780700683594,54.32243728637695 L462.4080505371094,54.45424270629883 L463.3420104980469,54.74184799194336 L463.8502197265625,55.013858795166016 M483.60455322265625,56.541053771972656 L483.0030822753906,56.229156494140625 L481.9376525878906,55.95008850097656 L480.521728515625,55.99595642089844 L479.1094665527344,56.711944580078125 L478.00103759765625,58.149967193603516 L477.39849853515625,60.18330764770508 L477.36492919921875,62.439090728759766 L477.8486328125,64.49759674072266 L478.68670654296875,65.96527099609375 L479.7615661621094,66.60088348388672 L480.9598388671875,66.29464721679688 L482.14849853515625,65.13156127929688 L483.19744873046875,63.385772705078125 L483.98992919921875,61.46811294555664 L484.448486328125,59.935935974121094 L484.64129638671875,59.04597854614258 M484.1784362792969,62.982845306396484 L484.46783447265625,63.703739166259766 L484.98175048828125,64.8486099243164 L485.67401123046875,66.13224029541016 L486.2872314453125,67.09191131591797 L486.697265625,67.59793090820312 M495.128173828125,64.29144287109375 L495.6936950683594,64.60710906982422 L496.73345947265625,64.96995544433594 L498.0876770019531,65.12289428710938 L499.3103942871094,64.7480697631836 L499.9996337890625,63.755332946777344 L499.88775634765625,62.22248077392578 L499.03424072265625,60.378501892089844 L497.7794494628906,58.520606994628906 L496.60516357421875,56.88360595703125 L495.957275390625,55.626731872558594 L496.0687255859375,54.859317779541016 L496.85797119140625,54.56581115722656 L498.0324401855469,54.67470169067383 L499.08447265625,54.96052169799805 L499.7418518066406,55.224571228027344 M503.6201171875,50.215267181396484 L503.686767578125,50.93656921386719 L503.8336181640625,52.446468353271484 L504.06005859375,54.728755950927734 L504.3465270996094,57.390750885009766 L504.64727783203125,59.90538787841797 L504.9170837402344,61.82926940917969 L505.1011962890625,62.971412658691406 L505.2001953125,63.45159912109375 M501.3701171875,58.128780364990234 L502.04571533203125,58.03424072265625 L503.353515625,57.83001708984375 L505.1898498535156,57.54600143432617 L507.1558837890625,57.28634262084961 L508.8338623046875,57.23515701293945 L509.9398193359375,57.63258361816406 L510.42724609375,58.58377456665039 L510.4510498046875,60.00221252441406 L510.3500671386719,61.67564392089844 L510.50341796875,63.2599983215332 L511.16754150390625,64.45150756835938 L512.3855590820312,65.06074523925781 L513.9547119140625,64.95789337158203 L515.5001220703125,64.12396240234375 L516.6455078125,62.702239990234375 L517.1175537109375,60.938995361328125 L516.794189453125,59.18641662597656 L515.7984008789062,57.78767395019531 L514.4393920898438,56.94654846191406 L513.2354736328125,56.6035270690918 L512.47265625,56.56879806518555 M519.3750610351562,61.988624572753906 L519.2780151367188,61.166194915771484 L519.15625,59.790443420410156 L519.1549682617188,58.097652435302734 L519.48486328125,56.58782958984375 L520.2838745117188,55.545249938964844 L521.5189208984375,55.17196273803711 L522.9496459960938,55.48607635498047 L524.2745971679688,56.35135269165039 L525.2807006835938,57.520286560058594 L525.87646484375,58.569149017333984 L526.1344604492188,59.23152542114258 M526.1495971679688,67.40037536621094 L526.2987670898438,66.60059356689453 L526.6298828125,65.02090454101562 L527.1491088867188,62.722408294677734 L527.7667846679688,60.171653747558594 L528.3490600585938,57.87972640991211 L528.7628173828125,56.31320571899414 L528.9839477539062,55.533546447753906 M543.2018432617188,60.19994354248047 L542.89892578125,60.778560638427734 L542.3056640625,61.691627502441406 L541.4207763671875,62.63785934448242 L540.37841796875,63.10554122924805 L539.3663940429688,62.77053451538086 L538.59521484375,61.56401824951172 L538.245361328125,59.73970031738281 L538.4402465820312,57.7486572265625 L539.159423828125,56.01695251464844 L540.2249145507812,54.85842514038086 L541.3662719726562,54.44197082519531 L542.3626708984375,54.8345832824707 L543.111572265625,56.024715423583984 L543.6820678710938,57.86559295654297 L544.206787109375,60.0139274597168 L544.7252807617188,62.01247787475586 L545.1632080078125,63.479713439941406 L545.456298828125,64.28348541259766 L545.5799560546875,64.5666732788086 M546.5902099609375,48.44945526123047 L546.7033081054688,49.19012451171875 L546.884521484375,50.72578811645508 L547.1219482421875,53.07328796386719 L547.3865356445312,55.88450622558594 L547.6820678710938,58.685699462890625 L547.9693603515625,60.98701095581055 L548.1942749023438,62.4701042175293 L548.3258056640625,63.170318603515625 M549.455322265625,45.676979064941406 L549.572265625,46.43510437011719 L549.7781982421875,48.05583953857422 L550.0587768554688,50.596195220947266 L550.3875732421875,53.745216369628906 L550.771240234375,57.04546356201172 L551.1898803710938,59.96638870239258 L551.6058959960938,62.17161560058594 L551.933349609375,63.50476837158203 L552.1239013671875,64.10137176513672 M567.0448608398438,60.68226623535156 L566.7603759765625,61.31785583496094 L566.2489624023438,62.35301208496094 L565.5230712890625,63.51280975341797 L564.6905517578125,64.27853393554688 L563.8377075195312,64.2647476196289 L563.073974609375,63.296348571777344 L562.522216796875,61.465972900390625 L562.31640625,59.11730194091797 L562.5136108398438,56.70463562011719 L563.1008911132812,54.6733283996582 L563.998291015625,53.334228515625 L565.0171508789062,52.881378173828125 L565.9556884765625,53.322898864746094 L566.673828125,54.55965805053711 L567.092041015625,56.29380798339844 L567.2444458007812,58.12104797363281 L567.2588500976562,59.52701187133789 L567.2239990234375,60.32390213012695 M567.4067993164062,61.01253128051758 L567.8314819335938,61.62538146972656 L568.4920654296875,62.5186653137207 L569.2567138671875,63.41814422607422 L569.8427734375,63.99988555908203 L570.181640625,64.24546813964844 M571.3163452148438,51.220367431640625 L571.3914794921875,52.026546478271484 L571.532958984375,53.566505432128906 L571.7327270507812,55.72279357910156 L571.9534301757812,57.99357986450195 L572.1702270507812,59.90671157836914 L572.341552734375,61.12421417236328 L572.4456787109375,61.677242279052734 M572.5680541992188,63.84282684326172 L572.7025756835938,64.21029663085938 L572.8626708984375,64.634521484375 L572.998046875,64.98229217529297 M577.4081420898438,59.377017974853516 L577.1341552734375,60.058712005615234 L576.5098266601562,61.161415100097656 L575.4935302734375,62.3970832824707 L574.2428588867188,63.26387405395508 L573.0118408203125,63.47433853149414 L572.0775146484375,62.90488052368164 L571.6597900390625,61.65581512451172 L571.8599853515625,59.96356201171875 L572.61865234375,58.11952590942383 L573.8003540039062,56.48519515991211 L575.154052734375,55.43837356567383 L576.4151611328125,55.16485595703125 L577.4173583984375,55.58714294433594 L578.0955200195312,56.40985107421875 L578.4581298828125,57.18367385864258 L578.6116333007812,57.66124725341797 M578.6394653320312,58.41938018798828 L578.736083984375,59.18560028076172 L579.0526123046875,60.43785095214844 L579.7100830078125,61.87028884887695 L580.7413940429688,62.91527557373047 L582.0659790039062,63.21443176269531 L583.4719848632812,62.614315032958984 L584.6650390625,61.21686553955078 L585.379638671875,59.32159423828125 L585.4401245117188,57.29541015625 L584.82373046875,55.556190490722656 L583.7059936523438,54.499839782714844 L582.3718872070312,54.272247314453125 L581.11328125,54.748470306396484 L580.2208251953125,55.46725082397461 L579.75048828125,56.03582763671875 M587.6285400390625,55.02872085571289 L587.706787109375,55.776710510253906 L587.89013671875,57.134403228759766 L588.196044921875,58.92913055419922 L588.6310424804688,60.65461730957031 L589.1853637695312,61.89872360229492 L589.8431396484375,62.344661712646484 L590.5867919921875,61.86807632446289 L591.3314208984375,60.605533599853516 L591.9550170898438,58.908355712890625 L592.3817138671875,57.20989990234375 L592.595458984375,55.972843170166016 L592.6543579101562,55.33287048339844 M592.3509521484375,59.269287109375 L592.6561889648438,59.87996292114258 L593.1344604492188,60.93775177001953 L593.69921875,62.260520935058594 L594.1409912109375,63.36829376220703 L594.4034423828125,64.03614807128906 M596.6094970703125,50.06232452392578 L596.7132568359375,50.78595733642578 L596.91748046875,52.117942810058594 L597.1793212890625,53.879215240478516 L597.42333984375,55.59899139404297 L597.5902099609375,56.84966278076172 L597.6614990234375,57.49873352050781 M595.2127685546875,58.29484939575195 L595.7236328125,58.146392822265625 L596.4737548828125,58.11553192138672 L597.2799072265625,58.492340087890625 L597.8919677734375,59.48974609375 L598.277587890625,60.98534393310547 L598.5033569335938,62.615386962890625 L598.6318359375,63.87776184082031 L598.7050170898438,64.56246948242188 M598.0067138671875,57.72090148925781 L598.2493896484375,57.667415618896484 M613.56591796875,48.783836364746094 L613.619384765625,49.52984619140625 L613.7114868164062,50.92124557495117 L613.8363037109375,52.79351043701172 L613.9837036132812,54.67802810668945 L614.1197509765625,56.08976364135742 L614.21337890625,56.85857391357422 M614.1336669921875,62.13149642944336 L614.1729736328125,61.62199401855469 L614.2411499023438,60.57134246826172 L614.3961181640625,58.976593017578125 L614.73095703125,57.10437774658203 L615.3706665039062,55.29064178466797 L616.2597045898438,53.937259674072266 L617.333740234375,53.315216064453125 L618.419921875,53.59312438964844 L619.37109375,54.77406692504883 L620.1009521484375,56.685264587402344 L620.58837890625,58.93085479736328 L620.841064453125,61.04226303100586 L620.9483032226562,62.537986755371094 L620.971923828125,63.31195068359375 M626.6936645507812,58.76758575439453 L626.3558349609375,59.386741638183594 L625.8084716796875,60.43936538696289 L625.1058349609375,61.68119812011719 L624.3729248046875,62.56859588623047 L623.6451416015625,62.6817626953125 L622.99462890625,61.816612243652344 L622.5202026367188,60.10003662109375 L622.3453369140625,57.93586349487305 L622.5431518554688,55.83463668823242 L623.0987548828125,54.245174407958984 L623.899658203125,53.490318298339844 L624.7813720703125,53.664878845214844 L625.5689697265625,54.66051483154297 L626.1868896484375,56.16168212890625 L626.6630859375,57.66162872314453 L627.1220703125,58.63865280151367 L627.6912841796875,58.778778076171875 L628.3839111328125,58.12021255493164 L629.08056640625,57.027095794677734 L629.6158447265625,56.04456329345703 L629.9072265625,55.451133728027344 M629.88232421875,56.083595275878906 L630.06591796875,56.73304748535156 L630.352783203125,57.965518951416016 L630.715087890625,59.6265983581543 L631.107421875,61.2385139465332 L631.555419921875,62.29686737060547 L632.074951171875,62.456932067871094 L632.6448974609375,61.687469482421875 L633.2059326171875,60.30010986328125 L633.6907958984375,58.773651123046875 L634.0242919921875,57.60495376586914 L634.2010498046875,56.97028350830078 M634.210205078125,55.64148712158203 L634.3966064453125,56.3062629699707 L634.7864990234375,57.55354309082031 L635.3857421875,59.25516891479492 L636.1312255859375,60.971099853515625 L636.9395751953125,62.23453140258789 L637.729736328125,62.704833984375 L638.4300537109375,62.23481369018555 L638.978515625,60.87713623046875 L639.313232421875,58.893917083740234 L639.43408203125,56.70166015625 L639.378662109375,54.733497619628906 L639.2547607421875,53.3834114074707 L639.14697265625,52.71172332763672 " fill="none" stroke="red" stroke-linecap="round" stroke-width="1" /><path d="M0,0 M347.31268310546875,120.76766967773438 L347.257568359375,119.95962524414062 L347.2073059082031,118.3331298828125 L347.1800537109375,115.88087463378906 L347.1734924316406,112.96427917480469 L347.17510986328125,110.02237701416016 L347.19903564453125,107.55335235595703 L347.3341979980469,105.83690643310547 L347.6722412109375,105.0 L348.24017333984375,105.05274200439453 L348.9755554199219,106.01065826416016 L349.7903747558594,107.8750991821289 L350.6138610839844,110.5684585571289 L351.4237060546875,113.77849578857422 L352.1890563964844,117.04254913330078 L352.85211181640625,119.86367797851562 L353.342529296875,121.94449615478516 L353.6253662109375,123.166259765625 L353.7378845214844,123.70093536376953 M353.4474792480469,119.99925231933594 L353.71942138671875,119.36548614501953 L354.1488037109375,117.9886245727539 L354.6613464355469,115.875 L355.1495361328125,113.40196228027344 L355.6069030761719,111.12165069580078 L356.05426025390625,109.47895050048828 L356.5196838378906,108.73370361328125 L357.0567321777344,108.93148803710938 L357.658447265625,110.08009338378906 L358.31024169921875,112.12283325195312 L358.9733581542969,114.90616607666016 L359.60797119140625,118.06614685058594 L360.16290283203125,121.09441375732422 L360.6269226074219,123.51778411865234 L360.94488525390625,125.05085754394531 L361.1150207519531,125.76417541503906 M362.7162780761719,116.97840118408203 L362.99505615234375,117.82450103759766 L363.519775390625,119.18415069580078 L364.2755432128906,120.72488403320312 L365.1502685546875,121.83212280273438 L366.0545349121094,122.11479949951172 L366.9394836425781,121.46195220947266 L367.69873046875,120.153564453125 L368.27764892578125,118.62692260742188 L368.63507080078125,117.408935546875 L368.791748046875,116.71981811523438 M366.6334533691406,134.8601837158203 L367.0011291503906,135.17306518554688 L367.66607666015625,135.53036499023438 L368.50091552734375,135.63665771484375 L369.26190185546875,135.0908660888672 L369.7781066894531,133.69154357910156 L369.9990234375,131.45701599121094 L370.0024108886719,128.65673828125 L369.8710632324219,125.80422973632812 L369.63165283203125,123.39002990722656 L369.3875732421875,121.79545593261719 L369.19580078125,121.0223617553711 M383.216552734375,114.7398910522461 L383.3062744140625,115.49530029296875 L383.49078369140625,116.98295593261719 L383.77203369140625,119.13224792480469 L384.1270751953125,121.52978515625 L384.5392150878906,123.74958801269531 L385.03350830078125,125.36661529541016 L385.6217346191406,126.14593505859375 L386.33404541015625,126.00282287597656 L387.1143493652344,124.94935607910156 L387.85064697265625,123.15514373779297 L388.41619873046875,120.98321533203125 L388.73870849609375,118.87834167480469 L388.8439025878906,117.34424591064453 L388.840087890625,116.52973937988281 M389.0767822265625,121.9634017944336 L389.30755615234375,122.55142211914062 L389.5779113769531,123.25918579101562 L389.80303955078125,123.8645248413086 M393.2041320800781,112.48078918457031 L393.23486328125,113.24502563476562 L393.33837890625,114.7293472290039 L393.50543212890625,116.80557250976562 L393.7090759277344,118.98506927490234 L393.8766784667969,120.79600524902344 L393.98028564453125,121.92704772949219 L394.02239990234375,122.41463470458984 M394.40533447265625,126.34352111816406 L394.4316101074219,125.57986450195312 L394.50555419921875,124.2039794921875 L394.6256103515625,122.42462921142578 L394.7549133300781,120.7470932006836 L394.8453063964844,119.57113647460938 L394.8896789550781,118.99584197998047 M395.97479248046875,115.14230346679688 L396.02471923828125,114.39837646484375 L396.17938232421875,113.13529968261719 L396.44464111328125,111.58683013916016 L396.7855529785156,110.23583984375 L397.08819580078125,109.35834503173828 L397.2825622558594,108.97633361816406 M398.17816162109375,125.7282943725586 L398.68853759765625,125.39051055908203 L399.28826904296875,124.99954986572266 L399.7890625,124.6781997680664 M395.87225341796875,122.05977630615234 L396.21044921875,122.6451187133789 L396.9149475097656,123.56659698486328 L398.0291442871094,124.53585815429688 L399.41357421875,125.05245208740234 L400.8634033203125,124.8753662109375 L402.1343994140625,124.02743530273438 L402.90606689453125,122.77338409423828 L402.9645690917969,121.43631744384766 L402.27056884765625,120.28108978271484 L400.9837341308594,119.47398376464844 L399.4825439453125,119.19680786132812 L398.24896240234375,119.53958129882812 L397.5603942871094,120.42322540283203 L397.49407958984375,121.59013366699219 L397.7707824707031,122.6061782836914 L398.0882568359375,123.22657012939453 M400.06854248046875,121.99800109863281 L400.29278564453125,122.07831573486328 M426.87628173828125,123.18238830566406 L426.36956787109375,123.57276153564453 L425.4499816894531,124.10684967041016 L424.2150573730469,124.48623657226562 L422.96905517578125,124.31119537353516 L421.9840393066406,123.40547943115234 L421.469482421875,121.86370086669922 L421.5167236328125,120.01004791259766 L422.1356506347656,118.29545593261719 L423.2362060546875,117.07234191894531 L424.59454345703125,116.55197143554688 L425.90283203125,116.80474853515625 L426.8804931640625,117.74304962158203 L427.3857421875,119.0949478149414 L427.5027160644531,120.53532409667969 L427.4394836425781,121.65480041503906 L427.356201171875,122.28352355957031 M423.78179931640625,134.31686401367188 L424.26995849609375,134.86329650878906 L425.2218933105469,135.92605590820312 L426.56036376953125,137.37181091308594 L428.0008239746094,138.8150177001953 L429.2543640136719,139.8469696044922 L430.194580078125,140.18478393554688 L430.7871398925781,139.69775390625 L431.0277099609375,138.37452697753906 L430.919189453125,136.2252960205078 L430.4920654296875,133.41307067871094 L429.81634521484375,130.2435760498047 L429.0655517578125,127.19900512695312 L428.39239501953125,124.74214172363281 L427.863037109375,123.11212921142578 L427.52447509765625,122.27111053466797 L427.35589599609375,121.98088073730469 M435.9921875,120.28148651123047 L435.408935546875,119.91738891601562 L434.438232421875,119.52955627441406 L433.22381591796875,119.42970275878906 L432.0966491699219,119.95957946777344 L431.26397705078125,121.14891052246094 L430.93115234375,122.80107879638672 L431.1881408691406,124.4978256225586 L432.01947021484375,125.7967758178711 L433.2107238769531,126.3759765625 L434.43218994140625,126.09234619140625 L435.35479736328125,125.07919311523438 L435.8139953613281,123.72521209716797 L435.88055419921875,122.44178009033203 L435.77166748046875,121.5614013671875 L435.6536560058594,121.14929962158203 M435.78497314453125,120.73560333251953 L436.48797607421875,120.53643798828125 L437.82257080078125,120.22311401367188 L439.6507263183594,119.85821533203125 L441.5491943359375,119.5484390258789 L443.0283203125,119.34770202636719 L443.8604736328125,119.248046875 M441.26165771484375,110.86957550048828 L441.31591796875,111.59420013427734 L441.4469909667969,113.02102661132812 L441.65093994140625,115.02698516845703 L441.88934326171875,117.1476821899414 L442.0836181640625,118.79960632324219 L442.1996154785156,119.73236083984375 M442.90936279296875,120.9007339477539 L443.0530090332031,121.66633605957031 L443.30389404296875,122.97029113769531 L443.620361328125,124.57963562011719 L443.88726806640625,125.909423828125 L444.05047607421875,126.70474243164062 M457.3435974121094,122.31562042236328 L457.9727783203125,122.16838836669922 L458.9167175292969,121.93170928955078 L459.89263916015625,121.58191680908203 L460.51751708984375,120.97348022460938 L460.69903564453125,119.82098388671875 L460.5269470214844,117.96149444580078 L460.2671813964844,115.43545532226562 L460.130615234375,112.609375 L460.1834716796875,110.03163146972656 L460.3420104980469,108.21871948242188 L460.4959411621094,107.27418518066406 M462.61968994140625,123.77916717529297 L462.65264892578125,124.55511474609375 L462.7826843261719,126.00919342041016 L462.9981384277344,127.9839859008789 L463.24249267578125,130.01242065429688 L463.4219970703125,131.56968688964844 L463.51031494140625,132.4408416748047 M460.5272216796875,122.58268737792969 L461.13519287109375,122.67205047607422 L462.16845703125,122.67740631103516 L463.4432373046875,122.53111267089844 L464.4963073730469,122.28167724609375 L465.12298583984375,122.07242584228516 M467.5735778808594,107.90840148925781 L467.6255798339844,108.58822631835938 L467.7530517578125,110.08988952636719 L467.9838562011719,112.52937316894531 L468.3148193359375,115.66535186767578 L468.72412109375,119.091796875 L469.1592712402344,122.2445068359375 L469.56927490234375,124.71876525878906 L469.8717346191406,126.2673568725586 L470.04449462890625,126.990966796875 M473.57391357421875,119.22883605957031 L473.7261657714844,120.01052856445312 L473.9781494140625,121.37244415283203 L474.27532958984375,123.0876693725586 L474.5101318359375,124.53179168701172 L474.6444091796875,125.41840362548828 M479.60089111328125,127.55685424804688 L479.56939697265625,128.26234436035156 L479.6783142089844,129.5205841064453 L479.9895324707031,131.1644287109375 L480.3912658691406,132.59178161621094 L480.7178955078125,133.50242614746094 M479.8953857421875,129.3624725341797 L479.86895751953125,128.85887145996094 L479.7196044921875,127.75242614746094 L479.4339294433594,125.97161102294922 L479.1143798828125,123.71943664550781 L478.95733642578125,121.322998046875 L479.11871337890625,119.17782592773438 L479.6456298828125,117.6198959350586 L480.51824951171875,116.85045623779297 L481.612548828125,116.9435043334961 L482.741455078125,117.87190246582031 L483.59197998046875,119.47824096679688 L483.8876037597656,121.45035552978516 L483.55194091796875,123.40642547607422 L482.7685546875,124.99447631835938 L481.9620056152344,125.98924255371094 L481.4330139160156,126.44010925292969 M487.3336181640625,126.32785034179688 L487.2572021484375,127.0885009765625 L487.3106689453125,128.53076171875 L487.53778076171875,130.56387329101562 L487.8994140625,132.764892578125 L488.19976806640625,134.73123168945312 L488.35107421875,136.07858276367188 L488.3677673339844,136.7723388671875 M487.60906982421875,129.91934204101562 L487.5394287109375,129.31822204589844 L487.3424377441406,128.04867553710938 L487.0715026855469,126.07416534423828 L486.8892822265625,123.66759490966797 L486.9946594238281,121.22314453125 L487.48614501953125,119.16817474365234 L488.32525634765625,117.81265258789062 L489.3758544921875,117.30660247802734 L490.4764709472656,117.65528106689453 L491.41339111328125,118.78875732421875 L491.9303283691406,120.52117156982422 L491.88116455078125,122.51530456542969 L491.2879943847656,124.36917877197266 L490.53515625,125.68719482421875 L489.9541320800781,126.36271667480469 M496.46026611328125,120.7202377319336 L497.0631103515625,120.5005111694336 L497.98931884765625,119.97187042236328 L498.9429931640625,119.10992431640625 L499.4732666015625,118.06214904785156 L499.35784912109375,117.0996322631836 L498.6308898925781,116.5472640991211 L497.5730895996094,116.67072296142578 L496.5155334472656,117.55757141113281 L495.7571716308594,119.11522674560547 L495.51312255859375,121.06783294677734 L495.8631591796875,123.00605773925781 L496.78765869140625,124.53040313720703 L498.1814880371094,125.37889099121094 L499.824462890625,125.39458465576172 L501.4383239746094,124.58154296875 L502.77838134765625,123.10009765625 L503.74591064453125,121.18575286865234 L504.44970703125,119.19256591796875 L505.16461181640625,117.55136108398438 L506.09368896484375,116.52168273925781 L507.19549560546875,116.17130279541016 L508.1570129394531,116.26420593261719 L508.766357421875,116.4872817993164 M503.5785827636719,123.15791320800781 L503.877197265625,123.77269744873047 L504.40289306640625,124.68290710449219 L505.1640625,125.5582275390625 L506.0933837890625,125.88761138916016 L507.13909912109375,125.37657928466797 L508.1942138671875,123.93077087402344 L509.12664794921875,121.69193267822266 L509.75537109375,118.9480972290039 L510.03070068359375,116.10977172851562 L510.01422119140625,113.61724090576172 L509.8499755859375,111.80272674560547 L509.682861328125,110.7752914428711 L509.59625244140625,110.37567901611328 M510.06829833984375,120.8063735961914 L510.3151550292969,121.43739318847656 L510.6919860839844,122.56568908691406 L511.1236877441406,124.02104949951172 L511.4501647949219,125.27490234375 L511.637451171875,126.05301666259766 M526.1513671875,112.57670593261719 L526.2177734375,113.41222381591797 L526.3634033203125,114.90882873535156 L526.5726318359375,116.82364654541016 L526.8034057617188,118.62920379638672 L526.990234375,119.90211486816406 L527.0978393554688,120.53704071044922 M526.5596313476562,123.67700958251953 L526.7008056640625,123.03778076171875 L526.833251953125,122.11048889160156 L526.9188842773438,121.21492004394531 L526.9195556640625,120.67082977294922 M523.7327880859375,122.16577911376953 L524.26220703125,121.74571990966797 L525.2821044921875,121.09134674072266 L526.6442260742188,120.40926361083984 L527.9613037109375,120.10784912109375 L528.9463500976562,120.44857025146484 L529.514404296875,121.4893798828125 L529.8318481445312,123.04264068603516 L530.1876220703125,124.68275451660156 L530.7236328125,125.92974853515625 L531.4385375976562,126.4200668334961 L532.2413330078125,125.96605682373047 L533.001220703125,124.6529312133789 L533.632080078125,122.84996032714844 L534.1571044921875,121.05528259277344 L534.6077270507812,119.80347442626953 L535.0968627929688,119.44843292236328 L535.7070922851562,120.05074310302734 L536.4570922851562,121.37846374511719 L537.3193359375,122.98101806640625 L538.244140625,124.31529998779297 L539.1087646484375,124.95732879638672 L539.8650512695312,124.68342590332031 L540.4619140625,123.5347671508789 L540.9308471679688,121.82013702392578 L541.341796875,119.99424743652344 L541.7650146484375,118.48875427246094 L542.1221313476562,117.5556869506836 L542.3731689453125,117.16020202636719 M546.01904296875,122.16331481933594 L545.97607421875,121.41072082519531 L546.0228271484375,120.15888214111328 L546.267578125,118.64669036865234 L546.8087158203125,117.37322998046875 L547.6170043945312,116.71854400634766 L548.5455932617188,116.90143585205078 L549.4605712890625,117.90230560302734 L550.2470703125,119.4540786743164 L550.8510131835938,121.13360595703125 L551.248046875,122.4379653930664 L551.4605712890625,123.17526245117188 M554.7186889648438,121.718994140625 L555.2988891601562,121.27911376953125 L556.1728515625,120.46028900146484 L557.078857421875,119.33785247802734 L557.5543823242188,118.20463562011719 L557.39697265625,117.35316467285156 L556.6874389648438,117.07402038574219 L555.720947265625,117.51313781738281 L554.8560791015625,118.66246795654297 L554.4024658203125,120.29026794433594 L554.4934692382812,122.00760650634766 L555.1505737304688,123.37287902832031 L556.333251953125,124.04008483886719 L557.854736328125,123.82807922363281 L559.4716796875,122.8342056274414 L560.9110717773438,121.37835693359375 L561.9859008789062,119.89068603515625 L562.6090087890625,118.7957763671875 L562.8809204101562,118.22669219970703 M560.9995727539062,122.23068237304688 L561.4085083007812,122.5798568725586 L562.151611328125,122.88593292236328 L563.1336669921875,122.8011703491211 L564.1275634765625,121.94082641601562 L564.9351196289062,120.2411880493164 L565.419921875,117.9003677368164 L565.5814819335938,115.33894348144531 L565.50537109375,113.04270935058594 L565.3380737304688,111.45056915283203 L565.2052001953125,110.63356018066406 M565.7157592773438,119.72176361083984 L566.0335083007812,120.33353424072266 L566.5166015625,121.34032440185547 L566.996826171875,122.38304138183594 L567.3057861328125,123.10260009765625 M578.348876953125,118.33871459960938 L578.4609375,119.08665466308594 L578.7062377929688,120.42234802246094 L579.134521484375,122.12459564208984 L579.7582397460938,123.64248657226562 L580.572998046875,124.51306915283203 L581.5101318359375,124.43416595458984 L582.448486328125,123.46373748779297 L583.22314453125,121.9940414428711 L583.7365112304688,120.51738739013672 L583.9847412109375,119.45743560791016 L584.0533447265625,118.935546875 M587.3553466796875,126.07414245605469 L587.391845703125,126.8052978515625 L587.5283813476562,127.99574279785156 L587.7090454101562,129.2222137451172 L587.8779296875,130.06146240234375 M585.5379638671875,122.77381134033203 L585.5145263671875,122.0013656616211 L585.5171508789062,120.75540161132812 L585.6207275390625,119.2984390258789 L585.90185546875,118.15910339355469 L586.3851318359375,117.69815826416016 L587.0056762695312,118.09339904785156 L587.5892333984375,119.30828857421875 L587.9439697265625,121.16676330566406 L587.9937133789062,123.41819763183594 L587.77978515625,125.85548400878906 L587.4522705078125,128.30479431152344 L587.1716918945312,130.54782104492188 L586.9940795898438,132.36898803710938 L586.9080200195312,133.56317138671875 L586.882568359375,134.14056396484375 M591.5226440429688,123.78523254394531 L592.1317138671875,123.76565551757812 L593.202880859375,123.69636535644531 L594.5297241210938,123.54483032226562 L595.5882568359375,123.23968505859375 L595.9672241210938,122.69467163085938 L595.5205078125,121.83141326904297 L594.447998046875,120.65216827392578 L593.20263671875,119.25221252441406 L592.3262939453125,117.8697280883789 L592.0787353515625,116.72247314453125 L592.458740234375,115.95357513427734 L593.0836181640625,115.55933380126953 L593.6004028320312,115.42852020263672 M600.0679931640625,117.16458129882812 L600.1165771484375,117.98185729980469 L600.1956787109375,119.43498229980469 L600.296630859375,121.2988510131836 L600.3814697265625,122.89591979980469 L600.4356689453125,123.88655090332031 M608.5687255859375,117.39232635498047 L608.2147827148438,117.81920623779297 L607.61474609375,118.82911682128906 L606.8453369140625,120.44014739990234 L606.1201782226562,122.39515686035156 L605.6371459960938,124.24739837646484 L605.5364990234375,125.58311462402344 L605.8509521484375,126.19314575195312 L606.553466796875,125.9886474609375 L607.484619140625,124.91817474365234 L608.4598388671875,123.0639877319336 L609.3182983398438,120.61382293701172 L609.9398803710938,117.95965576171875 L610.2756958007812,115.61610412597656 L610.4022216796875,114.02051544189453 L610.4083251953125,113.2155532836914 M610.625244140625,122.99747467041016 L610.6278686523438,122.25263977050781 L610.6124877929688,121.15013122558594 L610.58642578125,120.07203674316406 L610.556884765625,119.40042877197266 M613.6873779296875,123.19361877441406 L614.2533569335938,122.8351058959961 L615.1951904296875,122.01012420654297 L616.27685546875,120.67402648925781 L617.0765380859375,119.02794647216797 L617.3515014648438,117.43003845214844 L617.039306640625,116.23165130615234 L616.3081665039062,115.70927429199219 L615.413818359375,115.99404907226562 L614.57080078125,117.05316162109375 L613.9595947265625,118.70230865478516 L613.7124633789062,120.6422348022461 L613.9422607421875,122.42546081542969 L614.7319946289062,123.65583038330078 L616.0502319335938,124.15187072753906 L617.6807861328125,123.97755432128906 L619.2994384765625,123.41952514648438 L620.499755859375,122.87088775634766 L621.14892578125,122.52914428710938 M638.251953125,118.27379608154297 L637.868896484375,118.88999938964844 L637.2994384765625,120.07886505126953 L636.714111328125,121.74845123291016 L636.389892578125,123.51016998291016 L636.44677734375,124.96942901611328 L636.8876953125,125.80281829833984 L637.6473388671875,125.85929107666016 L638.5680541992188,125.0537338256836 L639.4671630859375,123.40042114257812 L640.2135009765625,120.99479675292969 L640.715087890625,118.08646392822266 L640.940185546875,115.07579040527344 L640.9911499023438,112.4674072265625 L640.9569091796875,110.58006286621094 L640.904052734375,109.52214050292969 L640.87890625,109.11366271972656 M641.090087890625,120.06566619873047 L641.3170166015625,120.59799194335938 L641.58203125,121.2374496459961 L641.8021850585938,121.78330993652344 M650.4423828125,124.16260528564453 L649.8958740234375,123.88468933105469 L649.0880126953125,123.17526245117188 L648.2595825195312,121.90728759765625 L647.7899169921875,120.17664337158203 L647.8057861328125,118.26412200927734 L648.309814453125,116.53671264648438 L649.1326904296875,115.35691833496094 L650.0895385742188,114.99169921875 L651.0255737304688,115.53416442871094 L651.779052734375,116.91197204589844 L652.203857421875,118.83893585205078 L652.2455444335938,120.86620330810547 L651.95703125,122.55122375488281 L651.5680541992188,123.62127685546875 L651.2779541015625,124.09886169433594 M656.64697265625,117.52684020996094 L656.7955322265625,118.23356628417969 L657.0213623046875,119.53245544433594 L657.29931640625,121.271240234375 L657.6004028320312,122.9323959350586 L657.9801025390625,124.02655029296875 L658.4842529296875,124.2424087524414 L659.102294921875,123.60443878173828 L659.757080078125,122.46293640136719 L660.3731689453125,121.39665222167969 L660.9034423828125,120.9107437133789 L661.4036254882812,121.21085357666016 L661.9141845703125,122.1523208618164 L662.4788208007812,123.29702758789062 L663.11767578125,124.07001495361328 L663.79638671875,124.06057739257812 L664.4202880859375,123.16267395019531 L664.9222412109375,121.59530639648438 L665.2305908203125,119.82545471191406 L665.3650512695312,118.35537719726562 L665.3968505859375,117.4509506225586 L665.3916015625,117.07825469970703 M668.469970703125,120.4765396118164 L668.517822265625,119.84873962402344 L668.5865478515625,119.10691833496094 L668.654541015625,118.48394775390625 M667.63330078125,123.8523941040039 L667.9345092773438,123.04423522949219 L668.5235595703125,121.63568878173828 L669.38623046875,119.82744598388672 L670.3789672851562,118.11742401123047 L671.400634765625,116.90667724609375 L672.392578125,116.51539611816406 L673.3103637695312,117.02822875976562 L674.0764770507812,118.33087921142578 L674.605224609375,120.08246612548828 L674.8375854492188,121.83384704589844 L674.859619140625,123.12456512451172 L674.7913208007812,123.81979370117188 " fill="none" stroke="green" stroke-linecap="round" stroke-width="2" /><path d="M0,0 M276.567138671875,180.62701416015625 L276.7507019042969,180.05645751953125 L277.1194152832031,178.7972412109375 L277.6716613769531,176.7911376953125 L278.32305908203125,174.33509826660156 L278.94744873046875,171.90911865234375 L279.41827392578125,170.01019287109375 L279.6915588378906,168.8756866455078 L279.7928161621094,168.4156036376953 M278.41265869140625,182.42068481445312 L278.5107727050781,181.68101501464844 L278.64459228515625,180.51019287109375 L278.76202392578125,179.17515563964844 L278.8209228515625,178.15838623046875 L278.834228515625,177.61656188964844 M279.3692626953125,171.864990234375 L279.4719543457031,172.5857696533203 L279.6241760253906,173.9091796875 L279.81365966796875,175.6529998779297 L280.0255126953125,177.34271240234375 L280.2198486328125,178.5565185546875 L280.361328125,179.18177795410156 M280.235595703125,180.10386657714844 L280.4146728515625,180.92935180664062 L280.7399597167969,182.29278564453125 L281.16094970703125,183.93130493164062 L281.5255126953125,185.24790954589844 L281.75152587890625,186.01815795898438 M277.88543701171875,179.25421142578125 L278.51336669921875,179.11131286621094 L279.7559814453125,178.79449462890625 L281.5274963378906,178.3082275390625 L283.44842529296875,177.78269958496094 L285.0981140136719,177.47547912597656 L286.229248046875,177.70431518554688 L286.82196044921875,178.65797424316406 L287.0363464355469,180.3109893798828 L287.07147216796875,182.34429931640625 L287.0754699707031,184.2840118408203 L287.07891845703125,185.6724853515625 L287.09088134765625,186.3967742919922 M286.6806335449219,177.80377197265625 L287.28131103515625,177.5926055908203 L288.3348693847656,177.40017700195312 L289.6871337890625,177.52951049804688 L290.9693603515625,178.30645751953125 L291.9460144042969,179.82740783691406 L292.5381164550781,181.8964385986328 L292.8343811035156,184.0602569580078 L292.9544677734375,185.716064453125 L293.001708984375,186.65176391601562 M299.5902099609375,177.9173126220703 L299.1107177734375,178.34893798828125 L298.43621826171875,179.34339904785156 L297.80328369140625,180.9466094970703 L297.5330810546875,182.93106079101562 L297.7192687988281,184.9196014404297 L298.30206298828125,186.4715576171875 L299.1695861816406,187.27008056640625 L300.17724609375,187.138916015625 L301.2225646972656,186.08392333984375 L302.19793701171875,184.36965942382812 L303.0085754394531,182.42877197265625 L303.548095703125,180.85670471191406 L303.8287353515625,179.94119262695312 M303.2785949707031,168.52084350585938 L303.29449462890625,169.18324279785156 L303.3695983886719,170.6323699951172 L303.552490234375,172.954345703125 L303.91107177734375,175.9048614501953 L304.48370361328125,179.09982299804688 L305.17578125,181.9917449951172 L305.822509765625,184.20567321777344 L306.2862243652344,185.55593872070312 L306.509521484375,186.15541076660156 M317.7603759765625,176.40740966796875 L317.86492919921875,175.74447631835938 L318.06170654296875,174.366943359375 L318.31890869140625,172.27581787109375 L318.58160400390625,169.83566284179688 L318.8005065917969,167.53070068359375 L318.9378967285156,165.87646484375 L318.9999084472656,165.0 M318.0418701171875,178.49301147460938 L318.207763671875,179.25961303710938 L318.439453125,180.69754028320312 L318.66455078125,182.6219482421875 L318.7897644042969,184.51754760742188 L318.8246765136719,185.9008331298828 L318.8052978515625,186.61892700195312 M327.490234375,171.45254516601562 L327.5381164550781,170.7705535888672 L327.63189697265625,169.82058715820312 L327.7366638183594,168.92625427246094 L327.8175354003906,168.4111328125 M334.5245361328125,179.03126525878906 L334.10931396484375,179.64976501464844 L333.568603515625,180.86846923828125 L333.14422607421875,182.5984649658203 L333.1385803222656,184.45115661621094 L333.62542724609375,186.00465393066406 L334.5313720703125,186.8665771484375 L335.6531982421875,186.8074188232422 L336.7642517089844,185.86489868164062 L337.6772155761719,184.32308959960938 L338.2765808105469,182.62985229492188 L338.5684814453125,181.3150634765625 L338.6555480957031,180.58546447753906 M338.7010803222656,171.1284942626953 L338.7230529785156,171.73275756835938 L338.7559814453125,172.44862365722656 L338.78955078125,173.05142211914062 M338.57269287109375,172.36595153808594 L338.6959228515625,172.8921356201172 L338.8446044921875,174.02476501464844 L338.98626708984375,175.86399841308594 L339.1300964355469,178.27642822265625 L339.3961486816406,180.9798583984375 L339.8760070800781,183.55763244628906 L340.5286560058594,185.6322021484375 L341.1344909667969,186.9455108642578 L341.53387451171875,187.55172729492188 M357.5968933105469,174.75711059570312 L357.59259033203125,175.5484161376953 L357.66424560546875,177.16976928710938 L357.8550109863281,179.6132354736328 L358.19232177734375,182.47523498535156 L358.61859130859375,185.21656799316406 L359.032958984375,187.36245727539062 L359.3404541015625,188.67372131347656 L359.50970458984375,189.2427520751953 M363.5850524902344,180.63299560546875 L363.65069580078125,181.34149169921875 L363.7628479003906,182.68777465820312 L363.8975830078125,184.52218627929688 L364.00653076171875,186.38690185546875 L364.0686950683594,187.7921600341797 L364.0882568359375,188.55677795410156 M367.646484375,176.48851013183594 L367.7643127441406,177.1366729736328 L367.9329833984375,178.4666290283203 L368.11114501953125,180.4278564453125 L368.26861572265625,182.6792449951172 L368.453125,184.76702880859375 L368.744384765625,186.27349853515625 L369.2427673339844,186.9498291015625 L369.97674560546875,186.6686553955078 L370.86920166015625,185.48007202148438 L371.77691650390625,183.70664978027344 L372.52349853515625,181.7876739501953 L372.9928894042969,180.28501892089844 L373.20489501953125,179.44313049316406 M372.6632080078125,182.45062255859375 L372.90472412109375,183.13746643066406 L373.36419677734375,184.3579559326172 L374.08135986328125,185.8721160888672 L375.048828125,187.11964416503906 L376.2080078125,187.6736297607422 L377.41357421875,187.31163024902344 L378.40740966796875,186.09889221191406 L379.0221862792969,184.3437957763672 L379.2275390625,182.4542694091797 L379.1804504394531,180.7949981689453 L379.05682373046875,179.68051147460938 L378.978759765625,179.13665771484375 M379.2886962890625,185.59767150878906 L379.7449951171875,186.26708984375 L380.5650939941406,187.28103637695312 L381.666259765625,188.36524963378906 L382.642578125,189.12806701660156 L383.2813415527344,189.49868774414062 M395.65765380859375,180.6874237060547 L396.28076171875,180.6208953857422 L397.26727294921875,180.4692840576172 L398.2687683105469,180.29042053222656 L398.93707275390625,180.1421356201172 M398.39013671875,171.0581817626953 L398.37152099609375,171.75611877441406 L398.4165344238281,173.22525024414062 L398.58935546875,175.50692749023438 L398.905029296875,178.3136444091797 L399.310302734375,181.21673583984375 L399.6805114746094,183.7430877685547 L399.9290771484375,185.4683837890625 L400.0429382324219,186.3555908203125 M400.00262451171875,179.95147705078125 L400.6042175292969,179.9517364501953 L401.32110595703125,179.95201110839844 L401.92822265625,179.9521942138672 M406.10107421875,183.1822967529297 L405.761474609375,183.69432067871094 L405.42425537109375,184.7073211669922 L405.34918212890625,186.11349487304688 L405.8089599609375,187.52955627441406 L406.8016052246094,188.56504821777344 L408.12890625,188.8798828125 L409.41375732421875,188.34115600585938 L410.296142578125,187.07640075683594 L410.566650390625,185.38226318359375 L410.24652099609375,183.64068603515625 L409.70001220703125,182.32122802734375 L409.2489013671875,181.58303833007812 M426.5323486328125,177.542236328125 L427.18603515625,177.44845581054688 L428.2862548828125,177.3338165283203 L429.6209411621094,177.2588653564453 L430.7054443359375,177.24850463867188 L431.34368896484375,177.28025817871094 M429.38482666015625,184.30690002441406 L429.53216552734375,183.57449340820312 L429.7852783203125,182.0773468017578 L430.0575866699219,179.79685974121094 L430.2607421875,177.06040954589844 L430.34124755859375,174.34397888183594 L430.31915283203125,172.11343383789062 L430.2639465332031,170.68389892578125 L430.2314758300781,170.02252197265625 M440.353271484375,181.97036743164062 L439.9589538574219,182.57313537597656 L439.23828125,183.57608032226562 L438.248779296875,184.72911071777344 L437.1912841796875,185.51441955566406 L436.22528076171875,185.5511932373047 L435.53582763671875,184.6844940185547 L435.2379150390625,183.07830810546875 L435.3959045410156,181.0985565185547 L436.02459716796875,179.20159912109375 L437.0360107421875,177.77606201171875 L438.217041015625,177.08763122558594 L439.3397216796875,177.20733642578125 L440.1942138671875,178.00177001953125 L440.67071533203125,179.17567443847656 L440.8460388183594,180.24227905273438 L440.85870361328125,180.93092346191406 M440.82073974609375,181.7445831298828 L441.15972900390625,182.44090270996094 L441.71466064453125,183.5055694580078 L442.41632080078125,184.66026306152344 L443.00390625,185.4862823486328 L443.3721923828125,185.90512084960938 M446.694580078125,169.84780883789062 L446.798828125,170.55311584472656 L446.96331787109375,172.0343475341797 L447.14459228515625,174.2707977294922 L447.3114013671875,176.88015747070312 L447.4980773925781,179.34046936035156 L447.74981689453125,181.2142791748047 L448.0668029785156,182.3382568359375 L448.3665771484375,182.82798767089844 L448.56597900390625,182.93833923339844 M453.0672912597656,178.9561309814453 L452.4784851074219,179.11990356445312 L451.509033203125,179.64651489257812 L450.32867431640625,180.6383056640625 L449.3076171875,181.99554443359375 L448.7342224121094,183.4513702392578 L448.7884521484375,184.6973419189453 L449.5238037109375,185.54415893554688 L450.93597412109375,185.915283203125 L452.8673095703125,185.7532196044922 L455.1083679199219,185.03848266601562 L457.39093017578125,183.8513946533203 L459.3845520019531,182.32200622558594 L460.8140869140625,180.73033142089844 L461.5279541015625,179.3629608154297 L461.4892578125,178.43692016601562 L460.8616638183594,178.15423583984375 L459.92620849609375,178.60752868652344 L458.99365234375,179.6706085205078 L458.3242492675781,181.06236267089844 L457.98748779296875,182.275634765625 L457.89898681640625,183.0211639404297 M457.8916015625,184.54415893554688 L458.32568359375,184.9099884033203 L458.7896728515625,185.2852325439453 M478.83038330078125,181.4394073486328 L478.447509765625,182.01632690429688 L477.72796630859375,182.98648071289062 L476.70782470703125,184.1046600341797 L475.5784912109375,184.90614318847656 L474.5454406738281,185.0351104736328 L473.82672119140625,184.32554626464844 L473.62139892578125,182.89683532714844 L473.99578857421875,181.04251098632812 L474.89208984375,179.13758850097656 L476.12774658203125,177.5739288330078 L477.414306640625,176.6446075439453 L478.4744873046875,176.50527954101562 L479.15191650390625,177.11102294921875 L479.3960876464844,178.24697875976562 L479.3661193847656,179.3781280517578 L479.25189208984375,180.16871643066406 M479.22705078125,181.216064453125 L479.5415344238281,181.81715393066406 L479.9994201660156,182.74832153320312 L480.44305419921875,183.6825714111328 L480.7147216796875,184.2928924560547 M492.26080322265625,180.91036987304688 L492.37261962890625,181.4761505126953 L492.48492431640625,182.06732177734375 M492.7879638671875,184.9261016845703 L492.87457275390625,184.17892456054688 L493.1663818359375,182.9429931640625 L493.75506591796875,181.44720458984375 L494.6104736328125,180.1942138671875 L495.56378173828125,179.55810546875 L496.42333984375,179.7252655029297 L497.03265380859375,180.58604431152344 L497.39801025390625,181.84706115722656 L497.6402893066406,183.013916015625 L497.9223327636719,183.6382598876953 L498.377197265625,183.47105407714844 L499.0216369628906,182.54055786132812 L499.8194274902344,181.15757751464844 L500.7281188964844,179.8427734375 L501.6522521972656,179.0969696044922 L502.47027587890625,179.23663330078125 L503.0957946777344,180.2659454345703 L503.4411926269531,181.867431640625 L503.52685546875,183.55734252929688 L503.4803466796875,184.83177185058594 L503.4095764160156,185.5271453857422 M507.1822814941406,179.70582580566406 L507.2831726074219,180.43289184570312 L507.3788146972656,181.65756225585938 L507.44140625,182.9403839111328 L507.4432373046875,183.84194946289062 M510.8853454589844,181.76307678222656 L510.9837341308594,181.0249786376953 L511.25592041015625,179.8301544189453 L511.7513427734375,178.42250061035156 L512.48095703125,177.32215881347656 L513.3793334960938,176.8945770263672 L514.3424072265625,177.3571319580078 L515.2528076171875,178.6977081298828 L515.98779296875,180.61862182617188 L516.471435546875,182.64064025878906 L516.7201538085938,184.20469665527344 L516.8013916015625,185.083740234375 M519.2305297851562,178.02349853515625 L519.2744140625,178.6607666015625 L519.3758544921875,179.88218688964844 L519.5929565429688,181.5631561279297 L519.9541015625,183.25921630859375 L520.4962158203125,184.49636840820312 L521.2003173828125,184.90455627441406 L521.984375,184.34996032714844 L522.7174682617188,183.05812072753906 L523.2987060546875,181.44970703125 L523.6492919921875,180.10267639160156 L523.8023681640625,179.30093383789062 M523.311767578125,183.00570678710938 L523.5473022460938,183.4733123779297 L523.8167114257812,184.0214385986328 L524.035400390625,184.47801208496094 M527.2568969726562,176.90658569335938 L527.3046875,177.59107971191406 L527.427734375,178.63392639160156 L527.578369140625,179.6707000732422 L527.7088623046875,180.33694458007812 M527.4651489257812,183.39559936523438 L527.5745849609375,182.79017639160156 L527.9639892578125,181.98536682128906 L528.793701171875,181.19027709960938 L530.0777587890625,180.5681610107422 L531.5943603515625,179.9300079345703 L532.9945068359375,179.08526611328125 L533.9170532226562,178.0253448486328 L534.1760864257812,177.06716918945312 L533.87451171875,176.62057495117188 L533.3021240234375,176.86654663085938 L532.75537109375,177.7025146484375 L532.415771484375,178.63528442382812 L532.2871704101562,179.2942657470703 M531.6873779296875,180.82106018066406 L531.8683471679688,181.48773193359375 L532.364501953125,182.521728515625 L533.2999877929688,183.6279296875 L534.6055908203125,184.3798065185547 L536.0471801757812,184.63702392578125 L537.2046508789062,184.5470733642578 L537.879638671875,184.36358642578125 M542.3486328125,188.6305694580078 L542.6358642578125,188.01699829101562 L543.0908203125,186.9047088623047 L543.6029663085938,185.44168090820312 L543.9863891601562,184.16009521484375 L544.19482421875,183.3528594970703 M558.6240234375,182.13705444335938 L558.297119140625,182.5026397705078 L557.7958374023438,183.4411163330078 L557.2842407226562,185.11087036132812 L557.0115966796875,187.41893005371094 L557.0916137695312,190.08079528808594 L557.520263671875,192.62857055664062 L558.1627197265625,194.63357543945312 L558.8687133789062,195.8484649658203 L559.5514526367188,196.15956115722656 L560.15576171875,195.52301025390625 L560.64306640625,193.96058654785156 L560.991455078125,191.5715789794922 L561.1907958984375,188.5884246826172 L561.2392578125,185.44786071777344 L561.1888427734375,182.6723175048828 L561.0858154296875,180.62220764160156 L560.985595703125,179.43585205078125 L560.9180908203125,178.9556427001953 M564.2005615234375,178.90185546875 L564.2554321289062,179.6514434814453 L564.4501953125,180.85887145996094 L564.8514404296875,182.19247436523438 L565.4915161132812,183.054443359375 L566.3017578125,183.17092895507812 L567.172119140625,182.55975341796875 L567.87255859375,181.71768188476562 L568.3009033203125,181.06568908691406 M568.4381103515625,177.88165283203125 L568.5503540039062,178.6332244873047 L568.8569946289062,179.9058837890625 L569.3839111328125,181.437744140625 L570.0430908203125,182.75660705566406 L570.61572265625,183.60379028320312 L570.9752197265625,183.96328735351562 M573.8155517578125,184.47244262695312 L574.463623046875,184.5455780029297 L575.6098022460938,184.53041076660156 L577.030029296875,184.3296356201172 L578.1885986328125,183.8852996826172 L578.65771484375,183.24241638183594 L578.259521484375,182.42922973632812 L577.1919555664062,181.43714904785156 L575.9229125976562,180.28475952148438 L575.0120849609375,179.072265625 L574.8209228515625,178.002197265625 L575.37109375,177.2533721923828 L576.41748046875,176.90499877929688 L577.4398803710938,176.84620666503906 L578.10205078125,176.91275024414062 M581.9508056640625,175.1038818359375 L582.3974609375,175.0923614501953 L583.109130859375,175.01365661621094 L583.89013671875,174.67750549316406 L584.4561767578125,173.9376678466797 L584.691650390625,172.7874298095703 L584.6323852539062,171.47158813476562 L584.459716796875,170.4047393798828 L584.3211669921875,169.8065948486328 M584.6091918945312,175.041259765625 L584.8095092773438,175.69183349609375 L585.0714111328125,176.9624481201172 L585.31982421875,178.72244262695312 L585.478515625,180.54269409179688 L585.5615844726562,181.93202209472656 L585.59228515625,182.68983459472656 M602.8499755859375,182.70521545410156 L603.2008056640625,183.24234008789062 L604.0589599609375,184.0242919921875 L605.4786376953125,184.76951599121094 L607.254150390625,185.1009979248047 L608.995361328125,184.89065551757812 L610.26806640625,184.1587677001953 L610.7696533203125,183.0408477783203 L610.4235229492188,181.68865966796875 L609.39697265625,180.18275451660156 L608.0493774414062,178.61337280273438 L606.8516845703125,177.09359741210938 L606.2271728515625,175.76931762695312 L606.37158203125,174.8233642578125 L607.1720581054688,174.37332153320312 L608.3067016601562,174.42025756835938 L609.290771484375,174.71812438964844 L609.8826293945312,175.02560424804688 M614.444580078125,179.33091735839844 L614.548095703125,179.73422241210938 L614.670166015625,180.2051239013672 L614.7723388671875,180.5958251953125 M614.823974609375,171.927001953125 L614.8924560546875,171.94557189941406 M618.9239501953125,174.8192138671875 L618.9635620117188,175.68429565429688 L619.0645751953125,177.29019165039062 L619.2312622070312,179.4494171142578 L619.4370727539062,181.6116485595703 L619.618408203125,183.22142028808594 L619.732177734375,184.09181213378906 M618.1932983398438,174.73452758789062 L618.84765625,174.84182739257812 L619.9757080078125,174.96336364746094 L621.3731689453125,175.0345916748047 L622.5339965820312,175.03057861328125 L623.226318359375,174.98867797851562 M639.24365234375,178.70382690429688 L639.275146484375,179.41793823242188 L639.314208984375,180.54083251953125 L639.3480224609375,181.6768035888672 L639.36376953125,182.4300537109375 M639.4744873046875,179.2624053955078 L639.7193603515625,178.58636474609375 L640.236083984375,177.48841857910156 L641.0955810546875,176.2517547607422 L642.2222290039062,175.35806274414062 L643.4841918945312,175.03451538085938 L644.5362548828125,175.13250732421875 L645.188720703125,175.37867736816406 M649.4503173828125,176.59490966796875 L649.47607421875,177.25091552734375 L649.5318603515625,178.4517059326172 L649.608154296875,180.02040100097656 L649.6781005859375,181.3883819580078 L649.7220458984375,182.24667358398438 M653.4569091796875,186.4788055419922 L652.9900512695312,186.74041748046875 L652.20263671875,187.46853637695312 L651.2889404296875,188.7866973876953 L650.62646484375,190.63555908203125 L650.5076904296875,192.74136352539062 L651.02587890625,194.74130249023438 L652.0760498046875,196.3024444580078 L653.4097290039062,197.1562957763672 L654.7620239257812,197.12191772460938 L655.9332885742188,196.20765686035156 L656.821533203125,194.58656311035156 L657.3609619140625,192.62164306640625 L657.5670166015625,190.76414489746094 L657.4896850585938,189.34951782226562 L657.2880859375,188.5170440673828 L657.0992431640625,188.17678833007812 M654.587646484375,180.97325134277344 L654.928466796875,180.3122100830078 L655.611083984375,179.31198120117188 L656.5888671875,178.2537384033203 L657.6209716796875,177.62657165527344 L658.4490966796875,177.68678283691406 L658.86083984375,178.5419464111328 L658.7735595703125,180.0581817626953 L658.329345703125,181.97425842285156 L657.7579345703125,183.89012145996094 L657.2767333984375,185.4425506591797 L657.0013427734375,186.4029998779297 L656.9117431640625,186.82113647460938 M661.4183959960938,173.14854431152344 L661.5653076171875,173.75885009765625 L661.725830078125,175.04595947265625 L661.8419189453125,176.98338317871094 L661.87109375,179.2001953125 L661.8826904296875,181.2096710205078 L661.903076171875,182.5819091796875 L661.942138671875,183.26234436035156 M661.52490234375,184.95892333984375 L661.848388671875,184.2767333984375 L662.44970703125,183.0298309326172 L663.2615966796875,181.3596954345703 L664.1175537109375,179.6840057373047 L664.9112548828125,178.43698120117188 L665.5830078125,177.97642517089844 L666.1416015625,178.3989715576172 L666.6077880859375,179.6278533935547 L666.9733276367188,181.3251953125 L667.2506713867188,183.0352020263672 L667.4334716796875,184.31277465820312 L667.531005859375,185.01388549804688 M671.8457641601562,178.57290649414062 L671.892333984375,179.1884307861328 L671.9908447265625,180.39491271972656 L672.12841796875,182.0913543701172 L672.2769775390625,183.8861846923828 L672.3961791992188,185.2856903076172 L672.4603271484375,186.07952880859375 M670.5736694335938,172.9504852294922 L670.6427612304688,173.5689239501953 L670.7635498046875,174.6650390625 L670.9857177734375,176.0134735107422 L671.4328002929688,177.13734436035156 L672.2467041015625,177.74099731445312 L673.4468994140625,177.78785705566406 L674.8494873046875,177.4936981201172 L676.0284423828125,177.1724395751953 L676.74072265625,176.98358154296875 M687.7935791015625,177.19972229003906 L688.569580078125,177.08807373046875 L689.8695678710938,176.8815460205078 L691.4486083984375,176.6724853515625 L692.8062744140625,176.6910858154297 L693.7008056640625,177.1937713623047 L694.109375,178.33799743652344 L694.1868896484375,180.01832580566406 L694.1475830078125,181.85986328125 L694.1151123046875,183.32418823242188 L694.1000366210938,184.16934204101562 M694.21533203125,177.83045959472656 L694.2713012695312,177.63864135742188 M693.9786376953125,167.4010009765625 L693.93212890625,168.14736938476562 L693.8541870117188,169.56776428222656 L693.7540283203125,171.53453063964844 L693.7265625,173.57962036132812 L693.9127197265625,175.23208618164062 L694.4359130859375,176.2479705810547 L695.3171997070312,176.6327667236328 L696.38330078125,176.58523559570312 L697.2811279296875,176.39608764648438 L697.8261108398438,176.24417114257812 M701.0017700195312,170.22360229492188 L701.1192626953125,170.81590270996094 L701.300537109375,172.1116943359375 L701.5023803710938,174.1526641845703 L701.6827392578125,176.64732360839844 L701.8484497070312,179.1581268310547 L702.0106201171875,181.20333862304688 L702.147705078125,182.49879455566406 L702.2459716796875,183.09423828125 M702.1573486328125,184.15444946289062 L702.4681396484375,183.42213439941406 L703.0889892578125,182.08258056640625 L703.98583984375,180.27943420410156 L705.0152587890625,178.48130798339844 L706.0482177734375,177.12478637695312 L706.9632568359375,176.57684326171875 L707.7371826171875,176.95339965820312 L708.4110107421875,178.20152282714844 L708.9998779296875,179.99851989746094 L709.5279541015625,181.91217041015625 L709.93115234375,183.3993682861328 L710.1707763671875,184.25262451171875 M715.0980224609375,179.97140502929688 L715.32861328125,179.3705596923828 L715.8751220703125,178.516357421875 L716.729248046875,177.70713806152344 L717.6689453125,177.3594207763672 L718.3372802734375,177.58839416503906 L718.4403076171875,178.29376220703125 L717.8629150390625,179.18589782714844 L716.7947998046875,180.05601501464844 L715.6041870117188,180.8673553466797 L714.703125,181.72982788085938 L714.356689453125,182.7620849609375 L714.7152099609375,183.88157653808594 L715.7730102539062,184.81800842285156 L717.41650390625,185.2726287841797 L719.3812255859375,185.04576110839844 L721.31982421875,184.127685546875 L722.8780517578125,182.6819305419922 L723.9576416015625,180.94589233398438 L724.7806396484375,179.18307495117188 L725.7310791015625,177.7034149169922 L727.0615844726562,176.72686767578125 L728.714599609375,176.3158721923828 L730.37255859375,176.36947631835938 L731.6016235351562,176.62168884277344 L732.262939453125,176.8414764404297 M723.526123046875,181.5321044921875 L723.6947021484375,182.0213623046875 L723.9300537109375,182.81808471679688 L724.15234375,183.6383819580078 L724.2813720703125,184.19834899902344 M732.43505859375,179.92233276367188 L732.792724609375,179.40992736816406 L733.4537353515625,178.49769592285156 L734.30224609375,177.3517608642578 L735.078369140625,176.29808044433594 L735.5887451171875,175.56834411621094 L735.818115234375,175.2228546142578 M734.7608032226562,176.95187377929688 L734.4466552734375,177.44114685058594 L733.9898681640625,178.33358764648438 L733.62353515625,179.56272888183594 L733.7223510742188,180.8778533935547 L734.533203125,182.0406494140625 L736.0609130859375,182.8524932861328 L737.9896240234375,183.22140502929688 L739.8809204101562,183.21572875976562 L741.2625122070312,183.03782653808594 L741.999755859375,182.86654663085938 " fill="none" stroke="black" stroke-linecap="round" stroke-width="1" /><path d="M0,0 M235.88063049316406,239.47406005859375 L235.95144653320312,238.6733856201172 L236.04209899902344,237.0847930908203 L236.11170959472656,234.74436950683594 L236.12881469726562,232.09555053710938 L236.111328125,229.63644409179688 L236.0850830078125,227.89447021484375 L236.07191467285156,226.9781036376953 M240.66952514648438,237.38485717773438 L240.6518096923828,238.23728942871094 L240.65640258789062,239.78269958496094 L240.70355224609375,241.81082153320312 L240.8101348876953,243.78619384765625 L240.92840576171875,245.23178100585938 L241.01556396484375,245.9894561767578 M238.33755493164062,239.0986785888672 L238.82736206054688,238.6789093017578 L239.53607177734375,237.7808837890625 L240.23629760742188,236.3014678955078 L240.622802734375,234.36338806152344 L240.62315368652344,232.2443084716797 L240.3872833251953,230.29010009765625 L240.12428283691406,228.8976593017578 L239.96170043945312,228.17095947265625 M245.1597900390625,237.73226928710938 L245.14971923828125,238.56863403320312 L245.2546844482422,240.1078338623047 L245.54574584960938,242.14871215820312 L246.04971313476562,244.1633758544922 L246.57144165039062,245.64691162109375 L246.95590209960938,246.4340057373047 M256.46160888671875,236.62994384765625 L256.49786376953125,237.41163635253906 L256.59613037109375,238.91845703125 L256.76416015625,241.00759887695312 L256.9693298339844,243.193603515625 L257.1426086425781,244.88987731933594 L257.24957275390625,245.85264587402344 M266.092041015625,238.9498291015625 L266.62750244140625,238.56985473632812 L267.5290832519531,237.92906188964844 L268.62774658203125,237.1581268310547 L269.5226135253906,236.53421020507812 L270.0599670410156,236.181396484375 M267.3140563964844,233.7222900390625 L267.48919677734375,234.4414825439453 L267.86236572265625,235.81369018554688 L268.4517822265625,237.69252014160156 L269.2082824707031,239.56971740722656 L270.0725402832031,240.95057678222656 L270.99468994140625,241.4657440185547 L271.91583251953125,240.99313354492188 L272.75018310546875,239.68569946289062 L273.36773681640625,237.86822509765625 L273.6454162597656,235.95297241210938 L273.5289611816406,234.38259887695312 L273.0802307128906,233.53564453125 L272.4467468261719,233.59580993652344 L271.85833740234375,234.54078674316406 L271.4862365722656,236.08157348632812 L271.4071350097656,237.7738037109375 L271.5149230957031,239.0962677001953 L271.6699523925781,239.8470001220703 M271.71380615234375,240.79248046875 L272.0863342285156,241.44580078125 L272.7266540527344,242.56072998046875 L273.5820617675781,243.89529418945312 L274.5272521972656,244.92271423339844 L275.58416748046875,245.2106475830078 L276.7559814453125,244.5469512939453 L277.9875793457031,243.02171325683594 L279.11077880859375,240.96168518066406 L279.8842468261719,238.8141632080078 L280.1335144042969,236.97618103027344 L279.8736572265625,235.7142333984375 L279.29132080078125,235.25680541992188 L278.638427734375,235.68511962890625 L278.1316223144531,236.89663696289062 L277.8743896484375,238.58248901367188 L277.8699035644531,240.27264404296875 L277.98626708984375,241.4890899658203 L278.11669921875,242.11709594726562 M278.27301025390625,242.7283172607422 L278.73297119140625,243.2038116455078 L279.6079406738281,243.8602294921875 L280.8340148925781,244.38162231445312 L282.1839599609375,244.28668212890625 L283.456298828125,243.3108367919922 L284.53045654296875,241.47518920898438 L285.3512268066406,239.07962036132812 L285.8524169921875,236.62738037109375 L285.9845886230469,234.59616088867188 L285.76556396484375,233.30323791503906 L285.2845458984375,232.91696166992188 L284.7164306640625,233.44969177246094 L284.2759094238281,234.74172973632812 L284.04052734375,236.48822021484375 L284.0361022949219,238.2452850341797 L284.15631103515625,239.5435791015625 L284.2857360839844,240.2388458251953 M284.5578308105469,242.9821319580078 L285.0577392578125,243.55953979492188 L285.876953125,244.40745544433594 L286.72369384765625,245.2323455810547 L287.3062438964844,245.74069213867188 M304.4424743652344,238.56341552734375 L304.66607666015625,239.2833709716797 L305.1412048339844,240.4769744873047 L305.8363037109375,241.90609741210938 L306.49859619140625,243.05189514160156 L306.950439453125,243.71478271484375 M304.6422424316406,253.71591186523438 L304.8914489746094,252.90089416503906 L305.443115234375,251.26771545410156 L306.35711669921875,248.78868103027344 L307.5462951660156,245.7825927734375 L308.8426208496094,242.65151977539062 L310.0316467285156,239.89193725585938 L310.9471130371094,237.82044982910156 L311.4975280761719,236.59402465820312 L311.7436218261719,236.06629943847656 M317.2281494140625,243.073486328125 L316.7453918457031,243.3428192138672 L315.8628234863281,243.56887817382812 L314.7080078125,243.49508666992188 L313.6383361816406,242.8341522216797 L312.99334716796875,241.59832763671875 L312.9674072265625,239.99481201171875 L313.5672302246094,238.3629150390625 L314.64739990234375,237.09373474121094 L315.91339111328125,236.51632690429688 L317.0467834472656,236.77719116210938 L317.80413818359375,237.78512573242188 L318.06805419921875,239.2440948486328 L318.0006408691406,240.56700134277344 L317.82989501953125,241.41835021972656 M317.80828857421875,242.32293701171875 L318.308349609375,242.7330780029297 L319.18359375,243.10037231445312 L320.32696533203125,243.04095458984375 L321.4620666503906,242.2310333251953 L322.4137268066406,240.82142639160156 L323.06585693359375,239.22225952148438 L323.4189758300781,237.98382568359375 L323.5567626953125,237.3122100830078 M322.8917541503906,241.24072265625 L323.232177734375,241.8195343017578 L323.86676025390625,242.62713623046875 L324.8049011230469,243.2889404296875 L325.9315490722656,243.2899169921875 L327.1349792480469,242.4713134765625 L328.247802734375,241.0183868408203 L329.12255859375,239.39065551757812 L329.6613464355469,238.1353302001953 L329.9046630859375,237.4498291015625 M329.5262451171875,239.81069946289062 L329.72515869140625,240.5149688720703 L330.14752197265625,241.68084716796875 L330.8900146484375,243.00692749023438 L331.9202880859375,244.00946044921875 L333.135498046875,244.45947265625 L334.1864318847656,244.4608917236328 L334.85858154296875,244.28353881835938 M344.5827331542969,233.63650512695312 L344.53668212890625,234.462646484375 L344.45806884765625,236.03536987304688 L344.3673095703125,238.2272491455078 L344.300048828125,240.52801513671875 L344.2906188964844,242.45314025878906 L344.3188171386719,243.67945861816406 L344.35894775390625,244.2323455810547 M344.8998107910156,243.12472534179688 L345.10247802734375,242.35101318359375 L345.4308166503906,241.03591918945312 L345.8804626464844,239.40023803710938 L346.4207763671875,237.9878692626953 L347.0415954589844,237.23565673828125 L347.69427490234375,237.38430786132812 L348.3446044921875,238.4240264892578 L348.9765625,240.0860137939453 L349.65936279296875,241.87442016601562 L350.49188232421875,243.29202270507812 L351.54412841796875,243.955322265625 L352.8146667480469,243.6838836669922 L354.1568603515625,242.56678771972656 L355.32879638671875,240.91029357910156 L356.0716857910156,239.0990753173828 L356.19805908203125,237.5448760986328 L355.7427978515625,236.60089111328125 L354.9256591796875,236.49497985839844 L354.04400634765625,237.25906372070312 L353.3723449707031,238.70127868652344 L353.06060791015625,240.42381286621094 L353.0199279785156,241.8524932861328 L353.10845947265625,242.70675659179688 M360.20233154296875,236.49220275878906 L360.1815185546875,237.22056579589844 L360.166015625,238.5411376953125 L360.2057189941406,240.26878356933594 L360.39080810546875,241.83566284179688 L360.77520751953125,242.76272583007812 L361.3284912109375,242.80198669433594 L361.9742736816406,242.06277465820312 L362.56951904296875,240.94798278808594 L362.9827880859375,239.9875030517578 L363.199951171875,239.41073608398438 M362.9814453125,237.90708923339844 L363.2309265136719,238.6807098388672 L363.8147277832031,239.9668426513672 L364.7762451171875,241.49757385253906 L366.00079345703125,242.7557373046875 L367.296875,243.3552703857422 L368.4415588378906,243.06414794921875 L369.25244140625,241.90367126464844 L369.67010498046875,240.12745666503906 L369.7127990722656,238.15419006347656 L369.5568542480469,236.57711791992188 L369.37408447265625,235.65455627441406 M389.04925537109375,231.2887420654297 L389.058349609375,232.01278686523438 L389.0864562988281,233.51873779296875 L389.1563720703125,235.79800415039062 L389.27685546875,238.44227600097656 L389.44677734375,240.94366455078125 L389.60650634765625,242.73464965820312 L389.7165222167969,243.68536376953125 M409.1717834472656,235.85867309570312 L409.117919921875,236.48121643066406 L409.12261962890625,237.45555114746094 L409.17578125,238.4383544921875 L409.2674865722656,239.08633422851562 M407.939453125,234.00299072265625 L408.1243591308594,233.3129425048828 L408.44573974609375,232.05374145507812 L408.8468017578125,230.41307067871094 L409.227294921875,228.8418731689453 L409.50164794921875,227.7199249267578 L409.65185546875,227.15972900390625 M409.448486328125,242.311767578125 L409.5724792480469,241.5504913330078 L409.73394775390625,240.1507110595703 L409.90234375,238.2551727294922 L410.0956726074219,236.27792358398438 L410.4173889160156,234.6024932861328 L411.0171813964844,233.50465393066406 L411.9449462890625,233.1238250732422 L412.9979248046875,233.5613555908203 L413.89141845703125,234.7989501953125 L414.3974609375,236.58071899414062 L414.4547119140625,238.51248168945312 L414.26824951171875,240.03074645996094 L414.06689453125,240.88668823242188 M411.26861572265625,243.0733184814453 L412.022705078125,242.75314331054688 L413.36322021484375,241.99893188476562 L415.0753479003906,240.71572875976562 L416.68768310546875,239.064453125 L417.87017822265625,237.3451690673828 L418.50408935546875,236.0147247314453 L418.7183532714844,235.26019287109375 M417.42919921875,239.32984924316406 L417.7223205566406,239.8877410888672 L418.31744384765625,240.7398681640625 L419.2802734375,241.5709228515625 L420.57220458984375,241.8578643798828 L422.117431640625,241.30880737304688 L423.79925537109375,239.9393768310547 L425.44537353515625,238.1000213623047 L426.8768310546875,236.31056213378906 L427.8866271972656,235.0323028564453 L428.43896484375,234.37255859375 M425.03314208984375,239.5296630859375 L425.186279296875,240.22265625 L425.4982604980469,241.3882293701172 L426.06964111328125,242.76339721679688 L426.9718322753906,243.82376098632812 L428.2646484375,244.18252563476562 L429.8870849609375,243.59750366210938 L431.6601867675781,242.14166259765625 L433.31060791015625,240.1449737548828 L434.63153076171875,238.06210327148438 L435.470703125,236.45692443847656 L435.8708190917969,235.55540466308594 M435.7631530761719,242.41360473632812 L435.756591796875,241.5421600341797 L435.78515625,240.16366577148438 L435.858154296875,238.57635498046875 L435.9504089355469,237.35906982421875 L436.02166748046875,236.68223571777344 M438.84039306640625,238.17306518554688 L438.916015625,238.33554077148438 L438.99114990234375,238.49826049804688 M439.00604248046875,242.3164520263672 L439.0069580078125,241.49954223632812 L439.1106872558594,240.1072540283203 L439.3801574707031,238.35379028320312 L439.9075927734375,236.7705841064453 L440.63360595703125,235.7798309326172 L441.42425537109375,235.6411590576172 L442.1431884765625,236.3223114013672 L442.6737976074219,237.5781707763672 L442.9577941894531,238.8076629638672 L443.0818176269531,239.64332580566406 M443.296142578125,237.94442749023438 L443.6034240722656,237.32125854492188 L444.13336181640625,236.37339782714844 L444.81842041015625,235.39602661132812 L445.4876708984375,234.92698669433594 L446.0478820800781,235.24740600585938 L446.48028564453125,236.38137817382812 L446.7928161621094,238.0131378173828 L447.0572509765625,239.68113708496094 L447.26531982421875,240.90695190429688 L447.40069580078125,241.56576538085938 M450.1806640625,239.12281799316406 L450.28704833984375,238.54815673828125 L450.6430358886719,237.5454864501953 L451.33319091796875,236.30101013183594 L452.28857421875,235.25 L453.2430419921875,234.748779296875 L453.87701416015625,234.94842529296875 L453.9093322753906,235.75942993164062 L453.282470703125,236.90513610839844 L452.2304382324219,238.04417419433594 L451.1441955566406,238.90969848632812 L450.36474609375,239.4036407470703 L449.9964599609375,239.5867462158203 M449.5951843261719,239.72683715820312 L449.8067626953125,240.30722045898438 L450.4962463378906,241.1566925048828 L451.801513671875,242.01971435546875 L453.55902099609375,242.56793212890625 L455.36090087890625,242.76058959960938 L456.70941162109375,242.7153778076172 L457.4352722167969,242.61602783203125 M472.1605224609375,238.12757873535156 L472.202392578125,237.28221130371094 L472.3133544921875,235.89678955078125 L472.50177001953125,234.2501220703125 L472.6973571777344,232.94039916992188 L472.84661865234375,232.1897430419922 M471.61798095703125,239.9756317138672 L471.7149658203125,240.68881225585938 L471.91204833984375,241.84506225585938 L472.26678466796875,243.16758728027344 L472.8260192871094,244.06814575195312 L473.59600830078125,244.18328857421875 L474.4619445800781,243.40699768066406 L475.2308349609375,242.0173797607422 L475.7348327636719,240.4828643798828 L475.9543762207031,239.318359375 L475.98724365234375,238.6808319091797 M470.333251953125,238.55848693847656 L470.8919372558594,238.48300170898438 L472.0218505859375,238.1367950439453 L473.65240478515625,237.3341827392578 L475.4399719238281,236.02029418945312 L477.0107116699219,234.3876190185547 L478.12261962890625,232.76324462890625 L478.7176208496094,231.5543670654297 L478.9439697265625,230.90206909179688 M478.3394470214844,233.50048828125 L478.4761962890625,234.09906005859375 L478.67742919921875,235.34866333007812 L478.9018249511719,237.19589233398438 L479.1135559082031,239.2793731689453 L479.3822937011719,241.0857696533203 L479.6444091796875,242.25735473632812 L479.8547058105469,242.7845001220703 M479.6245422363281,244.44436645507812 L479.9332275390625,243.69467163085938 L480.5214538574219,242.35702514648438 L481.3393859863281,240.59425354003906 L482.2431640625,238.86563110351562 L483.0991516113281,237.58164978027344 L483.8323059082031,237.09158325195312 L484.4178161621094,237.47552490234375 L484.8686828613281,238.66441345214844 L485.2675476074219,240.35255432128906 L485.7645568847656,242.12216186523438 L486.4937744140625,243.5341796875 L487.5747375488281,244.2682342529297 L489.0079040527344,244.11557006835938 L490.6333312988281,243.11183166503906 L492.2057189941406,241.4291229248047 L493.4064025878906,239.4207305908203 L493.9862365722656,237.4807891845703 L493.9212646484375,235.9629364013672 L493.36956787109375,235.16944885253906 L492.6026611328125,235.27757263183594 L491.898681640625,236.25408935546875 L491.4114685058594,237.8604278564453 L491.1946716308594,239.6712646484375 L491.1725158691406,241.1045379638672 L491.2327880859375,241.93125915527344 M491.0247497558594,243.47476196289062 L491.44049072265625,244.02951049804688 L492.2226867675781,244.83364868164062 L493.3069152832031,245.62290954589844 L494.29376220703125,246.11602783203125 L494.9555969238281,246.29991149902344 M508.6260681152344,250.682861328125 L508.5871276855469,249.85934448242188 L508.5789489746094,248.3329315185547 L508.6552734375,246.25323486328125 L508.84698486328125,244.1248779296875 L509.1378173828125,242.38914489746094 L509.4102783203125,241.31353759765625 L509.5858459472656,240.84645080566406 M509.80487060546875,237.14505004882812 L509.8608093261719,237.60516357421875 L509.9338073730469,238.1465606689453 L510.0009460449219,238.59925842285156 M509.2611999511719,242.6851043701172 L509.414794921875,242.00161743164062 L509.7545166015625,240.72415161132812 L510.29644775390625,238.97604370117188 L511.0104064941406,237.18165588378906 L511.87591552734375,235.7943878173828 L512.8526611328125,235.158203125 L513.8704223632812,235.4037322998047 L514.787841796875,236.51683044433594 L515.3583984375,238.31390380859375 L515.3970947265625,240.4712371826172 L514.8265991210938,242.59547424316406 L513.7301025390625,244.24391174316406 L512.3836669921875,245.1268310546875 L511.10400390625,245.24014282226562 L510.1258239746094,244.8523406982422 L509.5677490234375,244.36244201660156 L509.3517761230469,244.0338134765625 M518.4766845703125,240.26136779785156 L518.567138671875,239.3900604248047 L518.7766723632812,238.00100708007812 L519.087646484375,236.38548278808594 L519.3886108398438,235.1319122314453 L519.5933837890625,234.4309539794922 M524.6338500976562,236.55780029296875 L524.662109375,237.26351928710938 L524.684814453125,238.40281677246094 L524.696044921875,239.57119750976562 L524.6900024414062,240.3642578125 M528.9400634765625,238.358642578125 L529.114990234375,237.6616973876953 L529.482421875,236.5170440673828 L530.0498046875,235.17929077148438 L530.7386474609375,234.19296264648438 L531.4757080078125,233.95562744140625 L532.149658203125,234.631103515625 L532.7158203125,236.07321166992188 L533.2216796875,237.88043212890625 L533.760986328125,239.52304077148438 L534.4111938476562,240.54176330566406 L535.2080078125,240.64627075195312 L536.1019287109375,239.80882263183594 L536.9869384765625,238.30548095703125 L537.7590942382812,236.58958435058594 L538.3040771484375,235.2180633544922 L538.597412109375,234.43264770507812 M538.999755859375,239.28262329101562 L539.6008911132812,238.9556884765625 L540.621337890625,238.2550506591797 L541.8765869140625,237.23793029785156 L543.0003662109375,236.1541290283203 L543.7623291015625,235.31942749023438 L544.1214599609375,234.86968994140625 M542.5071411132812,237.3459930419922 L542.699462890625,238.00701904296875 L543.17041015625,239.04864501953125 L544.042236328125,240.17662048339844 L545.2451171875,240.94960021972656 L546.5803833007812,241.19512939453125 L547.669921875,241.0615997314453 L548.3197021484375,240.82887268066406 M558.61181640625,238.3114471435547 L558.830078125,237.57518005371094 L559.2520141601562,236.34788513183594 L559.8754272460938,234.858154296875 L560.6102294921875,233.6260986328125 L561.3671875,233.03512573242188 L562.0255126953125,233.3197021484375 L562.44384765625,234.47434997558594 L562.4735107421875,236.28955078125 L562.0469970703125,238.32579040527344 L561.1989135742188,240.10543823242188 L560.0957641601562,241.2231903076172 L558.9856567382812,241.489990234375 L558.1282958984375,240.87803649902344 L557.7206420898438,239.594970703125 L557.8233642578125,237.9425048828125 L558.3348388671875,236.29493713378906 L558.9290771484375,235.06106567382812 L559.36767578125,234.39662170410156 M564.7432861328125,237.57896423339844 L564.848876953125,238.18182373046875 L565.0162353515625,239.43211364746094 L565.227294921875,241.32675170898438 L565.4336547851562,243.5340118408203 L565.58642578125,245.63211059570312 L565.6722412109375,247.1409149169922 L565.704345703125,247.9441375732422 M564.2195434570312,236.68487548828125 L564.2928466796875,235.98312377929688 L564.3878173828125,234.5655517578125 L564.51708984375,232.45094299316406 L564.7408447265625,230.0135955810547 L565.1688232421875,227.69581604003906 L565.8400268554688,225.93594360351562 L566.712890625,225.0 L567.6470336914062,225.01524353027344 L568.4390869140625,225.92112731933594 L568.955810546875,227.46670532226562 L569.1385498046875,229.25631713867188 L569.100830078125,230.72364807128906 L568.98828125,231.5911407470703 M584.58984375,235.44740295410156 L584.227783203125,236.0870361328125 L583.5633544921875,237.2314910888672 L582.605712890625,238.67837524414062 L581.5250244140625,239.92713928222656 L580.4591064453125,240.58770751953125 L579.5798950195312,240.38064575195312 L579.0322875976562,239.29019165039062 L578.952880859375,237.5202178955078 L579.37255859375,235.39675903320312 L580.2755126953125,233.32568359375 L581.4896240234375,231.74180603027344 L582.8079223632812,230.93296813964844 L583.9790649414062,230.9940948486328 L584.82666015625,231.7664031982422 L585.2744140625,232.90135192871094 L585.4239501953125,233.91539001464844 L585.40576171875,234.54827880859375 M585.2097778320312,235.20150756835938 L585.3897094726562,235.8745880126953 L585.7108154296875,237.14735412597656 L586.1640625,238.86489868164062 L586.6864013671875,240.56954956054688 L587.1451416015625,241.81617736816406 L587.4495849609375,242.46702575683594 M596.057861328125,235.07997131347656 L596.756591796875,235.0478515625 L597.97607421875,234.96644592285156 L599.509765625,234.8411865234375 L600.800537109375,234.71597290039062 L601.5881958007812,234.63421630859375 M600.6890869140625,228.03211975097656 L600.5651245117188,228.6371612548828 L600.3744506835938,229.97218322753906 L600.18115234375,232.12411499023438 L600.0757446289062,234.849609375 L600.1092529296875,237.74197387695312 L600.2986450195312,240.3260498046875 L600.6864013671875,242.252685546875 L601.279296875,243.29681396484375 L602.0758666992188,243.44056701660156 L602.9786987304688,242.8524932861328 L603.8251953125,241.85104370117188 L604.4295654296875,240.90899658203125 L604.7509765625,240.31298828125 M609.515869140625,240.40089416503906 L608.9998779296875,239.85650634765625 L608.2822265625,238.7152557373047 L607.6334228515625,236.9788360595703 L607.41552734375,234.95977783203125 L607.7200927734375,233.067626953125 L608.4676513671875,231.6923370361328 L609.4180908203125,231.11224365234375 L610.3665771484375,231.4584197998047 L611.123779296875,232.68853759765625 L611.5280151367188,234.58261108398438 L611.5211181640625,236.71917724609375 L611.1614990234375,238.61375427246094 L610.6935424804688,239.8872833251953 L610.3369140625,240.49884033203125 M615.2890625,232.67576599121094 L615.1991577148438,233.44195556640625 L615.081298828125,234.85682678222656 L614.989501953125,236.76690673828125 L615.0327758789062,238.67269897460938 L615.272216796875,240.08863830566406 L615.7648315429688,240.63880920410156 L616.46044921875,240.22247314453125 L617.255859375,239.06076049804688 L617.98876953125,237.59231567382812 L618.51171875,236.36727905273438 L618.7786865234375,235.64962768554688 M618.0975341796875,238.7371063232422 L618.3544921875,239.37686157226562 L618.83740234375,240.33856201171875 L619.572509765625,241.271240234375 L620.5,241.63150024414062 L621.5390625,241.13014221191406 L622.5118408203125,239.7926788330078 L623.2735595703125,237.96127319335938 L623.7186279296875,236.16204833984375 L623.892333984375,234.85838317871094 L623.9134521484375,234.18161010742188 M626.9163818359375,235.0377197265625 L626.947509765625,235.7062225341797 L626.9816284179688,236.95616149902344 L627.0302734375,238.63340759277344 L627.1317138671875,240.24940490722656 L627.369384765625,241.31961059570312 L627.833251953125,241.5066680908203 L628.5499267578125,240.76365661621094 L629.443603515625,239.3389129638672 L630.40966796875,237.69039916992188 L631.33447265625,236.32931518554688 L632.1188354492188,235.689453125 L632.7639770507812,235.95343017578125 L633.302734375,237.08912658691406 L633.7640991210938,238.78378295898438 L634.1993408203125,240.60255432128906 L634.554443359375,242.0240936279297 L634.7755126953125,242.845947265625 M649.7763671875,236.08399963378906 L649.333740234375,236.6689453125 L648.71044921875,237.84291076660156 L648.1281127929688,239.55654907226562 L647.9214477539062,241.4624786376953 L648.2542724609375,243.15040588378906 L649.128662109375,244.271240234375 L650.4644165039062,244.6266632080078 L652.068603515625,244.1250457763672 L653.7366333007812,242.85227966308594 L655.256103515625,241.07754516601562 L656.484130859375,239.17713928222656 L657.27880859375,237.68991088867188 L657.6800537109375,236.8433837890625 M653.4021606445312,244.08059692382812 L653.68994140625,244.51791381835938 L654.2132568359375,245.0204315185547 L654.9930419921875,245.21714782714844 L655.9502563476562,244.67369079589844 L656.9820556640625,243.3043670654297 L657.9373168945312,241.3416290283203 L658.6622314453125,239.258056640625 L659.0711669921875,237.65306091308594 L659.2254638671875,236.7467803955078 M658.3160400390625,242.0942840576172 L658.6663208007812,242.65133666992188 L659.293212890625,243.3659210205078 L660.201416015625,243.8888397216797 L661.306396484375,243.74436950683594 L662.553466796875,242.75555419921875 L663.8563842773438,240.9379119873047 L665.0492553710938,238.5145721435547 L665.96533203125,235.82504272460938 L666.513671875,233.30589294433594 L666.708740234375,231.3079833984375 L666.68505859375,230.0630645751953 L666.6046142578125,229.50469970703125 M665.538330078125,238.3465576171875 L665.7112426757812,238.9260711669922 L666.0079345703125,240.0735321044922 L666.42138671875,241.66845703125 L666.9476318359375,243.2560272216797 L667.629638671875,244.36541748046875 L668.5001220703125,244.65176391601562 L669.5416259765625,243.94369506835938 L670.667724609375,242.29835510253906 L671.7449951171875,239.90870666503906 L672.6461181640625,237.09666442871094 L673.2769165039062,234.34683227539062 L673.63134765625,232.1176300048828 L673.7735595703125,230.7003936767578 L673.7977294921875,230.05130004882812 M672.6258544921875,238.91934204101562 L672.8046875,239.58935546875 L673.0987548828125,240.85394287109375 L673.5247802734375,242.57290649414062 L674.1009521484375,244.2943115234375 L674.8903198242188,245.57257080078125 L675.9259643554688,246.06349182128906 L677.162109375,245.6162872314453 L678.466064453125,244.29452514648438 L679.6627197265625,242.34747314453125 L680.5675048828125,240.1369171142578 L681.041748046875,238.0754852294922 L681.0477905273438,236.51712036132812 L680.6341552734375,235.7034912109375 L679.968017578125,235.761962890625 L679.253662109375,236.68687438964844 L678.7015380859375,238.26104736328125 L678.4510498046875,240.0883026123047 L678.5255126953125,241.705078125 L678.7503662109375,242.77212524414062 L678.9700927734375,243.2637939453125 M679.20458984375,244.17617797851562 L679.872314453125,244.49874877929688 L681.10498046875,244.73561096191406 L682.8106079101562,244.53298950195312 L684.683349609375,243.5775909423828 L686.4998779296875,241.96969604492188 L688.0846557617188,240.08065795898438 L689.3834228515625,238.4164581298828 L690.2744750976562,237.32632446289062 L690.7586059570312,236.82667541503906 M686.15380859375,243.49673461914062 L686.3148803710938,243.9725341796875 L686.660888671875,244.5825958251953 L687.2548828125,244.9853515625 L688.0883178710938,244.75357055664062 L689.1275634765625,243.69166564941406 L690.2675170898438,241.7752227783203 L691.3494262695312,239.21690368652344 L692.22802734375,236.3323516845703 L692.8204956054688,233.52548217773438 L693.1195068359375,231.19808959960938 L693.216796875,229.66766357421875 L693.2142333984375,228.9143524169922 M692.0909423828125,239.7335968017578 L692.2178955078125,240.38291931152344 L692.3963623046875,241.54647827148438 L692.6107788085938,243.0320281982422 L692.8582763671875,244.3956756591797 L693.096923828125,245.3168487548828 L693.2801513671875,245.74168395996094 M710.5025634765625,238.90896606445312 L710.84326171875,238.36810302734375 L711.389404296875,237.20968627929688 L711.9580688476562,235.3963165283203 L712.2955322265625,233.1853790283203 L712.3137817382812,230.99314880371094 L712.073974609375,229.25189208984375 L711.783203125,228.19313049316406 L711.5942993164062,227.74891662597656 M711.1759033203125,237.87725830078125 L711.1708984375,238.51861572265625 L711.126708984375,239.8230438232422 L711.0283203125,241.73367309570312 L710.9100952148438,243.8787384033203 L710.8782348632812,245.80519104003906 L711.0733032226562,247.1142578125 L711.6363525390625,247.61764526367188 L712.6199951171875,247.25540161132812 L713.9483642578125,246.0614471435547 L715.4036865234375,244.16586303710938 L716.66552734375,241.7509765625 L717.3807373046875,239.1220703125 L717.3859252929688,236.6661376953125 L716.748291015625,234.71043395996094 L715.923828125,233.47067260742188 L715.28125,232.89697265625 M711.6932373046875,233.8357391357422 L712.1264038085938,233.41796875 L713.0043334960938,232.54183959960938 L714.27880859375,231.22930908203125 L715.7152709960938,229.7140350341797 L717.0643310546875,228.3520050048828 L718.1619873046875,227.4944610595703 L718.92333984375,227.3558349609375 L719.326904296875,228.0447235107422 L719.3568115234375,229.5244598388672 L719.0624389648438,231.56683349609375 L718.5859375,233.80601501464844 L718.130126953125,235.8047637939453 L717.827880859375,237.1690216064453 L717.7055053710938,237.84512329101562 M716.2479248046875,242.82284545898438 L716.553955078125,242.93565368652344 L717.1945190429688,242.7715606689453 L718.1282958984375,242.0844268798828 L719.1636352539062,240.8287353515625 L720.0802001953125,239.3275146484375 L720.6946411132812,238.08274841308594 L720.9934692382812,237.370849609375 M719.4033203125,241.1209259033203 L719.625244140625,241.67324829101562 L719.995849609375,242.72059631347656 L720.52001953125,244.10572814941406 L721.21435546875,245.37831115722656 L722.1558837890625,246.11282348632812 L723.373779296875,246.0050048828125 L724.8079833984375,244.968505859375 L726.2817993164062,243.1300811767578 L727.6070556640625,240.73922729492188 L728.6051025390625,238.1336669921875 L729.1510009765625,235.7084503173828 L729.25927734375,233.81214904785156 L729.0192260742188,232.65869140625 L728.5745849609375,232.38890075683594 L728.0860595703125,233.02359008789062 L727.6380615234375,234.4447479248047 L727.2868041992188,236.3358154296875 L727.10302734375,238.2592315673828 L727.0523681640625,239.69354248046875 L727.083251953125,240.4753875732422 M726.801513671875,243.6920166015625 L727.1328735351562,244.36936950683594 L727.714599609375,245.4447784423828 L728.532958984375,246.59423828125 L729.4976196289062,247.27989196777344 L730.56494140625,247.1384735107422 L731.6885986328125,246.0749969482422 L732.77099609375,244.3727569580078 L733.715087890625,242.47999572753906 L734.466552734375,240.85958862304688 L734.9600830078125,239.82469177246094 L735.2149658203125,239.3541717529297 M740.0294189453125,246.56301879882812 L740.6502685546875,246.3661346435547 L741.668212890625,246.02603149414062 L742.86279296875,245.61656188964844 L743.8017578125,245.2825927734375 L744.329833984375,245.1012420654297 M756.072509765625,248.69337463378906 L756.2353515625,248.11264038085938 L756.61767578125,246.84381103515625 L757.291748046875,244.76397705078125 L758.23046875,242.02679443359375 L759.3643798828125,238.93923950195312 L760.5029296875,235.96884155273438 L761.4757080078125,233.5465850830078 L762.1309814453125,231.98583984375 L762.46337890625,231.2430877685547 M759.902587890625,246.82421875 L760.03076171875,246.07821655273438 L760.287841796875,244.62155151367188 L760.6260986328125,242.52297973632812 L760.940185546875,240.21583557128906 L761.145751953125,238.17160034179688 L761.2164306640625,236.797119140625 L761.200439453125,236.11773681640625 M765.5677490234375,245.11155700683594 L765.56591796875,244.4577178955078 L765.554931640625,243.08900451660156 L765.5665283203125,240.95310974121094 L765.6300048828125,238.28903198242188 L765.7630615234375,235.4664764404297 L765.94091796875,232.9625701904297 L766.094970703125,231.12197875976562 L766.1837158203125,230.06521606445312 L766.214111328125,229.64776611328125 M766.218994140625,241.52696228027344 L766.901123046875,241.1670684814453 L768.048095703125,240.50192260742188 L769.4853515625,239.6351318359375 L770.818603515625,238.87335205078125 L771.8160400390625,238.5675048828125 L772.37255859375,238.978515625 L772.5303955078125,240.1925506591797 L772.413818359375,242.03123474121094 L772.2099609375,244.1088409423828 L772.060546875,245.98187255859375 L772.0113525390625,247.27487182617188 L772.036376953125,247.92408752441406 M776.8607177734375,243.8895263671875 L776.8939208984375,243.1110382080078 L776.96142578125,241.82540893554688 L777.0576171875,240.2763214111328 L777.146484375,239.028076171875 L777.211181640625,238.29794311523438 M776.18212890625,247.4982147216797 L776.4190673828125,246.75210571289062 L776.9366455078125,245.37608337402344 L777.767578125,243.5021514892578 L778.7801513671875,241.56698608398438 L779.7685546875,239.9543914794922 L780.4998779296875,238.93618774414062 L780.9019775390625,238.47616577148438 " fill="none" stroke="blue" stroke-linecap="round" stroke-width="2" /></svg>