<?xml version="1.0" encoding="UTF-8" standalone="no"?>
<!-- Created with Inkscape (http://www.inkscape.org/) -->

<svg
   xmlns:dc="http://purl.org/dc/elements/1.1/"
   xmlns:cc="http://creativecommons.org/ns#"
   xmlns:rdf="http://www.w3.org/1999/02/22-rdf-syntax-ns#"
   xmlns:svg="http://www.w3.org/2000/svg"
   xmlns="http://www.w3.org/2000/svg"
   xmlns:sodipodi="http://sodipodi.sourceforge.net/DTD/sodipodi-0.dtd"
   xmlns:inkscape="http://www.inkscape.org/namespaces/inkscape"
   version="1.1"
   id="svg2"
   xml:space="preserve"
   width="238.11772"
   height="62.054974"
   viewBox="0 0 238.11772 62.054974"
   sodipodi:docname="fau-logo-english.svg"
   inkscape:version="0.92.0 r"><metadata
     id="metadata8"><rdf:RDF><cc:Work
         rdf:about=""><dc:format>image/svg+xml</dc:format><dc:type
           rdf:resource="http://purl.org/dc/dcmitype/StillImage" /><dc:title></dc:title></cc:Work></rdf:RDF></metadata><defs
     id="defs6"><clipPath
       clipPathUnits="userSpaceOnUse"
       id="clipPath4685"><g
         inkscape:label="Clip"
         id="use4687"><path
           id="path4808"
           d="m 153.88817,-38.639952 c -0.246,-0.098 -0.441,-0.149 -0.687,-0.149 -0.391,0 -0.688,0.051 -0.981,0.199 -0.29301,0.149 -0.589,0.297 -0.78501,0.543 -0.195,0.2 -0.34399,0.497 -0.441,0.793 -0.098,0.297 -0.14499,0.645 -0.14499,0.989 0,0.347 0.047,0.695 0.14499,1.043 0.097,0.297 0.246,0.543 0.441,0.789 0.19601,0.199 0.492,0.398 0.78501,0.547 0.293,0.148 0.59,0.195 0.981,0.195 0.246,0 0.492,-0.047 0.734,-0.098 0.196,-0.097 0.442,-0.199 0.58999,-0.347 0.195,-0.149 0.34401,-0.344 0.48801,-0.543 0.098,-0.2 0.2,-0.446 0.2,-0.743 h -0.981 c -0.101,0.297 -0.19901,0.497 -0.39401,0.645 -0.14499,0.098 -0.39099,0.195 -0.63699,0.195 -0.246,0 -0.442,-0.047 -0.637,-0.148 -0.14801,-0.098 -0.246,-0.246 -0.39401,-0.395 -0.098,-0.148 -0.14499,-0.347 -0.19599,-0.547 -0.047,-0.195 -0.097,-0.394 -0.097,-0.593 0,-0.196 0.05,-0.395 0.097,-0.594 0.051,-0.195 0.098,-0.344 0.19599,-0.543 0.14801,-0.148 0.246,-0.25 0.39401,-0.348 0.195,-0.097 0.391,-0.148 0.637,-0.148 0.344,0 0.59,0.098 0.785,0.246 0.246,0.199 0.34399,0.449 0.34399,0.793 h -1.07799 v 0.793 h 2.058 v -2.625 h -0.687 l -0.098,0.547 c -0.195,-0.25 -0.394,-0.399 -0.637,-0.496 z"
           style="fill:#003864;fill-opacity:1;fill-rule:nonzero;stroke:none;stroke-width:0.99999994"
           inkscape:connector-curvature="0" /><path
           id="path4810"
           d="m 148.64216,-33.788952 v 0 c 0.19601,0 0.39101,-0.051 0.59001,-0.148 0.14499,-0.051 0.293,-0.149 0.438,-0.297 0.101,-0.098 0.19899,-0.246 0.246,-0.395 0.097,-0.148 0.14799,-0.347 0.14799,-0.546 0,-0.297 -0.098,-0.543 -0.195,-0.743 -0.14899,-0.199 -0.34399,-0.347 -0.58999,-0.445 v -0.051 c 0.148,0 0.246,-0.047 0.34399,-0.148 0.097,-0.098 0.14801,-0.149 0.195,-0.246 0.051,-0.149 0.098,-0.246 0.098,-0.348 0.05,-0.098 0.05,-0.246 0.05,-0.344 v -0.3 c 0.047,-0.098 0.047,-0.196 0.047,-0.344 0,-0.102 0.051,-0.199 0.051,-0.297 0.047,-0.102 0.098,-0.199 0.098,-0.25 h -1.031 c -0.047,0.148 -0.0981,0.348 -0.14505,0.547 v 0.644 c -0.051,0.246 -0.148,0.446 -0.246,0.543 -0.149,0.098 -0.293,0.2 -0.59,0.2 h -1.078 v -1.934 h -1.027 v 4.902 z"
           style="fill:#003864;fill-opacity:1;fill-rule:nonzero;stroke:none;stroke-width:0.99999994"
           inkscape:connector-curvature="0" /><path
           id="path4812"
           d="m 148.25216,-36.014952 v 0 c 0.24201,0 0.43701,0.047 0.53901,0.148 0.144,0.149 0.195,0.297 0.195,0.543 0,0.25 -0.051,0.399 -0.195,0.547 -0.102,0.098 -0.297,0.148 -0.53901,0.148 h -1.17999 v -1.386 z"
           style="fill:#003864;fill-opacity:1;fill-rule:nonzero;stroke:none;stroke-width:0.99999994"
           inkscape:connector-curvature="0" /><path
           id="path4814"
           d="m 144.91617,-33.788952 v -0.941 h -2.547 v -1.039 h 2.351 v -0.84 h -2.351 v -1.191 h 2.597 v -0.891 h -3.628 v 4.902 z"
           style="fill:#003864;fill-opacity:1;fill-rule:nonzero;stroke:none;stroke-width:0.99999994"
           inkscape:connector-curvature="0" /><path
           id="path4816"
           d="m 138.59117,-37.846952 v 0 c 0.149,0 0.196,0 0.344,0.047 0.051,0 0.149,0.05 0.246,0.101 0.047,0 0.098,0.098 0.145,0.199 0.051,0.047 0.101,0.149 0.101,0.297 0,0.246 -0.101,0.446 -0.246,0.543 -0.148,0.098 -0.293,0.149 -0.539,0.149 h -1.176 v -1.336 z"
           style="fill:#003864;fill-opacity:1;fill-rule:nonzero;stroke:none;stroke-width:0.99999994"
           inkscape:connector-curvature="0" /><path
           id="path4818"
           d="m 138.68917,-33.788952 v 0 c 0.246,0 0.442,-0.051 0.637,-0.097 0.148,-0.051 0.344,-0.102 0.492,-0.2 0.098,-0.097 0.195,-0.199 0.293,-0.347 0.051,-0.149 0.098,-0.344 0.098,-0.594 0,-0.246 -0.047,-0.445 -0.145,-0.594 -0.148,-0.148 -0.297,-0.297 -0.492,-0.394 0.297,-0.102 0.539,-0.25 0.637,-0.446 0.199,-0.25 0.246,-0.496 0.246,-0.793 0,-0.246 -0.047,-0.445 -0.149,-0.644 -0.097,-0.199 -0.195,-0.348 -0.39,-0.445 -0.149,-0.098 -0.344,-0.2 -0.539,-0.247 -0.196,-0.05 -0.391,-0.101 -0.637,-0.101 h -2.305 v 4.902 z"
           style="fill:#003864;fill-opacity:1;fill-rule:nonzero;stroke:none;stroke-width:0.99999994"
           inkscape:connector-curvature="0" /><path
           id="path4820"
           d="m 138.54517,-35.768952 v 0 c 0.195,0 0.343,0.051 0.488,0.097 0.098,0.102 0.195,0.25 0.195,0.45 0,0.148 -0.047,0.246 -0.097,0.297 -0.047,0.097 -0.098,0.148 -0.145,0.195 -0.051,0 -0.148,0.051 -0.246,0.051 -0.098,0.05 -0.195,0.05 -0.246,0.05 h -1.028 v -1.14 z"
           style="fill:#003864;fill-opacity:1;fill-rule:nonzero;stroke:none;stroke-width:0.99999994"
           inkscape:connector-curvature="0" /><path
           id="path4822"
           d="m 132.22017,-33.788952 2.008,-3.265 v 3.265 h 0.981 v -4.902 h -1.028 l -2.011,3.269 h -0.047 v -3.269 h -0.981 v 4.902 z"
           style="fill:#003864;fill-opacity:1;fill-rule:nonzero;stroke:none;stroke-width:0.99999994"
           inkscape:connector-curvature="0" /><path
           id="path4824"
           d="m 128.64217,-33.788952 v 0 c 0.242,0 0.391,-0.051 0.586,-0.148 0.196,-0.051 0.344,-0.149 0.442,-0.297 0.148,-0.098 0.246,-0.246 0.293,-0.395 0.05,-0.148 0.101,-0.347 0.101,-0.546 0,-0.297 -0.051,-0.543 -0.199,-0.743 -0.098,-0.199 -0.293,-0.347 -0.586,-0.445 v -0.051 c 0.145,0 0.246,-0.047 0.344,-0.148 0.097,-0.098 0.144,-0.149 0.195,-0.246 0.047,-0.149 0.098,-0.246 0.098,-0.348 0.047,-0.098 0.047,-0.246 0.097,-0.344 v -0.644 c 0.051,-0.102 0.051,-0.199 0.098,-0.297 0,-0.102 0.051,-0.199 0.098,-0.25 h -1.078 c -0.047,0.148 -0.098,0.348 -0.098,0.547 0,0.246 -0.051,0.445 -0.051,0.644 -0.047,0.246 -0.144,0.446 -0.242,0.543 -0.098,0.098 -0.297,0.2 -0.59,0.2 h -1.027 v -1.934 h -1.082 v 4.902 z"
           style="fill:#003864;fill-opacity:1;fill-rule:nonzero;stroke:none;stroke-width:0.99999994"
           inkscape:connector-curvature="0" /><path
           id="path4826"
           d="m 128.24817,-36.014952 v 0 c 0.246,0 0.441,0.047 0.539,0.148 0.148,0.149 0.195,0.297 0.195,0.543 0,0.25 -0.047,0.399 -0.195,0.547 -0.098,0.098 -0.293,0.148 -0.539,0.148 h -1.125 v -1.386 z"
           style="fill:#003864;fill-opacity:1;fill-rule:nonzero;stroke:none;stroke-width:0.99999994"
           inkscape:connector-curvature="0" /><path
           id="path4828"
           d="m 124.42417,-38.292952 v 0 c -0.391,-0.347 -0.883,-0.496 -1.52,-0.496 -0.637,0 -1.125,0.149 -1.52,0.496 -0.343,0.297 -0.488,0.793 -0.488,1.434 v 3.07 h 1.028 v -3.07 c 0,-0.098 0,-0.246 0.05,-0.344 0,-0.148 0.047,-0.25 0.098,-0.347 0.098,-0.102 0.195,-0.2 0.344,-0.25 0.097,-0.047 0.293,-0.098 0.488,-0.098 0.395,0 0.637,0.098 0.785,0.246 0.149,0.199 0.246,0.449 0.246,0.793 v 3.07 h 1.028 v -3.07 c 0,-0.641 -0.196,-1.137 -0.539,-1.434 z"
           style="fill:#003864;fill-opacity:1;fill-rule:nonzero;stroke:none;stroke-width:0.99999994"
           inkscape:connector-curvature="0" /><path
           id="path4830"
           d="m 124.08417,-33.292952 h -0.934 v 0.84 h 0.934 z"
           style="fill:#003864;fill-opacity:1;fill-rule:nonzero;stroke:none;stroke-width:0.99999994"
           inkscape:connector-curvature="0" /><path
           id="path4832"
           d="m 122.66217,-33.292952 h -0.883 v 0.84 h 0.883 z"
           style="fill:#003864;fill-opacity:1;fill-rule:nonzero;stroke:none;stroke-width:0.99999994"
           inkscape:connector-curvature="0" /><path
           id="path4834"
           d="m 116.68117,-33.788952 2.008,-3.265 h 0.051 v 3.265 h 0.98 v -4.902 h -1.082 l -2.007,3.269 v -3.269 h -0.981 v 4.902 z"
           style="fill:#003864;fill-opacity:1;fill-rule:nonzero;stroke:none;stroke-width:0.99999994"
           inkscape:connector-curvature="0" /><path
           id="path4836"
           d="m 108.19717,-33.788952 1.961,-3.265 h 0.051 v 3.265 h 0.98 v -4.902 h -1.031 l -2.008,3.269 h -0.051 v -3.269 h -0.98 v 4.902 z"
           style="fill:#003864;fill-opacity:1;fill-rule:nonzero;stroke:none;stroke-width:0.99999994"
           inkscape:connector-curvature="0" /><path
           id="path4838"
           d="m 106.04117,-33.788952 v -0.941 h -2.547 v -1.039 h 2.351 v -0.84 h -2.351 v -1.191 h 2.597 v -0.891 h -3.675 v 4.902 z"
           style="fill:#003864;fill-opacity:1;fill-rule:nonzero;stroke:none;stroke-width:0.99999994"
           inkscape:connector-curvature="0" /><path
           id="path4840"
           d="m 99.963168,-38.639952 v 0 c -0.196,-0.098 -0.442,-0.149 -0.688,-0.149 -0.34,0 -0.684,0.051 -0.98,0.199 -0.293,0.149 -0.539,0.297 -0.735,0.543 -0.195,0.2 -0.344,0.497 -0.488,0.793 -0.098,0.297 -0.148,0.645 -0.148,0.989 0,0.347 0.05,0.695 0.148,1.043 0.144,0.297 0.293,0.543 0.488,0.789 0.196,0.199 0.442,0.398 0.735,0.547 0.296,0.148 0.64,0.195 0.98,0.195 0.246,0 0.492,-0.047 0.738002,-0.098 0.243,-0.097 0.442,-0.199 0.637,-0.347 0.195,-0.149 0.344,-0.344 0.441,-0.543 0.145,-0.2 0.196,-0.446 0.243,-0.743 h -1.028 c -0.05,0.297 -0.195,0.497 -0.394002,0.645 -0.145,0.098 -0.391,0.195 -0.637,0.195 -0.242,0 -0.441,-0.047 -0.586,-0.148 -0.195,-0.098 -0.297,-0.246 -0.441,-0.395 -0.051,-0.148 -0.149,-0.347 -0.196,-0.547 -0.05,-0.195 -0.05,-0.394 -0.05,-0.593 0,-0.196 0,-0.395 0.05,-0.594 0.047,-0.195 0.145,-0.344 0.196,-0.543 0.144,-0.148 0.246,-0.25 0.441,-0.348 0.145,-0.097 0.344,-0.148 0.586,-0.148 0.395,0 0.637,0.098 0.836002,0.246 0.195,0.199 0.293,0.449 0.293,0.793 h -1.031002 v 0.793 h 2.011002 v -2.625 h -0.687 l -0.098,0.547 c -0.195,-0.25 -0.39,-0.399 -0.636002,-0.496 z"
           style="fill:#003864;fill-opacity:1;fill-rule:nonzero;stroke:none;stroke-width:0.99999994"
           inkscape:connector-curvature="0" /><path
           id="path4842"
           d="m 93.052168,-33.788952 2.008,-3.265 v 3.265 h 0.981 v -4.902 h -1.078 l -1.961,3.269 h -0.051 v -3.269 h -0.981 v 4.902 z"
           style="fill:#003864;fill-opacity:1;fill-rule:nonzero;stroke:none;stroke-width:0.99999994"
           inkscape:connector-curvature="0" /><path
           id="path4844"
           d="m 89.572168,-33.788952 1.812,-4.902 h -1.078 l -0.394,1.09 h -1.813 l -0.343,-1.09 h -1.079 l 1.813,4.902 z"
           style="fill:#003864;fill-opacity:1;fill-rule:nonzero;stroke:none;stroke-width:0.99999994"
           inkscape:connector-curvature="0" /><path
           id="path4846"
           d="m 89.670168,-36.807952 -0.641,1.832 -0.637,-1.832 z"
           style="fill:#003864;fill-opacity:1;fill-rule:nonzero;stroke:none;stroke-width:0.99999994"
           inkscape:connector-curvature="0" /><path
           id="path4848"
           d="m 83.884168,-33.788952 v -4.011 h 2.352 v -0.891 h -3.43 v 4.902 z"
           style="fill:#003864;fill-opacity:1;fill-rule:nonzero;stroke:none;stroke-width:0.99999994"
           inkscape:connector-curvature="0" /><path
           id="path4850"
           d="m 80.451168,-33.788952 v 0 c 0.246,0 0.440999,-0.051 0.59,-0.148 0.195,-0.051 0.343,-0.149 0.441,-0.297 0.145,-0.098 0.246,-0.246 0.292999,-0.395 0.051,-0.148 0.098,-0.347 0.098,-0.546 0,-0.297 -0.047,-0.543 -0.196,-0.743 -0.097,-0.199 -0.293,-0.347 -0.539,-0.445 v -0.051 c 0.098,0 0.246,-0.047 0.293,-0.148 0.098,-0.098 0.149,-0.149 0.196,-0.246 0.101,-0.149 0.101,-0.246 0.148,-0.348 0.051,-0.098 0.051,-0.246 0.051,-0.344 v -0.644 c 0.047,-0.102 0.047,-0.199 0.098,-0.297 0,-0.102 0.046,-0.199 0.097,-0.25 h -1.078 c -0.051,0.148 -0.051,0.348 -0.098,0.547 0,0.246 0,0.445 -0.05,0.644 -0.047,0.246 -0.098,0.446 -0.246,0.543 -0.098,0.098 -0.293,0.2 -0.54,0.2 H 78.93117 v -1.934 h -1.078 v 4.902 z"
           style="fill:#003864;fill-opacity:1;fill-rule:nonzero;stroke:none;stroke-width:0.99999994"
           inkscape:connector-curvature="0" /><path
           id="path4852"
           d="m 80.107168,-36.014952 v 0 c 0.246,0 0.395,0.047 0.539,0.148 0.101999,0.149 0.198999,0.297 0.198999,0.543 0,0.25 -0.097,0.399 -0.198999,0.547 -0.144,0.098 -0.293,0.148 -0.539,0.148 h -1.176 v -1.386 z"
           style="fill:#003864;fill-opacity:1;fill-rule:nonzero;stroke:none;stroke-width:0.99999994"
           inkscape:connector-curvature="0" /><path
           id="path4854"
           d="m 76.826168,-33.788952 v -0.941 h -2.551 v -1.039 h 2.352 v -0.84 h -2.352 v -1.191 h 2.598 v -0.891 h -3.629 v 4.902 z"
           style="fill:#003864;fill-opacity:1;fill-rule:nonzero;stroke:none;stroke-width:0.99999994"
           inkscape:connector-curvature="0" /></g></clipPath></defs><sodipodi:namedview
     pagecolor="#ffffff"
     bordercolor="#666666"
     borderopacity="1"
     objecttolerance="10"
     gridtolerance="10"
     guidetolerance="10"
     inkscape:pageopacity="0"
     inkscape:pageshadow="2"
     inkscape:window-width="1920"
     inkscape:window-height="1140"
     id="namedview4"
     showgrid="false"
     inkscape:zoom="4"
     inkscape:cx="176.34104"
     inkscape:cy="-17.812958"
     inkscape:window-x="0"
     inkscape:window-y="31"
     inkscape:window-maximized="1"
     inkscape:current-layer="g12" /><g
     id="g10"
     inkscape:groupmode="layer"
     inkscape:label="fau-logo-english"
     transform="matrix(1.3333333,0,0,-1.3333333,0,62.054972)"><g
       id="g12"><path
         d="m 165.402,13.022 c -0.246,-0.098 -0.441,-0.149 -0.687,-0.149 -0.391,0 -0.688,0.051 -0.981,0.199 -0.293,0.149 -0.589,0.297 -0.785,0.543 -0.195,0.2 -0.344,0.497 -0.441,0.793 -0.098,0.297 -0.145,0.645 -0.145,0.989 0,0.347 0.047,0.695 0.145,1.043 0.097,0.297 0.246,0.543 0.441,0.789 0.196,0.199 0.492,0.398 0.785,0.547 0.293,0.148 0.59,0.195 0.981,0.195 0.246,0 0.492,-0.047 0.734,-0.098 0.196,-0.097 0.442,-0.199 0.59,-0.347 0.195,-0.149 0.344,-0.344 0.488,-0.543 0.098,-0.2 0.2,-0.446 0.2,-0.743 h -0.981 c -0.101,0.297 -0.199,0.497 -0.394,0.645 -0.145,0.098 -0.391,0.195 -0.637,0.195 -0.246,0 -0.442,-0.047 -0.637,-0.148 -0.148,-0.098 -0.246,-0.246 -0.394,-0.395 -0.098,-0.148 -0.145,-0.347 -0.196,-0.547 -0.047,-0.195 -0.097,-0.394 -0.097,-0.593 0,-0.196 0.05,-0.395 0.097,-0.594 0.051,-0.195 0.098,-0.344 0.196,-0.543 0.148,-0.148 0.246,-0.25 0.394,-0.348 0.195,-0.097 0.391,-0.148 0.637,-0.148 0.344,0 0.59,0.098 0.785,0.246 0.246,0.199 0.344,0.449 0.344,0.793 h -1.078 v 0.793 h 2.058 v -2.625 h -0.687 l -0.098,0.547 c -0.195,-0.25 -0.394,-0.399 -0.637,-0.496 z m -5.246,4.851 v 0 c 0.196,0 0.391,-0.051 0.59,-0.148 0.145,-0.051 0.293,-0.149 0.438,-0.297 0.101,-0.098 0.199,-0.246 0.246,-0.395 0.097,-0.148 0.148,-0.347 0.148,-0.546 0,-0.297 -0.098,-0.543 -0.195,-0.743 -0.149,-0.199 -0.344,-0.347 -0.59,-0.445 v -0.051 c 0.148,0 0.246,-0.047 0.344,-0.148 0.097,-0.098 0.148,-0.149 0.195,-0.246 0.051,-0.149 0.098,-0.246 0.098,-0.348 0.05,-0.098 0.05,-0.246 0.05,-0.344 v -0.3 c 0.047,-0.098 0.047,-0.196 0.047,-0.344 0,-0.102 0.051,-0.199 0.051,-0.297 0.047,-0.102 0.098,-0.199 0.098,-0.25 h -1.031 c -0.047,0.148 -0.098,0.348 -0.145,0.547 v 0.644 c -0.051,0.246 -0.148,0.446 -0.246,0.543 -0.149,0.098 -0.293,0.2 -0.59,0.2 h -1.078 v -1.934 h -1.027 v 4.902 z m -0.39,-2.226 v 0 c 0.242,0 0.437,0.047 0.539,0.148 0.144,0.149 0.195,0.297 0.195,0.543 0,0.25 -0.051,0.399 -0.195,0.547 -0.102,0.098 -0.297,0.148 -0.539,0.148 h -1.18 v -1.386 z m -3.336,2.226 v -0.941 h -2.547 v -1.039 h 2.351 v -0.84 h -2.351 v -1.191 h 2.597 v -0.891 h -3.628 v 4.902 z m -6.325,-4.058 v 0 c 0.149,0 0.196,0 0.344,0.047 0.051,0 0.149,0.05 0.246,0.101 0.047,0 0.098,0.098 0.145,0.199 0.051,0.047 0.101,0.149 0.101,0.297 0,0.246 -0.101,0.446 -0.246,0.543 -0.148,0.098 -0.293,0.149 -0.539,0.149 h -1.176 v -1.336 z m 0.098,4.058 v 0 c 0.246,0 0.442,-0.051 0.637,-0.097 0.148,-0.051 0.344,-0.102 0.492,-0.2 0.098,-0.097 0.195,-0.199 0.293,-0.347 0.051,-0.149 0.098,-0.344 0.098,-0.594 0,-0.246 -0.047,-0.445 -0.145,-0.594 -0.148,-0.148 -0.297,-0.297 -0.492,-0.394 0.297,-0.102 0.539,-0.25 0.637,-0.446 0.199,-0.25 0.246,-0.496 0.246,-0.793 0,-0.246 -0.047,-0.445 -0.149,-0.644 -0.097,-0.199 -0.195,-0.348 -0.39,-0.445 -0.149,-0.098 -0.344,-0.2 -0.539,-0.247 -0.196,-0.05 -0.391,-0.101 -0.637,-0.101 h -2.305 v 4.902 z m -0.144,-1.98 v 0 c 0.195,0 0.343,0.051 0.488,0.097 0.098,0.102 0.195,0.25 0.195,0.45 0,0.148 -0.047,0.246 -0.097,0.297 -0.047,0.097 -0.098,0.148 -0.145,0.195 -0.051,0 -0.148,0.051 -0.246,0.051 -0.098,0.05 -0.195,0.05 -0.246,0.05 h -1.028 v -1.14 z m -6.325,1.98 2.008,-3.265 v 3.265 h 0.981 v -4.902 h -1.028 l -2.011,3.269 h -0.047 v -3.269 h -0.981 v 4.902 z m -3.578,0 v 0 c 0.242,0 0.391,-0.051 0.586,-0.148 0.196,-0.051 0.344,-0.149 0.442,-0.297 0.148,-0.098 0.246,-0.246 0.293,-0.395 0.05,-0.148 0.101,-0.347 0.101,-0.546 0,-0.297 -0.051,-0.543 -0.199,-0.743 -0.098,-0.199 -0.293,-0.347 -0.586,-0.445 v -0.051 c 0.145,0 0.246,-0.047 0.344,-0.148 0.097,-0.098 0.144,-0.149 0.195,-0.246 0.047,-0.149 0.098,-0.246 0.098,-0.348 0.047,-0.098 0.047,-0.246 0.097,-0.344 v -0.644 c 0.051,-0.102 0.051,-0.199 0.098,-0.297 0,-0.102 0.051,-0.199 0.098,-0.25 h -1.078 c -0.047,0.148 -0.098,0.348 -0.098,0.547 0,0.246 -0.051,0.445 -0.051,0.644 -0.047,0.246 -0.144,0.446 -0.242,0.543 -0.098,0.098 -0.297,0.2 -0.59,0.2 h -1.027 v -1.934 h -1.082 v 4.902 z m -0.394,-2.226 v 0 c 0.246,0 0.441,0.047 0.539,0.148 0.148,0.149 0.195,0.297 0.195,0.543 0,0.25 -0.047,0.399 -0.195,0.547 -0.098,0.098 -0.293,0.148 -0.539,0.148 h -1.125 v -1.386 z m -3.824,-2.278 v 0 c -0.391,-0.347 -0.883,-0.496 -1.52,-0.496 -0.637,0 -1.125,0.149 -1.52,0.496 -0.343,0.297 -0.488,0.793 -0.488,1.434 v 3.07 h 1.028 v -3.07 c 0,-0.098 0,-0.246 0.05,-0.344 0,-0.148 0.047,-0.25 0.098,-0.347 0.098,-0.102 0.195,-0.2 0.344,-0.25 0.097,-0.047 0.293,-0.098 0.488,-0.098 0.395,0 0.637,0.098 0.785,0.246 0.149,0.199 0.246,0.449 0.246,0.793 v 3.07 h 1.028 v -3.07 c 0,-0.641 -0.196,-1.137 -0.539,-1.434 z m -0.34,5 h -0.934 v 0.84 h 0.934 z m -1.422,0 h -0.883 v 0.84 h 0.883 z m -5.981,-0.496 2.008,-3.265 h 0.051 v 3.265 h 0.98 v -4.902 h -1.082 l -2.007,3.269 v -3.269 h -0.981 v 4.902 z m -2.257,-3.414 h -2.008 v 0.789 h 2.008 z m -6.227,3.414 1.961,-3.265 h 0.051 v 3.265 h 0.98 v -4.902 h -1.031 l -2.008,3.269 h -0.051 v -3.269 h -0.98 v 4.902 z m -2.156,0 v -0.941 h -2.547 v -1.039 h 2.351 v -0.84 h -2.351 v -1.191 h 2.597 v -0.891 h -3.675 v 4.902 z m -6.078,-4.851 v 0 c -0.196,-0.098 -0.442,-0.149 -0.688,-0.149 -0.34,0 -0.684,0.051 -0.98,0.199 -0.293,0.149 -0.539,0.297 -0.735,0.543 -0.195,0.2 -0.344,0.497 -0.488,0.793 -0.098,0.297 -0.148,0.645 -0.148,0.989 0,0.347 0.05,0.695 0.148,1.043 0.144,0.297 0.293,0.543 0.488,0.789 0.196,0.199 0.442,0.398 0.735,0.547 0.296,0.148 0.64,0.195 0.98,0.195 0.246,0 0.492,-0.047 0.738,-0.098 0.243,-0.097 0.442,-0.199 0.637,-0.347 0.195,-0.149 0.344,-0.344 0.441,-0.543 0.145,-0.2 0.196,-0.446 0.243,-0.743 h -1.028 c -0.05,0.297 -0.195,0.497 -0.394,0.645 -0.145,0.098 -0.391,0.195 -0.637,0.195 -0.242,0 -0.441,-0.047 -0.586,-0.148 -0.195,-0.098 -0.297,-0.246 -0.441,-0.395 -0.051,-0.148 -0.149,-0.347 -0.196,-0.547 -0.05,-0.195 -0.05,-0.394 -0.05,-0.593 0,-0.196 0,-0.395 0.05,-0.594 0.047,-0.195 0.145,-0.344 0.196,-0.543 0.144,-0.148 0.246,-0.25 0.441,-0.348 0.145,-0.097 0.344,-0.148 0.586,-0.148 0.395,0 0.637,0.098 0.836,0.246 0.195,0.199 0.293,0.449 0.293,0.793 h -1.031 v 0.793 h 2.011 v -2.625 h -0.687 l -0.098,0.547 c -0.195,-0.25 -0.39,-0.399 -0.636,-0.496 z m -6.911,4.851 2.008,-3.265 v 3.265 h 0.981 v -4.902 h -1.078 l -1.961,3.269 h -0.051 v -3.269 h -0.981 v 4.902 z m -3.48,0 1.812,-4.902 h -1.078 l -0.394,1.09 h -1.813 l -0.343,-1.09 h -1.079 l 1.813,4.902 z m 0.098,-3.019 -0.641,1.832 -0.637,-1.832 z m -5.786,3.019 v -4.011 h 2.352 v -0.891 h -3.43 v 4.902 z m -3.433,0 v 0 c 0.246,0 0.441,-0.051 0.59,-0.148 0.195,-0.051 0.343,-0.149 0.441,-0.297 0.145,-0.098 0.246,-0.246 0.293,-0.395 0.051,-0.148 0.098,-0.347 0.098,-0.546 0,-0.297 -0.047,-0.543 -0.196,-0.743 -0.097,-0.199 -0.293,-0.347 -0.539,-0.445 v -0.051 c 0.098,0 0.246,-0.047 0.293,-0.148 0.098,-0.098 0.149,-0.149 0.196,-0.246 0.101,-0.149 0.101,-0.246 0.148,-0.348 0.051,-0.098 0.051,-0.246 0.051,-0.344 v -0.644 c 0.047,-0.102 0.047,-0.199 0.098,-0.297 0,-0.102 0.046,-0.199 0.097,-0.25 h -1.078 c -0.051,0.148 -0.051,0.348 -0.098,0.547 0,0.246 0,0.445 -0.05,0.644 -0.047,0.246 -0.098,0.446 -0.246,0.543 -0.098,0.098 -0.293,0.2 -0.54,0.2 h -1.078 v -1.934 h -1.078 v 4.902 z m -0.344,-2.226 v 0 c 0.246,0 0.395,0.047 0.539,0.148 0.102,0.149 0.199,0.297 0.199,0.543 0,0.25 -0.097,0.399 -0.199,0.547 -0.144,0.098 -0.293,0.148 -0.539,0.148 h -1.176 v -1.386 z m -3.281,2.226 v -0.941 h -2.551 v -1.039 h 2.352 v -0.84 h -2.352 v -1.191 h 2.598 v -0.891 h -3.629 v 4.902 z"
         style="fill:#003864;fill-opacity:1;fill-rule:nonzero;stroke:none"
         id="path14"
         inkscape:connector-curvature="0" /><path
         d="m 127.016,24.311 v 0.89 h 3.922 v -0.89 h -1.422 V 20.35 h -1.078 v 3.961 z m -1.715,0.89 1.812,-4.851 h -1.125 l -0.343,1.09 h -1.813 l -0.394,-1.09 h -1.028 l 1.813,4.851 z m 0.051,-2.968 -0.59,1.781 -0.637,-1.781 z m 0.539,3.511 h -0.883 v 0.793 h 0.883 z m -1.375,0 h -0.93 v 0.793 h 0.93 z m -5.981,-1.433 v 0.89 h 3.922 v -0.89 h -1.422 V 20.35 h -1.078 v 3.961 z m -0.883,-3.961 h -1.027 v 4.851 h 1.027 z m -4.902,1.187 v 0 c 0.098,-0.097 0.148,-0.199 0.246,-0.246 0.098,-0.101 0.195,-0.148 0.344,-0.199 h 0.734 c 0.051,0 0.196,0.051 0.246,0.098 0.098,0.05 0.196,0.101 0.246,0.148 0.098,0.102 0.098,0.199 0.098,0.348 0,0.148 -0.051,0.199 -0.098,0.297 -0.097,0.101 -0.199,0.148 -0.343,0.199 l -0.442,0.148 c -0.195,0.051 -0.343,0.098 -0.539,0.149 -0.148,0.051 -0.344,0.097 -0.539,0.148 -0.148,0.098 -0.297,0.149 -0.441,0.246 -0.149,0.149 -0.246,0.25 -0.344,0.399 -0.051,0.195 -0.098,0.343 -0.098,0.593 0,0.247 0.047,0.446 0.149,0.645 0.097,0.195 0.242,0.344 0.437,0.445 0.149,0.149 0.344,0.246 0.543,0.297 0.242,0.047 0.438,0.047 0.637,0.047 0.293,0 0.488,0 0.734,-0.047 0.246,-0.051 0.442,-0.148 0.637,-0.297 0.195,-0.101 0.293,-0.25 0.441,-0.445 0.098,-0.25 0.149,-0.496 0.149,-0.746 h -1.031 c 0,0.148 -0.047,0.25 -0.098,0.348 -0.051,0.101 -0.098,0.148 -0.195,0.25 -0.098,0.046 -0.196,0.097 -0.293,0.097 -0.102,0.051 -0.246,0.051 -0.344,0.051 -0.098,0 -0.199,0 -0.246,-0.051 -0.098,0 -0.195,-0.051 -0.246,-0.097 -0.098,-0.051 -0.145,-0.102 -0.196,-0.149 -0.05,-0.101 -0.05,-0.148 -0.05,-0.25 0,-0.098 0,-0.199 0.05,-0.246 0,-0.051 0.098,-0.102 0.196,-0.199 0.097,0 0.246,-0.051 0.441,-0.098 0.195,-0.101 0.442,-0.148 0.735,-0.199 0.097,-0.051 0.246,-0.051 0.394,-0.098 0.145,-0.051 0.293,-0.148 0.441,-0.25 0.145,-0.097 0.293,-0.246 0.391,-0.394 0.149,-0.199 0.195,-0.395 0.195,-0.696 0,-0.195 -0.046,-0.445 -0.144,-0.593 -0.051,-0.196 -0.199,-0.344 -0.344,-0.493 -0.195,-0.148 -0.394,-0.25 -0.637,-0.347 -0.246,-0.051 -0.539,-0.098 -0.882,-0.098 -0.246,0 -0.493,0 -0.786,0.098 -0.246,0.051 -0.441,0.148 -0.636,0.297 -0.196,0.148 -0.344,0.297 -0.442,0.543 -0.148,0.199 -0.148,0.445 -0.148,0.793 h 0.98 c 0,-0.2 0.051,-0.348 0.098,-0.446 z m -3.234,3.664 v 0 c 0.195,0 0.39,0 0.539,-0.097 0.195,-0.051 0.343,-0.149 0.441,-0.297 0.149,-0.102 0.246,-0.25 0.293,-0.399 0.098,-0.148 0.098,-0.343 0.098,-0.543 0,-0.296 -0.047,-0.546 -0.145,-0.742 -0.148,-0.199 -0.344,-0.347 -0.59,-0.496 l 0.297,-0.148 c 0.098,-0.098 0.145,-0.199 0.242,-0.297 0.051,-0.098 0.051,-0.199 0.098,-0.348 0,-0.097 0.051,-0.199 0.051,-0.347 V 21.24 c 0,-0.148 0,-0.199 0.047,-0.347 0,-0.098 0,-0.196 0.051,-0.297 0,-0.098 0.05,-0.195 0.097,-0.246 h -1.027 c -0.102,0.148 -0.102,0.347 -0.149,0.543 0,0.199 -0.05,0.445 -0.05,0.644 -0.047,0.246 -0.098,0.395 -0.243,0.547 -0.097,0.098 -0.296,0.149 -0.539,0.149 h -1.082 V 20.35 h -1.027 v 4.851 z m -0.391,-2.179 v 0 c 0.242,0 0.441,0.05 0.539,0.148 0.098,0.102 0.145,0.297 0.145,0.547 0,0.246 -0.047,0.395 -0.145,0.496 -0.098,0.098 -0.297,0.149 -0.539,0.149 h -1.18 v -1.34 z m -3.285,2.179 v -0.89 h -2.5 v -1.039 h 2.305 V 22.428 H 103.34 V 21.24 h 2.598 v -0.89 h -3.676 v 4.851 z m -7.156,-4.851 -1.52,4.851 h 1.027 l 1.129,-3.418 1.078,3.418 h 1.079 L 99.859,20.35 Z m -2.305,0 h -1.078 v 4.851 h 1.078 z m -5.246,4.851 1.961,-3.269 h 0.047 v 3.269 h 0.98 V 20.35 h -1.027 l -2.012,3.265 H 91.035 V 20.35 h -0.98 v 4.851 z M 88.34,20.697 v 0 c -0.395,-0.296 -0.883,-0.445 -1.52,-0.445 -0.64,0 -1.129,0.149 -1.519,0.445 -0.344,0.344 -0.543,0.84 -0.543,1.485 v 3.019 h 1.082 v -3.019 c 0,-0.098 0,-0.25 0.047,-0.399 0,-0.097 0.051,-0.195 0.097,-0.343 0.098,-0.102 0.196,-0.149 0.297,-0.2 0.145,-0.097 0.34,-0.097 0.539,-0.097 0.391,0 0.637,0.047 0.782,0.246 0.148,0.199 0.199,0.445 0.199,0.793 v 3.019 h 1.078 v -3.019 c 0,-0.645 -0.199,-1.141 -0.539,-1.485 z"
         style="fill:#003864;fill-opacity:1;fill-rule:nonzero;stroke:none"
         id="path16"
         inkscape:connector-curvature="0" /><path
         d="m 168.293,32.678 c 0.195,0 0.395,-0.051 0.539,-0.098 0.195,-0.101 0.344,-0.199 0.492,-0.297 0.098,-0.148 0.196,-0.25 0.242,-0.445 0.102,-0.152 0.102,-0.348 0.102,-0.496 0,-0.297 -0.051,-0.547 -0.148,-0.742 -0.149,-0.199 -0.344,-0.399 -0.59,-0.496 0.148,-0.051 0.246,-0.098 0.343,-0.199 0.051,-0.047 0.149,-0.149 0.196,-0.247 0.051,-0.101 0.097,-0.25 0.097,-0.347 0.051,-0.098 0.051,-0.246 0.051,-0.348 v -0.297 c 0.051,-0.097 0.051,-0.195 0.051,-0.297 0,-0.148 0.047,-0.195 0.047,-0.343 0.051,-0.102 0.051,-0.149 0.098,-0.25 h -1.028 c -0.051,0.148 -0.097,0.347 -0.148,0.593 0,0.2 0,0.399 -0.051,0.594 0,0.25 -0.098,0.445 -0.242,0.547 -0.098,0.148 -0.297,0.195 -0.539,0.195 h -1.078 v -1.929 h -1.032 v 4.902 z m -0.391,-2.227 v 0 c 0.246,0 0.442,0.047 0.539,0.196 0.145,0.101 0.196,0.25 0.196,0.496 0,0.246 -0.051,0.445 -0.196,0.543 -0.097,0.101 -0.293,0.152 -0.539,0.152 h -1.175 v -1.387 z m -3.238,2.227 v -0.891 h -2.5 v -1.09 h 2.305 v -0.792 h -2.305 v -1.239 h 2.602 v -0.89 h -3.68 v 4.902 z m -6.617,0 v 0 c 0.297,0 0.59,-0.051 0.836,-0.148 0.293,-0.098 0.488,-0.247 0.683,-0.446 0.2,-0.246 0.395,-0.496 0.493,-0.742 0.097,-0.348 0.144,-0.695 0.144,-1.09 0,-0.347 -0.047,-0.644 -0.144,-0.992 -0.051,-0.297 -0.196,-0.543 -0.395,-0.742 -0.144,-0.246 -0.391,-0.395 -0.684,-0.543 -0.246,-0.098 -0.589,-0.199 -0.933,-0.199 h -2.059 v 4.902 z m -0.098,-4.012 v 0 c 0.149,0 0.293,0.051 0.442,0.102 0.148,0.047 0.293,0.148 0.394,0.246 l 0.293,0.445 c 0.047,0.199 0.098,0.446 0.098,0.696 0,0.246 -0.051,0.492 -0.098,0.691 -0.051,0.199 -0.098,0.348 -0.246,0.496 -0.098,0.148 -0.246,0.246 -0.391,0.297 -0.199,0.098 -0.394,0.148 -0.687,0.148 h -0.734 v -3.121 z m -6.129,4.012 2.012,-3.27 v 3.27 h 0.981 v -4.902 h -1.032 l -2.008,3.269 h -0.05 v -3.269 h -0.981 v 4.902 z m -3.48,0 1.765,-4.902 h -1.078 l -0.343,1.14 h -1.813 l -0.391,-1.14 h -1.031 l 1.813,4.902 z m 0.051,-3.02 -0.59,1.832 h -0.047 l -0.59,-1.832 z m -7.793,3.02 h 1.222 l 0.934,-1.586 0.98,1.586 h 1.176 l -1.57,-2.328 1.668,-2.574 h -1.227 l -1.078,1.683 -1.027,-1.683 h -1.18 l 1.668,2.574 z m -0.836,0 v -0.891 h -2.547 v -1.09 h 2.351 v -0.792 h -2.351 v -1.239 h 2.598 v -0.89 h -3.629 v 4.902 z m -6.766,0 v -4.012 h 2.356 v -0.89 h -3.434 v 4.902 z m -3.578,0 1.816,-4.902 h -1.129 l -0.343,1.14 h -1.813 l -0.394,-1.14 h -1.078 l 1.863,4.902 z m 0.051,-3.02 -0.637,1.832 -0.637,-1.832 z m -3.481,-0.398 h -2.011 v 0.844 h 2.011 z m -6.226,3.418 v -1.883 h 1.91 v 1.883 h 1.078 v -4.902 h -1.078 v 2.129 h -1.91 v -2.129 h -1.078 v 4.902 z m -3.235,-1.336 v 0 c -0.05,0.148 -0.097,0.246 -0.246,0.297 -0.051,0.098 -0.195,0.148 -0.293,0.199 -0.097,0 -0.246,0.047 -0.394,0.047 -0.196,0 -0.442,-0.047 -0.586,-0.148 -0.149,-0.098 -0.297,-0.2 -0.395,-0.395 -0.097,-0.148 -0.195,-0.297 -0.246,-0.496 -0.047,-0.199 -0.047,-0.445 -0.047,-0.645 0,-0.195 0,-0.394 0.047,-0.593 0.051,-0.2 0.149,-0.348 0.246,-0.496 0.098,-0.196 0.246,-0.297 0.395,-0.395 0.144,-0.098 0.39,-0.148 0.586,-0.148 0.344,0 0.59,0.097 0.785,0.347 0.195,0.149 0.293,0.446 0.293,0.742 h 1.031 c 0,-0.296 -0.051,-0.546 -0.195,-0.793 -0.098,-0.246 -0.246,-0.445 -0.442,-0.644 -0.148,-0.195 -0.394,-0.297 -0.636,-0.395 -0.246,-0.101 -0.492,-0.148 -0.836,-0.148 -0.344,0 -0.684,0.047 -0.981,0.199 -0.293,0.149 -0.539,0.297 -0.734,0.543 -0.195,0.246 -0.344,0.496 -0.492,0.793 -0.098,0.297 -0.145,0.645 -0.145,0.988 0,0.399 0.047,0.696 0.145,1.039 0.148,0.297 0.297,0.598 0.492,0.793 0.195,0.25 0.441,0.399 0.734,0.547 0.297,0.149 0.637,0.196 0.981,0.196 0.297,0 0.539,-0.047 0.785,-0.098 0.246,-0.098 0.441,-0.199 0.637,-0.348 0.148,-0.148 0.343,-0.343 0.441,-0.543 0.148,-0.199 0.195,-0.445 0.246,-0.742 h -1.031 c 0,0.098 -0.047,0.246 -0.145,0.297 z m -4.218,-3.566 h -1.079 v 4.902 h 1.079 z m -3.528,4.902 v 0 c 0.246,0 0.442,-0.051 0.586,-0.098 0.199,-0.101 0.344,-0.199 0.442,-0.297 0.148,-0.148 0.199,-0.25 0.296,-0.445 0.047,-0.152 0.098,-0.348 0.098,-0.496 0,-0.297 -0.051,-0.547 -0.195,-0.742 -0.102,-0.199 -0.297,-0.399 -0.59,-0.496 0.148,-0.051 0.246,-0.098 0.344,-0.199 0.097,-0.047 0.144,-0.149 0.195,-0.247 0.051,-0.101 0.098,-0.25 0.098,-0.347 0.05,-0.098 0.05,-0.246 0.097,-0.348 v -0.594 c 0.051,-0.148 0.051,-0.195 0.098,-0.343 0,-0.102 0.051,-0.149 0.098,-0.25 h -1.078 c -0.047,0.148 -0.098,0.347 -0.098,0.593 0,0.2 -0.047,0.399 -0.047,0.594 -0.051,0.25 -0.098,0.445 -0.246,0.547 -0.098,0.148 -0.293,0.195 -0.539,0.195 h -1.078 v -1.929 h -1.078 v 4.902 z m -0.394,-2.227 v 0 c 0.246,0 0.441,0.047 0.59,0.196 0.097,0.101 0.148,0.25 0.148,0.496 0,0.246 -0.051,0.445 -0.148,0.543 -0.149,0.101 -0.344,0.152 -0.59,0.152 h -1.125 v -1.387 z m -5.242,2.227 v 0 c 0.293,0 0.585,-0.051 0.878,-0.148 0.247,-0.098 0.493,-0.247 0.688,-0.446 0.195,-0.246 0.344,-0.496 0.441,-0.742 0.098,-0.348 0.196,-0.695 0.196,-1.09 0,-0.347 -0.047,-0.644 -0.145,-0.992 -0.098,-0.297 -0.199,-0.543 -0.441,-0.742 -0.149,-0.246 -0.395,-0.395 -0.637,-0.543 -0.297,-0.098 -0.59,-0.199 -0.98,-0.199 h -2.059 v 4.902 z m -0.051,-4.012 v 0 c 0.148,0 0.293,0.051 0.441,0.102 0.149,0.047 0.246,0.148 0.344,0.246 0.144,0.148 0.246,0.297 0.293,0.445 0.098,0.199 0.098,0.446 0.098,0.696 0,0.246 0,0.492 -0.047,0.691 -0.051,0.199 -0.149,0.348 -0.246,0.496 -0.098,0.148 -0.247,0.246 -0.442,0.297 -0.195,0.098 -0.39,0.148 -0.637,0.148 h -0.734 v -3.121 z m -3.09,4.012 v -0.891 h -2.5 v -1.09 h 2.305 v -0.792 h -2.305 v -1.239 h 2.601 v -0.89 h -3.679 v 4.902 z M 95.25,27.776 h -1.078 v 4.902 h 1.078 z m -3.676,4.902 v 0 c 0.246,0 0.442,-0.051 0.586,-0.098 0.199,-0.101 0.344,-0.199 0.492,-0.297 0.098,-0.148 0.196,-0.25 0.246,-0.445 0.047,-0.152 0.098,-0.348 0.098,-0.496 0,-0.297 -0.051,-0.547 -0.148,-0.742 -0.145,-0.199 -0.344,-0.399 -0.586,-0.496 0.097,-0.051 0.195,-0.098 0.293,-0.199 0.097,-0.047 0.148,-0.149 0.195,-0.247 0.098,-0.101 0.148,-0.25 0.148,-0.347 0,-0.098 0.047,-0.246 0.047,-0.348 v -0.297 c 0,-0.097 0,-0.195 0.051,-0.297 0,-0.148 0,-0.195 0.047,-0.343 0,-0.102 0.051,-0.149 0.098,-0.25 h -1.028 c -0.097,0.148 -0.148,0.347 -0.148,0.593 0,0.2 -0.047,0.399 -0.047,0.594 -0.051,0.25 -0.098,0.445 -0.246,0.547 -0.098,0.148 -0.293,0.195 -0.539,0.195 h -1.078 v -1.929 h -1.032 v 4.902 z M 91.23,30.451 v 0 c 0.196,0 0.442,0.047 0.54,0.196 0.097,0.101 0.148,0.25 0.148,0.496 0,0.246 -0.051,0.445 -0.148,0.543 -0.098,0.101 -0.344,0.152 -0.54,0.152 h -1.175 v -1.387 z m -3.089,2.227 v -0.891 h -2.352 v -1.14 h 2.059 v -0.84 h -2.059 v -2.031 h -1.031 v 4.902 z"
         style="fill:#003864;fill-opacity:1;fill-rule:nonzero;stroke:none"
         id="path18"
         inkscape:connector-curvature="0" /><path
         d="M 74.219,15.299 H 54.168 c 1.227,-1.039 2.648,-1.781 4.168,-2.328 h 11.668 c 1.519,0.547 2.992,1.289 4.215,2.328 z"
         style="fill:#003864;fill-opacity:1;fill-rule:nonzero;stroke:none"
         id="path20"
         inkscape:connector-curvature="0" /><path
         d="m 18.973,16.44 h 8.675 l 0.051,0.047 h -0.051 l 0.735,2.277 h -8.528 z"
         style="fill:#003864;fill-opacity:1;fill-rule:nonzero;stroke:none"
         id="path22"
         inkscape:connector-curvature="0" /><path
         d="m 18.578,15.299 -0.883,-2.328 h 8.875 l 0.785,2.328 z"
         style="fill:#003864;fill-opacity:1;fill-rule:nonzero;stroke:none"
         id="path24"
         inkscape:connector-curvature="0" /><path
         d="m 0,15.299 v -2.328 h 8.332 v 2.328 z"
         style="fill:#003864;fill-opacity:1;fill-rule:evenodd;stroke:none"
         id="path26"
         inkscape:connector-curvature="0" /><path
         d="M 0,18.764 V 16.44 h 8.332 v 2.324 z"
         style="fill:#003864;fill-opacity:1;fill-rule:evenodd;stroke:none"
         id="path28"
         inkscape:connector-curvature="0" /><path
         d="m 0,22.233 v -2.328 h 8.332 v 2.328 z"
         style="fill:#003864;fill-opacity:1;fill-rule:evenodd;stroke:none"
         id="path30"
         inkscape:connector-curvature="0" /><path
         d="m 0,25.697 v -2.328 h 8.332 v 2.328 z"
         style="fill:#003864;fill-opacity:1;fill-rule:evenodd;stroke:none"
         id="path32"
         inkscape:connector-curvature="0" /><path
         d="m 0,36.096 v -2.277 h 8.332 v 2.277 z"
         style="fill:#003864;fill-opacity:1;fill-rule:evenodd;stroke:none"
         id="path34"
         inkscape:connector-curvature="0" /><path
         d="m 0,39.561 v -2.278 h 8.332 v 2.278 z"
         style="fill:#003864;fill-opacity:1;fill-rule:evenodd;stroke:none"
         id="path36"
         inkscape:connector-curvature="0" /><path
         d="m 0,46.541 v -2.328 h 25.395 v 2.328 z"
         style="fill:#003864;fill-opacity:1;fill-rule:evenodd;stroke:none"
         id="path38"
         inkscape:connector-curvature="0" /><path
         d="m 0,43.076 v -2.328 h 25.395 v 2.328 z"
         style="fill:#003864;fill-opacity:1;fill-rule:evenodd;stroke:none"
         id="path40"
         inkscape:connector-curvature="0" /><path
         d="M 33.629,36.096 H 26.18 l -0.883,-2.277 h 7.644 z"
         style="fill:#003864;fill-opacity:1;fill-rule:nonzero;stroke:none"
         id="path42"
         inkscape:connector-curvature="0" /><path
         d="m 29.07,44.213 h 10.344 l -0.883,2.328 h -8.578 z"
         style="fill:#003864;fill-opacity:1;fill-rule:nonzero;stroke:none"
         id="path44"
         inkscape:connector-curvature="0" /><path
         d="m 27.844,40.748 h 12.894 l -0.883,2.328 H 28.68 Z"
         style="fill:#003864;fill-opacity:1;fill-rule:nonzero;stroke:none"
         id="path46"
         inkscape:connector-curvature="0" /><path
         d="m 34.707,37.233 h 7.305 l -0.883,2.328 H 27.402 L 26.57,37.233 h 7.403 l 0.343,1.089 h 0.098 z"
         style="fill:#003864;fill-opacity:1;fill-rule:nonzero;stroke:none"
         id="path48"
         inkscape:connector-curvature="0" /><path
         d="m 35.738,33.819 h 7.598 l -0.93,2.277 h -7.355 z"
         style="fill:#003864;fill-opacity:1;fill-rule:nonzero;stroke:none"
         id="path50"
         inkscape:connector-curvature="0" /><path
         d="m 36.766,30.35 h 7.843 l -0.882,2.277 h -7.645 z"
         style="fill:#97a3ae;fill-opacity:1;fill-rule:nonzero;stroke:none"
         id="path52"
         inkscape:connector-curvature="0" /><path
         d="m 37.797,26.885 h 8.09 l -0.883,2.277 h -7.895 z"
         style="fill:#97a3ae;fill-opacity:1;fill-rule:nonzero;stroke:none"
         id="path54"
         inkscape:connector-curvature="0" /><path
         d="m 21.52,23.369 h 25.64 l -0.836,2.328 H 22.402 Z"
         style="fill:#003864;fill-opacity:1;fill-rule:nonzero;stroke:none"
         id="path56"
         inkscape:connector-curvature="0" /><path
         d="m 20.246,19.905 h 28.238 l -0.882,2.328 H 21.129 Z"
         style="fill:#003864;fill-opacity:1;fill-rule:nonzero;stroke:none"
         id="path58"
         inkscape:connector-curvature="0" /><path
         d="m 41.082,16.44 h 8.676 l -0.883,2.324 h -8.578 z"
         style="fill:#003864;fill-opacity:1;fill-rule:nonzero;stroke:none"
         id="path60"
         inkscape:connector-curvature="0" /><path
         d="m 41.426,15.299 0.734,-2.328 h 8.922 l -0.883,2.328 z"
         style="fill:#003864;fill-opacity:1;fill-rule:nonzero;stroke:none"
         id="path62"
         inkscape:connector-curvature="0" /><path
         d="m 50.102,46.541 v -2.328 h 8.332 v 2.328 z"
         style="fill:#003864;fill-opacity:1;fill-rule:evenodd;stroke:none"
         id="path64"
         inkscape:connector-curvature="0" /><path
         d="m 50.102,43.076 v -2.328 h 8.332 v 2.328 z"
         style="fill:#003864;fill-opacity:1;fill-rule:evenodd;stroke:none"
         id="path66"
         inkscape:connector-curvature="0" /><path
         d="m 50.102,39.561 v -2.328 h 8.332 v 2.328 z"
         style="fill:#003864;fill-opacity:1;fill-rule:evenodd;stroke:none"
         id="path68"
         inkscape:connector-curvature="0" /><path
         d="m 50.102,36.096 v -2.277 h 8.332 v 2.277 z"
         style="fill:#003864;fill-opacity:1;fill-rule:evenodd;stroke:none"
         id="path70"
         inkscape:connector-curvature="0" /><path
         d="M 50.102,32.627 V 30.35 h 8.332 v 2.277 z"
         style="fill:#97a3ae;fill-opacity:1;fill-rule:evenodd;stroke:none"
         id="path72"
         inkscape:connector-curvature="0" /><path
         d="m 50.102,29.162 v -2.277 h 8.332 v 2.277 z"
         style="fill:#97a3ae;fill-opacity:1;fill-rule:evenodd;stroke:none"
         id="path74"
         inkscape:connector-curvature="0" /><path
         d="m 50.199,23.369 h 8.383 c -0.098,0.645 -0.148,1.239 -0.148,1.93 v 0.398 h -8.332 v -1.089 c 0,-0.395 0.046,-0.844 0.097,-1.239 z"
         style="fill:#003864;fill-opacity:1;fill-rule:nonzero;stroke:none"
         id="path76"
         inkscape:connector-curvature="0" /><path
         d="m 50.934,19.905 h 9.461 c -0.735,0.593 -1.223,1.386 -1.567,2.328 h -8.531 c 0.195,-0.844 0.344,-1.637 0.637,-2.328 z"
         style="fill:#003864;fill-opacity:1;fill-rule:nonzero;stroke:none"
         id="path78"
         inkscape:connector-curvature="0" /><path
         d="M 76.965,18.764 H 51.426 c 0.441,-0.84 0.98,-1.633 1.617,-2.324 h 22.305 c 0.636,0.691 1.175,1.484 1.617,2.324 z"
         style="fill:#003864;fill-opacity:1;fill-rule:nonzero;stroke:none"
         id="path80"
         inkscape:connector-curvature="0" /><path
         d="M 78.043,22.233 H 69.512 C 69.219,21.291 68.68,20.498 67.945,19.905 h 9.512 c 0.242,0.691 0.438,1.484 0.586,2.328 z"
         style="fill:#003864;fill-opacity:1;fill-rule:nonzero;stroke:none"
         id="path82"
         inkscape:connector-curvature="0" /><path
         d="m 69.953,46.541 v -2.328 h 8.285 v 2.328 z"
         style="fill:#003864;fill-opacity:1;fill-rule:evenodd;stroke:none"
         id="path84"
         inkscape:connector-curvature="0" /><path
         d="m 69.953,43.076 v -2.328 h 8.285 v 2.328 z"
         style="fill:#003864;fill-opacity:1;fill-rule:evenodd;stroke:none"
         id="path86"
         inkscape:connector-curvature="0" /><path
         d="m 69.953,39.561 v -2.328 h 8.285 v 2.328 z"
         style="fill:#003864;fill-opacity:1;fill-rule:evenodd;stroke:none"
         id="path88"
         inkscape:connector-curvature="0" /><path
         d="m 69.953,36.096 v -2.277 h 8.285 v 2.277 z"
         style="fill:#003864;fill-opacity:1;fill-rule:evenodd;stroke:none"
         id="path90"
         inkscape:connector-curvature="0" /><path
         d="M 69.953,32.627 V 30.35 h 8.285 v 2.277 z"
         style="fill:#97a3ae;fill-opacity:1;fill-rule:evenodd;stroke:none"
         id="path92"
         inkscape:connector-curvature="0" /><path
         d="m 69.953,29.162 v -2.277 h 8.285 v 2.277 z"
         style="fill:#97a3ae;fill-opacity:1;fill-rule:evenodd;stroke:none"
         id="path94"
         inkscape:connector-curvature="0" /><path
         d="m 78.238,24.608 v 1.089 h -8.285 v -0.398 c 0,-0.691 -0.047,-1.285 -0.195,-1.93 h 8.433 c 0,0.395 0.047,0.844 0.047,1.239 z"
         style="fill:#003864;fill-opacity:1;fill-rule:nonzero;stroke:none"
         id="path96"
         inkscape:connector-curvature="0" /><path
         d="m 0,29.162 v -2.277 h 30.934 l 0.687,2.277 z"
         style="fill:#97a3ae;fill-opacity:1;fill-rule:nonzero;stroke:none"
         id="path98"
         inkscape:connector-curvature="0" /><path
         d="M 0,32.627 V 30.35 h 31.914 l 0.734,2.277 z"
         style="fill:#97a3ae;fill-opacity:1;fill-rule:nonzero;stroke:none"
         id="path100"
         inkscape:connector-curvature="0" /><path
         d="m 92.235829,3.4222488 c -0.098,0.492 -0.539,0.89 -1.078,0.89 -0.981,0 -1.324,-0.844 -1.324,-1.734 0,-0.793 0.343,-1.582 1.324,-1.582 0.637,0 1.027,0.445 1.078,1.086 h 1.027 c -0.097,-1.235 -0.929,-1.981 -2.105,-1.981 -1.473,0 -2.356,1.09 -2.356,2.477 0,1.484 0.883,2.625 2.356,2.625 1.078,0 1.961,-0.645 2.105,-1.781 z"
         style="fill:#97a3ae;fill-opacity:1;fill-rule:nonzero;stroke:none"
         id="path106"
         inkscape:connector-curvature="0" /><path
         d="m 108.63398,5.1404215 h 1.078 v -3.961 h 2.352 v -0.89 h -3.43 z"
         style="fill:#97a3ae;fill-opacity:1;fill-rule:nonzero;stroke:none"
         id="path110"
         inkscape:connector-curvature="0" /><path
         d="m 117.158,5.1 c 1.473,0 2.402,-1.141 2.402,-2.625 0,-1.387 -0.929,-2.477 -2.402,-2.477 -1.469,0 -2.351,1.09 -2.351,2.477 0,1.484 0.882,2.625 2.351,2.625 z m 0,-4.207 v 0 c 0.934,0 1.324,0.789 1.324,1.582 0,0.89 -0.39,1.734 -1.324,1.734 -0.93,0 -1.324,-0.844 -1.324,-1.734 0,-0.793 0.394,-1.582 1.324,-1.582 z"
         style="fill:#97a3ae;fill-opacity:1;fill-rule:nonzero;stroke:none"
         id="path116"
         inkscape:connector-curvature="0" /><path
         d="m 120.494,4.951 h 3.332 v -0.89 h -2.305 V 2.92 h 2.012 V 2.08 h -2.012 V 0.1 h -1.027 z"
         style="fill:#97a3ae;fill-opacity:1;fill-rule:nonzero;stroke:none"
         id="path118"
         inkscape:connector-curvature="0" /><path
         d="m 126.572,4.951 h 3.578 v -0.89 h -2.5 V 3.022 h 2.305 V 2.178 H 127.65 V 0.99 h 2.547 V 0.1 h -3.625 z"
         style="fill:#97a3ae;fill-opacity:1;fill-rule:nonzero;stroke:none"
         id="path120"
         inkscape:connector-curvature="0" /><path
         d="m 131.178,4.951 h 1.082 l 2.007,-3.269 v 3.269 h 0.981 V 0.1 h -1.031 l -2.008,3.265 h -0.051 V 0.1 h -0.98 z"
         style="fill:#97a3ae;fill-opacity:1;fill-rule:nonzero;stroke:none"
         id="path122"
         inkscape:connector-curvature="0" /><path
         d="m 139.904,0.643 c -0.39,-0.496 -0.883,-0.645 -1.324,-0.645 -1.52,0 -2.352,1.09 -2.352,2.477 0,1.484 0.832,2.625 2.352,2.625 0.98,0 1.914,-0.645 2.012,-1.735 h -1.032 c -0.097,0.547 -0.488,0.844 -0.98,0.844 -0.98,0 -1.32,-0.844 -1.32,-1.734 0,-0.793 0.34,-1.582 1.32,-1.582 0.687,0 1.082,0.344 1.129,1.039 h -1.078 v 0.793 h 2.058 V 0.1 h -0.687 z"
         style="fill:#97a3ae;fill-opacity:1;fill-rule:nonzero;stroke:none"
         id="path124"
         inkscape:connector-curvature="0" /><path
         d="M 141.767,4.951 V 0.1 h 1.079 v 4.851 z"
         style="fill:#97a3ae;fill-opacity:1;fill-rule:evenodd;stroke:none"
         id="path126"
         inkscape:connector-curvature="0" /><path
         d="m 143.975,4.951 h 1.027 l 2.062,-3.269 v 3.269 h 0.981 V 0.1 h -1.082 l -1.961,3.265 V 0.1 h -1.027 z"
         style="fill:#97a3ae;fill-opacity:1;fill-rule:nonzero;stroke:none"
         id="path128"
         inkscape:connector-curvature="0" /><path
         d="m 149.221,4.951 h 3.578 v -0.89 h -2.551 V 3.022 h 2.355 V 2.178 h -2.355 V 0.99 h 2.648 V 0.1 h -3.675 z"
         style="fill:#97a3ae;fill-opacity:1;fill-rule:nonzero;stroke:none"
         id="path130"
         inkscape:connector-curvature="0" /><path
         d="m 153.826,4.951 h 3.629 v -0.89 h -2.551 V 3.022 h 2.305 V 2.178 h -2.305 V 0.99 h 2.602 V 0.1 h -3.68 z"
         style="fill:#97a3ae;fill-opacity:1;fill-rule:nonzero;stroke:none"
         id="path132"
         inkscape:connector-curvature="0" /><path
         d="m 158.486,4.951 h 2.598 c 0.832,0 1.422,-0.593 1.422,-1.336 0,-0.593 -0.246,-0.992 -0.785,-1.238 0.539,-0.148 0.687,-0.644 0.687,-1.14 0.047,-0.297 0,-0.891 0.242,-1.137 h -1.078 c -0.144,0.297 -0.144,0.742 -0.144,1.137 -0.102,0.496 -0.297,0.742 -0.836,0.742 h -1.028 V 0.1 h -1.078 z m 1.078,-2.226 h 1.125 c 0.493,0 0.739,0.246 0.739,0.742 0,0.445 -0.246,0.641 -0.739,0.641 h -1.125 z"
         style="fill:#97a3ae;fill-opacity:1;fill-rule:nonzero;stroke:none"
         id="path134"
         inkscape:connector-curvature="0" /><path
         d="M 163.584,4.951 V 0.1 h 1.027 v 4.851 z"
         style="fill:#97a3ae;fill-opacity:1;fill-rule:evenodd;stroke:none"
         id="path136"
         inkscape:connector-curvature="0" /><path
         d="m 165.74,4.951 h 1.078 l 2.012,-3.269 v 3.269 h 0.98 V 0.1 h -1.031 l -2.008,3.265 V 0.1 h -1.031 z"
         style="fill:#97a3ae;fill-opacity:1;fill-rule:nonzero;stroke:none"
         id="path138"
         inkscape:connector-curvature="0" /><path
         d="m 174.467,0.643 c -0.395,-0.496 -0.883,-0.645 -1.325,-0.645 -1.472,0 -2.351,1.09 -2.351,2.477 0,1.484 0.879,2.625 2.351,2.625 0.981,0 1.911,-0.645 2.059,-1.735 h -1.027 c -0.149,0.547 -0.543,0.844 -1.032,0.844 -0.98,0 -1.324,-0.844 -1.324,-1.734 0,-0.793 0.344,-1.582 1.324,-1.582 0.688,0 1.079,0.344 1.176,1.039 h -1.078 v 0.793 h 2.012 V 0.1 h -0.688 z"
         style="fill:#97a3ae;fill-opacity:1;fill-rule:nonzero;stroke:none"
         id="path140"
         inkscape:connector-curvature="0" /><path
         d="m 100.49791,5.2032488 c 1.473,0 2.402,-1.141 2.402,-2.625 0,-1.387 -0.929,-2.477 -2.402,-2.477 -1.469007,0 -2.351007,1.09 -2.351007,2.477 0,1.484 0.882,2.625 2.351007,2.625 z m 0,-4.207 v 0 c 0.934,0 1.324,0.789 1.324,1.582 0,0.89 -0.39,1.734 -1.324,1.734 -0.930005,0 -1.324005,-0.844 -1.324005,-1.734 0,-0.793 0.394,-1.582 1.324005,-1.582 z"
         style="fill:#97a3ae;fill-opacity:1;fill-rule:nonzero;stroke:none;stroke-width:0.99999994"
         id="path116-4"
         inkscape:connector-curvature="0" /><path
         d="m 105.74145,5.2028997 c 1.473,0 2.402,-1.141 2.402,-2.625 0,-1.387 -0.929,-2.47700001 -2.402,-2.47700001 -1.469,0 -2.351,1.09000001 -2.351,2.47700001 0,1.484 0.882,2.625 2.351,2.625 z m 0,-4.20700001 v 0 c 0.934,0 1.324,0.78900001 1.324,1.58200001 0,0.89 -0.39,1.734 -1.324,1.734 -0.93,0 -1.324,-0.844 -1.324,-1.734 0,-0.793 0.394,-1.58200001 1.324,-1.58200001 z"
         style="fill:#97a3ae;fill-opacity:1;fill-rule:nonzero;stroke:none;stroke-width:0.99999994"
         id="path116-0"
         inkscape:connector-curvature="0" /><path
         d="m 85.537213,1.8322519 c 0,-0.5958545 0.498519,-0.89312392 0.991777,-0.89312392 0.348568,0 0.841824,0.10259742 0.841824,0.59585442 0,0.5445556 -0.641892,0.6471532 -1.289045,0.8431405 -0.643207,0.1999335 -1.336398,0.4459044 -1.336398,1.3863809 0,0.9917754 0.894441,1.4389951 1.684966,1.4389951 0.889179,0 1.783618,-0.3959208 1.783618,-1.536331 h -0.940478 c -0.0513,0.5905929 -0.447218,0.7405431 -0.894439,0.7405431 -0.297269,0 -0.693189,-0.1499502 -0.693189,-0.5458711 0,-0.3946056 0.199933,-0.4406429 1.336396,-0.7392278 0.297271,-0.1025965 1.289046,-0.3498836 1.289046,-1.438995 0,-0.88917783 -0.595855,-1.5823683 -1.834916,-1.5823683 -0.939162,0 -1.879638,0.54455569 -1.879638,1.7310031 z"
         style="fill:#97a3ae;fill-opacity:1;fill-rule:nonzero;stroke:none;stroke-width:1.31535184"
         id="path154"
         inkscape:connector-curvature="0" /><path
         d="m 93.753367,5.2038965 h 0.988189 V 3.2758917 h 1.878249 v 1.9280048 h 1.036562 V 0.1012488 H 96.619805 V 2.3416042 H 94.741556 V 0.1012488 h -0.988189 z"
         style="fill:#97a3ae;fill-opacity:1;fill-rule:nonzero;stroke:none;stroke-width:1.3820821"
         id="path120-6"
         inkscape:connector-curvature="0" /><path
         inkscape:connector-curvature="0"
         style="fill:#003864;fill-opacity:1;fill-rule:nonzero;stroke:none;stroke-width:0.99999994"
         d="m 172.1035,29.2575 h -2.008 v 0.789 h 2.008 z"
         id="path4711" /></g></g></svg>