<?xml version="1.0" encoding="utf-8" ?>
<svg baseProfile="tiny" height="176px" version="1.2" width="1147px" xmlns="http://www.w3.org/2000/svg" xmlns:ev="http://www.w3.org/2001/xml-events" xmlns:xlink="http://www.w3.org/1999/xlink"><defs /><rect fill="white" height="100%" width="100%" x="0" y="0" /><circle cx="26.0" cy="151.0" fill="#1f77b4" r="2" stroke="none" /><circle cx="25.0" cy="148.0117" fill="#1f77b4" r="2" stroke="none" /><circle cx="24.5339" cy="142.5339" fill="#1f77b4" r="2" stroke="none" /><circle cx="25.0" cy="134.0959" fill="#1f77b4" r="2" stroke="none" /><circle cx="25.0" cy="123.8883" fill="#1f77b4" r="2" stroke="none" /><circle cx="25.0" cy="111.4124" fill="#1f77b4" r="2" stroke="none" /><circle cx="24.5216" cy="99.4353" fill="#1f77b4" r="2" stroke="none" /><circle cx="23.3751" cy="89.7508" fill="#1f77b4" r="2" stroke="none" /><circle cx="22.0" cy="83.3787" fill="#1f77b4" r="2" stroke="none" /><circle cx="21.754" cy="79.9912" fill="#1f77b4" r="2" stroke="none" /><circle cx="21.9515" cy="79.1651" fill="#1f77b4" r="2" stroke="none" /><circle cx="23.1096" cy="81.1096" fill="#1f77b4" r="2" stroke="none" /><circle cx="23.8828" cy="86.4068" fill="#1f77b4" r="2" stroke="none" /><circle cx="23.3176" cy="93.1883" fill="#1f77b4" r="2" stroke="none" /><circle cx="23.5982" cy="98.5982" fill="#1f77b4" r="2" stroke="none" /><circle cx="27.0" cy="103.9942" fill="#1f77b4" r="2" stroke="none" /><circle cx="30.5916" cy="107.5916" fill="#1f77b4" r="2" stroke="none" /><circle cx="36.575" cy="109.575" fill="#1f77b4" r="2" stroke="none" /><circle cx="43.924" cy="109.0" fill="#1f77b4" r="2" stroke="none" /><circle cx="51.8266" cy="106.1734" fill="#1f77b4" r="2" stroke="none" /><circle cx="62.1596" cy="101.0" fill="#1f77b4" r="2" stroke="none" /><circle cx="69.1145" cy="95.8855" fill="#1f77b4" r="2" stroke="none" /><circle cx="73.1244" cy="91.8756" fill="#1f77b4" r="2" stroke="none" /><circle cx="75.75" cy="90.0" fill="#1f77b4" r="2" stroke="none" /><polyline fill="none" points="26.0,151.0 25.0,148.0117 24.5339,142.5339 25.0,134.0959 25.0,123.8883 25.0,111.4124 24.5216,99.4353 23.3751,89.7508 22.0,83.3787 21.754,79.9912 21.9515,79.1651 23.1096,81.1096 23.8828,86.4068 23.3176,93.1883 23.5982,98.5982 27.0,103.9942 30.5916,107.5916 36.575,109.575 43.924,109.0 51.8266,106.1734 62.1596,101.0 69.1145,95.8855 73.1244,91.8756 75.75,90.0" stroke="#1f77b4" stroke-opacity="0.5" stroke-width="2" /><circle cx="76.75" cy="87.0" fill="#ff7f0e" r="2" stroke="none" /><circle cx="78.4738" cy="85.5262" fill="#ff7f0e" r="2" stroke="none" /><circle cx="80.0" cy="81.6169" fill="#ff7f0e" r="2" stroke="none" /><circle cx="81.0" cy="75.2187" fill="#ff7f0e" r="2" stroke="none" /><circle cx="80.7717" cy="70.7717" fill="#ff7f0e" r="2" stroke="none" /><circle cx="79.2784" cy="69.1392" fill="#ff7f0e" r="2" stroke="none" /><circle cx="78.0" cy="70.4688" fill="#ff7f0e" r="2" stroke="none" /><circle cx="77.0" cy="74.5961" fill="#ff7f0e" r="2" stroke="none" /><circle cx="77.0" cy="81.4085" fill="#ff7f0e" r="2" stroke="none" /><circle cx="76.0" cy="90.3685" fill="#ff7f0e" r="2" stroke="none" /><circle cx="75.0" cy="102.4436" fill="#ff7f0e" r="2" stroke="none" /><circle cx="76.0" cy="116.7895" fill="#ff7f0e" r="2" stroke="none" /><circle cx="78.0" cy="129.5858" fill="#ff7f0e" r="2" stroke="none" /><circle cx="80.7858" cy="139.7858" fill="#ff7f0e" r="2" stroke="none" /><circle cx="85.0" cy="147.1233" fill="#ff7f0e" r="2" stroke="none" /><circle cx="88.3943" cy="151.3943" fill="#ff7f0e" r="2" stroke="none" /><circle cx="90.0" cy="153.0" fill="#ff7f0e" r="2" stroke="none" /><polyline fill="none" points="76.75,87.0 78.4738,85.5262 80.0,81.6169 81.0,75.2187 80.7717,70.7717 79.2784,69.1392 78.0,70.4688 77.0,74.5961 77.0,81.4085 76.0,90.3685 75.0,102.4436 76.0,116.7895 78.0,129.5858 80.7858,139.7858 85.0,147.1233 88.3943,151.3943 90.0,153.0" stroke="#ff7f0e" stroke-opacity="0.5" stroke-width="2" /><circle cx="123.0" cy="131.0" fill="#2ca02c" r="2" stroke="none" /><circle cx="125.5865" cy="129.0" fill="#2ca02c" r="2" stroke="none" /><circle cx="130.8639" cy="128.0" fill="#2ca02c" r="2" stroke="none" /><circle cx="134.9283" cy="124.0717" fill="#2ca02c" r="2" stroke="none" /><circle cx="137.5386" cy="119.4614" fill="#2ca02c" r="2" stroke="none" /><circle cx="138.7538" cy="116.7538" fill="#2ca02c" r="2" stroke="none" /><circle cx="136.9484" cy="112.9484" fill="#2ca02c" r="2" stroke="none" /><circle cx="134.2408" cy="111.2408" fill="#2ca02c" r="2" stroke="none" /><circle cx="128.7517" cy="111.2483" fill="#2ca02c" r="2" stroke="none" /><circle cx="123.0617" cy="114.0" fill="#2ca02c" r="2" stroke="none" /><circle cx="117.8235" cy="119.1765" fill="#2ca02c" r="2" stroke="none" /><circle cx="115.0" cy="125.9752" fill="#2ca02c" r="2" stroke="none" /><circle cx="115.0" cy="133.1149" fill="#2ca02c" r="2" stroke="none" /><circle cx="116.0" cy="138.3923" fill="#2ca02c" r="2" stroke="none" /><circle cx="119.8412" cy="142.0" fill="#2ca02c" r="2" stroke="none" /><circle cx="123.6931" cy="142.3069" fill="#2ca02c" r="2" stroke="none" /><circle cx="128.0" cy="139.5709" fill="#2ca02c" r="2" stroke="none" /><circle cx="132.5236" cy="133.4764" fill="#2ca02c" r="2" stroke="none" /><circle cx="136.0" cy="129.2248" fill="#2ca02c" r="2" stroke="none" /><circle cx="137.5486" cy="126.4514" fill="#2ca02c" r="2" stroke="none" /><circle cx="138.5" cy="126.0" fill="#2ca02c" r="2" stroke="none" /><polyline fill="none" points="123.0,131.0 125.5865,129.0 130.8639,128.0 134.9283,124.0717 137.5386,119.4614 138.7538,116.7538 136.9484,112.9484 134.2408,111.2408 128.7517,111.2483 123.0617,114.0 117.8235,119.1765 115.0,125.9752 115.0,133.1149 116.0,138.3923 119.8412,142.0 123.6931,142.3069 128.0,139.5709 132.5236,133.4764 136.0,129.2248 137.5486,126.4514 138.5,126.0" stroke="#2ca02c" stroke-opacity="0.5" stroke-width="2" /><circle cx="136.3333" cy="121.6667" fill="#d62728" r="2" stroke="none" /><circle cx="138.126" cy="124.0547" fill="#d62728" r="2" stroke="none" /><circle cx="140.0032" cy="129.0032" fill="#d62728" r="2" stroke="none" /><circle cx="144.2618" cy="132.2618" fill="#d62728" r="2" stroke="none" /><circle cx="151.3935" cy="134.0" fill="#d62728" r="2" stroke="none" /><circle cx="158.5876" cy="132.4124" fill="#d62728" r="2" stroke="none" /><circle cx="164.2252" cy="129.7748" fill="#d62728" r="2" stroke="none" /><circle cx="167.1667" cy="128.5" fill="#d62728" r="2" stroke="none" /><polyline fill="none" points="136.3333,121.6667 138.126,124.0547 140.0032,129.0032 144.2618,132.2618 151.3935,134.0 158.5876,132.4124 164.2252,129.7748 167.1667,128.5" stroke="#d62728" stroke-opacity="0.5" stroke-width="2" /><circle cx="171.0" cy="143.0" fill="#9467bd" r="2" stroke="none" /><circle cx="169.257" cy="140.257" fill="#9467bd" r="2" stroke="none" /><circle cx="167.1853" cy="134.1853" fill="#9467bd" r="2" stroke="none" /><circle cx="167.8436" cy="127.4692" fill="#9467bd" r="2" stroke="none" /><circle cx="170.4977" cy="122.5023" fill="#9467bd" r="2" stroke="none" /><circle cx="173.3666" cy="120.6334" fill="#9467bd" r="2" stroke="none" /><circle cx="173.0" cy="119.0" fill="#9467bd" r="2" stroke="none" /><polyline fill="none" points="171.0,143.0 169.257,140.257 167.1853,134.1853 167.8436,127.4692 170.4977,122.5023 173.3666,120.6334 173.0,119.0" stroke="#9467bd" stroke-opacity="0.5" stroke-width="2" /><circle cx="163.3333" cy="76.3333" fill="#8c564b" r="2" stroke="none" /><circle cx="163.0" cy="78.5323" fill="#8c564b" r="2" stroke="none" /><circle cx="164.0" cy="83.8121" fill="#8c564b" r="2" stroke="none" /><circle cx="165.3595" cy="92.3595" fill="#8c564b" r="2" stroke="none" /><circle cx="167.0" cy="103.0682" fill="#8c564b" r="2" stroke="none" /><circle cx="168.0" cy="112.9033" fill="#8c564b" r="2" stroke="none" /><circle cx="168.0" cy="119.7362" fill="#8c564b" r="2" stroke="none" /><circle cx="168.9132" cy="123.9132" fill="#8c564b" r="2" stroke="none" /><circle cx="169.7184" cy="124.7184" fill="#8c564b" r="2" stroke="none" /><circle cx="172.0" cy="122.8102" fill="#8c564b" r="2" stroke="none" /><circle cx="175.1374" cy="117.8626" fill="#8c564b" r="2" stroke="none" /><circle cx="181.36" cy="113.64" fill="#8c564b" r="2" stroke="none" /><circle cx="186.4845" cy="109.5155" fill="#8c564b" r="2" stroke="none" /><circle cx="190.2913" cy="107.7087" fill="#8c564b" r="2" stroke="none" /><circle cx="193.0" cy="108.0" fill="#8c564b" r="2" stroke="none" /><polyline fill="none" points="163.3333,76.3333 163.0,78.5323 164.0,83.8121 165.3595,92.3595 167.0,103.0682 168.0,112.9033 168.0,119.7362 168.9132,123.9132 169.7184,124.7184 172.0,122.8102 175.1374,117.8626 181.36,113.64 186.4845,109.5155 190.2913,107.7087 193.0,108.0" stroke="#8c564b" stroke-opacity="0.5" stroke-width="2" /><circle cx="167.3333" cy="131.5" fill="#e377c2" r="2" stroke="none" /><circle cx="170.0936" cy="133.0936" fill="#e377c2" r="2" stroke="none" /><circle cx="175.4593" cy="136.4593" fill="#e377c2" r="2" stroke="none" /><circle cx="182.7075" cy="138.0" fill="#e377c2" r="2" stroke="none" /><circle cx="191.7206" cy="138.0" fill="#e377c2" r="2" stroke="none" /><circle cx="203.6993" cy="137.0" fill="#e377c2" r="2" stroke="none" /><circle cx="214.0971" cy="134.9029" fill="#e377c2" r="2" stroke="none" /><circle cx="221.1381" cy="132.8619" fill="#e377c2" r="2" stroke="none" /><circle cx="225.2033" cy="131.7967" fill="#e377c2" r="2" stroke="none" /><circle cx="226.0" cy="131.0" fill="#e377c2" r="2" stroke="none" /><polyline fill="none" points="167.3333,131.5 170.0936,133.0936 175.4593,136.4593 182.7075,138.0 191.7206,138.0 203.6993,137.0 214.0971,134.9029 221.1381,132.8619 225.2033,131.7967 226.0,131.0" stroke="#e377c2" stroke-opacity="0.5" stroke-width="2" /><circle cx="227.2" cy="131.4" fill="#7f7f7f" r="2" stroke="none" /><circle cx="228.9685" cy="130.0315" fill="#7f7f7f" r="2" stroke="none" /><circle cx="233.7871" cy="128.0" fill="#7f7f7f" r="2" stroke="none" /><circle cx="238.6522" cy="123.3478" fill="#7f7f7f" r="2" stroke="none" /><circle cx="241.1469" cy="119.8531" fill="#7f7f7f" r="2" stroke="none" /><circle cx="241.0" cy="114.9605" fill="#7f7f7f" r="2" stroke="none" /><circle cx="239.0911" cy="110.0911" fill="#7f7f7f" r="2" stroke="none" /><circle cx="235.4292" cy="108.0" fill="#7f7f7f" r="2" stroke="none" /><circle cx="231.223" cy="108.777" fill="#7f7f7f" r="2" stroke="none" /><circle cx="225.8344" cy="112.1656" fill="#7f7f7f" r="2" stroke="none" /><circle cx="222.4459" cy="117.5541" fill="#7f7f7f" r="2" stroke="none" /><circle cx="222.0" cy="123.0295" fill="#7f7f7f" r="2" stroke="none" /><circle cx="224.7023" cy="128.7023" fill="#7f7f7f" r="2" stroke="none" /><circle cx="230.3418" cy="133.3418" fill="#7f7f7f" r="2" stroke="none" /><circle cx="238.2969" cy="136.0" fill="#7f7f7f" r="2" stroke="none" /><circle cx="248.3745" cy="139.0" fill="#7f7f7f" r="2" stroke="none" /><circle cx="259.9983" cy="141.0" fill="#7f7f7f" r="2" stroke="none" /><circle cx="268.6402" cy="142.0" fill="#7f7f7f" r="2" stroke="none" /><circle cx="275.0182" cy="141.0" fill="#7f7f7f" r="2" stroke="none" /><circle cx="278.0" cy="140.0" fill="#7f7f7f" r="2" stroke="none" /><polyline fill="none" points="227.2,131.4 228.9685,130.0315 233.7871,128.0 238.6522,123.3478 241.1469,119.8531 241.0,114.9605 239.0911,110.0911 235.4292,108.0 231.223,108.777 225.8344,112.1656 222.4459,117.5541 222.0,123.0295 224.7023,128.7023 230.3418,133.3418 238.2969,136.0 248.3745,139.0 259.9983,141.0 268.6402,142.0 275.0182,141.0 278.0,140.0" stroke="#7f7f7f" stroke-opacity="0.5" stroke-width="2" /><circle cx="357.0" cy="112.0" fill="#bcbd22" r="2" stroke="none" /><circle cx="359.0" cy="110.0029" fill="#bcbd22" r="2" stroke="none" /><circle cx="360.0" cy="105.8686" fill="#bcbd22" r="2" stroke="none" /><circle cx="358.7152" cy="100.7152" fill="#bcbd22" r="2" stroke="none" /><circle cx="355.1091" cy="97.1091" fill="#bcbd22" r="2" stroke="none" /><circle cx="351.0201" cy="96.0" fill="#bcbd22" r="2" stroke="none" /><circle cx="346.1152" cy="97.8848" fill="#bcbd22" r="2" stroke="none" /><circle cx="341.0" cy="102.5542" fill="#bcbd22" r="2" stroke="none" /><circle cx="336.2969" cy="109.7031" fill="#bcbd22" r="2" stroke="none" /><circle cx="334.0" cy="116.7114" fill="#bcbd22" r="2" stroke="none" /><circle cx="333.0" cy="120.8457" fill="#bcbd22" r="2" stroke="none" /><circle cx="334.5959" cy="123.5959" fill="#bcbd22" r="2" stroke="none" /><circle cx="337.5939" cy="123.4061" fill="#bcbd22" r="2" stroke="none" /><circle cx="340.8102" cy="120.1898" fill="#bcbd22" r="2" stroke="none" /><circle cx="345.0244" cy="113.9756" fill="#bcbd22" r="2" stroke="none" /><circle cx="348.2406" cy="110.7594" fill="#bcbd22" r="2" stroke="none" /><circle cx="349.1416" cy="108.8584" fill="#bcbd22" r="2" stroke="none" /><circle cx="352.0" cy="109.4343" fill="#bcbd22" r="2" stroke="none" /><circle cx="352.0" cy="111.7085" fill="#bcbd22" r="2" stroke="none" /><circle cx="353.0" cy="116.9799" fill="#bcbd22" r="2" stroke="none" /><circle cx="356.299" cy="121.299" fill="#bcbd22" r="2" stroke="none" /><circle cx="362.002" cy="124.002" fill="#bcbd22" r="2" stroke="none" /><circle cx="365.0" cy="125.0" fill="#bcbd22" r="2" stroke="none" /><polyline fill="none" points="357.0,112.0 359.0,110.0029 360.0,105.8686 358.7152,100.7152 355.1091,97.1091 351.0201,96.0 346.1152,97.8848 341.0,102.5542 336.2969,109.7031 334.0,116.7114 333.0,120.8457 334.5959,123.5959 337.5939,123.4061 340.8102,120.1898 345.0244,113.9756 348.2406,110.7594 349.1416,108.8584 352.0,109.4343 352.0,111.7085 353.0,116.9799 356.299,121.299 362.002,124.002 365.0,125.0" stroke="#bcbd22" stroke-opacity="0.5" stroke-width="2" /><circle cx="428.0" cy="95.0" fill="#17becf" r="2" stroke="none" /><circle cx="429.0" cy="97.9972" fill="#17becf" r="2" stroke="none" /><circle cx="429.0" cy="103.683" fill="#17becf" r="2" stroke="none" /><circle cx="430.0649" cy="110.0649" fill="#17becf" r="2" stroke="none" /><circle cx="433.3782" cy="114.3782" fill="#17becf" r="2" stroke="none" /><circle cx="439.8381" cy="118.0" fill="#17becf" r="2" stroke="none" /><circle cx="447.2715" cy="119.2715" fill="#17becf" r="2" stroke="none" /><circle cx="452.2413" cy="119.0" fill="#17becf" r="2" stroke="none" /><circle cx="456.0697" cy="115.9303" fill="#17becf" r="2" stroke="none" /><circle cx="460.0" cy="109.5982" fill="#17becf" r="2" stroke="none" /><circle cx="461.0" cy="104.3266" fill="#17becf" r="2" stroke="none" /><circle cx="459.0" cy="99.4693" fill="#17becf" r="2" stroke="none" /><circle cx="455.1174" cy="93.1174" fill="#17becf" r="2" stroke="none" /><circle cx="451.9011" cy="89.9011" fill="#17becf" r="2" stroke="none" /><circle cx="451.0" cy="88.0" fill="#17becf" r="2" stroke="none" /><polyline fill="none" points="428.0,95.0 429.0,97.9972 429.0,103.683 430.0649,110.0649 433.3782,114.3782 439.8381,118.0 447.2715,119.2715 452.2413,119.0 456.0697,115.9303 460.0,109.5982 461.0,104.3266 459.0,99.4693 455.1174,93.1174 451.9011,89.9011 451.0,88.0" stroke="#17becf" stroke-opacity="0.5" stroke-width="2" /><circle cx="485.5" cy="111.3333" fill="#1f77b4" r="2" stroke="none" /><circle cx="487.7307" cy="111.0" fill="#1f77b4" r="2" stroke="none" /><circle cx="491.8947" cy="110.1053" fill="#1f77b4" r="2" stroke="none" /><circle cx="497.876" cy="108.124" fill="#1f77b4" r="2" stroke="none" /><circle cx="504.0731" cy="103.9269" fill="#1f77b4" r="2" stroke="none" /><circle cx="507.0" cy="100.0567" fill="#1f77b4" r="2" stroke="none" /><circle cx="507.0" cy="95.5221" fill="#1f77b4" r="2" stroke="none" /><circle cx="504.1627" cy="92.1627" fill="#1f77b4" r="2" stroke="none" /><circle cx="498.976" cy="91.0" fill="#1f77b4" r="2" stroke="none" /><circle cx="492.174" cy="91.0" fill="#1f77b4" r="2" stroke="none" /><circle cx="485.6331" cy="94.3669" fill="#1f77b4" r="2" stroke="none" /><circle cx="481.9447" cy="99.0553" fill="#1f77b4" r="2" stroke="none" /><circle cx="481.0" cy="104.3323" fill="#1f77b4" r="2" stroke="none" /><circle cx="483.0" cy="109.1722" fill="#1f77b4" r="2" stroke="none" /><circle cx="487.9097" cy="113.0" fill="#1f77b4" r="2" stroke="none" /><circle cx="493.9174" cy="114.9174" fill="#1f77b4" r="2" stroke="none" /><circle cx="501.8188" cy="115.0" fill="#1f77b4" r="2" stroke="none" /><circle cx="512.327" cy="113.0" fill="#1f77b4" r="2" stroke="none" /><circle cx="520.873" cy="109.0" fill="#1f77b4" r="2" stroke="none" /><circle cx="526.8915" cy="107.1085" fill="#1f77b4" r="2" stroke="none" /><circle cx="529.6667" cy="105.5" fill="#1f77b4" r="2" stroke="none" /><polyline fill="none" points="485.5,111.3333 487.7307,111.0 491.8947,110.1053 497.876,108.124 504.0731,103.9269 507.0,100.0567 507.0,95.5221 504.1627,92.1627 498.976,91.0 492.174,91.0 485.6331,94.3669 481.9447,99.0553 481.0,104.3323 483.0,109.1722 487.9097,113.0 493.9174,114.9174 501.8188,115.0 512.327,113.0 520.873,109.0 526.8915,107.1085 529.6667,105.5" stroke="#1f77b4" stroke-opacity="0.5" stroke-width="2" /><circle cx="532.0" cy="89.0" fill="#ff7f0e" r="2" stroke="none" /><circle cx="533.4" cy="90.8" fill="#ff7f0e" r="2" stroke="none" /><polyline fill="none" points="532.0,89.0 533.4,90.8" stroke="#ff7f0e" stroke-opacity="0.5" stroke-width="2" /><circle cx="531.5" cy="109.5" fill="#2ca02c" r="2" stroke="none" /><circle cx="533.0" cy="106.662" fill="#2ca02c" r="2" stroke="none" /><circle cx="533.0" cy="102.0496" fill="#2ca02c" r="2" stroke="none" /><circle cx="533.5063" cy="96.4937" fill="#2ca02c" r="2" stroke="none" /><circle cx="533.4618" cy="93.4618" fill="#2ca02c" r="2" stroke="none" /><circle cx="532.5" cy="93.0" fill="#2ca02c" r="2" stroke="none" /><polyline fill="none" points="531.5,109.5 533.0,106.662 533.0,102.0496 533.5063,96.4937 533.4618,93.4618 532.5,93.0" stroke="#2ca02c" stroke-opacity="0.5" stroke-width="2" /><circle cx="532.0" cy="112.0" fill="#d62728" r="2" stroke="none" /><circle cx="531.2413" cy="108.7238" fill="#d62728" r="2" stroke="none" /><circle cx="530.0" cy="103.5117" fill="#d62728" r="2" stroke="none" /><circle cx="531.0" cy="95.9943" fill="#d62728" r="2" stroke="none" /><circle cx="534.7432" cy="89.2568" fill="#d62728" r="2" stroke="none" /><circle cx="538.7493" cy="85.2507" fill="#d62728" r="2" stroke="none" /><circle cx="543.8968" cy="84.0" fill="#d62728" r="2" stroke="none" /><circle cx="548.8118" cy="85.8118" fill="#d62728" r="2" stroke="none" /><circle cx="551.0" cy="86.0" fill="#d62728" r="2" stroke="none" /><polyline fill="none" points="532.0,112.0 531.2413,108.7238 530.0,103.5117 531.0,95.9943 534.7432,89.2568 538.7493,85.2507 543.8968,84.0 548.8118,85.8118 551.0,86.0" stroke="#d62728" stroke-opacity="0.5" stroke-width="2" /><circle cx="566.0" cy="84.0" fill="#9467bd" r="2" stroke="none" /><circle cx="565.0" cy="86.9951" fill="#9467bd" r="2" stroke="none" /><circle cx="566.7966" cy="90.7966" fill="#9467bd" r="2" stroke="none" /><circle cx="571.911" cy="94.911" fill="#9467bd" r="2" stroke="none" /><circle cx="579.723" cy="98.0" fill="#9467bd" r="2" stroke="none" /><circle cx="588.4003" cy="99.0" fill="#9467bd" r="2" stroke="none" /><circle cx="597.0776" cy="98.0" fill="#9467bd" r="2" stroke="none" /><circle cx="603.1144" cy="95.4428" fill="#9467bd" r="2" stroke="none" /><circle cx="606.0" cy="92.2729" fill="#9467bd" r="2" stroke="none" /><circle cx="606.0" cy="90.0" fill="#9467bd" r="2" stroke="none" /><polyline fill="none" points="566.0,84.0 565.0,86.9951 566.7966,90.7966 571.911,94.911 579.723,98.0 588.4003,99.0 597.0776,98.0 603.1144,95.4428 606.0,92.2729 606.0,90.0" stroke="#9467bd" stroke-opacity="0.5" stroke-width="2" /><circle cx="574.0" cy="156.0" fill="#8c564b" r="2" stroke="none" /><circle cx="573.0" cy="152.9947" fill="#8c564b" r="2" stroke="none" /><circle cx="573.0" cy="148.4354" fill="#8c564b" r="2" stroke="none" /><circle cx="574.0" cy="140.8708" fill="#8c564b" r="2" stroke="none" /><circle cx="577.8097" cy="132.1903" fill="#8c564b" r="2" stroke="none" /><circle cx="583.14" cy="121.86" fill="#8c564b" r="2" stroke="none" /><circle cx="589.0785" cy="112.9215" fill="#8c564b" r="2" stroke="none" /><circle cx="596.6253" cy="106.3747" fill="#8c564b" r="2" stroke="none" /><circle cx="600.9518" cy="99.0482" fill="#8c564b" r="2" stroke="none" /><circle cx="603.1124" cy="93.8876" fill="#8c564b" r="2" stroke="none" /><circle cx="605.75" cy="92.0" fill="#8c564b" r="2" stroke="none" /><polyline fill="none" points="574.0,156.0 573.0,152.9947 573.0,148.4354 574.0,140.8708 577.8097,132.1903 583.14,121.86 589.0785,112.9215 596.6253,106.3747 600.9518,99.0482 603.1124,93.8876 605.75,92.0" stroke="#8c564b" stroke-opacity="0.5" stroke-width="2" /><circle cx="673.0" cy="100.0" fill="#e377c2" r="2" stroke="none" /><circle cx="676.2907" cy="100.2907" fill="#e377c2" r="2" stroke="none" /><circle cx="682.4048" cy="102.0" fill="#e377c2" r="2" stroke="none" /><circle cx="688.8128" cy="101.0" fill="#e377c2" r="2" stroke="none" /><circle cx="692.5325" cy="99.0" fill="#e377c2" r="2" stroke="none" /><circle cx="694.0" cy="96.4707" fill="#e377c2" r="2" stroke="none" /><circle cx="692.531" cy="92.531" fill="#e377c2" r="2" stroke="none" /><circle cx="688.2181" cy="89.2181" fill="#e377c2" r="2" stroke="none" /><circle cx="680.8691" cy="85.0" fill="#e377c2" r="2" stroke="none" /><circle cx="675.4977" cy="81.4977" fill="#e377c2" r="2" stroke="none" /><circle cx="673.0857" cy="79.0857" fill="#e377c2" r="2" stroke="none" /><circle cx="673.4232" cy="75.5768" fill="#e377c2" r="2" stroke="none" /><circle cx="676.1812" cy="74.0" fill="#e377c2" r="2" stroke="none" /><circle cx="681.4521" cy="73.0" fill="#e377c2" r="2" stroke="none" /><circle cx="688.9971" cy="72.0" fill="#e377c2" r="2" stroke="none" /><circle cx="695.405" cy="73.0" fill="#e377c2" r="2" stroke="none" /><circle cx="700.6421" cy="76.6421" fill="#e377c2" r="2" stroke="none" /><circle cx="703.0" cy="79.0" fill="#e377c2" r="2" stroke="none" /><polyline fill="none" points="673.0,100.0 676.2907,100.2907 682.4048,102.0 688.8128,101.0 692.5325,99.0 694.0,96.4707 692.531,92.531 688.2181,89.2181 680.8691,85.0 675.4977,81.4977 673.0857,79.0857 673.4232,75.5768 676.1812,74.0 681.4521,73.0 688.9971,72.0 695.405,73.0 700.6421,76.6421 703.0,79.0" stroke="#e377c2" stroke-opacity="0.5" stroke-width="2" /><circle cx="722.0" cy="75.0" fill="#7f7f7f" r="2" stroke="none" /><circle cx="723.1173" cy="75.0587" fill="#7f7f7f" r="2" stroke="none" /><circle cx="724.0241" cy="78.0241" fill="#7f7f7f" r="2" stroke="none" /><circle cx="724.0" cy="83.9929" fill="#7f7f7f" r="2" stroke="none" /><circle cx="726.7657" cy="90.7657" fill="#7f7f7f" r="2" stroke="none" /><circle cx="728.551" cy="94.551" fill="#7f7f7f" r="2" stroke="none" /><circle cx="730.6274" cy="95.0" fill="#7f7f7f" r="2" stroke="none" /><circle cx="734.2289" cy="92.7711" fill="#7f7f7f" r="2" stroke="none" /><circle cx="739.0" cy="88.5459" fill="#7f7f7f" r="2" stroke="none" /><circle cx="742.7062" cy="83.2938" fill="#7f7f7f" r="2" stroke="none" /><circle cx="744.5043" cy="80.7479" fill="#7f7f7f" r="2" stroke="none" /><circle cx="745.3382" cy="81.3382" fill="#7f7f7f" r="2" stroke="none" /><circle cx="747.0" cy="85.1746" fill="#7f7f7f" r="2" stroke="none" /><circle cx="749.6159" cy="88.6159" fill="#7f7f7f" r="2" stroke="none" /><circle cx="752.8504" cy="89.0" fill="#7f7f7f" r="2" stroke="none" /><circle cx="757.0" cy="86.322" fill="#7f7f7f" r="2" stroke="none" /><circle cx="761.5716" cy="81.4284" fill="#7f7f7f" r="2" stroke="none" /><circle cx="764.7711" cy="78.2289" fill="#7f7f7f" r="2" stroke="none" /><circle cx="768.0494" cy="78.0494" fill="#7f7f7f" r="2" stroke="none" /><circle cx="771.0" cy="80.7662" fill="#7f7f7f" r="2" stroke="none" /><circle cx="773.0" cy="86.725" fill="#7f7f7f" r="2" stroke="none" /><circle cx="775.2471" cy="91.4942" fill="#7f7f7f" r="2" stroke="none" /><circle cx="778.829" cy="93.829" fill="#7f7f7f" r="2" stroke="none" /><circle cx="782.8688" cy="93.0" fill="#7f7f7f" r="2" stroke="none" /><circle cx="784.0" cy="93.0" fill="#7f7f7f" r="2" stroke="none" /><polyline fill="none" points="722.0,75.0 723.1173,75.0587 724.0241,78.0241 724.0,83.9929 726.7657,90.7657 728.551,94.551 730.6274,95.0 734.2289,92.7711 739.0,88.5459 742.7062,83.2938 744.5043,80.7479 745.3382,81.3382 747.0,85.1746 749.6159,88.6159 752.8504,89.0 757.0,86.322 761.5716,81.4284 764.7711,78.2289 768.0494,78.0494 771.0,80.7662 773.0,86.725 775.2471,91.4942 778.829,93.829 782.8688,93.0 784.0,93.0" stroke="#7f7f7f" stroke-opacity="0.5" stroke-width="2" /><circle cx="824.0" cy="78.0" fill="#bcbd22" r="2" stroke="none" /><circle cx="824.7997" cy="77.2003" fill="#bcbd22" r="2" stroke="none" /><circle cx="827.0" cy="73.5876" fill="#bcbd22" r="2" stroke="none" /><circle cx="827.0" cy="69.8921" fill="#bcbd22" r="2" stroke="none" /><circle cx="824.139" cy="67.139" fill="#bcbd22" r="2" stroke="none" /><circle cx="819.6725" cy="67.0" fill="#bcbd22" r="2" stroke="none" /><circle cx="814.0913" cy="69.9087" fill="#bcbd22" r="2" stroke="none" /><circle cx="810.0" cy="75.0" fill="#bcbd22" r="2" stroke="none" /><circle cx="809.0" cy="80.2407" fill="#bcbd22" r="2" stroke="none" /><circle cx="810.2479" cy="84.2479" fill="#bcbd22" r="2" stroke="none" /><circle cx="814.1771" cy="87.0" fill="#bcbd22" r="2" stroke="none" /><circle cx="819.8321" cy="87.0" fill="#bcbd22" r="2" stroke="none" /><circle cx="825.2655" cy="83.7345" fill="#bcbd22" r="2" stroke="none" /><circle cx="828.6497" cy="78.3503" fill="#bcbd22" r="2" stroke="none" /><circle cx="831.0" cy="75.3856" fill="#bcbd22" r="2" stroke="none" /><circle cx="831.3333" cy="74.3333" fill="#bcbd22" r="2" stroke="none" /><polyline fill="none" points="824.0,78.0 824.7997,77.2003 827.0,73.5876 827.0,69.8921 824.139,67.139 819.6725,67.0 814.0913,69.9087 810.0,75.0 809.0,80.2407 810.2479,84.2479 814.1771,87.0 819.8321,87.0 825.2655,83.7345 828.6497,78.3503 831.0,75.3856 831.3333,74.3333" stroke="#bcbd22" stroke-opacity="0.5" stroke-width="2" /><circle cx="830.75" cy="76.0" fill="#17becf" r="2" stroke="none" /><circle cx="830.0422" cy="79.0422" fill="#17becf" r="2" stroke="none" /><circle cx="832.0" cy="82.6912" fill="#17becf" r="2" stroke="none" /><circle cx="836.3095" cy="85.3095" fill="#17becf" r="2" stroke="none" /><circle cx="841.1303" cy="84.8697" fill="#17becf" r="2" stroke="none" /><circle cx="843.0" cy="84.0" fill="#17becf" r="2" stroke="none" /><polyline fill="none" points="830.75,76.0 830.0422,79.0422 832.0,82.6912 836.3095,85.3095 841.1303,84.8697 843.0,84.0" stroke="#17becf" stroke-opacity="0.5" stroke-width="2" /><circle cx="857.6" cy="26.8" fill="#1f77b4" r="2" stroke="none" /><circle cx="858.0811" cy="30.0811" fill="#1f77b4" r="2" stroke="none" /><circle cx="859.0" cy="35.333" fill="#1f77b4" r="2" stroke="none" /><circle cx="858.1384" cy="42.8616" fill="#1f77b4" r="2" stroke="none" /><circle cx="857.0" cy="53.6552" fill="#1f77b4" r="2" stroke="none" /><circle cx="857.0" cy="64.9204" fill="#1f77b4" r="2" stroke="none" /><circle cx="858.0" cy="73.5182" fill="#1f77b4" r="2" stroke="none" /><circle cx="860.0" cy="79.4489" fill="#1f77b4" r="2" stroke="none" /><circle cx="862.0" cy="82.0" fill="#1f77b4" r="2" stroke="none" /><polyline fill="none" points="857.6,26.8 858.0811,30.0811 859.0,35.333 858.1384,42.8616 857.0,53.6552 857.0,64.9204 858.0,73.5182 860.0,79.4489 862.0,82.0" stroke="#1f77b4" stroke-opacity="0.5" stroke-width="2" /><circle cx="885.3333" cy="30.3333" fill="#ff7f0e" r="2" stroke="none" /><circle cx="884.1685" cy="33.4946" fill="#ff7f0e" r="2" stroke="none" /><circle cx="880.9804" cy="38.0196" fill="#ff7f0e" r="2" stroke="none" /><circle cx="876.0308" cy="44.9692" fill="#ff7f0e" r="2" stroke="none" /><circle cx="873.9095" cy="53.0905" fill="#ff7f0e" r="2" stroke="none" /><circle cx="874.0" cy="60.1744" fill="#ff7f0e" r="2" stroke="none" /><circle cx="876.7749" cy="65.7749" fill="#ff7f0e" r="2" stroke="none" /><circle cx="882.4316" cy="72.4316" fill="#ff7f0e" r="2" stroke="none" /><circle cx="886.409" cy="76.409" fill="#ff7f0e" r="2" stroke="none" /><circle cx="888.0" cy="78.0" fill="#ff7f0e" r="2" stroke="none" /><polyline fill="none" points="885.3333,30.3333 884.1685,33.4946 880.9804,38.0196 876.0308,44.9692 873.9095,53.0905 874.0,60.1744 876.7749,65.7749 882.4316,72.4316 886.409,76.409 888.0,78.0" stroke="#ff7f0e" stroke-opacity="0.5" stroke-width="2" /><circle cx="964.0" cy="23.0" fill="#2ca02c" r="2" stroke="none" /><circle cx="965.0" cy="21.1409" fill="#2ca02c" r="2" stroke="none" /><circle cx="966.6423" cy="20.3212" fill="#2ca02c" r="2" stroke="none" /><circle cx="967.354" cy="22.354" fill="#2ca02c" r="2" stroke="none" /><circle cx="968.0" cy="27.7696" fill="#2ca02c" r="2" stroke="none" /><circle cx="966.7795" cy="35.2205" fill="#2ca02c" r="2" stroke="none" /><circle cx="966.0" cy="43.9908" fill="#2ca02c" r="2" stroke="none" /><circle cx="966.0" cy="55.3571" fill="#2ca02c" r="2" stroke="none" /><circle cx="965.8292" cy="64.8292" fill="#2ca02c" r="2" stroke="none" /><circle cx="965.0" cy="71.164" fill="#2ca02c" r="2" stroke="none" /><circle cx="965.4058" cy="74.4058" fill="#2ca02c" r="2" stroke="none" /><circle cx="968.4581" cy="75.5419" fill="#2ca02c" r="2" stroke="none" /><circle cx="970.0" cy="73.9073" fill="#2ca02c" r="2" stroke="none" /><circle cx="973.3771" cy="69.6229" fill="#2ca02c" r="2" stroke="none" /><circle cx="979.3927" cy="63.6073" fill="#2ca02c" r="2" stroke="none" /><circle cx="983.7042" cy="60.2958" fill="#2ca02c" r="2" stroke="none" /><circle cx="986.5164" cy="59.2582" fill="#2ca02c" r="2" stroke="none" /><circle cx="987.1579" cy="60.1579" fill="#2ca02c" r="2" stroke="none" /><circle cx="988.0" cy="64.3556" fill="#2ca02c" r="2" stroke="none" /><circle cx="989.0" cy="71.8978" fill="#2ca02c" r="2" stroke="none" /><circle cx="990.0" cy="80.5767" fill="#2ca02c" r="2" stroke="none" /><circle cx="991.6946" cy="86.6946" fill="#2ca02c" r="2" stroke="none" /><circle cx="996.1452" cy="91.0" fill="#2ca02c" r="2" stroke="none" /><circle cx="999.9034" cy="92.9034" fill="#2ca02c" r="2" stroke="none" /><circle cx="1001.0" cy="93.0" fill="#2ca02c" r="2" stroke="none" /><polyline fill="none" points="964.0,23.0 965.0,21.1409 966.6423,20.3212 967.354,22.354 968.0,27.7696 966.7795,35.2205 966.0,43.9908 966.0,55.3571 965.8292,64.8292 965.0,71.164 965.4058,74.4058 968.4581,75.5419 970.0,73.9073 973.3771,69.6229 979.3927,63.6073 983.7042,60.2958 986.5164,59.2582 987.1579,60.1579 988.0,64.3556 989.0,71.8978 990.0,80.5767 991.6946,86.6946 996.1452,91.0 999.9034,92.9034 1001.0,93.0" stroke="#2ca02c" stroke-opacity="0.5" stroke-width="2" /><circle cx="1030.0" cy="61.0" fill="#d62728" r="2" stroke="none" /><circle cx="1027.727" cy="61.0" fill="#d62728" r="2" stroke="none" /><circle cx="1022.8728" cy="63.0" fill="#d62728" r="2" stroke="none" /><circle cx="1016.0" cy="67.5624" fill="#d62728" r="2" stroke="none" /><circle cx="1012.0" cy="73.8611" fill="#d62728" r="2" stroke="none" /><circle cx="1010.6023" cy="79.6023" fill="#d62728" r="2" stroke="none" /><circle cx="1012.0" cy="84.7059" fill="#d62728" r="2" stroke="none" /><circle cx="1016.2824" cy="89.0" fill="#d62728" r="2" stroke="none" /><circle cx="1022.273" cy="91.0" fill="#d62728" r="2" stroke="none" /><circle cx="1028.6779" cy="90.0" fill="#d62728" r="2" stroke="none" /><circle cx="1036.08" cy="85.92" fill="#d62728" r="2" stroke="none" /><circle cx="1041.0" cy="80.5881" fill="#d62728" r="2" stroke="none" /><circle cx="1043.0" cy="75.734" fill="#d62728" r="2" stroke="none" /><circle cx="1041.6221" cy="70.6221" fill="#d62728" r="2" stroke="none" /><circle cx="1037.2145" cy="66.2145" fill="#d62728" r="2" stroke="none" /><circle cx="1034.8036" cy="63.8036" fill="#d62728" r="2" stroke="none" /><circle cx="1034.0" cy="63.0" fill="#d62728" r="2" stroke="none" /><polyline fill="none" points="1030.0,61.0 1027.727,61.0 1022.8728,63.0 1016.0,67.5624 1012.0,73.8611 1010.6023,79.6023 1012.0,84.7059 1016.2824,89.0 1022.273,91.0 1028.6779,90.0 1036.08,85.92 1041.0,80.5881 1043.0,75.734 1041.6221,70.6221 1037.2145,66.2145 1034.8036,63.8036 1034.0,63.0" stroke="#d62728" stroke-opacity="0.5" stroke-width="2" /><circle cx="1037.0" cy="75.0" fill="#9467bd" r="2" stroke="none" /><circle cx="1036.6299" cy="73.3701" fill="#9467bd" r="2" stroke="none" /><circle cx="1036.2315" cy="69.2315" fill="#9467bd" r="2" stroke="none" /><circle cx="1032.8456" cy="63.6912" fill="#9467bd" r="2" stroke="none" /><circle cx="1031.2993" cy="60.5987" fill="#9467bd" r="2" stroke="none" /><circle cx="1032.9716" cy="58.0284" fill="#9467bd" r="2" stroke="none" /><circle cx="1037.6323" cy="55.3677" fill="#9467bd" r="2" stroke="none" /><circle cx="1041.185" cy="52.815" fill="#9467bd" r="2" stroke="none" /><circle cx="1042.0" cy="52.0" fill="#9467bd" r="2" stroke="none" /><polyline fill="none" points="1037.0,75.0 1036.6299,73.3701 1036.2315,69.2315 1032.8456,63.6912 1031.2993,60.5987 1032.9716,58.0284 1037.6323,55.3677 1041.185,52.815 1042.0,52.0" stroke="#9467bd" stroke-opacity="0.5" stroke-width="2" /><circle cx="1052.0" cy="23.0" fill="#8c564b" r="2" stroke="none" /><circle cx="1052.2786" cy="26.2786" fill="#8c564b" r="2" stroke="none" /><circle cx="1053.0" cy="31.6364" fill="#8c564b" r="2" stroke="none" /><circle cx="1053.0" cy="39.5557" fill="#8c564b" r="2" stroke="none" /><circle cx="1052.0" cy="50.4547" fill="#8c564b" r="2" stroke="none" /><circle cx="1052.0" cy="62.8993" fill="#8c564b" r="2" stroke="none" /><circle cx="1053.0" cy="72.667" fill="#8c564b" r="2" stroke="none" /><circle cx="1055.0" cy="79.7578" fill="#8c564b" r="2" stroke="none" /><circle cx="1058.1215" cy="84.1215" fill="#8c564b" r="2" stroke="none" /><circle cx="1061.8687" cy="86.0" fill="#8c564b" r="2" stroke="none" /><circle cx="1063.0" cy="86.0" fill="#8c564b" r="2" stroke="none" /><polyline fill="none" points="1052.0,23.0 1052.2786,26.2786 1053.0,31.6364 1053.0,39.5557 1052.0,50.4547 1052.0,62.8993 1053.0,72.667 1055.0,79.7578 1058.1215,84.1215 1061.8687,86.0 1063.0,86.0" stroke="#8c564b" stroke-opacity="0.5" stroke-width="2" /><circle cx="1073.0" cy="72.0" fill="#e377c2" r="2" stroke="none" /><circle cx="1075.9912" cy="73.0" fill="#e377c2" r="2" stroke="none" /><circle cx="1081.5301" cy="72.1566" fill="#e377c2" r="2" stroke="none" /><circle cx="1089.2426" cy="68.7574" fill="#e377c2" r="2" stroke="none" /><circle cx="1094.9113" cy="66.0" fill="#e377c2" r="2" stroke="none" /><circle cx="1098.148" cy="62.852" fill="#e377c2" r="2" stroke="none" /><circle cx="1099.0" cy="58.3577" fill="#e377c2" r="2" stroke="none" /><circle cx="1096.7494" cy="54.7494" fill="#e377c2" r="2" stroke="none" /><circle cx="1092.9334" cy="53.0" fill="#e377c2" r="2" stroke="none" /><circle cx="1088.8636" cy="54.1364" fill="#e377c2" r="2" stroke="none" /><circle cx="1083.4618" cy="57.5382" fill="#e377c2" r="2" stroke="none" /><circle cx="1080.0" cy="62.9151" fill="#e377c2" r="2" stroke="none" /><circle cx="1079.0" cy="68.1766" fill="#e377c2" r="2" stroke="none" /><circle cx="1081.2906" cy="74.2906" fill="#e377c2" r="2" stroke="none" /><circle cx="1086.9092" cy="79.9092" fill="#e377c2" r="2" stroke="none" /><circle cx="1094.7101" cy="83.0" fill="#e377c2" r="2" stroke="none" /><circle cx="1105.2331" cy="85.0" fill="#e377c2" r="2" stroke="none" /><circle cx="1115.0249" cy="86.0249" fill="#e377c2" r="2" stroke="none" /><circle cx="1122.1527" cy="88.0" fill="#e377c2" r="2" stroke="none" /><circle cx="1125.9044" cy="89.9044" fill="#e377c2" r="2" stroke="none" /><circle cx="1127.0" cy="90.0" fill="#e377c2" r="2" stroke="none" /><polyline fill="none" points="1073.0,72.0 1075.9912,73.0 1081.5301,72.1566 1089.2426,68.7574 1094.9113,66.0 1098.148,62.852 1099.0,58.3577 1096.7494,54.7494 1092.9334,53.0 1088.8636,54.1364 1083.4618,57.5382 1080.0,62.9151 1079.0,68.1766 1081.2906,74.2906 1086.9092,79.9092 1094.7101,83.0 1105.2331,85.0 1115.0249,86.0249 1122.1527,88.0 1125.9044,89.9044 1127.0,90.0" stroke="#e377c2" stroke-opacity="0.5" stroke-width="2" /></svg>