<?xml version="1.0" encoding="utf-8" ?>
<svg baseProfile="tiny" height="200px" version="1.2" width="1140px" xmlns="http://www.w3.org/2000/svg" xmlns:ev="http://www.w3.org/2001/xml-events" xmlns:xlink="http://www.w3.org/1999/xlink"><defs /><rect fill="white" height="100%" width="100%" x="0" y="0" /><circle cx="20.0" cy="23.0" fill="#1f77b4" r="2" stroke="none" /><circle cx="21.3969" cy="26.3969" fill="#1f77b4" r="2" stroke="none" /><circle cx="25.7308" cy="27.2692" fill="#1f77b4" r="2" stroke="none" /><circle cx="33.1561" cy="26.0" fill="#1f77b4" r="2" stroke="none" /><circle cx="43.4258" cy="22.0" fill="#1f77b4" r="2" stroke="none" /><circle cx="53.1987" cy="20.0" fill="#1f77b4" r="2" stroke="none" /><circle cx="59.8245" cy="20.0" fill="#1f77b4" r="2" stroke="none" /><circle cx="63.2728" cy="21.2728" fill="#1f77b4" r="2" stroke="none" /><circle cx="65.0" cy="25.8581" fill="#1f77b4" r="2" stroke="none" /><circle cx="63.2436" cy="31.7564" fill="#1f77b4" r="2" stroke="none" /><circle cx="60.0" cy="41.0142" fill="#1f77b4" r="2" stroke="none" /><circle cx="55.0" cy="53.52" fill="#1f77b4" r="2" stroke="none" /><circle cx="48.8148" cy="68.1852" fill="#1f77b4" r="2" stroke="none" /><circle cx="43.0" cy="84.329" fill="#1f77b4" r="2" stroke="none" /><circle cx="40.0" cy="98.9884" fill="#1f77b4" r="2" stroke="none" /><circle cx="38.0" cy="110.0864" fill="#1f77b4" r="2" stroke="none" /><circle cx="38.0" cy="118.0375" fill="#1f77b4" r="2" stroke="none" /><circle cx="39.6533" cy="122.6533" fill="#1f77b4" r="2" stroke="none" /><circle cx="43.9243" cy="125.0757" fill="#1f77b4" r="2" stroke="none" /><circle cx="47.3212" cy="123.6788" fill="#1f77b4" r="2" stroke="none" /><circle cx="51.2992" cy="118.7008" fill="#1f77b4" r="2" stroke="none" /><circle cx="56.4443" cy="111.5557" fill="#1f77b4" r="2" stroke="none" /><circle cx="62.9862" cy="101.0138" fill="#1f77b4" r="2" stroke="none" /><circle cx="71.6321" cy="87.3679" fill="#1f77b4" r="2" stroke="none" /><circle cx="79.0" cy="74.5177" fill="#1f77b4" r="2" stroke="none" /><circle cx="84.2388" cy="64.7612" fill="#1f77b4" r="2" stroke="none" /><circle cx="87.7397" cy="58.2603" fill="#1f77b4" r="2" stroke="none" /><circle cx="90.6" cy="55.5" fill="#1f77b4" r="2" stroke="none" /><polyline fill="none" points="20.0,23.0 21.3969,26.3969 25.7308,27.2692 33.1561,26.0 43.4258,22.0 53.1987,20.0 59.8245,20.0 63.2728,21.2728 65.0,25.8581 63.2436,31.7564 60.0,41.0142 55.0,53.52 48.8148,68.1852 43.0,84.329 40.0,98.9884 38.0,110.0864 38.0,118.0375 39.6533,122.6533 43.9243,125.0757 47.3212,123.6788 51.2992,118.7008 56.4443,111.5557 62.9862,101.0138 71.6321,87.3679 79.0,74.5177 84.2388,64.7612 87.7397,58.2603 90.6,55.5" stroke="#1f77b4" stroke-opacity="0.5" stroke-width="2" /><circle cx="94.0" cy="50.0" fill="#ff7f0e" r="2" stroke="none" /><circle cx="91.8753" cy="53.3117" fill="#ff7f0e" r="2" stroke="none" /><circle cx="89.0" cy="60.5083" fill="#ff7f0e" r="2" stroke="none" /><circle cx="85.0" cy="70.8093" fill="#ff7f0e" r="2" stroke="none" /><circle cx="79.0429" cy="82.9571" fill="#ff7f0e" r="2" stroke="none" /><circle cx="75.0" cy="98.555" fill="#ff7f0e" r="2" stroke="none" /><circle cx="72.9907" cy="111.0093" fill="#ff7f0e" r="2" stroke="none" /><circle cx="72.0" cy="119.8995" fill="#ff7f0e" r="2" stroke="none" /><circle cx="73.0" cy="126.1286" fill="#ff7f0e" r="2" stroke="none" /><circle cx="74.4952" cy="129.4952" fill="#ff7f0e" r="2" stroke="none" /><circle cx="78.839" cy="130.161" fill="#ff7f0e" r="2" stroke="none" /><circle cx="83.1828" cy="127.8172" fill="#ff7f0e" r="2" stroke="none" /><circle cx="88.0" cy="121.8406" fill="#ff7f0e" r="2" stroke="none" /><circle cx="93.7398" cy="112.2602" fill="#ff7f0e" r="2" stroke="none" /><circle cx="101.4783" cy="99.5217" fill="#ff7f0e" r="2" stroke="none" /><circle cx="108.2674" cy="83.7326" fill="#ff7f0e" r="2" stroke="none" /><circle cx="118.0" cy="67.8341" fill="#ff7f0e" r="2" stroke="none" /><circle cx="125.4999" cy="54.6252" fill="#ff7f0e" r="2" stroke="none" /><circle cx="131.7215" cy="44.2785" fill="#ff7f0e" r="2" stroke="none" /><circle cx="135.0" cy="36.3359" fill="#ff7f0e" r="2" stroke="none" /><circle cx="136.3992" cy="31.6008" fill="#ff7f0e" r="2" stroke="none" /><circle cx="134.9609" cy="29.0391" fill="#ff7f0e" r="2" stroke="none" /><circle cx="134.0214" cy="29.9786" fill="#ff7f0e" r="2" stroke="none" /><circle cx="132.3847" cy="34.6153" fill="#ff7f0e" r="2" stroke="none" /><circle cx="129.0" cy="41.1852" fill="#ff7f0e" r="2" stroke="none" /><circle cx="128.1853" cy="47.3706" fill="#ff7f0e" r="2" stroke="none" /><circle cx="127.25" cy="50.0" fill="#ff7f0e" r="2" stroke="none" /><polyline fill="none" points="94.0,50.0 91.8753,53.3117 89.0,60.5083 85.0,70.8093 79.0429,82.9571 75.0,98.555 72.9907,111.0093 72.0,119.8995 73.0,126.1286 74.4952,129.4952 78.839,130.161 83.1828,127.8172 88.0,121.8406 93.7398,112.2602 101.4783,99.5217 108.2674,83.7326 118.0,67.8341 125.4999,54.6252 131.7215,44.2785 135.0,36.3359 136.3992,31.6008 134.9609,29.0391 134.0214,29.9786 132.3847,34.6153 129.0,41.1852 128.1853,47.3706 127.25,50.0" stroke="#ff7f0e" stroke-opacity="0.5" stroke-width="2" /><circle cx="98.0" cy="114.0" fill="#2ca02c" r="2" stroke="none" /><circle cx="101.3828" cy="114.6172" fill="#2ca02c" r="2" stroke="none" /><circle cx="105.698" cy="112.302" fill="#2ca02c" r="2" stroke="none" /><circle cx="113.1031" cy="107.8969" fill="#2ca02c" r="2" stroke="none" /><circle cx="121.7871" cy="100.2129" fill="#2ca02c" r="2" stroke="none" /><circle cx="130.4034" cy="90.5966" fill="#2ca02c" r="2" stroke="none" /><circle cx="136.7305" cy="82.539" fill="#2ca02c" r="2" stroke="none" /><circle cx="140.6861" cy="77.3139" fill="#2ca02c" r="2" stroke="none" /><circle cx="142.6" cy="75.5" fill="#2ca02c" r="2" stroke="none" /><polyline fill="none" points="98.0,114.0 101.3828,114.6172 105.698,112.302 113.1031,107.8969 121.7871,100.2129 130.4034,90.5966 136.7305,82.539 140.6861,77.3139 142.6,75.5" stroke="#2ca02c" stroke-opacity="0.5" stroke-width="2" /><circle cx="124.0" cy="62.0" fill="#d62728" r="2" stroke="none" /><circle cx="124.354" cy="58.3815" fill="#d62728" r="2" stroke="none" /><circle cx="124.875" cy="56.0" fill="#d62728" r="2" stroke="none" /><polyline fill="none" points="124.0,62.0 124.354,58.3815 124.875,56.0" stroke="#d62728" stroke-opacity="0.5" stroke-width="2" /><circle cx="177.1" cy="26.5" fill="#9467bd" r="2" stroke="none" /><circle cx="173.9999" cy="29.0001" fill="#9467bd" r="2" stroke="none" /><circle cx="169.0573" cy="34.9427" fill="#9467bd" r="2" stroke="none" /><circle cx="161.9969" cy="44.0031" fill="#9467bd" r="2" stroke="none" /><circle cx="153.0" cy="56.2565" fill="#9467bd" r="2" stroke="none" /><circle cx="145.2231" cy="70.7769" fill="#9467bd" r="2" stroke="none" /><circle cx="138.0" cy="84.3863" fill="#9467bd" r="2" stroke="none" /><circle cx="132.0" cy="95.2177" fill="#9467bd" r="2" stroke="none" /><circle cx="129.0" cy="104.6283" fill="#9467bd" r="2" stroke="none" /><circle cx="127.0" cy="110.4582" fill="#9467bd" r="2" stroke="none" /><circle cx="127.0543" cy="113.1087" fill="#9467bd" r="2" stroke="none" /><circle cx="128.9151" cy="113.0849" fill="#9467bd" r="2" stroke="none" /><circle cx="132.9745" cy="110.0255" fill="#9467bd" r="2" stroke="none" /><circle cx="137.21" cy="103.79" fill="#9467bd" r="2" stroke="none" /><circle cx="144.0509" cy="96.0" fill="#9467bd" r="2" stroke="none" /><circle cx="152.1548" cy="89.8452" fill="#9467bd" r="2" stroke="none" /><circle cx="157.2203" cy="86.0" fill="#9467bd" r="2" stroke="none" /><circle cx="160.5665" cy="84.4335" fill="#9467bd" r="2" stroke="none" /><circle cx="161.5081" cy="84.5081" fill="#9467bd" r="2" stroke="none" /><circle cx="162.0" cy="88.2993" fill="#9467bd" r="2" stroke="none" /><circle cx="160.6157" cy="94.3843" fill="#9467bd" r="2" stroke="none" /><circle cx="157.5599" cy="102.4401" fill="#9467bd" r="2" stroke="none" /><circle cx="156.0" cy="107.1206" fill="#9467bd" r="2" stroke="none" /><circle cx="156.0" cy="108.4523" fill="#9467bd" r="2" stroke="none" /><circle cx="159.8526" cy="109.1474" fill="#9467bd" r="2" stroke="none" /><circle cx="163.912" cy="106.088" fill="#9467bd" r="2" stroke="none" /><circle cx="168.8546" cy="100.1454" fill="#9467bd" r="2" stroke="none" /><circle cx="174.7973" cy="95.2027" fill="#9467bd" r="2" stroke="none" /><circle cx="178.0143" cy="90.9857" fill="#9467bd" r="2" stroke="none" /><circle cx="180.1667" cy="89.5" fill="#9467bd" r="2" stroke="none" /><polyline fill="none" points="177.1,26.5 173.9999,29.0001 169.0573,34.9427 161.9969,44.0031 153.0,56.2565 145.2231,70.7769 138.0,84.3863 132.0,95.2177 129.0,104.6283 127.0,110.4582 127.0543,113.1087 128.9151,113.0849 132.9745,110.0255 137.21,103.79 144.0509,96.0 152.1548,89.8452 157.2203,86.0 160.5665,84.4335 161.5081,84.5081 162.0,88.2993 160.6157,94.3843 157.5599,102.4401 156.0,107.1206 156.0,108.4523 159.8526,109.1474 163.912,106.088 168.8546,100.1454 174.7973,95.2027 178.0143,90.9857 180.1667,89.5" stroke="#9467bd" stroke-opacity="0.5" stroke-width="2" /><circle cx="146.8333" cy="68.5" fill="#8c564b" r="2" stroke="none" /><circle cx="149.9167" cy="66.0833" fill="#8c564b" r="2" stroke="none" /><circle cx="155.838" cy="61.162" fill="#8c564b" r="2" stroke="none" /><circle cx="161.9283" cy="53.0717" fill="#8c564b" r="2" stroke="none" /><circle cx="168.4805" cy="42.5195" fill="#8c564b" r="2" stroke="none" /><circle cx="174.0" cy="32.8661" fill="#8c564b" r="2" stroke="none" /><circle cx="177.68" cy="26.2" fill="#8c564b" r="2" stroke="none" /><circle cx="180.0" cy="23.0" fill="#8c564b" r="2" stroke="none" /><polyline fill="none" points="146.8333,68.5 149.9167,66.0833 155.838,61.162 161.9283,53.0717 168.4805,42.5195 174.0,32.8661 177.68,26.2 180.0,23.0" stroke="#8c564b" stroke-opacity="0.5" stroke-width="2" /><circle cx="189.0" cy="84.5" fill="#e377c2" r="2" stroke="none" /><circle cx="185.9579" cy="87.0421" fill="#e377c2" r="2" stroke="none" /><circle cx="182.0" cy="92.0795" fill="#e377c2" r="2" stroke="none" /><circle cx="177.9254" cy="101.0746" fill="#e377c2" r="2" stroke="none" /><circle cx="172.73" cy="108.27" fill="#e377c2" r="2" stroke="none" /><circle cx="169.6602" cy="112.3398" fill="#e377c2" r="2" stroke="none" /><circle cx="168.7159" cy="113.2841" fill="#e377c2" r="2" stroke="none" /><circle cx="168.0" cy="110.576" fill="#e377c2" r="2" stroke="none" /><circle cx="170.6625" cy="106.3375" fill="#e377c2" r="2" stroke="none" /><circle cx="175.0" cy="98.7866" fill="#e377c2" r="2" stroke="none" /><circle cx="180.6832" cy="88.9504" fill="#e377c2" r="2" stroke="none" /><circle cx="186.9012" cy="82.0988" fill="#e377c2" r="2" stroke="none" /><circle cx="190.532" cy="78.202" fill="#e377c2" r="2" stroke="none" /><circle cx="192.6667" cy="76.6667" fill="#e377c2" r="2" stroke="none" /><polyline fill="none" points="189.0,84.5 185.9579,87.0421 182.0,92.0795 177.9254,101.0746 172.73,108.27 169.6602,112.3398 168.7159,113.2841 168.0,110.576 170.6625,106.3375 175.0,98.7866 180.6832,88.9504 186.9012,82.0988 190.532,78.202 192.6667,76.6667" stroke="#e377c2" stroke-opacity="0.5" stroke-width="2" /><circle cx="186.7273" cy="82.7273" fill="#7f7f7f" r="2" stroke="none" /><circle cx="189.0" cy="84.1063" fill="#7f7f7f" r="2" stroke="none" /><circle cx="188.2274" cy="87.7726" fill="#7f7f7f" r="2" stroke="none" /><circle cx="186.0" cy="94.8227" fill="#7f7f7f" r="2" stroke="none" /><circle cx="181.9117" cy="105.0883" fill="#7f7f7f" r="2" stroke="none" /><circle cx="178.1629" cy="112.8371" fill="#7f7f7f" r="2" stroke="none" /><circle cx="176.4137" cy="118.4137" fill="#7f7f7f" r="2" stroke="none" /><circle cx="177.8183" cy="121.8183" fill="#7f7f7f" r="2" stroke="none" /><circle cx="182.1084" cy="123.8916" fill="#7f7f7f" r="2" stroke="none" /><circle cx="186.64" cy="122.0" fill="#7f7f7f" r="2" stroke="none" /><circle cx="192.0" cy="117.0442" fill="#7f7f7f" r="2" stroke="none" /><circle cx="198.0713" cy="108.9287" fill="#7f7f7f" r="2" stroke="none" /><circle cx="205.0" cy="97.182" fill="#7f7f7f" r="2" stroke="none" /><circle cx="214.2426" cy="83.5148" fill="#7f7f7f" r="2" stroke="none" /><circle cx="223.4149" cy="68.8298" fill="#7f7f7f" r="2" stroke="none" /><circle cx="231.1947" cy="56.8053" fill="#7f7f7f" r="2" stroke="none" /><circle cx="236.0404" cy="47.4393" fill="#7f7f7f" r="2" stroke="none" /><circle cx="239.3125" cy="41.6875" fill="#7f7f7f" r="2" stroke="none" /><circle cx="241.246" cy="38.2619" fill="#7f7f7f" r="2" stroke="none" /><circle cx="241.8333" cy="37.5" fill="#7f7f7f" r="2" stroke="none" /><polyline fill="none" points="186.7273,82.7273 189.0,84.1063 188.2274,87.7726 186.0,94.8227 181.9117,105.0883 178.1629,112.8371 176.4137,118.4137 177.8183,121.8183 182.1084,123.8916 186.64,122.0 192.0,117.0442 198.0713,108.9287 205.0,97.182 214.2426,83.5148 223.4149,68.8298 231.1947,56.8053 236.0404,47.4393 239.3125,41.6875 241.246,38.2619 241.8333,37.5" stroke="#7f7f7f" stroke-opacity="0.5" stroke-width="2" /><circle cx="223.0" cy="69.3333" fill="#bcbd22" r="2" stroke="none" /><circle cx="221.6165" cy="72.233" fill="#bcbd22" r="2" stroke="none" /><circle cx="219.3278" cy="77.6722" fill="#bcbd22" r="2" stroke="none" /><circle cx="215.0" cy="86.4981" fill="#bcbd22" r="2" stroke="none" /><circle cx="211.0" cy="98.1145" fill="#bcbd22" r="2" stroke="none" /><circle cx="208.1289" cy="108.8711" fill="#bcbd22" r="2" stroke="none" /><circle cx="207.4913" cy="117.4913" fill="#bcbd22" r="2" stroke="none" /><circle cx="209.3556" cy="123.3556" fill="#bcbd22" r="2" stroke="none" /><circle cx="212.4642" cy="125.4642" fill="#bcbd22" r="2" stroke="none" /><circle cx="217.0971" cy="124.9029" fill="#bcbd22" r="2" stroke="none" /><circle cx="223.6071" cy="121.3929" fill="#bcbd22" r="2" stroke="none" /><circle cx="233.2257" cy="115.7743" fill="#bcbd22" r="2" stroke="none" /><circle cx="240.0" cy="109.8748" fill="#bcbd22" r="2" stroke="none" /><circle cx="243.5985" cy="103.4015" fill="#bcbd22" r="2" stroke="none" /><circle cx="245.0" cy="100.0" fill="#bcbd22" r="2" stroke="none" /><polyline fill="none" points="223.0,69.3333 221.6165,72.233 219.3278,77.6722 215.0,86.4981 211.0,98.1145 208.1289,108.8711 207.4913,117.4913 209.3556,123.3556 212.4642,125.4642 217.0971,124.9029 223.6071,121.3929 233.2257,115.7743 240.0,109.8748 243.5985,103.4015 245.0,100.0" stroke="#bcbd22" stroke-opacity="0.5" stroke-width="2" /><circle cx="211.7778" cy="72.4444" fill="#17becf" r="2" stroke="none" /><circle cx="214.2441" cy="71.7559" fill="#17becf" r="2" stroke="none" /><circle cx="220.0447" cy="69.9925" fill="#17becf" r="2" stroke="none" /><circle cx="228.6884" cy="68.0" fill="#17becf" r="2" stroke="none" /><circle cx="234.8028" cy="67.0" fill="#17becf" r="2" stroke="none" /><circle cx="237.0" cy="66.0" fill="#17becf" r="2" stroke="none" /><polyline fill="none" points="211.7778,72.4444 214.2441,71.7559 220.0447,69.9925 228.6884,68.0 234.8028,67.0 237.0,66.0" stroke="#17becf" stroke-opacity="0.5" stroke-width="2" /><circle cx="223.0" cy="71.0" fill="#1f77b4" r="2" stroke="none" /><circle cx="224.8731" cy="67.7462" fill="#1f77b4" r="2" stroke="none" /><circle cx="227.5803" cy="62.1605" fill="#1f77b4" r="2" stroke="none" /><circle cx="230.4831" cy="55.5169" fill="#1f77b4" r="2" stroke="none" /><circle cx="233.0714" cy="52.5" fill="#1f77b4" r="2" stroke="none" /><polyline fill="none" points="223.0,71.0 224.8731,67.7462 227.5803,62.1605 230.4831,55.5169 233.0714,52.5" stroke="#1f77b4" stroke-opacity="0.5" stroke-width="2" /><circle cx="262.0" cy="67.0" fill="#ff7f0e" r="2" stroke="none" /><circle cx="263.4744" cy="63.5256" fill="#ff7f0e" r="2" stroke="none" /><circle cx="268.0" cy="59.1774" fill="#ff7f0e" r="2" stroke="none" /><circle cx="270.367" cy="54.7553" fill="#ff7f0e" r="2" stroke="none" /><circle cx="271.5" cy="54.0" fill="#ff7f0e" r="2" stroke="none" /><polyline fill="none" points="262.0,67.0 263.4744,63.5256 268.0,59.1774 270.367,54.7553 271.5,54.0" stroke="#ff7f0e" stroke-opacity="0.5" stroke-width="2" /><circle cx="256.0" cy="119.0" fill="#2ca02c" r="2" stroke="none" /><circle cx="256.9371" cy="119.9371" fill="#2ca02c" r="2" stroke="none" /><circle cx="261.3834" cy="120.0" fill="#2ca02c" r="2" stroke="none" /><circle cx="267.1811" cy="118.0" fill="#2ca02c" r="2" stroke="none" /><circle cx="275.6291" cy="116.0" fill="#2ca02c" r="2" stroke="none" /><circle cx="282.2388" cy="112.7612" fill="#2ca02c" r="2" stroke="none" /><circle cx="285.0" cy="109.9293" fill="#2ca02c" r="2" stroke="none" /><circle cx="284.4901" cy="107.4901" fill="#2ca02c" r="2" stroke="none" /><circle cx="280.156" cy="105.156" fill="#2ca02c" r="2" stroke="none" /><circle cx="273.9478" cy="100.9478" fill="#2ca02c" r="2" stroke="none" /><circle cx="270.0" cy="96.5428" fill="#2ca02c" r="2" stroke="none" /><circle cx="269.3101" cy="94.3798" fill="#2ca02c" r="2" stroke="none" /><circle cx="272.5403" cy="92.4597" fill="#2ca02c" r="2" stroke="none" /><circle cx="278.7485" cy="88.2515" fill="#2ca02c" r="2" stroke="none" /><circle cx="285.6009" cy="82.3991" fill="#2ca02c" r="2" stroke="none" /><circle cx="289.642" cy="79.358" fill="#2ca02c" r="2" stroke="none" /><circle cx="289.8569" cy="75.8569" fill="#2ca02c" r="2" stroke="none" /><circle cx="287.5614" cy="75.0" fill="#2ca02c" r="2" stroke="none" /><circle cx="284.0" cy="74.0" fill="#2ca02c" r="2" stroke="none" /><polyline fill="none" points="256.0,119.0 256.9371,119.9371 261.3834,120.0 267.1811,118.0 275.6291,116.0 282.2388,112.7612 285.0,109.9293 284.4901,107.4901 280.156,105.156 273.9478,100.9478 270.0,96.5428 269.3101,94.3798 272.5403,92.4597 278.7485,88.2515 285.6009,82.3991 289.642,79.358 289.8569,75.8569 287.5614,75.0 284.0,74.0" stroke="#2ca02c" stroke-opacity="0.5" stroke-width="2" /><circle cx="383.0" cy="93.0" fill="#d62728" r="2" stroke="none" /><circle cx="386.1262" cy="90.8738" fill="#d62728" r="2" stroke="none" /><circle cx="390.5355" cy="85.0" fill="#d62728" r="2" stroke="none" /><circle cx="395.0496" cy="83.0" fill="#d62728" r="2" stroke="none" /><circle cx="398.4542" cy="84.4542" fill="#d62728" r="2" stroke="none" /><circle cx="399.0" cy="88.2351" fill="#d62728" r="2" stroke="none" /><circle cx="398.0" cy="94.4991" fill="#d62728" r="2" stroke="none" /><circle cx="395.3231" cy="103.3537" fill="#d62728" r="2" stroke="none" /><circle cx="392.4354" cy="111.5646" fill="#d62728" r="2" stroke="none" /><circle cx="389.1274" cy="116.8726" fill="#d62728" r="2" stroke="none" /><circle cx="385.8752" cy="119.1248" fill="#d62728" r="2" stroke="none" /><circle cx="385.0438" cy="120.0876" fill="#d62728" r="2" stroke="none" /><circle cx="387.0" cy="118.3137" fill="#d62728" r="2" stroke="none" /><circle cx="388.9945" cy="113.5083" fill="#d62728" r="2" stroke="none" /><circle cx="392.1759" cy="107.6482" fill="#d62728" r="2" stroke="none" /><circle cx="394.75" cy="105.0" fill="#d62728" r="2" stroke="none" /><polyline fill="none" points="383.0,93.0 386.1262,90.8738 390.5355,85.0 395.0496,83.0 398.4542,84.4542 399.0,88.2351 398.0,94.4991 395.3231,103.3537 392.4354,111.5646 389.1274,116.8726 385.8752,119.1248 385.0438,120.0876 387.0,118.3137 388.9945,113.5083 392.1759,107.6482 394.75,105.0" stroke="#d62728" stroke-opacity="0.5" stroke-width="2" /><circle cx="396.9" cy="99.5" fill="#9467bd" r="2" stroke="none" /><circle cx="399.5031" cy="96.4969" fill="#9467bd" r="2" stroke="none" /><circle cx="402.5538" cy="92.4462" fill="#9467bd" r="2" stroke="none" /><circle cx="404.5354" cy="91.0" fill="#9467bd" r="2" stroke="none" /><circle cx="408.0" cy="93.2187" fill="#9467bd" r="2" stroke="none" /><circle cx="408.0" cy="97.2045" fill="#9467bd" r="2" stroke="none" /><circle cx="405.7542" cy="104.2458" fill="#9467bd" r="2" stroke="none" /><circle cx="403.0" cy="113.7336" fill="#9467bd" r="2" stroke="none" /><circle cx="403.0" cy="120.3765" fill="#9467bd" r="2" stroke="none" /><circle cx="405.2767" cy="124.0" fill="#9467bd" r="2" stroke="none" /><circle cx="407.9338" cy="124.0" fill="#9467bd" r="2" stroke="none" /><circle cx="413.5292" cy="121.4708" fill="#9467bd" r="2" stroke="none" /><circle cx="419.0" cy="115.0226" fill="#9467bd" r="2" stroke="none" /><circle cx="427.8895" cy="107.1105" fill="#9467bd" r="2" stroke="none" /><circle cx="435.6375" cy="98.3625" fill="#9467bd" r="2" stroke="none" /><circle cx="441.5066" cy="91.4934" fill="#9467bd" r="2" stroke="none" /><circle cx="444.0" cy="85.8833" fill="#9467bd" r="2" stroke="none" /><circle cx="445.0" cy="83.6404" fill="#9467bd" r="2" stroke="none" /><circle cx="442.4831" cy="83.0" fill="#9467bd" r="2" stroke="none" /><circle cx="439.5232" cy="85.4768" fill="#9467bd" r="2" stroke="none" /><circle cx="434.5936" cy="91.4064" fill="#9467bd" r="2" stroke="none" /><circle cx="429.0" cy="99.7181" fill="#9467bd" r="2" stroke="none" /><circle cx="424.4672" cy="110.1311" fill="#9467bd" r="2" stroke="none" /><circle cx="422.0" cy="117.2166" fill="#9467bd" r="2" stroke="none" /><circle cx="422.3755" cy="122.3755" fill="#9467bd" r="2" stroke="none" /><circle cx="424.2832" cy="124.0" fill="#9467bd" r="2" stroke="none" /><circle cx="429.5976" cy="124.0" fill="#9467bd" r="2" stroke="none" /><circle cx="436.2308" cy="120.7692" fill="#9467bd" r="2" stroke="none" /><circle cx="442.0999" cy="113.9001" fill="#9467bd" r="2" stroke="none" /><circle cx="451.0802" cy="104.9198" fill="#9467bd" r="2" stroke="none" /><circle cx="459.7676" cy="95.2324" fill="#9467bd" r="2" stroke="none" /><circle cx="465.8643" cy="88.2714" fill="#9467bd" r="2" stroke="none" /><circle cx="469.1303" cy="84.0872" fill="#9467bd" r="2" stroke="none" /><circle cx="470.4" cy="81.8" fill="#9467bd" r="2" stroke="none" /><polyline fill="none" points="396.9,99.5 399.5031,96.4969 402.5538,92.4462 404.5354,91.0 408.0,93.2187 408.0,97.2045 405.7542,104.2458 403.0,113.7336 403.0,120.3765 405.2767,124.0 407.9338,124.0 413.5292,121.4708 419.0,115.0226 427.8895,107.1105 435.6375,98.3625 441.5066,91.4934 444.0,85.8833 445.0,83.6404 442.4831,83.0 439.5232,85.4768 434.5936,91.4064 429.0,99.7181 424.4672,110.1311 422.0,117.2166 422.3755,122.3755 424.2832,124.0 429.5976,124.0 436.2308,120.7692 442.0999,113.9001 451.0802,104.9198 459.7676,95.2324 465.8643,88.2714 469.1303,84.0872 470.4,81.8" stroke="#9467bd" stroke-opacity="0.5" stroke-width="2" /><circle cx="465.0" cy="90.0" fill="#8c564b" r="2" stroke="none" /><circle cx="466.0" cy="93.5629" fill="#8c564b" r="2" stroke="none" /><circle cx="470.3629" cy="95.0" fill="#8c564b" r="2" stroke="none" /><circle cx="476.5772" cy="94.0" fill="#8c564b" r="2" stroke="none" /><circle cx="481.3294" cy="92.6706" fill="#8c564b" r="2" stroke="none" /><circle cx="484.0" cy="93.6145" fill="#8c564b" r="2" stroke="none" /><circle cx="483.1049" cy="95.8951" fill="#8c564b" r="2" stroke="none" /><circle cx="480.5392" cy="101.4608" fill="#8c564b" r="2" stroke="none" /><circle cx="475.1612" cy="109.8388" fill="#8c564b" r="2" stroke="none" /><circle cx="470.0" cy="118.3065" fill="#8c564b" r="2" stroke="none" /><circle cx="467.2175" cy="123.7825" fill="#8c564b" r="2" stroke="none" /><circle cx="467.0" cy="127.6695" fill="#8c564b" r="2" stroke="none" /><circle cx="468.6411" cy="128.3589" fill="#8c564b" r="2" stroke="none" /><circle cx="471.7462" cy="126.2538" fill="#8c564b" r="2" stroke="none" /><circle cx="478.2494" cy="122.7506" fill="#8c564b" r="2" stroke="none" /><circle cx="484.8112" cy="116.1888" fill="#8c564b" r="2" stroke="none" /><circle cx="493.2479" cy="107.7521" fill="#8c564b" r="2" stroke="none" /><circle cx="500.1027" cy="101.8973" fill="#8c564b" r="2" stroke="none" /><circle cx="504.0826" cy="96.9174" fill="#8c564b" r="2" stroke="none" /><circle cx="507.0" cy="95.0" fill="#8c564b" r="2" stroke="none" /><polyline fill="none" points="465.0,90.0 466.0,93.5629 470.3629,95.0 476.5772,94.0 481.3294,92.6706 484.0,93.6145 483.1049,95.8951 480.5392,101.4608 475.1612,109.8388 470.0,118.3065 467.2175,123.7825 467.0,127.6695 468.6411,128.3589 471.7462,126.2538 478.2494,122.7506 484.8112,116.1888 493.2479,107.7521 500.1027,101.8973 504.0826,96.9174 507.0,95.0" stroke="#8c564b" stroke-opacity="0.5" stroke-width="2" /><circle cx="506.3333" cy="94.6667" fill="#e377c2" r="2" stroke="none" /><circle cx="509.0" cy="97.3721" fill="#e377c2" r="2" stroke="none" /><circle cx="509.0" cy="102.0514" fill="#e377c2" r="2" stroke="none" /><circle cx="506.1392" cy="108.8608" fill="#e377c2" r="2" stroke="none" /><circle cx="505.0" cy="116.3833" fill="#e377c2" r="2" stroke="none" /><circle cx="505.0" cy="120.3805" fill="#e377c2" r="2" stroke="none" /><circle cx="508.6234" cy="123.6234" fill="#e377c2" r="2" stroke="none" /><circle cx="512.0504" cy="123.0" fill="#e377c2" r="2" stroke="none" /><circle cx="516.3321" cy="118.6679" fill="#e377c2" r="2" stroke="none" /><circle cx="522.9272" cy="112.0728" fill="#e377c2" r="2" stroke="none" /><circle cx="530.0" cy="104.3433" fill="#e377c2" r="2" stroke="none" /><circle cx="534.703" cy="98.297" fill="#e377c2" r="2" stroke="none" /><circle cx="536.8223" cy="95.1777" fill="#e377c2" r="2" stroke="none" /><circle cx="535.7281" cy="92.2719" fill="#e377c2" r="2" stroke="none" /><circle cx="534.786" cy="93.214" fill="#e377c2" r="2" stroke="none" /><circle cx="535.3333" cy="96.3333" fill="#e377c2" r="2" stroke="none" /><polyline fill="none" points="506.3333,94.6667 509.0,97.3721 509.0,102.0514 506.1392,108.8608 505.0,116.3833 505.0,120.3805 508.6234,123.6234 512.0504,123.0 516.3321,118.6679 522.9272,112.0728 530.0,104.3433 534.703,98.297 536.8223,95.1777 535.7281,92.2719 534.786,93.214 535.3333,96.3333" stroke="#e377c2" stroke-opacity="0.5" stroke-width="2" /><circle cx="536.6667" cy="95.6667" fill="#7f7f7f" r="2" stroke="none" /><circle cx="539.8943" cy="97.0" fill="#7f7f7f" r="2" stroke="none" /><circle cx="542.0" cy="96.0" fill="#7f7f7f" r="2" stroke="none" /><polyline fill="none" points="536.6667,95.6667 539.8943,97.0 542.0,96.0" stroke="#7f7f7f" stroke-opacity="0.5" stroke-width="2" /><circle cx="587.0" cy="133.5" fill="#bcbd22" r="2" stroke="none" /><circle cx="590.0" cy="133.0" fill="#bcbd22" r="2" stroke="none" /><polyline fill="none" points="587.0,133.5 590.0,133.0" stroke="#bcbd22" stroke-opacity="0.5" stroke-width="2" /><circle cx="566.6667" cy="48.6667" fill="#17becf" r="2" stroke="none" /><circle cx="568.3553" cy="46.6447" fill="#17becf" r="2" stroke="none" /><circle cx="572.5841" cy="44.0" fill="#17becf" r="2" stroke="none" /><circle cx="580.4658" cy="40.5342" fill="#17becf" r="2" stroke="none" /><circle cx="590.567" cy="36.0" fill="#17becf" r="2" stroke="none" /><circle cx="599.0559" cy="34.0" fill="#17becf" r="2" stroke="none" /><circle cx="605.5029" cy="34.5029" fill="#17becf" r="2" stroke="none" /><circle cx="609.1463" cy="37.1463" fill="#17becf" r="2" stroke="none" /><circle cx="609.0" cy="40.3716" fill="#17becf" r="2" stroke="none" /><circle cx="605.4455" cy="45.5545" fill="#17becf" r="2" stroke="none" /><circle cx="600.0373" cy="53.9627" fill="#17becf" r="2" stroke="none" /><circle cx="592.2737" cy="62.7263" fill="#17becf" r="2" stroke="none" /><circle cx="586.1584" cy="70.8416" fill="#17becf" r="2" stroke="none" /><circle cx="582.6326" cy="77.3674" fill="#17becf" r="2" stroke="none" /><circle cx="581.718" cy="81.718" fill="#17becf" r="2" stroke="none" /><circle cx="584.1273" cy="84.1273" fill="#17becf" r="2" stroke="none" /><circle cx="588.6758" cy="86.0" fill="#17becf" r="2" stroke="none" /><circle cx="592.669" cy="86.0" fill="#17becf" r="2" stroke="none" /><circle cx="594.0" cy="86.0" fill="#17becf" r="2" stroke="none" /><polyline fill="none" points="566.6667,48.6667 568.3553,46.6447 572.5841,44.0 580.4658,40.5342 590.567,36.0 599.0559,34.0 605.5029,34.5029 609.1463,37.1463 609.0,40.3716 605.4455,45.5545 600.0373,53.9627 592.2737,62.7263 586.1584,70.8416 582.6326,77.3674 581.718,81.718 584.1273,84.1273 588.6758,86.0 592.669,86.0 594.0,86.0" stroke="#17becf" stroke-opacity="0.5" stroke-width="2" /><circle cx="738.0" cy="37.0" fill="#1f77b4" r="2" stroke="none" /><circle cx="736.0" cy="40.1651" fill="#1f77b4" r="2" stroke="none" /><circle cx="733.0639" cy="46.9361" fill="#1f77b4" r="2" stroke="none" /><circle cx="730.0" cy="57.6476" fill="#1f77b4" r="2" stroke="none" /><circle cx="724.8448" cy="70.1552" fill="#1f77b4" r="2" stroke="none" /><circle cx="717.3236" cy="85.6764" fill="#1f77b4" r="2" stroke="none" /><circle cx="710.7437" cy="100.2563" fill="#1f77b4" r="2" stroke="none" /><circle cx="706.2805" cy="111.7195" fill="#1f77b4" r="2" stroke="none" /><circle cx="700.1644" cy="119.8356" fill="#1f77b4" r="2" stroke="none" /><circle cx="697.5858" cy="126.8284" fill="#1f77b4" r="2" stroke="none" /><circle cx="696.0" cy="130.4476" fill="#1f77b4" r="2" stroke="none" /><circle cx="696.3632" cy="131.6816" fill="#1f77b4" r="2" stroke="none" /><circle cx="698.0" cy="130.4638" fill="#1f77b4" r="2" stroke="none" /><circle cx="700.7301" cy="126.2699" fill="#1f77b4" r="2" stroke="none" /><circle cx="705.6707" cy="120.3293" fill="#1f77b4" r="2" stroke="none" /><circle cx="712.4939" cy="112.5061" fill="#1f77b4" r="2" stroke="none" /><circle cx="722.2824" cy="104.0" fill="#1f77b4" r="2" stroke="none" /><circle cx="735.3151" cy="93.6849" fill="#1f77b4" r="2" stroke="none" /><circle cx="747.1964" cy="83.8036" fill="#1f77b4" r="2" stroke="none" /><circle cx="757.3118" cy="70.6882" fill="#1f77b4" r="2" stroke="none" /><circle cx="768.6073" cy="59.3927" fill="#1f77b4" r="2" stroke="none" /><circle cx="778.3131" cy="50.6869" fill="#1f77b4" r="2" stroke="none" /><circle cx="784.1739" cy="42.2391" fill="#1f77b4" r="2" stroke="none" /><circle cx="788.6625" cy="37.3559" fill="#1f77b4" r="2" stroke="none" /><circle cx="790.5714" cy="35.5" fill="#1f77b4" r="2" stroke="none" /><polyline fill="none" points="738.0,37.0 736.0,40.1651 733.0639,46.9361 730.0,57.6476 724.8448,70.1552 717.3236,85.6764 710.7437,100.2563 706.2805,111.7195 700.1644,119.8356 697.5858,126.8284 696.0,130.4476 696.3632,131.6816 698.0,130.4638 700.7301,126.2699 705.6707,120.3293 712.4939,112.5061 722.2824,104.0 735.3151,93.6849 747.1964,83.8036 757.3118,70.6882 768.6073,59.3927 778.3131,50.6869 784.1739,42.2391 788.6625,37.3559 790.5714,35.5" stroke="#1f77b4" stroke-opacity="0.5" stroke-width="2" /><circle cx="690.3333" cy="39.3333" fill="#ff7f0e" r="2" stroke="none" /><circle cx="694.1558" cy="38.8442" fill="#ff7f0e" r="2" stroke="none" /><circle cx="701.2287" cy="36.7713" fill="#ff7f0e" r="2" stroke="none" /><circle cx="710.1625" cy="36.0" fill="#ff7f0e" r="2" stroke="none" /><circle cx="722.6841" cy="34.3159" fill="#ff7f0e" r="2" stroke="none" /><circle cx="738.9361" cy="32.0639" fill="#ff7f0e" r="2" stroke="none" /><circle cx="754.8518" cy="29.0" fill="#ff7f0e" r="2" stroke="none" /><circle cx="767.1714" cy="26.8286" fill="#ff7f0e" r="2" stroke="none" /><circle cx="776.5751" cy="24.0" fill="#ff7f0e" r="2" stroke="none" /><circle cx="782.7704" cy="23.0" fill="#ff7f0e" r="2" stroke="none" /><circle cx="785.0" cy="22.0" fill="#ff7f0e" r="2" stroke="none" /><polyline fill="none" points="690.3333,39.3333 694.1558,38.8442 701.2287,36.7713 710.1625,36.0 722.6841,34.3159 738.9361,32.0639 754.8518,29.0 767.1714,26.8286 776.5751,24.0 782.7704,23.0 785.0,22.0" stroke="#ff7f0e" stroke-opacity="0.5" stroke-width="2" /><circle cx="736.0" cy="117.0" fill="#2ca02c" r="2" stroke="none" /><circle cx="737.9355" cy="113.7526" fill="#2ca02c" r="2" stroke="none" /><circle cx="742.4792" cy="107.5208" fill="#2ca02c" r="2" stroke="none" /><circle cx="748.0797" cy="97.9203" fill="#2ca02c" r="2" stroke="none" /><circle cx="755.5533" cy="86.4467" fill="#2ca02c" r="2" stroke="none" /><circle cx="765.8365" cy="72.1635" fill="#2ca02c" r="2" stroke="none" /><circle cx="776.3492" cy="56.6508" fill="#2ca02c" r="2" stroke="none" /><circle cx="784.8219" cy="44.1781" fill="#2ca02c" r="2" stroke="none" /><circle cx="791.4864" cy="34.6487" fill="#2ca02c" r="2" stroke="none" /><circle cx="796.3861" cy="28.4727" fill="#2ca02c" r="2" stroke="none" /><circle cx="798.7333" cy="25.2667" fill="#2ca02c" r="2" stroke="none" /><polyline fill="none" points="736.0,117.0 737.9355,113.7526 742.4792,107.5208 748.0797,97.9203 755.5533,86.4467 765.8365,72.1635 776.3492,56.6508 784.8219,44.1781 791.4864,34.6487 796.3861,28.4727 798.7333,25.2667" stroke="#2ca02c" stroke-opacity="0.5" stroke-width="2" /><circle cx="737.3333" cy="115.6667" fill="#d62728" r="2" stroke="none" /><circle cx="740.2822" cy="113.7178" fill="#d62728" r="2" stroke="none" /><circle cx="744.9642" cy="109.0358" fill="#d62728" r="2" stroke="none" /><circle cx="752.7483" cy="102.2517" fill="#d62728" r="2" stroke="none" /><circle cx="759.889" cy="97.111" fill="#d62728" r="2" stroke="none" /><circle cx="765.2217" cy="94.0" fill="#d62728" r="2" stroke="none" /><circle cx="769.1945" cy="94.0" fill="#d62728" r="2" stroke="none" /><circle cx="772.0" cy="97.5867" fill="#d62728" r="2" stroke="none" /><circle cx="771.0" cy="101.1453" fill="#d62728" r="2" stroke="none" /><circle cx="768.0" cy="107.8483" fill="#d62728" r="2" stroke="none" /><circle cx="767.0" cy="114.0555" fill="#d62728" r="2" stroke="none" /><circle cx="767.0" cy="116.7041" fill="#d62728" r="2" stroke="none" /><circle cx="769.8388" cy="117.1612" fill="#d62728" r="2" stroke="none" /><circle cx="773.8232" cy="114.1768" fill="#d62728" r="2" stroke="none" /><circle cx="778.0274" cy="107.9726" fill="#d62728" r="2" stroke="none" /><circle cx="783.8751" cy="101.1249" fill="#d62728" r="2" stroke="none" /><circle cx="791.825" cy="91.175" fill="#d62728" r="2" stroke="none" /><circle cx="799.7278" cy="84.5191" fill="#d62728" r="2" stroke="none" /><circle cx="804.7551" cy="80.2099" fill="#d62728" r="2" stroke="none" /><circle cx="808.0" cy="78.0" fill="#d62728" r="2" stroke="none" /><polyline fill="none" points="737.3333,115.6667 740.2822,113.7178 744.9642,109.0358 752.7483,102.2517 759.889,97.111 765.2217,94.0 769.1945,94.0 772.0,97.5867 771.0,101.1453 768.0,107.8483 767.0,114.0555 767.0,116.7041 769.8388,117.1612 773.8232,114.1768 778.0274,107.9726 783.8751,101.1249 791.825,91.175 799.7278,84.5191 804.7551,80.2099 808.0,78.0" stroke="#d62728" stroke-opacity="0.5" stroke-width="2" /><circle cx="792.0" cy="111.0" fill="#9467bd" r="2" stroke="none" /><circle cx="789.881" cy="114.119" fill="#9467bd" r="2" stroke="none" /><circle cx="788.0685" cy="118.863" fill="#9467bd" r="2" stroke="none" /><circle cx="785.9132" cy="119.9566" fill="#9467bd" r="2" stroke="none" /><circle cx="785.0" cy="117.7292" fill="#9467bd" r="2" stroke="none" /><circle cx="786.8382" cy="113.1618" fill="#9467bd" r="2" stroke="none" /><circle cx="789.1898" cy="104.8102" fill="#9467bd" r="2" stroke="none" /><circle cx="795.0" cy="95.227" fill="#9467bd" r="2" stroke="none" /><circle cx="799.3124" cy="87.6876" fill="#9467bd" r="2" stroke="none" /><circle cx="804.0225" cy="82.9775" fill="#9467bd" r="2" stroke="none" /><circle cx="806.0" cy="79.8" fill="#9467bd" r="2" stroke="none" /><polyline fill="none" points="792.0,111.0 789.881,114.119 788.0685,118.863 785.9132,119.9566 785.0,117.7292 786.8382,113.1618 789.1898,104.8102 795.0,95.227 799.3124,87.6876 804.0225,82.9775 806.0,79.8" stroke="#9467bd" stroke-opacity="0.5" stroke-width="2" /><circle cx="810.0" cy="59.5" fill="#8c564b" r="2" stroke="none" /><circle cx="812.441" cy="61.0" fill="#8c564b" r="2" stroke="none" /><circle cx="815.0" cy="62.0" fill="#8c564b" r="2" stroke="none" /><polyline fill="none" points="810.0,59.5 812.441,61.0 815.0,62.0" stroke="#8c564b" stroke-opacity="0.5" stroke-width="2" /><circle cx="788.8" cy="118.0" fill="#e377c2" r="2" stroke="none" /><circle cx="792.7809" cy="118.0" fill="#e377c2" r="2" stroke="none" /><circle cx="797.8296" cy="114.1704" fill="#e377c2" r="2" stroke="none" /><circle cx="806.2148" cy="108.7852" fill="#e377c2" r="2" stroke="none" /><circle cx="816.1838" cy="100.8162" fill="#e377c2" r="2" stroke="none" /><circle cx="826.1527" cy="92.8473" fill="#e377c2" r="2" stroke="none" /><circle cx="833.147" cy="87.1397" fill="#e377c2" r="2" stroke="none" /><circle cx="837.2929" cy="83.8536" fill="#e377c2" r="2" stroke="none" /><circle cx="839.6667" cy="83.3333" fill="#e377c2" r="2" stroke="none" /><polyline fill="none" points="788.8,118.0 792.7809,118.0 797.8296,114.1704 806.2148,108.7852 816.1838,100.8162 826.1527,92.8473 833.147,87.1397 837.2929,83.8536 839.6667,83.3333" stroke="#e377c2" stroke-opacity="0.5" stroke-width="2" /><circle cx="831.0" cy="116.0" fill="#7f7f7f" r="2" stroke="none" /><circle cx="833.2791" cy="117.7209" fill="#7f7f7f" r="2" stroke="none" /><circle cx="836.4097" cy="115.5903" fill="#7f7f7f" r="2" stroke="none" /><circle cx="842.0" cy="110.4652" fill="#7f7f7f" r="2" stroke="none" /><circle cx="845.6935" cy="105.3065" fill="#7f7f7f" r="2" stroke="none" /><circle cx="845.9911" cy="100.9911" fill="#7f7f7f" r="2" stroke="none" /><circle cx="843.1534" cy="98.1534" fill="#7f7f7f" r="2" stroke="none" /><circle cx="836.4331" cy="95.0" fill="#7f7f7f" r="2" stroke="none" /><circle cx="833.1756" cy="93.1756" fill="#7f7f7f" r="2" stroke="none" /><circle cx="832.955" cy="90.045" fill="#7f7f7f" r="2" stroke="none" /><circle cx="835.7928" cy="87.2072" fill="#7f7f7f" r="2" stroke="none" /><circle cx="840.1082" cy="82.8918" fill="#7f7f7f" r="2" stroke="none" /><circle cx="842.0" cy="81.0" fill="#7f7f7f" r="2" stroke="none" /><polyline fill="none" points="831.0,116.0 833.2791,117.7209 836.4097,115.5903 842.0,110.4652 845.6935,105.3065 845.9911,100.9911 843.1534,98.1534 836.4331,95.0 833.1756,93.1756 832.955,90.045 835.7928,87.2072 840.1082,82.8918 842.0,81.0" stroke="#7f7f7f" stroke-opacity="0.5" stroke-width="2" /><circle cx="869.6667" cy="179.3333" fill="#bcbd22" r="2" stroke="none" /><circle cx="871.0641" cy="175.9359" fill="#bcbd22" r="2" stroke="none" /><circle cx="874.5661" cy="169.4339" fill="#bcbd22" r="2" stroke="none" /><circle cx="877.1141" cy="159.8859" fill="#bcbd22" r="2" stroke="none" /><circle cx="882.0" cy="147.33" fill="#bcbd22" r="2" stroke="none" /><circle cx="888.5238" cy="131.4762" fill="#bcbd22" r="2" stroke="none" /><circle cx="896.9252" cy="115.0748" fill="#bcbd22" r="2" stroke="none" /><circle cx="905.0" cy="102.5143" fill="#bcbd22" r="2" stroke="none" /><circle cx="910.0" cy="91.3311" fill="#bcbd22" r="2" stroke="none" /><circle cx="914.0" cy="83.7099" fill="#bcbd22" r="2" stroke="none" /><circle cx="916.0" cy="79.2366" fill="#bcbd22" r="2" stroke="none" /><circle cx="915.0" cy="77.0" fill="#bcbd22" r="2" stroke="none" /><polyline fill="none" points="869.6667,179.3333 871.0641,175.9359 874.5661,169.4339 877.1141,159.8859 882.0,147.33 888.5238,131.4762 896.9252,115.0748 905.0,102.5143 910.0,91.3311 914.0,83.7099 916.0,79.2366 915.0,77.0" stroke="#bcbd22" stroke-opacity="0.5" stroke-width="2" /><circle cx="896.0" cy="102.0" fill="#17becf" r="2" stroke="none" /><circle cx="897.0" cy="99.7478" fill="#17becf" r="2" stroke="none" /><circle cx="898.1208" cy="94.8792" fill="#17becf" r="2" stroke="none" /><circle cx="901.1844" cy="86.8156" fill="#17becf" r="2" stroke="none" /><circle cx="907.5476" cy="77.4524" fill="#17becf" r="2" stroke="none" /><circle cx="915.8739" cy="70.0" fill="#17becf" r="2" stroke="none" /><circle cx="923.5496" cy="66.0" fill="#17becf" r="2" stroke="none" /><circle cx="929.8014" cy="65.0" fill="#17becf" r="2" stroke="none" /><circle cx="934.2163" cy="67.2163" fill="#17becf" r="2" stroke="none" /><circle cx="936.0" cy="71.8103" fill="#17becf" r="2" stroke="none" /><circle cx="936.0" cy="79.8096" fill="#17becf" r="2" stroke="none" /><circle cx="933.5425" cy="89.4575" fill="#17becf" r="2" stroke="none" /><circle cx="927.6508" cy="100.3492" fill="#17becf" r="2" stroke="none" /><circle cx="920.3449" cy="110.6551" fill="#17becf" r="2" stroke="none" /><circle cx="912.5101" cy="117.4899" fill="#17becf" r="2" stroke="none" /><circle cx="905.5562" cy="120.4438" fill="#17becf" r="2" stroke="none" /><circle cx="902.4352" cy="122.5648" fill="#17becf" r="2" stroke="none" /><circle cx="902.0" cy="123.7178" fill="#17becf" r="2" stroke="none" /><circle cx="904.6383" cy="124.3617" fill="#17becf" r="2" stroke="none" /><circle cx="908.7021" cy="121.2979" fill="#17becf" r="2" stroke="none" /><circle cx="911.0" cy="118.25" fill="#17becf" r="2" stroke="none" /><polyline fill="none" points="896.0,102.0 897.0,99.7478 898.1208,94.8792 901.1844,86.8156 907.5476,77.4524 915.8739,70.0 923.5496,66.0 929.8014,65.0 934.2163,67.2163 936.0,71.8103 936.0,79.8096 933.5425,89.4575 927.6508,100.3492 920.3449,110.6551 912.5101,117.4899 905.5562,120.4438 902.4352,122.5648 902.0,123.7178 904.6383,124.3617 908.7021,121.2979 911.0,118.25" stroke="#17becf" stroke-opacity="0.5" stroke-width="2" /><circle cx="914.0" cy="116.75" fill="#1f77b4" r="2" stroke="none" /><circle cx="916.6434" cy="117.0" fill="#1f77b4" r="2" stroke="none" /><circle cx="919.2246" cy="117.2246" fill="#1f77b4" r="2" stroke="none" /><circle cx="922.0" cy="121.3469" fill="#1f77b4" r="2" stroke="none" /><circle cx="924.442" cy="125.721" fill="#1f77b4" r="2" stroke="none" /><circle cx="927.6882" cy="126.3118" fill="#1f77b4" r="2" stroke="none" /><circle cx="933.2942" cy="123.7058" fill="#1f77b4" r="2" stroke="none" /><circle cx="940.2054" cy="117.7946" fill="#1f77b4" r="2" stroke="none" /><circle cx="947.7692" cy="110.2308" fill="#1f77b4" r="2" stroke="none" /><circle cx="958.4623" cy="100.5377" fill="#1f77b4" r="2" stroke="none" /><circle cx="966.2645" cy="91.7355" fill="#1f77b4" r="2" stroke="none" /><circle cx="972.1757" cy="84.8243" fill="#1f77b4" r="2" stroke="none" /><circle cx="975.9576" cy="81.0424" fill="#1f77b4" r="2" stroke="none" /><circle cx="978.2" cy="80.0" fill="#1f77b4" r="2" stroke="none" /><polyline fill="none" points="914.0,116.75 916.6434,117.0 919.2246,117.2246 922.0,121.3469 924.442,125.721 927.6882,126.3118 933.2942,123.7058 940.2054,117.7946 947.7692,110.2308 958.4623,100.5377 966.2645,91.7355 972.1757,84.8243 975.9576,81.0424 978.2,80.0" stroke="#1f77b4" stroke-opacity="0.5" stroke-width="2" /><circle cx="967.0" cy="122.25" fill="#ff7f0e" r="2" stroke="none" /><circle cx="965.6367" cy="124.3633" fill="#ff7f0e" r="2" stroke="none" /><circle cx="961.2637" cy="126.7363" fill="#ff7f0e" r="2" stroke="none" /><circle cx="957.7701" cy="126.0" fill="#ff7f0e" r="2" stroke="none" /><circle cx="955.0" cy="122.2425" fill="#ff7f0e" r="2" stroke="none" /><circle cx="956.0" cy="117.3007" fill="#ff7f0e" r="2" stroke="none" /><circle cx="959.0" cy="109.1704" fill="#ff7f0e" r="2" stroke="none" /><circle cx="965.2796" cy="99.7204" fill="#ff7f0e" r="2" stroke="none" /><circle cx="971.9193" cy="89.0807" fill="#ff7f0e" r="2" stroke="none" /><circle cx="977.1328" cy="81.8672" fill="#ff7f0e" r="2" stroke="none" /><circle cx="980.3389" cy="77.6611" fill="#ff7f0e" r="2" stroke="none" /><circle cx="981.2857" cy="76.7143" fill="#ff7f0e" r="2" stroke="none" /><polyline fill="none" points="967.0,122.25 965.6367,124.3633 961.2637,126.7363 957.7701,126.0 955.0,122.2425 956.0,117.3007 959.0,109.1704 965.2796,99.7204 971.9193,89.0807 977.1328,81.8672 980.3389,77.6611 981.2857,76.7143" stroke="#ff7f0e" stroke-opacity="0.5" stroke-width="2" /><circle cx="969.0" cy="121.75" fill="#2ca02c" r="2" stroke="none" /><circle cx="971.0" cy="118.3652" fill="#2ca02c" r="2" stroke="none" /><circle cx="974.0069" cy="113.9931" fill="#2ca02c" r="2" stroke="none" /><circle cx="975.0" cy="113.0" fill="#2ca02c" r="2" stroke="none" /><polyline fill="none" points="969.0,121.75 971.0,118.3652 974.0069,113.9931 975.0,113.0" stroke="#2ca02c" stroke-opacity="0.5" stroke-width="2" /><circle cx="994.0" cy="54.0" fill="#d62728" r="2" stroke="none" /><circle cx="997.0732" cy="56.0732" fill="#d62728" r="2" stroke="none" /><circle cx="998.0" cy="57.0" fill="#d62728" r="2" stroke="none" /><polyline fill="none" points="994.0,54.0 997.0732,56.0732 998.0,57.0" stroke="#d62728" stroke-opacity="0.5" stroke-width="2" /><circle cx="966.0" cy="116.0" fill="#9467bd" r="2" stroke="none" /><circle cx="964.8348" cy="118.1652" fill="#9467bd" r="2" stroke="none" /><circle cx="965.0" cy="120.0532" fill="#9467bd" r="2" stroke="none" /><circle cx="968.9347" cy="122.0" fill="#9467bd" r="2" stroke="none" /><circle cx="975.0992" cy="120.9008" fill="#9467bd" r="2" stroke="none" /><circle cx="981.4271" cy="117.0" fill="#9467bd" r="2" stroke="none" /><circle cx="991.0251" cy="110.9749" fill="#9467bd" r="2" stroke="none" /><circle cx="1001.9088" cy="102.0912" fill="#9467bd" r="2" stroke="none" /><circle cx="1009.6272" cy="93.3728" fill="#9467bd" r="2" stroke="none" /><circle cx="1014.0" cy="85.9164" fill="#9467bd" r="2" stroke="none" /><circle cx="1015.6825" cy="81.3175" fill="#9467bd" r="2" stroke="none" /><circle cx="1016.0" cy="80.1251" fill="#9467bd" r="2" stroke="none" /><circle cx="1012.5674" cy="79.0" fill="#9467bd" r="2" stroke="none" /><circle cx="1006.5488" cy="80.4512" fill="#9467bd" r="2" stroke="none" /><circle cx="999.1169" cy="84.8831" fill="#9467bd" r="2" stroke="none" /><circle cx="992.5637" cy="91.4363" fill="#9467bd" r="2" stroke="none" /><circle cx="985.7814" cy="99.2186" fill="#9467bd" r="2" stroke="none" /><circle cx="982.0" cy="105.596" fill="#9467bd" r="2" stroke="none" /><circle cx="982.0" cy="111.3873" fill="#9467bd" r="2" stroke="none" /><circle cx="984.8878" cy="115.2585" fill="#9467bd" r="2" stroke="none" /><circle cx="990.8688" cy="117.0" fill="#9467bd" r="2" stroke="none" /><circle cx="997.9888" cy="115.0112" fill="#9467bd" r="2" stroke="none" /><circle cx="1008.4646" cy="111.5354" fill="#9467bd" r="2" stroke="none" /><circle cx="1019.2908" cy="105.7092" fill="#9467bd" r="2" stroke="none" /><circle cx="1029.8241" cy="99.1759" fill="#9467bd" r="2" stroke="none" /><circle cx="1037.2182" cy="94.3909" fill="#9467bd" r="2" stroke="none" /><circle cx="1041.7363" cy="91.7699" fill="#9467bd" r="2" stroke="none" /><circle cx="1043.0" cy="91.375" fill="#9467bd" r="2" stroke="none" /><polyline fill="none" points="966.0,116.0 964.8348,118.1652 965.0,120.0532 968.9347,122.0 975.0992,120.9008 981.4271,117.0 991.0251,110.9749 1001.9088,102.0912 1009.6272,93.3728 1014.0,85.9164 1015.6825,81.3175 1016.0,80.1251 1012.5674,79.0 1006.5488,80.4512 999.1169,84.8831 992.5637,91.4363 985.7814,99.2186 982.0,105.596 982.0,111.3873 984.8878,115.2585 990.8688,117.0 997.9888,115.0112 1008.4646,111.5354 1019.2908,105.7092 1029.8241,99.1759 1037.2182,94.3909 1041.7363,91.7699 1043.0,91.375" stroke="#9467bd" stroke-opacity="0.5" stroke-width="2" /><circle cx="1061.0" cy="81.0" fill="#8c564b" r="2" stroke="none" /><circle cx="1057.6943" cy="83.1406" fill="#8c564b" r="2" stroke="none" /><circle cx="1051.7" cy="86.002" fill="#8c564b" r="2" stroke="none" /><circle cx="1043.9768" cy="91.0232" fill="#8c564b" r="2" stroke="none" /><circle cx="1035.2267" cy="98.7733" fill="#8c564b" r="2" stroke="none" /><circle cx="1028.1235" cy="105.8765" fill="#8c564b" r="2" stroke="none" /><circle cx="1024.6067" cy="112.3933" fill="#8c564b" r="2" stroke="none" /><circle cx="1024.0" cy="117.4577" fill="#8c564b" r="2" stroke="none" /><circle cx="1025.7285" cy="120.7285" fill="#8c564b" r="2" stroke="none" /><circle cx="1030.5174" cy="122.0" fill="#8c564b" r="2" stroke="none" /><circle cx="1036.7478" cy="121.0" fill="#8c564b" r="2" stroke="none" /><circle cx="1046.3894" cy="118.6106" fill="#8c564b" r="2" stroke="none" /><circle cx="1057.7217" cy="113.2783" fill="#8c564b" r="2" stroke="none" /><circle cx="1071.695" cy="105.305" fill="#8c564b" r="2" stroke="none" /><circle cx="1082.2634" cy="98.7366" fill="#8c564b" r="2" stroke="none" /><circle cx="1089.1896" cy="93.0" fill="#8c564b" r="2" stroke="none" /><circle cx="1093.0" cy="89.7374" fill="#8c564b" r="2" stroke="none" /><circle cx="1094.0" cy="87.4938" fill="#8c564b" r="2" stroke="none" /><circle cx="1091.412" cy="85.0" fill="#8c564b" r="2" stroke="none" /><circle cx="1086.0963" cy="85.0" fill="#8c564b" r="2" stroke="none" /><circle cx="1079.2584" cy="87.7416" fill="#8c564b" r="2" stroke="none" /><circle cx="1070.8052" cy="93.0" fill="#8c564b" r="2" stroke="none" /><circle cx="1061.8193" cy="100.1807" fill="#8c564b" r="2" stroke="none" /><circle cx="1055.9487" cy="107.0513" fill="#8c564b" r="2" stroke="none" /><circle cx="1053.0" cy="113.8034" fill="#8c564b" r="2" stroke="none" /><circle cx="1052.6766" cy="118.6766" fill="#8c564b" r="2" stroke="none" /><circle cx="1055.9533" cy="122.0" fill="#8c564b" r="2" stroke="none" /><circle cx="1062.1299" cy="123.1299" fill="#8c564b" r="2" stroke="none" /><circle cx="1071.0719" cy="124.0" fill="#8c564b" r="2" stroke="none" /><circle cx="1082.7298" cy="123.2702" fill="#8c564b" r="2" stroke="none" /><circle cx="1096.8217" cy="122.0" fill="#8c564b" r="2" stroke="none" /><circle cx="1107.0388" cy="121.0" fill="#8c564b" r="2" stroke="none" /><circle cx="1114.4229" cy="119.5771" fill="#8c564b" r="2" stroke="none" /><circle cx="1118.7674" cy="117.2326" fill="#8c564b" r="2" stroke="none" /><circle cx="1120.0" cy="117.0" fill="#8c564b" r="2" stroke="none" /><polyline fill="none" points="1061.0,81.0 1057.6943,83.1406 1051.7,86.002 1043.9768,91.0232 1035.2267,98.7733 1028.1235,105.8765 1024.6067,112.3933 1024.0,117.4577 1025.7285,120.7285 1030.5174,122.0 1036.7478,121.0 1046.3894,118.6106 1057.7217,113.2783 1071.695,105.305 1082.2634,98.7366 1089.1896,93.0 1093.0,89.7374 1094.0,87.4938 1091.412,85.0 1086.0963,85.0 1079.2584,87.7416 1070.8052,93.0 1061.8193,100.1807 1055.9487,107.0513 1053.0,113.8034 1052.6766,118.6766 1055.9533,122.0 1062.1299,123.1299 1071.0719,124.0 1082.7298,123.2702 1096.8217,122.0 1107.0388,121.0 1114.4229,119.5771 1118.7674,117.2326 1120.0,117.0" stroke="#8c564b" stroke-opacity="0.5" stroke-width="2" /></svg>