<?xml version="1.0" encoding="utf-8" ?>
<svg baseProfile="full" height="71.39358707790961" version="1.1" width="194.17502350988798" xmlns="http://www.w3.org/2000/svg" xmlns:ev="http://www.w3.org/2001/xml-events" xmlns:xlink="http://www.w3.org/1999/xlink"><defs /><rect fill="white" height="71.39358707790961" width="194.17502350988798" x="0" y="0" /><path d="M 47.07142859697342,32.12272241798928 " fill="rgb(0,0,0)" stroke="rgb(0,0,0)" stroke-width="2" /><path d="M +47.07142859697342,32.12272241798928 L 45.356605760753155,33.382881023862865 " fill="rgb(0,0,0)" stroke="rgb(0,0,0)" stroke-width="2" /><path d="M +45.356605760753155,33.382881023862865 L 44.82931233942509,35.88771499780705 " fill="rgb(0,0,0)" stroke="rgb(0,0,0)" stroke-width="2" /><path d="M +44.82931233942509,35.88771499780705 L 44.50902445241809,38.54397969407728 " fill="rgb(0,0,0)" stroke="rgb(0,0,0)" stroke-width="2" /><path d="M +44.50902445241809,38.54397969407728 L 44.32916429359466,41.257305826002266 " fill="rgb(0,0,0)" stroke="rgb(0,0,0)" stroke-width="2" /><path d="M +44.32916429359466,41.257305826002266 L 44.40110995201394,43.93903078598669 " fill="rgb(0,0,0)" stroke="rgb(0,0,0)" stroke-width="2" /><path d="M +44.40110995201394,43.93903078598669 L 44.57711763679981,46.393587077909615 " fill="rgb(0,0,0)" stroke="rgb(0,0,0)" stroke-width="2" /><path d="M 61.652348935604095,31.004864546412136 " fill="rgb(215,6,148)" stroke="rgb(215,6,148)" stroke-width="2" /><path d="M +61.652348935604095,31.004864546412136 L 61.5511974086985,29.77426064753672 " fill="rgb(215,6,148)" stroke="rgb(215,6,148)" stroke-width="2" /><path d="M +61.5511974086985,29.77426064753672 L 60.90468619950116,29.491436258831527 " fill="rgb(215,6,148)" stroke="rgb(215,6,148)" stroke-width="2" /><path d="M +60.90468619950116,29.491436258831527 L 59.56415934488177,31.080655111873057 " fill="rgb(215,6,148)" stroke="rgb(215,6,148)" stroke-width="2" /><path d="M +59.56415934488177,31.080655111873057 L 58.27464032918215,33.10427447868278 " fill="rgb(215,6,148)" stroke="rgb(215,6,148)" stroke-width="2" /><path d="M +58.27464032918215,33.10427447868278 L 57.37508307211101,35.515645109990146 " fill="rgb(215,6,148)" stroke="rgb(215,6,148)" stroke-width="2" /><path d="M +57.37508307211101,35.515645109990146 L 56.967198359780014,38.16661244345596 " fill="rgb(215,6,148)" stroke="rgb(215,6,148)" stroke-width="2" /><path d="M 63.65467559080571,31.00245544774225 " fill="rgb(131,198,69)" stroke="rgb(131,198,69)" stroke-width="2" /><path d="M +63.65467559080571,31.00245544774225 L 63.832212158013135,33.650338706502225 " fill="rgb(131,198,69)" stroke="rgb(131,198,69)" stroke-width="2" /><path d="M +63.832212158013135,33.650338706502225 L 64.05532858334482,36.335251583659556 " fill="rgb(131,198,69)" stroke="rgb(131,198,69)" stroke-width="2" /><path d="M +64.05532858334482,36.335251583659556 L 64.30387477157637,38.9996420693933 " fill="rgb(131,198,69)" stroke="rgb(131,198,69)" stroke-width="2" /><path d="M +64.30387477157637,38.9996420693933 L 65.29231943422928,36.96571854961803 " fill="rgb(131,198,69)" stroke="rgb(131,198,69)" stroke-width="2" /><path d="M +65.29231943422928,36.96571854961803 L 66.5451371227391,34.802758890145924 " fill="rgb(131,198,69)" stroke="rgb(131,198,69)" stroke-width="2" /><path d="M +66.5451371227391,34.802758890145924 L 67.89976559812203,32.6776514397352 " fill="rgb(131,198,69)" stroke="rgb(131,198,69)" stroke-width="2" /><path d="M +67.89976559812203,32.6776514397352 L 69.39814324723557,33.9096169322147 " fill="rgb(131,198,69)" stroke="rgb(131,198,69)" stroke-width="2" /><path d="M +69.39814324723557,33.9096169322147 L 70.18058308167383,36.34064918005606 " fill="rgb(131,198,69)" stroke="rgb(131,198,69)" stroke-width="2" /><path d="M +70.18058308167383,36.34064918005606 L 70.98430451005697,38.61633007036289 " fill="rgb(131,198,69)" stroke="rgb(131,198,69)" stroke-width="2" /><path d="M 83.31222143024206,33.34311599464854 " fill="rgb(244,167,229)" stroke="rgb(244,167,229)" stroke-width="2" /><path d="M +83.31222143024206,33.34311599464854 L 82.88376287091523,35.72750760795316 " fill="rgb(244,167,229)" stroke="rgb(244,167,229)" stroke-width="2" /><path d="M +82.88376287091523,35.72750760795316 L 82.86419048672542,38.328205175639596 " fill="rgb(244,167,229)" stroke="rgb(244,167,229)" stroke-width="2" /><path d="M +82.86419048672542,38.328205175639596 L 82.71806050324813,40.98054900387069 " fill="rgb(244,167,229)" stroke="rgb(244,167,229)" stroke-width="2" /><path d="M +82.71806050324813,40.98054900387069 L 82.75211879517883,43.604657459945884 " fill="rgb(244,167,229)" stroke="rgb(244,167,229)" stroke-width="2" /><path d="M +82.75211879517883,43.604657459945884 L 83.14302177168429,46.15044913807651 " fill="rgb(244,167,229)" stroke="rgb(244,167,229)" stroke-width="2" /><path d="M 95.99658926017582,33.45368191221496 " fill="rgb(92,43,241)" stroke="rgb(92,43,241)" stroke-width="2" /><path d="M +95.99658926017582,33.45368191221496 L 95.92952140374109,34.45489198056748 " fill="rgb(92,43,241)" stroke="rgb(92,43,241)" stroke-width="2" /><path d="M +95.92952140374109,34.45489198056748 L 95.03724138485268,36.68084676464787 " fill="rgb(92,43,241)" stroke="rgb(92,43,241)" stroke-width="2" /><path d="M +95.03724138485268,36.68084676464787 L 95.9290251834318,38.14205707603833 " fill="rgb(92,43,241)" stroke="rgb(92,43,241)" stroke-width="2" /><path d="M +95.9290251834318,38.14205707603833 L 96.26309664454311,39.722031737619545 " fill="rgb(92,43,241)" stroke="rgb(92,43,241)" stroke-width="2" /><path d="M +96.26309664454311,39.722031737619545 L 94.70040465239435,41.128050825500395 " fill="rgb(92,43,241)" stroke="rgb(92,43,241)" stroke-width="2" /><path d="M +94.70040465239435,41.128050825500395 L 92.82449746970087,41.845934638695326 " fill="rgb(92,43,241)" stroke="rgb(92,43,241)" stroke-width="2" /><path d="M 102.21903792116791,34.072591630683746 " fill="rgb(187,150,209)" stroke="rgb(187,150,209)" stroke-width="2" /><path d="M +102.21903792116791,34.072591630683746 L 102.81837461516261,36.472948906884994 " fill="rgb(187,150,209)" stroke="rgb(187,150,209)" stroke-width="2" /><path d="M +102.81837461516261,36.472948906884994 L 103.68243521079421,38.826941220031586 " fill="rgb(187,150,209)" stroke="rgb(187,150,209)" stroke-width="2" /><path d="M +103.68243521079421,38.826941220031586 L 104.75731859914958,41.07805940875551 " fill="rgb(187,150,209)" stroke="rgb(187,150,209)" stroke-width="2" /><path d="M +104.75731859914958,41.07805940875551 L 106.6032529110089,41.12456049770117 " fill="rgb(187,150,209)" stroke="rgb(187,150,209)" stroke-width="2" /><path d="M +106.6032529110089,41.12456049770117 L 107.93187944218516,39.12880257703364 " fill="rgb(187,150,209)" stroke="rgb(187,150,209)" stroke-width="2" /><path d="M 110.79236501827836,35.62355702742934 " fill="rgb(107,156,242)" stroke="rgb(107,156,242)" stroke-width="2" /><path d="M +110.79236501827836,35.62355702742934 L 110.19915584474802,37.99696369096637 " fill="rgb(107,156,242)" stroke="rgb(107,156,242)" stroke-width="2" /><path d="M +110.19915584474802,37.99696369096637 L 109.60678753908724,40.54223941639066 " fill="rgb(107,156,242)" stroke="rgb(107,156,242)" stroke-width="2" /><path d="M +109.60678753908724,40.54223941639066 L 109.63905955431983,41.12169947475195 " fill="rgb(107,156,242)" stroke="rgb(107,156,242)" stroke-width="2" /><path d="M +109.63905955431983,41.12169947475195 L 110.10790020227432,38.56171537190676 " fill="rgb(107,156,242)" stroke="rgb(107,156,242)" stroke-width="2" /><path d="M 116.53060102835298,25.0 " fill="rgb(33,63,196)" stroke="rgb(33,63,196)" stroke-width="2" /><path d="M +116.53060102835298,25.0 L 116.89471718855202,27.511264523491263 " fill="rgb(33,63,196)" stroke="rgb(33,63,196)" stroke-width="2" /><path d="M +116.89471718855202,27.511264523491263 L 116.9037644052878,30.205155350267887 " fill="rgb(33,63,196)" stroke="rgb(33,63,196)" stroke-width="2" /><path d="M +116.9037644052878,30.205155350267887 L 116.86121606035158,32.903670659288764 " fill="rgb(33,63,196)" stroke="rgb(33,63,196)" stroke-width="2" /><path d="M +116.86121606035158,32.903670659288764 L 116.92756493575871,35.59349696151912 " fill="rgb(33,63,196)" stroke="rgb(33,63,196)" stroke-width="2" /><path d="M +116.92756493575871,35.59349696151912 L 117.08692307583988,38.224276015535 " fill="rgb(33,63,196)" stroke="rgb(33,63,196)" stroke-width="2" /><path d="M +117.08692307583988,38.224276015535 L 117.28357335086912,39.82352614402771 " fill="rgb(33,63,196)" stroke="rgb(33,63,196)" stroke-width="2" /><path d="M 118.08255050564185,28.95037792623043 " fill="rgb(53,1,120)" stroke="rgb(53,1,120)" stroke-width="2" /><path d="M +118.08255050564185,28.95037792623043 L 118.73181295813993,30.854274262674153 " fill="rgb(53,1,120)" stroke="rgb(53,1,120)" stroke-width="2" /><path d="M +118.73181295813993,30.854274262674153 L 118.79760030424222,32.64074979815632 " fill="rgb(10,93,238)" stroke="rgb(10,93,238)" stroke-width="2" /><path d="M +118.79760030424222,32.64074979815632 L 118.97970192367211,35.13663795311004 " fill="rgb(10,93,238)" stroke="rgb(10,93,238)" stroke-width="2" /><path d="M +118.97970192367211,35.13663795311004 L 118.95287034567446,37.77694327291101 " fill="rgb(10,93,238)" stroke="rgb(10,93,238)" stroke-width="2" /><path d="M 122.05793473403901,38.816681457683444 " fill="rgb(121,134,12)" stroke="rgb(121,134,12)" stroke-width="2" /><path d="M +122.05793473403901,38.816681457683444 L 123.71834178920835,37.424537213519216 " fill="rgb(121,134,12)" stroke="rgb(121,134,12)" stroke-width="2" /><path d="M +123.71834178920835,37.424537213519216 L 124.64299260172993,35.44756337068975 " fill="rgb(121,134,12)" stroke="rgb(121,134,12)" stroke-width="2" /><path d="M +124.64299260172993,35.44756337068975 L 124.11632619332522,34.70099930418655 " fill="rgb(121,134,12)" stroke="rgb(121,134,12)" stroke-width="2" /><path d="M +124.11632619332522,34.70099930418655 L 123.35228836163878,37.15899171074852 " fill="rgb(195,98,247)" stroke="rgb(195,98,247)" stroke-width="2" /><path d="M +123.35228836163878,37.15899171074852 L 123.6656547174789,39.76161804748699 " fill="rgb(195,98,247)" stroke="rgb(195,98,247)" stroke-width="2" /><path d="M +123.6656547174789,39.76161804748699 L 125.32317909644917,41.172804695088416 " fill="rgb(195,98,247)" stroke="rgb(195,98,247)" stroke-width="2" /><path d="M 130.82146869273856,29.7725306940265 " fill="rgb(194,102,143)" stroke="rgb(194,102,143)" stroke-width="2" /><path d="M +130.82146869273856,29.7725306940265 L 131.68034036643803,28.83800291456282 " fill="rgb(194,102,143)" stroke="rgb(194,102,143)" stroke-width="2" /><path d="M +131.68034036643803,28.83800291456282 L 131.60029394784942,31.266956217586994 " fill="rgb(194,102,143)" stroke="rgb(194,102,143)" stroke-width="2" /><path d="M +131.60029394784942,31.266956217586994 L 131.39685700880364,33.949446491897106 " fill="rgb(194,102,143)" stroke="rgb(194,102,143)" stroke-width="2" /><path d="M +131.39685700880364,33.949446491897106 L 131.1473757144995,36.5651183295995 " fill="rgb(194,102,143)" stroke="rgb(194,102,143)" stroke-width="2" /><path d="M +131.1473757144995,36.5651183295995 L 131.087812629994,39.17078822851181 " fill="rgb(194,102,143)" stroke="rgb(194,102,143)" stroke-width="2" /><path d="M +131.087812629994,39.17078822851181 L 131.66549787856638,41.51150407269597 " fill="rgb(194,102,143)" stroke="rgb(194,102,143)" stroke-width="2" /><path d="M 133.57648076489568,35.29200805351138 " fill="rgb(109,103,117)" stroke="rgb(109,103,117)" stroke-width="2" /><path d="M +133.57648076489568,35.29200805351138 L 133.96590672200546,37.07469112705439 " fill="rgb(109,103,117)" stroke="rgb(109,103,117)" stroke-width="2" /><path d="M +133.96590672200546,37.07469112705439 L 134.34029158670455,39.40673402976245 " fill="rgb(109,103,117)" stroke="rgb(109,103,117)" stroke-width="2" /><path d="M +134.34029158670455,39.40673402976245 L 134.61623961338773,41.41301449853927 " fill="rgb(109,103,117)" stroke="rgb(109,103,117)" stroke-width="2" /><path d="M +134.61623961338773,41.41301449853927 L 135.05186117836274,39.95066750794649 " fill="rgb(109,103,117)" stroke="rgb(109,103,117)" stroke-width="2" /><path d="M 138.75407097511925,34.80868563055992 " fill="rgb(72,163,101)" stroke="rgb(72,163,101)" stroke-width="2" /><path d="M +138.75407097511925,34.80868563055992 L 138.1331341166515,34.85933671472594 " fill="rgb(72,163,101)" stroke="rgb(72,163,101)" stroke-width="2" /><path d="M +138.1331341166515,34.85933671472594 L 136.91911812056787,36.84779958566651 " fill="rgb(72,163,101)" stroke="rgb(72,163,101)" stroke-width="2" /><path d="M +136.91911812056787,36.84779958566651 L 136.64622628712095,39.235147449653596 " fill="rgb(72,163,101)" stroke="rgb(72,163,101)" stroke-width="2" /><path d="M +136.64622628712095,39.235147449653596 L 137.3361655336339,41.29306300310418 " fill="rgb(72,163,101)" stroke="rgb(72,163,101)" stroke-width="2" /><path d="M 147.6870029058773,34.46459284750745 " fill="rgb(159,151,151)" stroke="rgb(159,151,151)" stroke-width="2" /><path d="M +147.6870029058773,34.46459284750745 L 146.18974074837752,35.246059915516526 " fill="rgb(159,151,151)" stroke="rgb(159,151,151)" stroke-width="2" /><path d="M +146.18974074837752,35.246059915516526 L 145.6751804857049,37.66615727217868 " fill="rgb(159,151,151)" stroke="rgb(159,151,151)" stroke-width="2" /><path d="M +145.6751804857049,37.66615727217868 L 147.0180775562767,39.410905132535845 " fill="rgb(159,151,151)" stroke="rgb(159,151,151)" stroke-width="2" /><path d="M +147.0180775562767,39.410905132535845 L 147.76614559232257,41.15788304479793 " fill="rgb(159,151,151)" stroke="rgb(159,151,151)" stroke-width="2" /><path d="M +147.76614559232257,41.15788304479793 L 145.87207063450478,41.98557165218517 " fill="rgb(159,151,151)" stroke="rgb(159,151,151)" stroke-width="2" /><path d="M 152.79300668626092,35.048436641227454 " fill="rgb(141,38,39)" stroke="rgb(141,38,39)" stroke-width="2" /><path d="M +152.79300668626092,35.048436641227454 L 152.245183539344,34.53280203975737 " fill="rgb(141,38,39)" stroke="rgb(141,38,39)" stroke-width="2" /><path d="M +152.245183539344,34.53280203975737 L 151.18089860188775,36.81282685138285 " fill="rgb(141,38,39)" stroke="rgb(141,38,39)" stroke-width="2" /><path d="M +151.18089860188775,36.81282685138285 L 150.73845402221195,39.27122135646641 " fill="rgb(141,38,39)" stroke="rgb(141,38,39)" stroke-width="2" /><path d="M +150.73845402221195,39.27122135646641 L 152.27335907402448,40.68230160046369 " fill="rgb(141,38,39)" stroke="rgb(141,38,39)" stroke-width="2" /><path d="M +152.27335907402448,40.68230160046369 L 154.31867895531468,39.969465555623174 " fill="rgb(141,38,39)" stroke="rgb(141,38,39)" stroke-width="2" /><path d="M 153.60318049206398,34.43586532957852 " fill="rgb(84,223,182)" stroke="rgb(84,223,182)" stroke-width="2" /><path d="M +153.60318049206398,34.43586532957852 L 153.98393088835292,36.000552447512746 " fill="rgb(84,223,182)" stroke="rgb(84,223,182)" stroke-width="2" /><path d="M +153.98393088835292,36.000552447512746 L 155.5456224072259,37.19246082473546 " fill="rgb(84,223,182)" stroke="rgb(84,223,182)" stroke-width="2" /><path d="M +155.5456224072259,37.19246082473546 L 155.82692827447318,35.66493208054453 " fill="rgb(84,223,182)" stroke="rgb(84,223,182)" stroke-width="2" /><path d="M +155.82692827447318,35.66493208054453 L 155.23371747112833,35.44962006562855 " fill="rgb(84,223,182)" stroke="rgb(84,223,182)" stroke-width="2" /><path d="M +155.23371747112833,35.44962006562855 L 155.77857994358055,37.927128103910945 " fill="rgb(84,223,182)" stroke="rgb(84,223,182)" stroke-width="2" /><path d="M 159.48480374063365,34.77097368740942 " fill="rgb(118,207,41)" stroke="rgb(118,207,41)" stroke-width="2" /><path d="M +159.48480374063365,34.77097368740942 L 159.21918413951062,37.35205038392451 " fill="rgb(118,207,41)" stroke="rgb(118,207,41)" stroke-width="2" /><path d="M +159.21918413951062,37.35205038392451 L 159.43097213166766,39.93311683589127 " fill="rgb(118,207,41)" stroke="rgb(118,207,41)" stroke-width="2" /><path d="M +159.43097213166766,39.93311683589127 L 159.6281019214075,42.49335262866225 " fill="rgb(118,207,41)" stroke="rgb(118,207,41)" stroke-width="2" /><path d="M +159.6281019214075,42.49335262866225 L 159.78611878235824,45.16064371855464 " fill="rgb(118,207,41)" stroke="rgb(118,207,41)" stroke-width="2" /><path d="M 163.6563333508093,33.866990319802426 " fill="rgb(33,167,70)" stroke="rgb(33,167,70)" stroke-width="2" /><path d="M +163.6563333508093,33.866990319802426 L 164.02125155436806,34.282749946578406 " fill="rgb(33,167,70)" stroke="rgb(33,167,70)" stroke-width="2" /><path d="M +164.02125155436806,34.282749946578406 L 163.83644292945974,36.59772310347762 " fill="rgb(33,167,70)" stroke="rgb(33,167,70)" stroke-width="2" /><path d="M +163.83644292945974,36.59772310347762 L 163.72633918072097,39.14413713791873 " fill="rgb(33,167,70)" stroke="rgb(33,167,70)" stroke-width="2" /><path d="M +163.72633918072097,39.14413713791873 L 163.75355906202458,41.73476221913006 " fill="rgb(33,167,70)" stroke="rgb(33,167,70)" stroke-width="2" /><path d="M +163.75355906202458,41.73476221913006 L 164.6836870990228,42.757746725692414 " fill="rgb(33,167,70)" stroke="rgb(33,167,70)" stroke-width="2" /><path d="M 165.68562150350772,38.28176572860684 " fill="rgb(68,124,182)" stroke="rgb(68,124,182)" stroke-width="2" /><path d="M +165.68562150350772,38.28176572860684 L 167.40715207415633,39.03820233826991 " fill="rgb(68,124,182)" stroke="rgb(68,124,182)" stroke-width="2" /><path d="M +167.40715207415633,39.03820233826991 L 169.17502350988798,37.64446669665631 " fill="rgb(68,124,182)" stroke="rgb(68,124,182)" stroke-width="2" /><path d="M +169.17502350988798,37.64446669665631 L 168.2240702852141,35.79261091945227 " fill="rgb(68,124,182)" stroke="rgb(68,124,182)" stroke-width="2" /><path d="M +168.2240702852141,35.79261091945227 L 166.64219840313308,36.99826468655374 " fill="rgb(68,124,182)" stroke="rgb(68,124,182)" stroke-width="2" /><path d="M +166.64219840313308,36.99826468655374 L 166.62917566136457,39.65524324157741 " fill="rgb(68,124,182)" stroke="rgb(68,124,182)" stroke-width="2" /><path d="M +166.62917566136457,39.65524324157741 L 167.3272564134095,42.014180644764565 " fill="rgb(68,124,182)" stroke="rgb(68,124,182)" stroke-width="2" /></svg>