<?xml version="1.0" encoding="utf-8" ?>
<svg baseProfile="full" height="132.41546237309194" version="1.1" width="387.53088442608714" xmlns="http://www.w3.org/2000/svg" xmlns:ev="http://www.w3.org/2001/xml-events" xmlns:xlink="http://www.w3.org/1999/xlink"><defs /><rect fill="white" height="132.41546237309194" width="387.53088442608714" x="0" y="0" /><path d="M 71.28654569387436,99.14358478104077 " fill="rgb(0,0,0)" stroke="rgb(0,0,0)" stroke-width="2" /><path d="M +71.28654569387436,99.14358478104077 L 71.50885122828186,98.40931469639145 " fill="rgb(0,0,0)" stroke="rgb(0,0,0)" stroke-width="2" /><path d="M +71.50885122828186,98.40931469639145 L 71.76195909269154,97.04186644935362 " fill="rgb(0,0,0)" stroke="rgb(0,0,0)" stroke-width="2" /><path d="M +71.76195909269154,97.04186644935362 L 72.44824289809912,94.5840535552179 " fill="rgb(0,0,0)" stroke="rgb(0,0,0)" stroke-width="2" /><path d="M +72.44824289809912,94.5840535552179 L 73.14417875604704,91.30726073467486 " fill="rgb(0,0,0)" stroke="rgb(0,0,0)" stroke-width="2" /><path d="M +73.14417875604704,91.30726073467486 L 74.16390537982807,86.9694484264528 " fill="rgb(0,0,0)" stroke="rgb(0,0,0)" stroke-width="2" /><path d="M +74.16390537982807,86.9694484264528 L 74.71435375045985,82.15205388673894 " fill="rgb(0,0,0)" stroke="rgb(0,0,0)" stroke-width="2" /><path d="M +74.71435375045985,82.15205388673894 L 75.98961864132434,78.02693376847856 " fill="rgb(0,0,0)" stroke="rgb(0,0,0)" stroke-width="2" /><path d="M +75.98961864132434,78.02693376847856 L 76.98327312245965,75.08595794038229 " fill="rgb(0,0,0)" stroke="rgb(0,0,0)" stroke-width="2" /><path d="M +76.98327312245965,75.08595794038229 L 77.5780861498788,73.27186449961118 " fill="rgb(0,0,0)" stroke="rgb(0,0,0)" stroke-width="2" /><path d="M +77.5780861498788,73.27186449961118 L 77.74606985040009,72.63500219974048 " fill="rgb(0,0,0)" stroke="rgb(0,0,0)" stroke-width="2" /><path d="M 85.0549632217735,103.92866632732876 " fill="rgb(0,0,0)" stroke="rgb(0,0,0)" stroke-width="2" /><path d="M +85.0549632217735,103.92866632732876 L 85.53357647033408,103.91290595375722 " fill="rgb(0,0,0)" stroke="rgb(0,0,0)" stroke-width="2" /><path d="M +85.53357647033408,103.91290595375722 L 86.87346362276003,103.78949012751946 " fill="rgb(0,0,0)" stroke="rgb(0,0,0)" stroke-width="2" /><path d="M +86.87346362276003,103.78949012751946 L 87.32966872630641,103.73096892376452 " fill="rgb(0,0,0)" stroke="rgb(0,0,0)" stroke-width="2" /><path d="M 95.25053648976609,94.40154002745658 " fill="rgb(0,0,0)" stroke="rgb(0,0,0)" stroke-width="2" /><path d="M +95.25053648976609,94.40154002745658 L 95.01350010978058,93.85824537835106 " fill="rgb(0,0,0)" stroke="rgb(0,0,0)" stroke-width="2" /><path d="M +95.01350010978058,93.85824537835106 L 95.16282499535009,92.59091000071749 " fill="rgb(0,0,0)" stroke="rgb(0,0,0)" stroke-width="2" /><path d="M +95.16282499535009,92.59091000071749 L 96.20624935487285,90.98089878912106 " fill="rgb(0,0,0)" stroke="rgb(0,0,0)" stroke-width="2" /><path d="M +96.20624935487285,90.98089878912106 L 97.28219247190282,89.95973769574448 " fill="rgb(0,0,0)" stroke="rgb(0,0,0)" stroke-width="2" /><path d="M +97.28219247190282,89.95973769574448 L 98.17166606662795,90.04729744278848 " fill="rgb(0,0,0)" stroke="rgb(0,0,0)" stroke-width="2" /><path d="M +98.17166606662795,90.04729744278848 L 98.61545489402488,91.14683247403264 " fill="rgb(0,0,0)" stroke="rgb(0,0,0)" stroke-width="2" /><path d="M +98.61545489402488,91.14683247403264 L 98.4799606143497,93.05828276787906 " fill="rgb(0,0,0)" stroke="rgb(0,0,0)" stroke-width="2" /><path d="M +98.4799606143497,93.05828276787906 L 97.71257421234623,95.43043517273873 " fill="rgb(0,0,0)" stroke="rgb(0,0,0)" stroke-width="2" /><path d="M +97.71257421234623,95.43043517273873 L 96.54015329433605,97.13210086570143 " fill="rgb(0,0,0)" stroke="rgb(0,0,0)" stroke-width="2" /><path d="M +96.54015329433605,97.13210086570143 L 95.40128676453605,98.38712241266876 " fill="rgb(0,0,0)" stroke="rgb(0,0,0)" stroke-width="2" /><path d="M +95.40128676453605,98.38712241266876 L 94.94382065022364,98.83135940995089 " fill="rgb(0,0,0)" stroke="rgb(0,0,0)" stroke-width="2" /><path d="M 94.59442869992927,97.44391287326835 " fill="rgb(0,0,0)" stroke="rgb(0,0,0)" stroke-width="2" /><path d="M +94.59442869992927,97.44391287326835 L 94.01104334974661,97.43074433404217 " fill="rgb(0,0,0)" stroke="rgb(0,0,0)" stroke-width="2" /><path d="M +94.01104334974661,97.43074433404217 L 92.83475022530183,97.65153220555476 " fill="rgb(0,0,0)" stroke="rgb(0,0,0)" stroke-width="2" /><path d="M +92.83475022530183,97.65153220555476 L 91.62706664064899,98.99011445863835 " fill="rgb(0,0,0)" stroke="rgb(0,0,0)" stroke-width="2" /><path d="M +91.62706664064899,98.99011445863835 L 89.9705400574021,100.65010102166525 " fill="rgb(0,0,0)" stroke="rgb(0,0,0)" stroke-width="2" /><path d="M +89.9705400574021,100.65010102166525 L 88.89589217724279,102.47028007338486 " fill="rgb(0,0,0)" stroke="rgb(0,0,0)" stroke-width="2" /><path d="M +88.89589217724279,102.47028007338486 L 88.56344948289916,103.96963339931062 " fill="rgb(0,0,0)" stroke="rgb(0,0,0)" stroke-width="2" /><path d="M +88.56344948289916,103.96963339931062 L 89.12341439863667,105.12740973549626 " fill="rgb(0,0,0)" stroke="rgb(0,0,0)" stroke-width="2" /><path d="M +89.12341439863667,105.12740973549626 L 89.92470973171294,105.28583898317265 " fill="rgb(0,0,0)" stroke="rgb(0,0,0)" stroke-width="2" /><path d="M +89.92470973171294,105.28583898317265 L 91.39435165561736,104.56507272660929 " fill="rgb(0,0,0)" stroke="rgb(0,0,0)" stroke-width="2" /><path d="M +91.39435165561736,104.56507272660929 L 93.61137202940881,103.04269140228826 " fill="rgb(0,0,0)" stroke="rgb(0,0,0)" stroke-width="2" /><path d="M +93.61137202940881,103.04269140228826 L 95.501156616956,101.20823377851593 " fill="rgb(0,0,0)" stroke="rgb(0,0,0)" stroke-width="2" /><path d="M +95.501156616956,101.20823377851593 L 96.87931635417044,99.9293151927759 " fill="rgb(0,0,0)" stroke="rgb(0,0,0)" stroke-width="2" /><path d="M +96.87931635417044,99.9293151927759 L 97.48155848355964,99.11420205949071 " fill="rgb(0,0,0)" stroke="rgb(0,0,0)" stroke-width="2" /><path d="M 98.38392495876178,98.26334104050147 " fill="rgb(0,0,0)" stroke="rgb(0,0,0)" stroke-width="2" /><path d="M +98.38392495876178,98.26334104050147 L 98.6080864444375,98.41266247726708 " fill="rgb(0,0,0)" stroke="rgb(0,0,0)" stroke-width="2" /><path d="M +98.6080864444375,98.41266247726708 L 99.0581926656887,99.19202918003975 " fill="rgb(0,0,0)" stroke="rgb(0,0,0)" stroke-width="2" /><path d="M +99.0581926656887,99.19202918003975 L 99.63441952131689,101.16731639768659 " fill="rgb(0,0,0)" stroke="rgb(0,0,0)" stroke-width="2" /><path d="M +99.63441952131689,101.16731639768659 L 100.05792111624032,102.94215820081263 " fill="rgb(0,0,0)" stroke="rgb(0,0,0)" stroke-width="2" /><path d="M +100.05792111624032,102.94215820081263 L 101.0219536605291,103.8927400024022 " fill="rgb(0,0,0)" stroke="rgb(0,0,0)" stroke-width="2" /><path d="M +101.0219536605291,103.8927400024022 L 102.12117413757369,103.57340197710982 " fill="rgb(0,0,0)" stroke="rgb(0,0,0)" stroke-width="2" /><path d="M +102.12117413757369,103.57340197710982 L 102.45039701694623,103.06654235514543 " fill="rgb(0,0,0)" stroke="rgb(0,0,0)" stroke-width="2" /><path d="M 102.72357849171385,102.41900197629548 " fill="rgb(0,0,0)" stroke="rgb(0,0,0)" stroke-width="2" /><path d="M +102.72357849171385,102.41900197629548 L 103.38115061167628,102.04378907851606 " fill="rgb(0,0,0)" stroke="rgb(0,0,0)" stroke-width="2" /><path d="M +103.38115061167628,102.04378907851606 L 104.03254212578759,100.80571573976158 " fill="rgb(0,0,0)" stroke="rgb(0,0,0)" stroke-width="2" /><path d="M +104.03254212578759,100.80571573976158 L 104.18589242035523,99.53594635057925 " fill="rgb(0,0,0)" stroke="rgb(0,0,0)" stroke-width="2" /><path d="M +104.18589242035523,99.53594635057925 L 104.08028393285349,98.95696714570477 " fill="rgb(0,0,0)" stroke="rgb(0,0,0)" stroke-width="2" /><path d="M 103.96333531243727,99.47276560174032 " fill="rgb(0,0,0)" stroke="rgb(0,0,0)" stroke-width="2" /><path d="M +103.96333531243727,99.47276560174032 L 103.88716709567234,99.64451689497764 " fill="rgb(0,0,0)" stroke="rgb(0,0,0)" stroke-width="2" /><path d="M +103.88716709567234,99.64451689497764 L 103.8608932052739,100.57091329704235 " fill="rgb(0,0,0)" stroke="rgb(0,0,0)" stroke-width="2" /><path d="M +103.8608932052739,100.57091329704235 L 103.96903558867052,102.22598608575026 " fill="rgb(0,0,0)" stroke="rgb(0,0,0)" stroke-width="2" /><path d="M +103.96903558867052,102.22598608575026 L 104.13105079205707,104.03484328176091 " fill="rgb(0,0,0)" stroke="rgb(0,0,0)" stroke-width="2" /><path d="M +104.13105079205707,104.03484328176091 L 105.0026462529786,105.04973820402483 " fill="rgb(0,0,0)" stroke="rgb(0,0,0)" stroke-width="2" /><path d="M +105.0026462529786,105.04973820402483 L 106.12239226466045,104.93031455021082 " fill="rgb(0,0,0)" stroke="rgb(0,0,0)" stroke-width="2" /><path d="M +106.12239226466045,104.93031455021082 L 107.90501072769985,103.93885077260165 " fill="rgb(0,0,0)" stroke="rgb(0,0,0)" stroke-width="2" /><path d="M +107.90501072769985,103.93885077260165 L 110.06892569130287,101.94255734145372 " fill="rgb(0,0,0)" stroke="rgb(0,0,0)" stroke-width="2" /><path d="M +110.06892569130287,101.94255734145372 L 112.56581851048395,99.47212712190776 " fill="rgb(0,0,0)" stroke="rgb(0,0,0)" stroke-width="2" /><path d="M +112.56581851048395,99.47212712190776 L 114.25860951421782,97.66132707059114 " fill="rgb(0,0,0)" stroke="rgb(0,0,0)" stroke-width="2" /><path d="M +114.25860951421782,97.66132707059114 L 115.91566555434838,96.41403445325523 " fill="rgb(0,0,0)" stroke="rgb(0,0,0)" stroke-width="2" /><path d="M +115.91566555434838,96.41403445325523 L 117.36271778354421,96.16930075039818 " fill="rgb(0,0,0)" stroke="rgb(0,0,0)" stroke-width="2" /><path d="M +117.36271778354421,96.16930075039818 L 118.791376973968,97.07032006749614 " fill="rgb(0,0,0)" stroke="rgb(0,0,0)" stroke-width="2" /><path d="M +118.791376973968,97.07032006749614 L 119.62596394587308,98.83675295909597 " fill="rgb(0,0,0)" stroke="rgb(0,0,0)" stroke-width="2" /><path d="M +119.62596394587308,98.83675295909597 L 119.7618109639734,100.6658924981366 " fill="rgb(0,0,0)" stroke="rgb(0,0,0)" stroke-width="2" /><path d="M +119.7618109639734,100.6658924981366 L 120.51095456117764,102.01214186431571 " fill="rgb(0,0,0)" stroke="rgb(0,0,0)" stroke-width="2" /><path d="M +120.51095456117764,102.01214186431571 L 121.31815151078627,102.21555777584399 " fill="rgb(0,0,0)" stroke="rgb(0,0,0)" stroke-width="2" /><path d="M +121.31815151078627,102.21555777584399 L 122.1662441152148,101.28022550829883 " fill="rgb(0,0,0)" stroke="rgb(0,0,0)" stroke-width="2" /><path d="M +122.1662441152148,101.28022550829883 L 123.47989020636305,99.73742051274712 " fill="rgb(0,0,0)" stroke="rgb(0,0,0)" stroke-width="2" /><path d="M +123.47989020636305,99.73742051274712 L 125.5779096740298,97.59530129135783 " fill="rgb(0,0,0)" stroke="rgb(0,0,0)" stroke-width="2" /><path d="M +125.5779096740298,97.59530129135783 L 127.17068827478215,95.94268579726304 " fill="rgb(0,0,0)" stroke="rgb(0,0,0)" stroke-width="2" /><path d="M +127.17068827478215,95.94268579726304 L 128.62950741546229,95.36609392139326 " fill="rgb(0,0,0)" stroke="rgb(0,0,0)" stroke-width="2" /><path d="M +128.62950741546229,95.36609392139326 L 129.28916645469144,95.26375668988294 " fill="rgb(0,0,0)" stroke="rgb(0,0,0)" stroke-width="2" /><path d="M +129.28916645469144,95.26375668988294 L 130.03009584499523,96.3968515808574 " fill="rgb(0,0,0)" stroke="rgb(0,0,0)" stroke-width="2" /><path d="M +130.03009584499523,96.3968515808574 L 130.8109143632464,98.73959887240744 " fill="rgb(0,0,0)" stroke="rgb(0,0,0)" stroke-width="2" /><path d="M +130.8109143632464,98.73959887240744 L 131.1935424222611,101.25803551104582 " fill="rgb(0,0,0)" stroke="rgb(0,0,0)" stroke-width="2" /><path d="M +131.1935424222611,101.25803551104582 L 131.5956667298451,102.97757770799763 " fill="rgb(0,0,0)" stroke="rgb(0,0,0)" stroke-width="2" /><path d="M +131.5956667298451,102.97757770799763 L 132.06313338596374,103.65326882506452 " fill="rgb(0,0,0)" stroke="rgb(0,0,0)" stroke-width="2" /><path d="M 146.77582189906389,106.37547418641589 " fill="rgb(0,0,0)" stroke="rgb(0,0,0)" stroke-width="2" /><path d="M +146.77582189906389,106.37547418641589 L 147.19534919131547,107.06111532103932 " fill="rgb(0,0,0)" stroke="rgb(0,0,0)" stroke-width="2" /><path d="M +147.19534919131547,107.06111532103932 L 147.6888400851749,107.41546237309194 " fill="rgb(0,0,0)" stroke="rgb(0,0,0)" stroke-width="2" /><path d="M 158.5392882465385,95.82903747846103 " fill="rgb(0,0,0)" stroke="rgb(0,0,0)" stroke-width="2" /><path d="M +158.5392882465385,95.82903747846103 L 157.6323121902533,96.01180484801262 " fill="rgb(0,0,0)" stroke="rgb(0,0,0)" stroke-width="2" /><path d="M +157.6323121902533,96.01180484801262 L 156.19628018466756,96.79960322150691 " fill="rgb(0,0,0)" stroke="rgb(0,0,0)" stroke-width="2" /><path d="M +156.19628018466756,96.79960322150691 L 154.17029083473608,97.97785980676963 " fill="rgb(0,0,0)" stroke="rgb(0,0,0)" stroke-width="2" /><path d="M +154.17029083473608,97.97785980676963 L 152.25083256373182,99.47484792260184 " fill="rgb(0,0,0)" stroke="rgb(0,0,0)" stroke-width="2" /><path d="M +152.25083256373182,99.47484792260184 L 150.74003002373502,100.48576609747215 " fill="rgb(0,0,0)" stroke="rgb(0,0,0)" stroke-width="2" /><path d="M +150.74003002373502,100.48576609747215 L 150.00229646684602,101.66302360644295 " fill="rgb(0,0,0)" stroke="rgb(0,0,0)" stroke-width="2" /><path d="M +150.00229646684602,101.66302360644295 L 150.11944497236982,102.73941515529259 " fill="rgb(0,0,0)" stroke="rgb(0,0,0)" stroke-width="2" /><path d="M +150.11944497236982,102.73941515529259 L 150.75717380968854,103.16879723736747 " fill="rgb(0,0,0)" stroke="rgb(0,0,0)" stroke-width="2" /><path d="M +150.75717380968854,103.16879723736747 L 151.53433409286663,102.56654963645815 " fill="rgb(0,0,0)" stroke="rgb(0,0,0)" stroke-width="2" /><path d="M +151.53433409286663,102.56654963645815 L 153.0795997590758,101.41106819551169 " fill="rgb(0,0,0)" stroke="rgb(0,0,0)" stroke-width="2" /><path d="M +153.0795997590758,101.41106819551169 L 155.3002946660854,99.62654063760965 " fill="rgb(0,0,0)" stroke="rgb(0,0,0)" stroke-width="2" /><path d="M +155.3002946660854,99.62654063760965 L 157.20237876521423,97.72453744712948 " fill="rgb(0,0,0)" stroke="rgb(0,0,0)" stroke-width="2" /><path d="M +157.20237876521423,97.72453744712948 L 158.25013680150732,96.23057252078979 " fill="rgb(0,0,0)" stroke="rgb(0,0,0)" stroke-width="2" /><path d="M +158.25013680150732,96.23057252078979 L 158.88284749817103,95.55108003601163 " fill="rgb(0,0,0)" stroke="rgb(0,0,0)" stroke-width="2" /><path d="M +158.88284749817103,95.55108003601163 L 159.5259278314188,95.96484069529652 " fill="rgb(0,0,0)" stroke="rgb(0,0,0)" stroke-width="2" /><path d="M +159.5259278314188,95.96484069529652 L 159.75283450679854,97.30627407602697 " fill="rgb(0,0,0)" stroke="rgb(0,0,0)" stroke-width="2" /><path d="M +159.75283450679854,97.30627407602697 L 159.6531287417747,99.51930792353778 " fill="rgb(0,0,0)" stroke="rgb(0,0,0)" stroke-width="2" /><path d="M +159.6531287417747,99.51930792353778 L 160.27947338297963,102.26895540304213 " fill="rgb(0,0,0)" stroke="rgb(0,0,0)" stroke-width="2" /><path d="M +160.27947338297963,102.26895540304213 L 160.61199116520584,103.95084678943931 " fill="rgb(0,0,0)" stroke="rgb(0,0,0)" stroke-width="2" /><path d="M +160.61199116520584,103.95084678943931 L 160.6653895927593,104.44933929297804 " fill="rgb(0,0,0)" stroke="rgb(0,0,0)" stroke-width="2" /><path d="M 175.05682862829417,106.19620963748275 " fill="rgb(0,0,0)" stroke="rgb(0,0,0)" stroke-width="2" /><path d="M +175.05682862829417,106.19620963748275 L 175.36262036301196,106.1969272585884 " fill="rgb(0,0,0)" stroke="rgb(0,0,0)" stroke-width="2" /><path d="M +175.36262036301196,106.1969272585884 L 176.51581179816276,106.18931835360854 " fill="rgb(0,0,0)" stroke="rgb(0,0,0)" stroke-width="2" /><path d="M +176.51581179816276,106.18931835360854 L 177.20217814203352,105.96146605112153 " fill="rgb(0,0,0)" stroke="rgb(0,0,0)" stroke-width="2" /><path d="M +177.20217814203352,105.96146605112153 L 175.118189281784,104.9214755943467 " fill="rgb(0,0,0)" stroke="rgb(0,0,0)" stroke-width="2" /><path d="M +175.118189281784,104.9214755943467 L 175.62059316551313,105.03964928229834 " fill="rgb(0,0,0)" stroke="rgb(0,0,0)" stroke-width="2" /><path d="M +175.62059316551313,105.03964928229834 L 176.8395600724034,105.2805818939305 " fill="rgb(0,0,0)" stroke="rgb(0,0,0)" stroke-width="2" /><path d="M +176.8395600724034,105.2805818939305 L 178.19412731332704,105.1678073594303 " fill="rgb(0,0,0)" stroke="rgb(0,0,0)" stroke-width="2" /><path d="M +178.19412731332704,105.1678073594303 L 179.40076572122052,104.28978070867743 " fill="rgb(0,0,0)" stroke="rgb(0,0,0)" stroke-width="2" /><path d="M +179.40076572122052,104.28978070867743 L 179.8875944572501,102.78818347742344 " fill="rgb(0,0,0)" stroke="rgb(0,0,0)" stroke-width="2" /><path d="M +179.8875944572501,102.78818347742344 L 179.51077820034698,101.42222709273483 " fill="rgb(0,0,0)" stroke="rgb(0,0,0)" stroke-width="2" /><path d="M +179.51077820034698,101.42222709273483 L 178.7776603945531,99.22520617274131 " fill="rgb(0,0,0)" stroke="rgb(0,0,0)" stroke-width="2" /><path d="M +178.7776603945531,99.22520617274131 L 177.3797353147529,97.07298396406259 " fill="rgb(0,0,0)" stroke="rgb(0,0,0)" stroke-width="2" /><path d="M +177.3797353147529,97.07298396406259 L 176.12618455896154,95.77276614745642 " fill="rgb(0,0,0)" stroke="rgb(0,0,0)" stroke-width="2" /><path d="M +176.12618455896154,95.77276614745642 L 175.6618908024393,94.34207993344899 " fill="rgb(0,0,0)" stroke="rgb(0,0,0)" stroke-width="2" /><path d="M +175.6618908024393,94.34207993344899 L 175.92693077167496,92.98307982990082 " fill="rgb(0,0,0)" stroke="rgb(0,0,0)" stroke-width="2" /><path d="M +175.92693077167496,92.98307982990082 L 177.06787624629214,91.79097506003018 " fill="rgb(0,0,0)" stroke="rgb(0,0,0)" stroke-width="2" /><path d="M +177.06787624629214,91.79097506003018 L 178.84710795478895,91.06368127995665 " fill="rgb(0,0,0)" stroke="rgb(0,0,0)" stroke-width="2" /><path d="M +178.84710795478895,91.06368127995665 L 180.93769756378606,90.89928532503109 " fill="rgb(0,0,0)" stroke="rgb(0,0,0)" stroke-width="2" /><path d="M +180.93769756378606,90.89928532503109 L 182.10849716560915,90.94138798118365 " fill="rgb(0,0,0)" stroke="rgb(0,0,0)" stroke-width="2" /><path d="M +182.10849716560915,90.94138798118365 L 182.41064050234854,90.99162383008661 " fill="rgb(0,0,0)" stroke="rgb(0,0,0)" stroke-width="2" /><path d="M 182.92690025409684,91.67639080205845 " fill="rgb(0,0,0)" stroke="rgb(0,0,0)" stroke-width="2" /><path d="M +182.92690025409684,91.67639080205845 L 183.34635071223602,92.4051986216 " fill="rgb(0,0,0)" stroke="rgb(0,0,0)" stroke-width="2" /><path d="M +183.34635071223602,92.4051986216 L 184.06642290065065,92.53364894484548 " fill="rgb(0,0,0)" stroke="rgb(0,0,0)" stroke-width="2" /><path d="M +184.06642290065065,92.53364894484548 L 184.8494514473714,91.511441394141 " fill="rgb(0,0,0)" stroke="rgb(0,0,0)" stroke-width="2" /><path d="M +184.8494514473714,91.511441394141 L 186.05225536739454,89.56384495777456 " fill="rgb(0,0,0)" stroke="rgb(0,0,0)" stroke-width="2" /><path d="M +186.05225536739454,89.56384495777456 L 186.9967045262456,87.3933716206011 " fill="rgb(0,0,0)" stroke="rgb(0,0,0)" stroke-width="2" /><path d="M +186.9967045262456,87.3933716206011 L 187.80715144239366,84.17641324867873 " fill="rgb(0,0,0)" stroke="rgb(0,0,0)" stroke-width="2" /><path d="M +187.80715144239366,84.17641324867873 L 188.91402122098953,81.55685779584019 " fill="rgb(0,0,0)" stroke="rgb(0,0,0)" stroke-width="2" /><path d="M +188.91402122098953,81.55685779584019 L 190.06762022618204,79.98163532411127 " fill="rgb(0,0,0)" stroke="rgb(0,0,0)" stroke-width="2" /><path d="M +190.06762022618204,79.98163532411127 L 190.95936886733398,79.39594774452416 " fill="rgb(0,0,0)" stroke="rgb(0,0,0)" stroke-width="2" /><path d="M +190.95936886733398,79.39594774452416 L 192.00128588126972,79.92248458267568 " fill="rgb(0,0,0)" stroke="rgb(0,0,0)" stroke-width="2" /><path d="M +192.00128588126972,79.92248458267568 L 192.7179523394443,81.23522298355965 " fill="rgb(0,0,0)" stroke="rgb(0,0,0)" stroke-width="2" /><path d="M +192.7179523394443,81.23522298355965 L 192.9282388649881,81.96409227039112 " fill="rgb(0,0,0)" stroke="rgb(0,0,0)" stroke-width="2" /><path d="M 188.40780770406127,84.38325551051093 " fill="rgb(0,0,0)" stroke="rgb(0,0,0)" stroke-width="2" /><path d="M +188.40780770406127,84.38325551051093 L 188.45477430149913,85.33714926979883 " fill="rgb(0,0,0)" stroke="rgb(0,0,0)" stroke-width="2" /><path d="M +188.45477430149913,85.33714926979883 L 188.4918781928718,86.88143541749014 " fill="rgb(0,0,0)" stroke="rgb(0,0,0)" stroke-width="2" /><path d="M +188.4918781928718,86.88143541749014 L 188.42598444316536,88.68637290961487 " fill="rgb(0,0,0)" stroke="rgb(0,0,0)" stroke-width="2" /><path d="M +188.42598444316536,88.68637290961487 L 188.5297673055902,89.79122346445365 " fill="rgb(0,0,0)" stroke="rgb(0,0,0)" stroke-width="2" /><path d="M +188.5297673055902,89.79122346445365 L 189.40413449890912,90.27392498628615 " fill="rgb(0,0,0)" stroke="rgb(0,0,0)" stroke-width="2" /><path d="M +189.40413449890912,90.27392498628615 L 190.62415880616754,89.63559195344715 " fill="rgb(0,0,0)" stroke="rgb(0,0,0)" stroke-width="2" /><path d="M +190.62415880616754,89.63559195344715 L 192.51040413510054,88.2010457566139 " fill="rgb(0,0,0)" stroke="rgb(0,0,0)" stroke-width="2" /><path d="M +192.51040413510054,88.2010457566139 L 194.72506453748792,85.98494273555843 " fill="rgb(0,0,0)" stroke="rgb(0,0,0)" stroke-width="2" /><path d="M +194.72506453748792,85.98494273555843 L 197.0639452105388,83.3264219103512 " fill="rgb(0,0,0)" stroke="rgb(0,0,0)" stroke-width="2" /><path d="M +197.0639452105388,83.3264219103512 L 198.65728958975524,81.1116872349885 " fill="rgb(0,0,0)" stroke="rgb(0,0,0)" stroke-width="2" /><path d="M +198.65728958975524,81.1116872349885 L 199.74861221853644,79.73817887195764 " fill="rgb(0,0,0)" stroke="rgb(0,0,0)" stroke-width="2" /><path d="M +199.74861221853644,79.73817887195764 L 200.20948691526428,79.27396238610527 " fill="rgb(0,0,0)" stroke="rgb(0,0,0)" stroke-width="2" /><path d="M 200.6703251739964,79.48767841971858 " fill="rgb(0,0,0)" stroke="rgb(0,0,0)" stroke-width="2" /><path d="M +200.6703251739964,79.48767841971858 L 201.6519594239071,79.72173629914323 " fill="rgb(0,0,0)" stroke="rgb(0,0,0)" stroke-width="2" /><path d="M +201.6519594239071,79.72173629914323 L 202.8157358057797,79.00893023124809 " fill="rgb(0,0,0)" stroke="rgb(0,0,0)" stroke-width="2" /><path d="M +202.8157358057797,79.00893023124809 L 204.18179486878216,77.38128081782634 " fill="rgb(0,0,0)" stroke="rgb(0,0,0)" stroke-width="2" /><path d="M +204.18179486878216,77.38128081782634 L 205.08285691030324,75.99756632353092 " fill="rgb(0,0,0)" stroke="rgb(0,0,0)" stroke-width="2" /><path d="M +205.08285691030324,75.99756632353092 L 205.54815952200443,75.3569293732653 " fill="rgb(0,0,0)" stroke="rgb(0,0,0)" stroke-width="2" /><path d="M +205.54815952200443,75.3569293732653 L 206.8161723203957,75.39840445260779 " fill="rgb(0,0,0)" stroke="rgb(0,0,0)" stroke-width="2" /><path d="M +206.8161723203957,75.39840445260779 L 208.53814538568258,76.36376587779523 " fill="rgb(0,0,0)" stroke="rgb(0,0,0)" stroke-width="2" /><path d="M +208.53814538568258,76.36376587779523 L 210.77189557254314,77.04765682447032 " fill="rgb(0,0,0)" stroke="rgb(0,0,0)" stroke-width="2" /><path d="M +210.77189557254314,77.04765682447032 L 212.88933265022933,76.83788812882995 " fill="rgb(0,0,0)" stroke="rgb(0,0,0)" stroke-width="2" /><path d="M +212.88933265022933,76.83788812882995 L 215.13261212967336,75.62192264176701 " fill="rgb(0,0,0)" stroke="rgb(0,0,0)" stroke-width="2" /><path d="M +215.13261212967336,75.62192264176701 L 217.83923460170627,73.93482655916159 " fill="rgb(0,0,0)" stroke="rgb(0,0,0)" stroke-width="2" /><path d="M +217.83923460170627,73.93482655916159 L 220.34269627183676,72.75111300568824 " fill="rgb(0,0,0)" stroke="rgb(0,0,0)" stroke-width="2" /><path d="M +220.34269627183676,72.75111300568824 L 222.85954267717898,71.76168952300941 " fill="rgb(0,0,0)" stroke="rgb(0,0,0)" stroke-width="2" /><path d="M +222.85954267717898,71.76168952300941 L 224.57143161445856,71.30605072179605 " fill="rgb(0,0,0)" stroke="rgb(0,0,0)" stroke-width="2" /><path d="M +224.57143161445856,71.30605072179605 L 225.41206490714103,71.06532553316356 " fill="rgb(0,0,0)" stroke="rgb(0,0,0)" stroke-width="2" /><path d="M +225.41206490714103,71.06532553316356 L 225.35926240962,72.73440995359124 " fill="rgb(0,0,0)" stroke="rgb(0,0,0)" stroke-width="2" /><path d="M +225.35926240962,72.73440995359124 L 225.49009227659553,75.03883076005877 " fill="rgb(0,0,0)" stroke="rgb(0,0,0)" stroke-width="2" /><path d="M +225.49009227659553,75.03883076005877 L 225.39085834287107,76.58616326389165 " fill="rgb(0,0,0)" stroke="rgb(0,0,0)" stroke-width="2" /><path d="M +225.39085834287107,76.58616326389165 L 225.34039462916553,77.14766311564745 " fill="rgb(0,0,0)" stroke="rgb(0,0,0)" stroke-width="2" /><path d="M +225.34039462916553,77.14766311564745 L 226.14626147551462,77.3363771253571 " fill="rgb(0,0,0)" stroke="rgb(0,0,0)" stroke-width="2" /><path d="M +226.14626147551462,77.3363771253571 L 227.45952490950003,76.61656914151536 " fill="rgb(0,0,0)" stroke="rgb(0,0,0)" stroke-width="2" /><path d="M +227.45952490950003,76.61656914151536 L 228.0088440515101,76.29355116969236 " fill="rgb(0,0,0)" stroke="rgb(0,0,0)" stroke-width="2" /><path d="M 227.64608890283853,67.74930916017183 " fill="rgb(0,0,0)" stroke="rgb(0,0,0)" stroke-width="2" /><path d="M +227.64608890283853,67.74930916017183 L 228.13462836202234,67.99661706772895 " fill="rgb(0,0,0)" stroke="rgb(0,0,0)" stroke-width="2" /><path d="M +228.13462836202234,67.99661706772895 L 229.31200705934316,67.90376272274443 " fill="rgb(0,0,0)" stroke="rgb(0,0,0)" stroke-width="2" /><path d="M +229.31200705934316,67.90376272274443 L 230.19195008091629,67.47481807124132 " fill="rgb(0,0,0)" stroke="rgb(0,0,0)" stroke-width="2" /><path d="M +230.19195008091629,67.47481807124132 L 230.44357801554725,66.80320637988189 " fill="rgb(0,0,0)" stroke="rgb(0,0,0)" stroke-width="2" /><path d="M +230.44357801554725,66.80320637988189 L 230.23386722197756,65.52524030430504 " fill="rgb(0,0,0)" stroke="rgb(0,0,0)" stroke-width="2" /><path d="M +230.23386722197756,65.52524030430504 L 230.53582918364555,63.37562114222237 " fill="rgb(0,0,0)" stroke="rgb(0,0,0)" stroke-width="2" /><path d="M +230.53582918364555,63.37562114222237 L 231.19810611242428,60.784522716312495 " fill="rgb(0,0,0)" stroke="rgb(0,0,0)" stroke-width="2" /><path d="M +231.19810611242428,60.784522716312495 L 231.88551536295563,57.97158953955659 " fill="rgb(0,0,0)" stroke="rgb(0,0,0)" stroke-width="2" /><path d="M +231.88551536295563,57.97158953955659 L 232.50557398423553,54.607997455059376 " fill="rgb(0,0,0)" stroke="rgb(0,0,0)" stroke-width="2" /><path d="M +232.50557398423553,54.607997455059376 L 232.91041699703783,52.17230137659499 " fill="rgb(0,0,0)" stroke="rgb(0,0,0)" stroke-width="2" /><path d="M +232.91041699703783,52.17230137659499 L 232.95173558872193,50.844577529824164 " fill="rgb(0,0,0)" stroke="rgb(0,0,0)" stroke-width="2" /><path d="M 233.28888536198065,51.775375129545864 " fill="rgb(0,0,0)" stroke="rgb(0,0,0)" stroke-width="2" /><path d="M +233.28888536198065,51.775375129545864 L 233.70994502911344,52.70874859288597 " fill="rgb(0,0,0)" stroke="rgb(0,0,0)" stroke-width="2" /><path d="M +233.70994502911344,52.70874859288597 L 234.52351338928565,52.894573610865336 " fill="rgb(0,0,0)" stroke="rgb(0,0,0)" stroke-width="2" /><path d="M +234.52351338928565,52.894573610865336 L 235.73051792336628,52.01506627363415 " fill="rgb(0,0,0)" stroke="rgb(0,0,0)" stroke-width="2" /><path d="M +235.73051792336628,52.01506627363415 L 237.45858416659757,50.39973488183023 " fill="rgb(0,0,0)" stroke="rgb(0,0,0)" stroke-width="2" /><path d="M +237.45858416659757,50.39973488183023 L 239.64517241111025,47.86292418011726 " fill="rgb(0,0,0)" stroke="rgb(0,0,0)" stroke-width="2" /><path d="M +239.64517241111025,47.86292418011726 L 242.24780643125996,44.45842212171556 " fill="rgb(0,0,0)" stroke="rgb(0,0,0)" stroke-width="2" /><path d="M +242.24780643125996,44.45842212171556 L 245.2318910858594,40.198568963569414 " fill="rgb(0,0,0)" stroke="rgb(0,0,0)" stroke-width="2" /><path d="M +245.2318910858594,40.198568963569414 L 247.595285566058,36.048953198951494 " fill="rgb(0,0,0)" stroke="rgb(0,0,0)" stroke-width="2" /><path d="M +247.595285566058,36.048953198951494 L 249.4564988068305,32.72488365055324 " fill="rgb(0,0,0)" stroke="rgb(0,0,0)" stroke-width="2" /><path d="M +249.4564988068305,32.72488365055324 L 250.9741982561536,30.397850564804685 " fill="rgb(0,0,0)" stroke="rgb(0,0,0)" stroke-width="2" /><path d="M +250.9741982561536,30.397850564804685 L 251.93763411371037,28.946424029891205 " fill="rgb(0,0,0)" stroke="rgb(0,0,0)" stroke-width="2" /><path d="M +251.93763411371037,28.946424029891205 L 252.51630819402635,28.313695870929223 " fill="rgb(0,0,0)" stroke="rgb(0,0,0)" stroke-width="2" /><path d="M 252.06066817045212,28.553622566869308 " fill="rgb(0,0,0)" stroke="rgb(0,0,0)" stroke-width="2" /><path d="M +252.06066817045212,28.553622566869308 L 251.951788761653,29.040661083308805 " fill="rgb(0,0,0)" stroke="rgb(0,0,0)" stroke-width="2" /><path d="M +251.951788761653,29.040661083308805 L 251.95105255115777,30.49682234577631 " fill="rgb(0,0,0)" stroke="rgb(0,0,0)" stroke-width="2" /><path d="M +251.95105255115777,30.49682234577631 L 252.11903229355812,32.99600551999902 " fill="rgb(0,0,0)" stroke="rgb(0,0,0)" stroke-width="2" /><path d="M +252.11903229355812,32.99600551999902 L 251.87272517941892,36.27410289063846 " fill="rgb(0,0,0)" stroke="rgb(0,0,0)" stroke-width="2" /><path d="M +251.87272517941892,36.27410289063846 L 251.3696889858693,40.27649285435473 " fill="rgb(0,0,0)" stroke="rgb(0,0,0)" stroke-width="2" /><path d="M +251.3696889858693,40.27649285435473 L 250.64616962336004,43.45108722500299 " fill="rgb(0,0,0)" stroke="rgb(0,0,0)" stroke-width="2" /><path d="M +250.64616962336004,43.45108722500299 L 250.40877002757043,45.772650886101474 " fill="rgb(0,0,0)" stroke="rgb(0,0,0)" stroke-width="2" /><path d="M +250.40877002757043,45.772650886101474 L 250.92484398046508,47.70711776964163 " fill="rgb(0,0,0)" stroke="rgb(0,0,0)" stroke-width="2" /><path d="M +250.92484398046508,47.70711776964163 L 251.15657787537202,48.966049241607834 " fill="rgb(0,0,0)" stroke="rgb(0,0,0)" stroke-width="2" /><path d="M +251.15657787537202,48.966049241607834 L 251.99134063441306,49.43136372767185 " fill="rgb(0,0,0)" stroke="rgb(0,0,0)" stroke-width="2" /><path d="M +251.99134063441306,49.43136372767185 L 253.39899396058172,49.12700215518271 " fill="rgb(0,0,0)" stroke="rgb(0,0,0)" stroke-width="2" /><path d="M +253.39899396058172,49.12700215518271 L 255.1240243250504,48.05348420213704 " fill="rgb(0,0,0)" stroke="rgb(0,0,0)" stroke-width="2" /><path d="M +255.1240243250504,48.05348420213704 L 257.51914663705975,46.42706972244923 " fill="rgb(0,0,0)" stroke="rgb(0,0,0)" stroke-width="2" /><path d="M +257.51914663705975,46.42706972244923 L 259.2196818208322,45.31335495576059 " fill="rgb(0,0,0)" stroke="rgb(0,0,0)" stroke-width="2" /><path d="M +259.2196818208322,45.31335495576059 L 260.3098934981972,44.51036770060455 " fill="rgb(0,0,0)" stroke="rgb(0,0,0)" stroke-width="2" /><path d="M +260.3098934981972,44.51036770060455 L 261.07954452745616,44.79141559149866 " fill="rgb(0,0,0)" stroke="rgb(0,0,0)" stroke-width="2" /><path d="M +261.07954452745616,44.79141559149866 L 261.77613702602684,46.17430109228735 " fill="rgb(0,0,0)" stroke="rgb(0,0,0)" stroke-width="2" /><path d="M +261.77613702602684,46.17430109228735 L 262.0593617670238,48.330366403570224 " fill="rgb(0,0,0)" stroke="rgb(0,0,0)" stroke-width="2" /><path d="M +262.0593617670238,48.330366403570224 L 262.4393751961179,50.67056000862067 " fill="rgb(0,0,0)" stroke="rgb(0,0,0)" stroke-width="2" /><path d="M +262.4393751961179,50.67056000862067 L 263.1828709621914,52.077971889411856 " fill="rgb(0,0,0)" stroke="rgb(0,0,0)" stroke-width="2" /><path d="M +263.1828709621914,52.077971889411856 L 263.9650903060101,52.076512365965755 " fill="rgb(0,0,0)" stroke="rgb(0,0,0)" stroke-width="2" /><path d="M 273.5316069214605,48.58616122546664 " fill="rgb(0,0,0)" stroke="rgb(0,0,0)" stroke-width="2" /><path d="M +273.5316069214605,48.58616122546664 L 273.2415940030478,48.36277541508025 " fill="rgb(0,0,0)" stroke="rgb(0,0,0)" stroke-width="2" /><path d="M +273.2415940030478,48.36277541508025 L 273.3423114172183,47.52492782463378 " fill="rgb(0,0,0)" stroke="rgb(0,0,0)" stroke-width="2" /><path d="M +273.3423114172183,47.52492782463378 L 274.1142782382667,46.506682585823 " fill="rgb(0,0,0)" stroke="rgb(0,0,0)" stroke-width="2" /><path d="M +274.1142782382667,46.506682585823 L 275.4726742627099,44.93606271025783 " fill="rgb(0,0,0)" stroke="rgb(0,0,0)" stroke-width="2" /><path d="M +275.4726742627099,44.93606271025783 L 277.0522744162008,43.34731557210034 " fill="rgb(0,0,0)" stroke="rgb(0,0,0)" stroke-width="2" /><path d="M +277.0522744162008,43.34731557210034 L 279.19862114358693,42.16500575457758 " fill="rgb(0,0,0)" stroke="rgb(0,0,0)" stroke-width="2" /><path d="M +279.19862114358693,42.16500575457758 L 280.8734390186146,41.46538995009905 " fill="rgb(0,0,0)" stroke="rgb(0,0,0)" stroke-width="2" /><path d="M +280.8734390186146,41.46538995009905 L 281.843953684438,41.45096110587474 " fill="rgb(0,0,0)" stroke="rgb(0,0,0)" stroke-width="2" /><path d="M +281.843953684438,41.45096110587474 L 282.31561525026336,42.23902612866368 " fill="rgb(0,0,0)" stroke="rgb(0,0,0)" stroke-width="2" /><path d="M +282.31561525026336,42.23902612866368 L 281.94105977891013,43.025000623310916 " fill="rgb(0,0,0)" stroke="rgb(0,0,0)" stroke-width="2" /><path d="M +281.94105977891013,43.025000623310916 L 280.74747641803697,44.34494583110791 " fill="rgb(0,0,0)" stroke="rgb(0,0,0)" stroke-width="2" /><path d="M +280.74747641803697,44.34494583110791 L 278.96322360029444,46.10751897271257 " fill="rgb(0,0,0)" stroke="rgb(0,0,0)" stroke-width="2" /><path d="M +278.96322360029444,46.10751897271257 L 276.77128094946966,47.46822677261662 " fill="rgb(0,0,0)" stroke="rgb(0,0,0)" stroke-width="2" /><path d="M +276.77128094946966,47.46822677261662 L 275.115220726002,48.3253968617646 " fill="rgb(0,0,0)" stroke="rgb(0,0,0)" stroke-width="2" /><path d="M +275.115220726002,48.3253968617646 L 274.18035295559093,49.34760871983599 " fill="rgb(0,0,0)" stroke="rgb(0,0,0)" stroke-width="2" /><path d="M +274.18035295559093,49.34760871983599 L 273.9970301394351,50.538483445416205 " fill="rgb(0,0,0)" stroke="rgb(0,0,0)" stroke-width="2" /><path d="M +273.9970301394351,50.538483445416205 L 274.31794876465574,51.93032652314287 " fill="rgb(0,0,0)" stroke="rgb(0,0,0)" stroke-width="2" /><path d="M +274.31794876465574,51.93032652314287 L 275.3663845709525,53.06459394923877 " fill="rgb(0,0,0)" stroke="rgb(0,0,0)" stroke-width="2" /><path d="M +275.3663845709525,53.06459394923877 L 277.3159417905845,54.04884242161643 " fill="rgb(0,0,0)" stroke="rgb(0,0,0)" stroke-width="2" /><path d="M +277.3159417905845,54.04884242161643 L 279.67313040280715,54.4264273106819 " fill="rgb(0,0,0)" stroke="rgb(0,0,0)" stroke-width="2" /><path d="M +279.67313040280715,54.4264273106819 L 281.94535236107185,54.16141437890474 " fill="rgb(0,0,0)" stroke="rgb(0,0,0)" stroke-width="2" /><path d="M +281.94535236107185,54.16141437890474 L 283.68291669758037,53.4806403942639 " fill="rgb(0,0,0)" stroke="rgb(0,0,0)" stroke-width="2" /><path d="M +283.68291669758037,53.4806403942639 L 284.96303831925616,52.56602854060475 " fill="rgb(0,0,0)" stroke="rgb(0,0,0)" stroke-width="2" /><path d="M +284.96303831925616,52.56602854060475 L 285.4987868689932,52.33257060754113 " fill="rgb(0,0,0)" stroke="rgb(0,0,0)" stroke-width="2" /><path d="M 285.85719047114253,52.06933714216575 " fill="rgb(0,0,0)" stroke="rgb(0,0,0)" stroke-width="2" /><path d="M +285.85719047114253,52.06933714216575 L 286.31697406526655,51.29427408101037 " fill="rgb(0,0,0)" stroke="rgb(0,0,0)" stroke-width="2" /><path d="M +286.31697406526655,51.29427408101037 L 286.88484544400126,49.477869214024395 " fill="rgb(0,0,0)" stroke="rgb(0,0,0)" stroke-width="2" /><path d="M +286.88484544400126,49.477869214024395 L 287.5639099860564,46.759561204817146 " fill="rgb(0,0,0)" stroke="rgb(0,0,0)" stroke-width="2" /><path d="M +287.5639099860564,46.759561204817146 L 288.3129567839205,43.148705072235316 " fill="rgb(0,0,0)" stroke="rgb(0,0,0)" stroke-width="2" /><path d="M +288.3129567839205,43.148705072235316 L 288.850437826477,38.898549776058644 " fill="rgb(0,0,0)" stroke="rgb(0,0,0)" stroke-width="2" /><path d="M +288.850437826477,38.898549776058644 L 289.58501361776143,34.28386038867757 " fill="rgb(0,0,0)" stroke="rgb(0,0,0)" stroke-width="2" /><path d="M +289.58501361776143,34.28386038867757 L 290.2383125969209,30.415532446932048 " fill="rgb(0,0,0)" stroke="rgb(0,0,0)" stroke-width="2" /><path d="M +290.2383125969209,30.415532446932048 L 290.7957830815576,27.646036387886852 " fill="rgb(0,0,0)" stroke="rgb(0,0,0)" stroke-width="2" /><path d="M +290.7957830815576,27.646036387886852 L 290.96063905162737,25.88450632756576 " fill="rgb(0,0,0)" stroke="rgb(0,0,0)" stroke-width="2" /><path d="M +290.96063905162737,25.88450632756576 L 291.174936958123,25.0 " fill="rgb(0,0,0)" stroke="rgb(0,0,0)" stroke-width="2" /><path d="M 291.57542475732043,25.83870068192482 " fill="rgb(0,0,0)" stroke="rgb(0,0,0)" stroke-width="2" /><path d="M +291.57542475732043,25.83870068192482 L 292.50223664566875,27.136806375347078 " fill="rgb(0,0,0)" stroke="rgb(0,0,0)" stroke-width="2" /><path d="M +292.50223664566875,27.136806375347078 L 293.368162564002,28.912042709998786 " fill="rgb(0,0,0)" stroke="rgb(0,0,0)" stroke-width="2" /><path d="M +293.368162564002,28.912042709998786 L 293.7333525973372,30.209476221352816 " fill="rgb(0,0,0)" stroke="rgb(0,0,0)" stroke-width="2" /><path d="M +293.7333525973372,30.209476221352816 L 293.9183904440142,30.832512746565044 " fill="rgb(0,0,0)" stroke="rgb(0,0,0)" stroke-width="2" /><path d="M 293.67840584600344,31.03481597499922 " fill="rgb(0,0,0)" stroke="rgb(0,0,0)" stroke-width="2" /><path d="M +293.67840584600344,31.03481597499922 L 292.9805127554573,31.51531488983892 " fill="rgb(0,0,0)" stroke="rgb(0,0,0)" stroke-width="2" /><path d="M +292.9805127554573,31.51531488983892 L 292.0061806566082,32.80871414463036 " fill="rgb(0,0,0)" stroke="rgb(0,0,0)" stroke-width="2" /><path d="M +292.0061806566082,32.80871414463036 L 291.25403127400205,35.122350853635 " fill="rgb(0,0,0)" stroke="rgb(0,0,0)" stroke-width="2" /><path d="M +291.25403127400205,35.122350853635 L 291.0561287193559,38.130870851455256 " fill="rgb(0,0,0)" stroke="rgb(0,0,0)" stroke-width="2" /><path d="M +291.0561287193559,38.130870851455256 L 291.35446079308167,40.55752052809112 " fill="rgb(0,0,0)" stroke="rgb(0,0,0)" stroke-width="2" /><path d="M +291.35446079308167,40.55752052809112 L 291.59323216881603,42.05690970993601 " fill="rgb(0,0,0)" stroke="rgb(0,0,0)" stroke-width="2" /><path d="M +291.59323216881603,42.05690970993601 L 292.54901628009975,42.90873319259845 " fill="rgb(0,0,0)" stroke="rgb(0,0,0)" stroke-width="2" /><path d="M +292.54901628009975,42.90873319259845 L 294.02962930034846,42.91790654260694 " fill="rgb(0,0,0)" stroke="rgb(0,0,0)" stroke-width="2" /><path d="M +294.02962930034846,42.91790654260694 L 296.0082201519981,42.1442602559182 " fill="rgb(0,0,0)" stroke="rgb(0,0,0)" stroke-width="2" /><path d="M +296.0082201519981,42.1442602559182 L 298.6845581093803,40.77408707544237 " fill="rgb(0,0,0)" stroke="rgb(0,0,0)" stroke-width="2" /><path d="M +298.6845581093803,40.77408707544237 L 302.0693340571597,38.7316570881012 " fill="rgb(0,0,0)" stroke="rgb(0,0,0)" stroke-width="2" /><path d="M +302.0693340571597,38.7316570881012 L 305.02086107153445,36.356392203197174 " fill="rgb(0,0,0)" stroke="rgb(0,0,0)" stroke-width="2" /><path d="M +305.02086107153445,36.356392203197174 L 307.6948679285124,34.87674112275272 " fill="rgb(0,0,0)" stroke="rgb(0,0,0)" stroke-width="2" /><path d="M +307.6948679285124,34.87674112275272 L 310.24712787475437,33.80326356582373 " fill="rgb(0,0,0)" stroke="rgb(0,0,0)" stroke-width="2" /><path d="M +310.24712787475437,33.80326356582373 L 312.05682896543294,33.1865649235624 " fill="rgb(0,0,0)" stroke="rgb(0,0,0)" stroke-width="2" /><path d="M +312.05682896543294,33.1865649235624 L 313.331949734129,33.35169211222819 " fill="rgb(0,0,0)" stroke="rgb(0,0,0)" stroke-width="2" /><path d="M +313.331949734129,33.35169211222819 L 314.0378492884338,34.305901822699525 " fill="rgb(0,0,0)" stroke="rgb(0,0,0)" stroke-width="2" /><path d="M +314.0378492884338,34.305901822699525 L 314.5021290751174,36.21846690966777 " fill="rgb(0,0,0)" stroke="rgb(0,0,0)" stroke-width="2" /><path d="M +314.5021290751174,36.21846690966777 L 314.60340609773993,37.114159410884895 " fill="rgb(0,0,0)" stroke="rgb(0,0,0)" stroke-width="2" /><path d="M 314.8921486339532,37.88208673668123 " fill="rgb(0,0,0)" stroke="rgb(0,0,0)" stroke-width="2" /><path d="M +314.8921486339532,37.88208673668123 L 315.47257179627195,39.270831886278756 " fill="rgb(0,0,0)" stroke="rgb(0,0,0)" stroke-width="2" /><path d="M +315.47257179627195,39.270831886278756 L 316.53478442458436,40.93340973795421 " fill="rgb(0,0,0)" stroke="rgb(0,0,0)" stroke-width="2" /><path d="M +316.53478442458436,40.93340973795421 L 317.78498416533694,41.50381955278135 " fill="rgb(0,0,0)" stroke="rgb(0,0,0)" stroke-width="2" /><path d="M +317.78498416533694,41.50381955278135 L 319.12448400398716,41.07607569621905 " fill="rgb(0,0,0)" stroke="rgb(0,0,0)" stroke-width="2" /><path d="M +319.12448400398716,41.07607569621905 L 321.2030977359973,40.04712234327599 " fill="rgb(0,0,0)" stroke="rgb(0,0,0)" stroke-width="2" /><path d="M +321.2030977359973,40.04712234327599 L 322.86407662322745,38.882938274946355 " fill="rgb(0,0,0)" stroke="rgb(0,0,0)" stroke-width="2" /><path d="M +322.86407662322745,38.882938274946355 L 323.74182009371,38.23163628421753 " fill="rgb(0,0,0)" stroke="rgb(0,0,0)" stroke-width="2" /><path d="M +323.74182009371,38.23163628421753 L 324.05710130697116,38.19671001056122 " fill="rgb(0,0,0)" stroke="rgb(0,0,0)" stroke-width="2" /><path d="M 324.1211310145445,37.997489052395395 " fill="rgb(0,0,0)" stroke="rgb(0,0,0)" stroke-width="2" /><path d="M +324.1211310145445,37.997489052395395 L 324.70503138611093,37.59133444636973 " fill="rgb(0,0,0)" stroke="rgb(0,0,0)" stroke-width="2" /><path d="M +324.70503138611093,37.59133444636973 L 325.5981474998407,37.62145206328569 " fill="rgb(0,0,0)" stroke="rgb(0,0,0)" stroke-width="2" /><path d="M +325.5981474998407,37.62145206328569 L 326.27890448784456,38.63611566830514 " fill="rgb(0,0,0)" stroke="rgb(0,0,0)" stroke-width="2" /><path d="M +326.27890448784456,38.63611566830514 L 326.599137543235,40.55214143354533 " fill="rgb(0,0,0)" stroke="rgb(0,0,0)" stroke-width="2" /><path d="M +326.599137543235,40.55214143354533 L 326.5547618851997,43.17688784558413 " fill="rgb(0,0,0)" stroke="rgb(0,0,0)" stroke-width="2" /><path d="M +326.5547618851997,43.17688784558413 L 326.26474652206525,45.195010313727835 " fill="rgb(0,0,0)" stroke="rgb(0,0,0)" stroke-width="2" /><path d="M +326.26474652206525,45.195010313727835 L 325.8791232132353,46.36132920622913 " fill="rgb(0,0,0)" stroke="rgb(0,0,0)" stroke-width="2" /><path d="M +325.8791232132353,46.36132920622913 L 326.3873693998903,47.415841426663974 " fill="rgb(0,0,0)" stroke="rgb(0,0,0)" stroke-width="2" /><path d="M +326.3873693998903,47.415841426663974 L 326.99109500972554,47.3790982263381 " fill="rgb(0,0,0)" stroke="rgb(0,0,0)" stroke-width="2" /><path d="M +326.99109500972554,47.3790982263381 L 327.5096468627453,46.328137837372196 " fill="rgb(0,0,0)" stroke="rgb(0,0,0)" stroke-width="2" /><path d="M +327.5096468627453,46.328137837372196 L 328.45636245328933,44.68316547481663 " fill="rgb(0,0,0)" stroke="rgb(0,0,0)" stroke-width="2" /><path d="M +328.45636245328933,44.68316547481663 L 329.75906387437135,42.77135755310155 " fill="rgb(0,0,0)" stroke="rgb(0,0,0)" stroke-width="2" /><path d="M +329.75906387437135,42.77135755310155 L 331.23438849579543,40.66226140039362 " fill="rgb(0,0,0)" stroke="rgb(0,0,0)" stroke-width="2" /><path d="M +331.23438849579543,40.66226140039362 L 333.0835615983233,39.44523304144241 " fill="rgb(0,0,0)" stroke="rgb(0,0,0)" stroke-width="2" /><path d="M +333.0835615983233,39.44523304144241 L 334.275651932694,38.260809703751875 " fill="rgb(0,0,0)" stroke="rgb(0,0,0)" stroke-width="2" /><path d="M +334.275651932694,38.260809703751875 L 335.0551209645346,37.976308992620034 " fill="rgb(0,0,0)" stroke="rgb(0,0,0)" stroke-width="2" /><path d="M +335.0551209645346,37.976308992620034 L 336.03864358738065,38.75822193131171 " fill="rgb(0,0,0)" stroke="rgb(0,0,0)" stroke-width="2" /><path d="M +336.03864358738065,38.75822193131171 L 336.5729934652336,40.109384140487236 " fill="rgb(0,0,0)" stroke="rgb(0,0,0)" stroke-width="2" /><path d="M +336.5729934652336,40.109384140487236 L 336.76618329482153,42.115914203714055 " fill="rgb(0,0,0)" stroke="rgb(0,0,0)" stroke-width="2" /><path d="M +336.76618329482153,42.115914203714055 L 336.7515610647388,43.70499964479677 " fill="rgb(0,0,0)" stroke="rgb(0,0,0)" stroke-width="2" /><path d="M +336.7515610647388,43.70499964479677 L 337.5532328267582,45.020928058329446 " fill="rgb(0,0,0)" stroke="rgb(0,0,0)" stroke-width="2" /><path d="M +337.5532328267582,45.020928058329446 L 338.22276405990124,45.43832102117449 " fill="rgb(0,0,0)" stroke="rgb(0,0,0)" stroke-width="2" /><path d="M +338.22276405990124,45.43832102117449 L 338.966303889174,44.813433783383516 " fill="rgb(0,0,0)" stroke="rgb(0,0,0)" stroke-width="2" /><path d="M +338.966303889174,44.813433783383516 L 340.41165482485667,43.469923669726995 " fill="rgb(0,0,0)" stroke="rgb(0,0,0)" stroke-width="2" /><path d="M +340.41165482485667,43.469923669726995 L 342.3127621994354,41.66764475430682 " fill="rgb(0,0,0)" stroke="rgb(0,0,0)" stroke-width="2" /><path d="M +342.3127621994354,41.66764475430682 L 344.09619487123564,39.707200257362274 " fill="rgb(0,0,0)" stroke="rgb(0,0,0)" stroke-width="2" /><path d="M +344.09619487123564,39.707200257362274 L 345.47799025895074,38.53228362768277 " fill="rgb(0,0,0)" stroke="rgb(0,0,0)" stroke-width="2" /><path d="M +345.47799025895074,38.53228362768277 L 346.79824338527396,38.38579664206918 " fill="rgb(0,0,0)" stroke="rgb(0,0,0)" stroke-width="2" /><path d="M +346.79824338527396,38.38579664206918 L 348.0024126241915,39.28616019165929 " fill="rgb(0,0,0)" stroke="rgb(0,0,0)" stroke-width="2" /><path d="M +348.0024126241915,39.28616019165929 L 348.7422146485187,40.862420156736334 " fill="rgb(0,0,0)" stroke="rgb(0,0,0)" stroke-width="2" /><path d="M +348.7422146485187,40.862420156736334 L 349.78667999384925,43.291955769200285 " fill="rgb(0,0,0)" stroke="rgb(0,0,0)" stroke-width="2" /><path d="M +349.78667999384925,43.291955769200285 L 350.48507902538404,44.8241198222604 " fill="rgb(0,0,0)" stroke="rgb(0,0,0)" stroke-width="2" /><path d="M +350.48507902538404,44.8241198222604 L 351.5230568940751,45.44289420791756 " fill="rgb(0,0,0)" stroke="rgb(0,0,0)" stroke-width="2" /><path d="M +351.5230568940751,45.44289420791756 L 352.7877324144356,44.45759043064754 " fill="rgb(0,0,0)" stroke="rgb(0,0,0)" stroke-width="2" /><path d="M +352.7877324144356,44.45759043064754 L 354.5218079001643,42.99710003160726 " fill="rgb(0,0,0)" stroke="rgb(0,0,0)" stroke-width="2" /><path d="M +354.5218079001643,42.99710003160726 L 355.60956926783547,41.98725334335904 " fill="rgb(0,0,0)" stroke="rgb(0,0,0)" stroke-width="2" /><path d="M +355.60956926783547,41.98725334335904 L 356.0094579355791,41.69691364713799 " fill="rgb(0,0,0)" stroke="rgb(0,0,0)" stroke-width="2" /><path d="M 356.7359257489443,42.02024102178257 " fill="rgb(0,0,0)" stroke="rgb(0,0,0)" stroke-width="2" /><path d="M +356.7359257489443,42.02024102178257 L 357.27367035578936,42.66566764763411 " fill="rgb(0,0,0)" stroke="rgb(0,0,0)" stroke-width="2" /><path d="M +357.27367035578936,42.66566764763411 L 357.52476126654074,44.220956440221926 " fill="rgb(0,0,0)" stroke="rgb(0,0,0)" stroke-width="2" /><path d="M +357.52476126654074,44.220956440221926 L 357.0053361239843,45.813299531255325 " fill="rgb(0,0,0)" stroke="rgb(0,0,0)" stroke-width="2" /><path d="M +357.0053361239843,45.813299531255325 L 356.1563283787109,47.13739343187626 " fill="rgb(0,0,0)" stroke="rgb(0,0,0)" stroke-width="2" /><path d="M +356.1563283787109,47.13739343187626 L 356.1322158551775,48.5725299708065 " fill="rgb(0,0,0)" stroke="rgb(0,0,0)" stroke-width="2" /><path d="M +356.1322158551775,48.5725299708065 L 356.62826573243365,50.264940645683964 " fill="rgb(0,0,0)" stroke="rgb(0,0,0)" stroke-width="2" /><path d="M +356.62826573243365,50.264940645683964 L 357.0572340162471,52.11694881054427 " fill="rgb(0,0,0)" stroke="rgb(0,0,0)" stroke-width="2" /><path d="M +357.0572340162471,52.11694881054427 L 357.10261433850974,53.27663656989898 " fill="rgb(0,0,0)" stroke="rgb(0,0,0)" stroke-width="2" /><path d="M 357.6143072335981,53.21345537722664 " fill="rgb(0,0,0)" stroke="rgb(0,0,0)" stroke-width="2" /><path d="M +357.6143072335981,53.21345537722664 L 358.51834706263617,52.89393836337695 " fill="rgb(0,0,0)" stroke="rgb(0,0,0)" stroke-width="2" /><path d="M +358.51834706263617,52.89393836337695 L 360.0636487011798,51.99089702855417 " fill="rgb(0,0,0)" stroke="rgb(0,0,0)" stroke-width="2" /><path d="M +360.0636487011798,51.99089702855417 L 361.3977061235346,50.58903198860207 " fill="rgb(0,0,0)" stroke="rgb(0,0,0)" stroke-width="2" /><path d="M +361.3977061235346,50.58903198860207 L 362.09345111856237,48.4842830168418 " fill="rgb(0,0,0)" stroke="rgb(0,0,0)" stroke-width="2" /><path d="M +362.09345111856237,48.4842830168418 L 362.53088442608714,47.01230859554926 " fill="rgb(0,0,0)" stroke="rgb(0,0,0)" stroke-width="2" /><path d="M +362.53088442608714,47.01230859554926 L 362.27695094421506,46.09156712594995 " fill="rgb(0,0,0)" stroke="rgb(0,0,0)" stroke-width="2" /><path d="M +362.27695094421506,46.09156712594995 L 361.42744121607393,45.835590467868315 " fill="rgb(0,0,0)" stroke="rgb(0,0,0)" stroke-width="2" /><path d="M +361.42744121607393,45.835590467868315 L 360.3080612141639,46.482016752088384 " fill="rgb(0,0,0)" stroke="rgb(0,0,0)" stroke-width="2" /><path d="M +360.3080612141639,46.482016752088384 L 358.8322896743193,47.780324076848046 " fill="rgb(0,0,0)" stroke="rgb(0,0,0)" stroke-width="2" /><path d="M +358.8322896743193,47.780324076848046 L 357.5993975158781,49.78055234587373 " fill="rgb(0,0,0)" stroke="rgb(0,0,0)" stroke-width="2" /><path d="M +357.5993975158781,49.78055234587373 L 357.0844287518412,52.02552310711326 " fill="rgb(0,0,0)" stroke="rgb(0,0,0)" stroke-width="2" /><path d="M +357.0844287518412,52.02552310711326 L 356.85070229228586,53.55529913267674 " fill="rgb(0,0,0)" stroke="rgb(0,0,0)" stroke-width="2" /><path d="M +356.85070229228586,53.55529913267674 L 357.37790840212256,54.770962405564205 " fill="rgb(0,0,0)" stroke="rgb(0,0,0)" stroke-width="2" /><path d="M +357.37790840212256,54.770962405564205 L 358.6548679508269,55.90219220666768 " fill="rgb(0,0,0)" stroke="rgb(0,0,0)" stroke-width="2" /><path d="M +358.6548679508269,55.90219220666768 L 360.00322536565363,56.314242433836625 " fill="rgb(0,0,0)" stroke="rgb(0,0,0)" stroke-width="2" /></svg>