<?xml version="1.0" encoding="utf-8" ?>
<svg baseProfile="full" height="84.38985324464738" version="1.1" width="267.0397361041978" xmlns="http://www.w3.org/2000/svg" xmlns:ev="http://www.w3.org/2001/xml-events" xmlns:xlink="http://www.w3.org/1999/xlink"><defs /><rect fill="white" height="84.38985324464738" width="267.0397361041978" x="0" y="0" /><path d="M 25.0,33.85796523652971 " fill="rgb(0,0,0)" stroke="rgb(0,0,0)" stroke-width="2" /><path d="M +25.0,33.85796523652971 L 25.26571750640869,35.80107665620744 " fill="rgb(0,0,0)" stroke="rgb(0,0,0)" stroke-width="2" /><path d="M +25.26571750640869,35.80107665620744 L 25.743448734283447,38.373315101489425 " fill="rgb(0,0,0)" stroke="rgb(0,0,0)" stroke-width="2" /><path d="M +25.743448734283447,38.373315101489425 L 25.90196734527126,41.00965834222734 " fill="rgb(0,0,0)" stroke="rgb(0,0,0)" stroke-width="2" /><path d="M +25.90196734527126,41.00965834222734 L 26.284509955439717,43.61244416795671 " fill="rgb(0,0,0)" stroke="rgb(0,0,0)" stroke-width="2" /><path d="M +26.284509955439717,43.61244416795671 L 26.833707152400166,46.16787410341203 " fill="rgb(0,0,0)" stroke="rgb(0,0,0)" stroke-width="2" /><path d="M +26.833707152400166,46.16787410341203 L 27.700656710658222,48.54231453500688 " fill="rgb(0,0,0)" stroke="rgb(0,0,0)" stroke-width="2" /><path d="M +27.700656710658222,48.54231453500688 L 29.478246031794697,49.80235672555864 " fill="rgb(0,0,0)" stroke="rgb(0,0,0)" stroke-width="2" /><path d="M 36.35188346961513,36.88009954057634 " fill="rgb(0,0,0)" stroke="rgb(0,0,0)" stroke-width="2" /><path d="M +36.35188346961513,36.88009954057634 L 34.784728346858174,38.327270513400435 " fill="rgb(0,0,0)" stroke="rgb(0,0,0)" stroke-width="2" /><path d="M +34.784728346858174,38.327270513400435 L 33.21855670074001,39.95549059472978 " fill="rgb(0,0,0)" stroke="rgb(0,0,0)" stroke-width="2" /><path d="M +33.21855670074001,39.95549059472978 L 32.03987485030666,42.07339263521135 " fill="rgb(0,0,0)" stroke="rgb(0,0,0)" stroke-width="2" /><path d="M +32.03987485030666,42.07339263521135 L 30.972087441477925,44.28153610788286 " fill="rgb(0,0,0)" stroke="rgb(0,0,0)" stroke-width="2" /><path d="M +30.972087441477925,44.28153610788286 L 29.889488278422505,46.47829509340227 " fill="rgb(0,0,0)" stroke="rgb(0,0,0)" stroke-width="2" /><path d="M +29.889488278422505,46.47829509340227 L 28.80438572028652,48.6725804861635 " fill="rgb(0,0,0)" stroke="rgb(0,0,0)" stroke-width="2" /><path d="M +28.80438572028652,48.6725804861635 L 27.87023192504421,50.97340918146074 " fill="rgb(0,0,0)" stroke="rgb(0,0,0)" stroke-width="2" /><path d="M +27.87023192504421,50.97340918146074 L 26.992255507502705,53.30770588479936 " fill="rgb(0,0,0)" stroke="rgb(0,0,0)" stroke-width="2" /><path d="M +26.992255507502705,53.30770588479936 L 26.458048878703266,55.745684867724776 " fill="rgb(0,0,0)" stroke="rgb(0,0,0)" stroke-width="2" /><path d="M +26.458048878703266,55.745684867724776 L 26.51219969848171,58.32260227762163 " fill="rgb(0,0,0)" stroke="rgb(0,0,0)" stroke-width="2" /><path d="M +26.51219969848171,58.32260227762163 L 28.020256815943867,59.389853244647384 " fill="rgb(0,0,0)" stroke="rgb(0,0,0)" stroke-width="2" /><path d="M 45.725011883769184,39.17279220186174 " fill="rgb(0,0,0)" stroke="rgb(0,0,0)" stroke-width="2" /><path d="M +45.725011883769184,39.17279220186174 L 43.796563206706196,39.57878923974931 " fill="rgb(0,0,0)" stroke="rgb(0,0,0)" stroke-width="2" /><path d="M +43.796563206706196,39.57878923974931 L 42.30304962256923,41.391038545407355 " fill="rgb(0,0,0)" stroke="rgb(0,0,0)" stroke-width="2" /><path d="M +42.30304962256923,41.391038545407355 L 41.25368004897609,43.65157450083643 " fill="rgb(0,0,0)" stroke="rgb(0,0,0)" stroke-width="2" /><path d="M +41.25368004897609,43.65157450083643 L 41.108185111079365,46.236866363324225 " fill="rgb(0,0,0)" stroke="rgb(0,0,0)" stroke-width="2" /><path d="M +41.108185111079365,46.236866363324225 L 42.43137842277065,48.006349452771246 " fill="rgb(0,0,0)" stroke="rgb(0,0,0)" stroke-width="2" /><path d="M +42.43137842277065,48.006349452771246 L 44.328683672938496,48.569911369122565 " fill="rgb(0,0,0)" stroke="rgb(0,0,0)" stroke-width="2" /><path d="M +44.328683672938496,48.569911369122565 L 46.11470705131069,47.18478883150965 " fill="rgb(0,0,0)" stroke="rgb(0,0,0)" stroke-width="2" /><path d="M +46.11470705131069,47.18478883150965 L 47.44427805999294,45.182191976346076 " fill="rgb(0,0,0)" stroke="rgb(0,0,0)" stroke-width="2" /><path d="M +47.44427805999294,45.182191976346076 L 48.51665502646938,42.91155303362757 " fill="rgb(0,0,0)" stroke="rgb(0,0,0)" stroke-width="2" /><path d="M +48.51665502646938,42.91155303362757 L 49.57839256385341,40.631734975613654 " fill="rgb(0,0,0)" stroke="rgb(0,0,0)" stroke-width="2" /><path d="M 53.327643929515034,34.900092729367316 " fill="rgb(0,0,0)" stroke="rgb(0,0,0)" stroke-width="2" /><path d="M +53.327643929515034,34.900092729367316 L 54.38440447906032,37.3429890954867 " fill="rgb(0,0,0)" stroke="rgb(0,0,0)" stroke-width="2" /><path d="M +54.38440447906032,37.3429890954867 L 54.88410001853481,40.03771508578211 " fill="rgb(0,0,0)" stroke="rgb(0,0,0)" stroke-width="2" /><path d="M +54.88410001853481,40.03771508578211 L 55.118316411972046,42.79681409243494 " fill="rgb(0,0,0)" stroke="rgb(0,0,0)" stroke-width="2" /><path d="M +55.118316411972046,42.79681409243494 L 56.50385618209839,44.30528844241053 " fill="rgb(0,0,0)" stroke="rgb(0,0,0)" stroke-width="2" /><path d="M +56.50385618209839,44.30528844241053 L 58.14518928527832,42.5765153253451 " fill="rgb(0,0,0)" stroke="rgb(0,0,0)" stroke-width="2" /><path d="M +58.14518928527832,42.5765153253451 L 59.49141979217529,40.354007366113365 " fill="rgb(0,0,0)" stroke="rgb(0,0,0)" stroke-width="2" /><path d="M +59.49141979217529,40.354007366113365 L 61.13641858100891,38.5260223178193 " fill="rgb(0,0,0)" stroke="rgb(0,0,0)" stroke-width="2" /><path d="M +61.13641858100891,38.5260223178193 L 62.2941792011261,36.15062821190804 " fill="rgb(0,0,0)" stroke="rgb(0,0,0)" stroke-width="2" /><path d="M +62.2941792011261,36.15062821190804 L 62.2806191444397,38.784170034341514 " fill="rgb(0,0,0)" stroke="rgb(0,0,0)" stroke-width="2" /><path d="M +62.2806191444397,38.784170034341514 L 62.42125630378723,41.51865232270211 " fill="rgb(0,0,0)" stroke="rgb(0,0,0)" stroke-width="2" /><path d="M +62.42125630378723,41.51865232270211 L 63.702696561813354,43.73651135247201 " fill="rgb(0,0,0)" stroke="rgb(0,0,0)" stroke-width="2" /><path d="M +63.702696561813354,43.73651135247201 L 65.72096943855286,44.17493331711739 " fill="rgb(0,0,0)" stroke="rgb(0,0,0)" stroke-width="2" /><path d="M 88.52892704308033,37.401163461618125 " fill="rgb(0,0,0)" stroke="rgb(0,0,0)" stroke-width="2" /><path d="M +88.52892704308033,37.401163461618125 L 86.35252304375172,37.9219590453431 " fill="rgb(0,0,0)" stroke="rgb(0,0,0)" stroke-width="2" /><path d="M +86.35252304375172,37.9219590453431 L 84.60875935852528,39.5815311698243 " fill="rgb(0,0,0)" stroke="rgb(0,0,0)" stroke-width="2" /><path d="M +84.60875935852528,39.5815311698243 L 84.99052710831165,42.05890882294625 " fill="rgb(0,0,0)" stroke="rgb(0,0,0)" stroke-width="2" /><path d="M +84.99052710831165,42.05890882294625 L 86.84572167694569,43.60505330841988 " fill="rgb(0,0,0)" stroke="rgb(0,0,0)" stroke-width="2" /><path d="M +86.84572167694569,43.60505330841988 L 88.82820196449757,44.88202321808785 " fill="rgb(0,0,0)" stroke="rgb(0,0,0)" stroke-width="2" /><path d="M +88.82820196449757,44.88202321808785 L 88.1555337458849,46.38385165017098 " fill="rgb(0,0,0)" stroke="rgb(0,0,0)" stroke-width="2" /><path d="M +88.1555337458849,46.38385165017098 L 85.95701642334461,46.883100154809654 " fill="rgb(0,0,0)" stroke="rgb(0,0,0)" stroke-width="2" /><path d="M +85.95701642334461,46.883100154809654 L 83.73820371925831,47.197067621164024 " fill="rgb(0,0,0)" stroke="rgb(0,0,0)" stroke-width="2" /><path d="M 95.40253467857838,44.69599712174386 " fill="rgb(0,0,0)" stroke="rgb(0,0,0)" stroke-width="2" /><path d="M +95.40253467857838,44.69599712174386 L 97.06767983734608,43.96768796723336 " fill="rgb(0,0,0)" stroke="rgb(0,0,0)" stroke-width="2" /><path d="M +97.06767983734608,43.96768796723336 L 97.73122854530811,41.441643121652305 " fill="rgb(0,0,0)" stroke="rgb(0,0,0)" stroke-width="2" /><path d="M +97.73122854530811,41.441643121652305 L 97.88518734276295,38.82961857598275 " fill="rgb(0,0,0)" stroke="rgb(0,0,0)" stroke-width="2" /><path d="M +97.88518734276295,38.82961857598275 L 96.91705878358334,36.60660374443978 " fill="rgb(0,0,0)" stroke="rgb(0,0,0)" stroke-width="2" /><path d="M +96.91705878358334,36.60660374443978 L 95.49024302978069,37.925803544931114 " fill="rgb(0,0,0)" stroke="rgb(0,0,0)" stroke-width="2" /><path d="M +95.49024302978069,37.925803544931114 L 94.67032153625041,40.37215698044747 " fill="rgb(0,0,0)" stroke="rgb(0,0,0)" stroke-width="2" /><path d="M +94.67032153625041,40.37215698044747 L 94.4693346740678,43.00715911667794 " fill="rgb(0,0,0)" stroke="rgb(0,0,0)" stroke-width="2" /><path d="M +94.4693346740678,43.00715911667794 L 94.83718473929912,45.571470144204795 " fill="rgb(0,0,0)" stroke="rgb(0,0,0)" stroke-width="2" /><path d="M +94.83718473929912,45.571470144204795 L 96.0504372837022,47.73470151703805 " fill="rgb(0,0,0)" stroke="rgb(0,0,0)" stroke-width="2" /><path d="M +96.0504372837022,47.73470151703805 L 97.83890445251018,49.11833393853158 " fill="rgb(0,0,0)" stroke="rgb(0,0,0)" stroke-width="2" /><path d="M +97.83890445251018,49.11833393853158 L 99.93582565803081,49.18515074532479 " fill="rgb(0,0,0)" stroke="rgb(0,0,0)" stroke-width="2" /><path d="M +99.93582565803081,49.18515074532479 L 101.82112057227641,47.991269710473716 " fill="rgb(0,0,0)" stroke="rgb(0,0,0)" stroke-width="2" /><path d="M +101.82112057227641,47.991269710473716 L 103.26352317351848,46.06285095214844 " fill="rgb(0,0,0)" stroke="rgb(0,0,0)" stroke-width="2" /><path d="M +103.26352317351848,46.06285095214844 L 104.62298591155559,44.01620626449585 " fill="rgb(0,0,0)" stroke="rgb(0,0,0)" stroke-width="2" /><path d="M +104.62298591155559,44.01620626449585 L 106.02670509833843,42.023324966430664 " fill="rgb(0,0,0)" stroke="rgb(0,0,0)" stroke-width="2" /><path d="M +106.02670509833843,42.023324966430664 L 107.58754212874919,40.21486043930054 " fill="rgb(0,0,0)" stroke="rgb(0,0,0)" stroke-width="2" /><path d="M 110.39954025764018,25.0 " fill="rgb(0,0,0)" stroke="rgb(0,0,0)" stroke-width="2" /><path d="M +110.39954025764018,25.0 L 110.19122202415019,27.522021532058716 " fill="rgb(0,0,0)" stroke="rgb(0,0,0)" stroke-width="2" /><path d="M +110.19122202415019,27.522021532058716 L 110.22522647399455,30.260616773739457 " fill="rgb(0,0,0)" stroke="rgb(0,0,0)" stroke-width="2" /><path d="M +110.22522647399455,30.260616773739457 L 110.32789547462016,32.99724482931197 " fill="rgb(0,0,0)" stroke="rgb(0,0,0)" stroke-width="2" /><path d="M +110.32789547462016,32.99724482931197 L 110.47443349380046,35.72889589704573 " fill="rgb(0,0,0)" stroke="rgb(0,0,0)" stroke-width="2" /><path d="M +110.47443349380046,35.72889589704573 L 110.72954137343913,38.44889425672591 " fill="rgb(0,0,0)" stroke="rgb(0,0,0)" stroke-width="2" /><path d="M +110.72954137343913,38.44889425672591 L 110.91309387702495,41.17446565069258 " fill="rgb(0,0,0)" stroke="rgb(0,0,0)" stroke-width="2" /><path d="M +110.91309387702495,41.17446565069258 L 111.3368232967332,43.86227750219405 " fill="rgb(0,0,0)" stroke="rgb(0,0,0)" stroke-width="2" /><path d="M 108.00414879340678,39.17279266752303 " fill="rgb(0,0,0)" stroke="rgb(0,0,0)" stroke-width="2" /><path d="M +108.00414879340678,39.17279266752303 L 108.95198185462505,38.13063525594771 " fill="rgb(0,0,0)" stroke="rgb(0,0,0)" stroke-width="2" /><path d="M +108.95198185462505,38.13063525594771 L 111.0720892669633,37.8274264279753 " fill="rgb(0,0,0)" stroke="rgb(0,0,0)" stroke-width="2" /><path d="M +111.0720892669633,37.8274264279753 L 113.19663722533733,37.99119018949568 " fill="rgb(0,0,0)" stroke="rgb(0,0,0)" stroke-width="2" /><path d="M +113.19663722533733,37.99119018949568 L 115.32747347373515,38.344586128368974 " fill="rgb(0,0,0)" stroke="rgb(0,0,0)" stroke-width="2" /><path d="M +115.32747347373515,38.344586128368974 L 117.45500166434795,38.727843994274735 " fill="rgb(0,0,0)" stroke="rgb(0,0,0)" stroke-width="2" /><path d="M +117.45500166434795,38.727843994274735 L 119.59018905181438,38.93130444921553 " fill="rgb(0,0,0)" stroke="rgb(0,0,0)" stroke-width="2" /><path d="M +119.59018905181438,38.93130444921553 L 121.73840005416423,38.83948349393904 " fill="rgb(0,0,0)" stroke="rgb(0,0,0)" stroke-width="2" /><path d="M +121.73840005416423,38.83948349393904 L 123.88467390555888,38.691365951672196 " fill="rgb(0,0,0)" stroke="rgb(0,0,0)" stroke-width="2" /><path d="M +123.88467390555888,38.691365951672196 L 126.01631481666118,38.363182777538896 " fill="rgb(0,0,0)" stroke="rgb(0,0,0)" stroke-width="2" /><path d="M +126.01631481666118,38.363182777538896 L 128.1491180183366,38.039767974987626 " fill="rgb(0,0,0)" stroke="rgb(0,0,0)" stroke-width="2" /><path d="M +128.1491180183366,38.039767974987626 L 130.29133875388652,37.81803871097509 " fill="rgb(0,0,0)" stroke="rgb(0,0,0)" stroke-width="2" /><path d="M 143.3095892192796,38.75591779651586 " fill="rgb(0,0,0)" stroke="rgb(0,0,0)" stroke-width="2" /><path d="M +143.3095892192796,38.75591779651586 L 141.4416988613084,40.060574063682 " fill="rgb(0,0,0)" stroke="rgb(0,0,0)" stroke-width="2" /><path d="M +141.4416988613084,40.060574063682 L 140.13999302405864,42.26374054851476 " fill="rgb(0,0,0)" stroke="rgb(0,0,0)" stroke-width="2" /><path d="M +140.13999302405864,42.26374054851476 L 139.06159598845989,44.64259172382299 " fill="rgb(0,0,0)" stroke="rgb(0,0,0)" stroke-width="2" /><path d="M +139.06159598845989,44.64259172382299 L 139.4071837188676,47.2384932130808 " fill="rgb(0,0,0)" stroke="rgb(0,0,0)" stroke-width="2" /><path d="M +139.4071837188676,47.2384932130808 L 141.3084824802354,46.466821679496206 " fill="rgb(0,0,0)" stroke="rgb(0,0,0)" stroke-width="2" /><path d="M +141.3084824802354,46.466821679496206 L 142.81680781859905,44.488901147269644 " fill="rgb(0,0,0)" stroke="rgb(0,0,0)" stroke-width="2" /><path d="M +142.81680781859905,44.488901147269644 L 143.9937909366563,42.1803238481516 " fill="rgb(0,0,0)" stroke="rgb(0,0,0)" stroke-width="2" /><path d="M +143.9937909366563,42.1803238481516 L 144.92490489501506,39.702797183417715 " fill="rgb(0,0,0)" stroke="rgb(0,0,0)" stroke-width="2" /><path d="M +144.92490489501506,39.702797183417715 L 145.24992902297527,38.53117848339025 " fill="rgb(0,0,0)" stroke="rgb(0,0,0)" stroke-width="2" /><path d="M +145.24992902297527,38.53117848339025 L 145.2282925369218,41.23538161220495 " fill="rgb(0,0,0)" stroke="rgb(0,0,0)" stroke-width="2" /><path d="M +145.2282925369218,41.23538161220495 L 145.19834120292217,43.968016156577505 " fill="rgb(0,0,0)" stroke="rgb(0,0,0)" stroke-width="2" /><path d="M +145.19834120292217,43.968016156577505 L 144.94293530005962,46.68801451625768 " fill="rgb(0,0,0)" stroke="rgb(0,0,0)" stroke-width="2" /><path d="M +144.94293530005962,46.68801451625768 L 145.60076196212322,49.177074679755606 " fill="rgb(0,0,0)" stroke="rgb(0,0,0)" stroke-width="2" /><path d="M 151.64121587295085,27.08422566356603 " fill="rgb(0,0,0)" stroke="rgb(0,0,0)" stroke-width="2" /><path d="M +151.64121587295085,27.08422566356603 L 152.16195185203105,29.47133208217565 " fill="rgb(0,0,0)" stroke="rgb(0,0,0)" stroke-width="2" /><path d="M +152.16195185203105,29.47133208217565 L 152.06771690864116,32.111549624823965 " fill="rgb(0,0,0)" stroke="rgb(0,0,0)" stroke-width="2" /><path d="M +152.06771690864116,32.111549624823965 L 151.78897578734905,34.736448773765005 " fill="rgb(0,0,0)" stroke="rgb(0,0,0)" stroke-width="2" /><path d="M +151.78897578734905,34.736448773765005 L 151.50492985267192,37.34781766834203 " fill="rgb(0,0,0)" stroke="rgb(0,0,0)" stroke-width="2" /><path d="M +151.50492985267192,37.34781766834203 L 150.87198812980205,39.86375952663366 " fill="rgb(0,0,0)" stroke="rgb(0,0,0)" stroke-width="2" /><path d="M +150.87198812980205,39.86375952663366 L 150.78043539542705,42.49479795398656 " fill="rgb(0,0,0)" stroke="rgb(0,0,0)" stroke-width="2" /><path d="M +150.78043539542705,42.49479795398656 L 151.929106307216,43.57188368740026 " fill="rgb(0,0,0)" stroke="rgb(0,0,0)" stroke-width="2" /><path d="M +151.929106307216,43.57188368740026 L 153.3735950710252,41.72333503665868 " fill="rgb(0,0,0)" stroke="rgb(0,0,0)" stroke-width="2" /><path d="M +153.3735950710252,41.72333503665868 L 154.75350220222026,39.716774472617544 " fill="rgb(0,0,0)" stroke="rgb(0,0,0)" stroke-width="2" /><path d="M +154.75350220222026,39.716774472617544 L 156.25899631995708,37.85198355617467 " fill="rgb(0,0,0)" stroke="rgb(0,0,0)" stroke-width="2" /><path d="M +156.25899631995708,37.85198355617467 L 158.02031357306987,36.49126912059728 " fill="rgb(0,0,0)" stroke="rgb(0,0,0)" stroke-width="2" /><path d="M +158.02031357306987,36.49126912059728 L 159.99483664054424,36.13855863513891 " fill="rgb(0,0,0)" stroke="rgb(0,0,0)" stroke-width="2" /><path d="M +159.99483664054424,36.13855863513891 L 161.0126455547288,38.272732743644156 " fill="rgb(0,0,0)" stroke="rgb(0,0,0)" stroke-width="2" /><path d="M +161.0126455547288,38.272732743644156 L 160.76451141852885,40.855223187827505 " fill="rgb(0,0,0)" stroke="rgb(0,0,0)" stroke-width="2" /><path d="M +160.76451141852885,40.855223187827505 L 160.12227137107402,43.37700630130712 " fill="rgb(0,0,0)" stroke="rgb(0,0,0)" stroke-width="2" /><path d="M +160.12227137107402,43.37700630130712 L 159.02840693015605,45.62407160701696 " fill="rgb(0,0,0)" stroke="rgb(0,0,0)" stroke-width="2" /><path d="M +159.02840693015605,45.62407160701696 L 157.42021400947124,47.32825780811254 " fill="rgb(0,0,0)" stroke="rgb(0,0,0)" stroke-width="2" /><path d="M +157.42021400947124,47.32825780811254 L 155.40545780677348,47.92653943004552 " fill="rgb(0,0,0)" stroke="rgb(0,0,0)" stroke-width="2" /><path d="M +155.40545780677348,47.92653943004552 L 153.4111459972337,47.300899276160635 " fill="rgb(0,0,0)" stroke="rgb(0,0,0)" stroke-width="2" /><path d="M +153.4111459972337,47.300899276160635 L 152.05779273528606,45.42546893062536 " fill="rgb(0,0,0)" stroke="rgb(0,0,0)" stroke-width="2" /><path d="M 171.01233799476177,39.17279268207494 " fill="rgb(0,0,0)" stroke="rgb(0,0,0)" stroke-width="2" /><path d="M +171.01233799476177,39.17279268207494 L 169.08132631797343,38.0912067979807 " fill="rgb(0,0,0)" stroke="rgb(0,0,0)" stroke-width="2" /><path d="M +169.08132631797343,38.0912067979807 L 166.9466455699876,38.218164691352285 " fill="rgb(0,0,0)" stroke="rgb(0,0,0)" stroke-width="2" /><path d="M +166.9466455699876,38.218164691352285 L 165.45289356727153,39.85273266735021 " fill="rgb(0,0,0)" stroke="rgb(0,0,0)" stroke-width="2" /><path d="M +165.45289356727153,39.85273266735021 L 164.9578769924119,42.48460555972997 " fill="rgb(0,0,0)" stroke="rgb(0,0,0)" stroke-width="2" /><path d="M +164.9578769924119,42.48460555972997 L 165.00281889457256,45.174771794700064 " fill="rgb(0,0,0)" stroke="rgb(0,0,0)" stroke-width="2" /><path d="M +165.00281889457256,45.174771794700064 L 166.43809874076396,47.10828686656896 " fill="rgb(0,0,0)" stroke="rgb(0,0,0)" stroke-width="2" /><path d="M +166.43809874076396,47.10828686656896 L 168.51424772758037,47.054314860724844 " fill="rgb(0,0,0)" stroke="rgb(0,0,0)" stroke-width="2" /><path d="M +168.51424772758037,47.054314860724844 L 170.34971315879375,45.67166591587011 " fill="rgb(0,0,0)" stroke="rgb(0,0,0)" stroke-width="2" /><path d="M +170.34971315879375,45.67166591587011 L 171.38611872214824,43.34690595569555 " fill="rgb(0,0,0)" stroke="rgb(0,0,0)" stroke-width="2" /><path d="M +171.38611872214824,43.34690595569555 L 171.2665518047288,40.70582414569799 " fill="rgb(0,0,0)" stroke="rgb(0,0,0)" stroke-width="2" /><path d="M +171.2665518047288,40.70582414569799 L 169.86673672217876,38.75591791293118 " fill="rgb(0,0,0)" stroke="rgb(0,0,0)" stroke-width="2" /><path d="M 179.03154690284282,37.40116394183133 " fill="rgb(0,0,0)" stroke="rgb(0,0,0)" stroke-width="2" /><path d="M +179.03154690284282,37.40116394183133 L 179.30161554832011,39.87487590929959 " fill="rgb(0,0,0)" stroke="rgb(0,0,0)" stroke-width="2" /><path d="M +179.30161554832011,39.87487590929959 L 179.18455202598125,42.456919318647124 " fill="rgb(0,0,0)" stroke="rgb(0,0,0)" stroke-width="2" /><path d="M +179.18455202598125,42.456919318647124 L 179.18961842078716,45.02331650874112 " fill="rgb(0,0,0)" stroke="rgb(0,0,0)" stroke-width="2" /><path d="M +179.18961842078716,45.02331650874112 L 180.5850823642686,46.06916940829251 " fill="rgb(0,0,0)" stroke="rgb(0,0,0)" stroke-width="2" /><path d="M +180.5850823642686,46.06916940829251 L 182.3437174083665,44.69730890414212 " fill="rgb(0,0,0)" stroke="rgb(0,0,0)" stroke-width="2" /><path d="M +182.3437174083665,44.69730890414212 L 183.79872639197856,42.85096562525723 " fill="rgb(0,0,0)" stroke="rgb(0,0,0)" stroke-width="2" /><path d="M +183.79872639197856,42.85096562525723 L 184.8372181179002,40.60708940087352 " fill="rgb(0,0,0)" stroke="rgb(0,0,0)" stroke-width="2" /><path d="M +184.8372181179002,40.60708940087352 L 185.8394702197984,38.37891876755748 " fill="rgb(0,0,0)" stroke="rgb(0,0,0)" stroke-width="2" /><path d="M +185.8394702197984,38.37891876755748 L 186.07151110190898,39.82230484543834 " fill="rgb(0,0,0)" stroke="rgb(0,0,0)" stroke-width="2" /><path d="M +186.07151110190898,39.82230484543834 L 185.86128551978618,42.40387141762767 " fill="rgb(0,0,0)" stroke="rgb(0,0,0)" stroke-width="2" /><path d="M +185.86128551978618,42.40387141762767 L 186.13117535132915,44.937039018259384 " fill="rgb(0,0,0)" stroke="rgb(0,0,0)" stroke-width="2" /><path d="M +186.13117535132915,44.937039018259384 L 187.05850441474468,47.05273568688426 " fill="rgb(0,0,0)" stroke="rgb(0,0,0)" stroke-width="2" /><path d="M +187.05850441474468,47.05273568688426 L 189.0295108081773,46.57181561051402 " fill="rgb(0,0,0)" stroke="rgb(0,0,0)" stroke-width="2" /><path d="M 196.84046108741313,25.625253320322372 " fill="rgb(0,0,0)" stroke="rgb(0,0,0)" stroke-width="2" /><path d="M +196.84046108741313,25.625253320322372 L 197.48693306464702,27.888590694055893 " fill="rgb(0,0,0)" stroke="rgb(0,0,0)" stroke-width="2" /><path d="M +197.48693306464702,27.888590694055893 L 197.03805048484355,30.32615244446788 " fill="rgb(0,0,0)" stroke="rgb(0,0,0)" stroke-width="2" /><path d="M +197.03805048484355,30.32615244446788 L 197.15290863532573,32.94389903603587 " fill="rgb(0,0,0)" stroke="rgb(0,0,0)" stroke-width="2" /><path d="M +197.15290863532573,32.94389903603587 L 197.04752762336284,35.55267512856517 " fill="rgb(0,0,0)" stroke="rgb(0,0,0)" stroke-width="2" /><path d="M +197.04752762336284,35.55267512856517 L 196.63220245856792,38.115555644617416 " fill="rgb(0,0,0)" stroke="rgb(0,0,0)" stroke-width="2" /><path d="M +196.63220245856792,38.115555644617416 L 196.63220245856792,40.73991835175548 " fill="rgb(0,0,0)" stroke="rgb(0,0,0)" stroke-width="2" /><path d="M +196.63220245856792,40.73991835175548 L 196.8536337139085,43.34899246750865 " fill="rgb(0,0,0)" stroke="rgb(0,0,0)" stroke-width="2" /><path d="M +196.8536337139085,43.34899246750865 L 197.15290863532573,45.94653308449779 " fill="rgb(0,0,0)" stroke="rgb(0,0,0)" stroke-width="2" /><path d="M 195.4866011859849,39.06857430993114 " fill="rgb(0,0,0)" stroke="rgb(0,0,0)" stroke-width="2" /><path d="M +195.4866011859849,39.06857430993114 L 197.50362236518413,40.2971154457191 " fill="rgb(0,0,0)" stroke="rgb(0,0,0)" stroke-width="2" /><path d="M +197.50362236518413,40.2971154457191 L 199.8598535778001,40.46248853264842 " fill="rgb(0,0,0)" stroke="rgb(0,0,0)" stroke-width="2" /><path d="M +199.8598535778001,40.46248853264842 L 202.25488741416484,40.52248060761485 " fill="rgb(0,0,0)" stroke="rgb(0,0,0)" stroke-width="2" /><path d="M +202.25488741416484,40.52248060761485 L 204.65141136664897,40.42332828103099 " fill="rgb(0,0,0)" stroke="rgb(0,0,0)" stroke-width="2" /><path d="M 222.98109133262187,37.50538289605174 " fill="rgb(0,0,0)" stroke="rgb(0,0,0)" stroke-width="2" /><path d="M +222.98109133262187,37.50538289605174 L 223.6201723339036,39.53715622483287 " fill="rgb(0,0,0)" stroke="rgb(0,0,0)" stroke-width="2" /><path d="M +223.6201723339036,39.53715622483287 L 223.71011574286968,42.13189542351756 " fill="rgb(0,0,0)" stroke="rgb(0,0,0)" stroke-width="2" /><path d="M +223.71011574286968,42.13189542351756 L 223.71011574286968,44.73190963326488 " fill="rgb(0,0,0)" stroke="rgb(0,0,0)" stroke-width="2" /><path d="M +223.71011574286968,44.73190963326488 L 224.63070948142558,46.90524399338756 " fill="rgb(0,0,0)" stroke="rgb(0,0,0)" stroke-width="2" /><path d="M +224.63070948142558,46.90524399338756 L 226.52440865058452,46.403164268122055 " fill="rgb(0,0,0)" stroke="rgb(0,0,0)" stroke-width="2" /><path d="M +226.52440865058452,46.403164268122055 L 227.7412970783189,44.34006869851146 " fill="rgb(0,0,0)" stroke="rgb(0,0,0)" stroke-width="2" /><path d="M +227.7412970783189,44.34006869851146 L 229.06326849479228,42.33368694840465 " fill="rgb(0,0,0)" stroke="rgb(0,0,0)" stroke-width="2" /><path d="M +229.06326849479228,42.33368694840465 L 230.30614454764873,40.24925291596446 " fill="rgb(0,0,0)" stroke="rgb(0,0,0)" stroke-width="2" /><path d="M +230.30614454764873,40.24925291596446 L 231.2212546588853,37.95027196465526 " fill="rgb(0,0,0)" stroke="rgb(0,0,0)" stroke-width="2" /><path d="M +231.2212546588853,37.95027196465526 L 230.99761803168803,38.681322932825424 " fill="rgb(0,0,0)" stroke="rgb(0,0,0)" stroke-width="2" /><path d="M +230.99761803168803,38.681322932825424 L 230.77737886924297,41.26631677208934 " fill="rgb(0,0,0)" stroke="rgb(0,0,0)" stroke-width="2" /><path d="M +230.77737886924297,41.26631677208934 L 230.78995544929057,43.8499993091682 " fill="rgb(0,0,0)" stroke="rgb(0,0,0)" stroke-width="2" /><path d="M +230.78995544929057,43.8499993091682 L 231.31268818397075,46.363348365412094 " fill="rgb(0,0,0)" stroke="rgb(0,0,0)" stroke-width="2" /><path d="M 242.0397361041978,35.629565120325424 " fill="rgb(0,0,0)" stroke="rgb(0,0,0)" stroke-width="2" /><path d="M +242.0397361041978,35.629565120325424 L 240.11504251975566,36.02837979851756 " fill="rgb(0,0,0)" stroke="rgb(0,0,0)" stroke-width="2" /><path d="M +240.11504251975566,36.02837979851756 L 238.25501997489482,37.13166177331004 " fill="rgb(0,0,0)" stroke="rgb(0,0,0)" stroke-width="2" /><path d="M +238.25501997489482,37.13166177331004 L 237.062927079387,38.95511686860118 " fill="rgb(0,0,0)" stroke="rgb(0,0,0)" stroke-width="2" /><path d="M +237.062927079387,38.95511686860118 L 238.28821976203471,41.046286225900985 " fill="rgb(0,0,0)" stroke="rgb(0,0,0)" stroke-width="2" /><path d="M +238.28821976203471,41.046286225900985 L 239.93360598105937,42.66058862267528 " fill="rgb(0,0,0)" stroke="rgb(0,0,0)" stroke-width="2" /><path d="M +239.93360598105937,42.66058862267528 L 241.2612994434312,44.45215523301158 " fill="rgb(0,0,0)" stroke="rgb(0,0,0)" stroke-width="2" /><path d="M +241.2612994434312,44.45215523301158 L 239.92609579581767,46.274507642374374 " fill="rgb(0,0,0)" stroke="rgb(0,0,0)" stroke-width="2" /><path d="M +239.92609579581767,46.274507642374374 L 237.937327218242,47.071689963922836 " fill="rgb(0,0,0)" stroke="rgb(0,0,0)" stroke-width="2" /><path d="M +237.937327218242,47.071689963922836 L 235.99934179801494,47.509694696054794 " fill="rgb(0,0,0)" stroke="rgb(0,0,0)" stroke-width="2" /></svg>