<?xml version="1.0" encoding="utf-8" ?>
<svg baseProfile="tiny" height="100px" version="1.2" width="666px" xmlns="http://www.w3.org/2000/svg" xmlns:ev="http://www.w3.org/2001/xml-events" xmlns:xlink="http://www.w3.org/1999/xlink"><defs /><rect fill="white" height="100%" width="100%" x="0" y="0" /><polyline fill="none" points="20.0,20.0" stroke="black" /><polyline fill="none" points="42.1015,41.6755 41.7905,42.4019 41.105,43.0608 39.7815,43.3429 37.7333,42.8291 35.114,41.7402 32.7157,40.4537 30.8011,39.5436 29.8546,39.1436 29.7656,39.4078 30.622,40.3806 32.0936,41.9064 34.5551,44.0748 37.4781,46.6195 40.4888,49.3187 42.6842,51.9491 44.2389,55.0182 44.8222,58.5469 45.1178,62.4053 45.4362,66.0433 45.8457,68.822 46.039,70.3215 46.2352,70.9834" stroke="black" /><polyline fill="none" points="36.5764,39.4528 37.1047,39.675 38.3592,40.2523 40.2064,41.5369 42.2056,43.5054 44.358,45.805 46.7086,48.1494 49.6338,50.0769 53.221,51.7641 56.8971,53.2312 59.7803,54.5194 61.871,55.4742 63.3029,55.7435 64.2751,55.0414 64.9624,53.8535 65.805,52.3574 66.7564,51.3026 67.7497,50.8872 68.6091,50.9562" stroke="black" /><polyline fill="none" points="54.1699,51.4146 53.9305,50.5101 53.6276,48.8339 53.6575,46.4755 53.8654,43.6548 54.0953,40.8342 54.2356,38.432 54.0205,36.8443 53.6258,36.2258 53.3588,36.9743 52.6703,38.537 51.4517,40.4065 50.2558,42.0777 49.37,43.287 49.3666,44.3009 50.6181,45.7599 52.9475,47.8617 56.1136,50.2529 59.5664,52.5569 62.5782,54.9255 64.8171,57.7324 66.1951,60.9111 67.0432,64.3305 67.6064,67.286 67.8867,69.1385 67.994,70.0205" stroke="black" /><polyline fill="none" points="54.9596,52.5635 55.1119,53.1591 55.7473,54.3075 57.0856,56.1635 58.7077,58.8581 60.196,61.9931 61.1331,65.1703 61.4995,67.6402 61.5171,68.9848" stroke="black" /><polyline fill="none" points="76.6789,63.371 77.2497,64.0562 77.8199,64.9177 78.214,65.6905" stroke="black" /><polyline fill="none" points="96.7597,36.9879 96.8662,38.0904 97.2775,40.34 97.773,43.7362 98.2874,48.0802 98.7561,52.909 99.1151,57.5832 99.2997,61.7057 99.488,64.704 99.5045,66.3572 99.4581,67.0404" stroke="black" /><polyline fill="none" points="98.8638,53.6588 99.9438,53.6845 101.5085,53.7779 103.029,53.8932 103.9765,53.9846" stroke="black" /><polyline fill="none" points="103.8576,36.8795 104.1637,37.6299 104.5985,39.4168 105.1391,42.5266 105.5212,46.8922 105.8795,51.7868 106.1502,56.5047 106.3572,60.495 106.3695,63.3826 106.2976,65.1016 106.0963,65.9826" stroke="black" /><polyline fill="none" points="111.0513,54.1847 111.4911,54.5168 112.3944,54.63 113.3432,54.3246 114.0081,53.2468 113.9476,51.5934 113.445,50.2692 112.4776,49.5606 111.3527,49.7773 110.2242,51.074 109.4016,53.1652 109.2596,56.0522 109.712,59.1837 110.7602,62.1189 112.2949,64.5486 114.34,65.9883 116.4989,66.3482 118.7275,65.6503 120.4296,64.2233 121.5361,62.9045 122.0678,62.1128" stroke="black" /><polyline fill="none" points="122.3716,50.4315 122.6562,51.0055 122.9381,52.3731 123.0844,54.7541 123.1176,57.9944 123.2604,61.4114 123.5365,64.5203 123.8158,66.6814 124.0105,67.7841" stroke="black" /><polyline fill="none" points="123.0241,53.0126 123.4014,52.2644 124.2419,51.3856 125.2363,50.6395 126.0751,50.2896" stroke="black" /><polyline fill="none" points="130.8466,53.7442 131.285,54.4731 131.6996,55.7309 131.9596,57.0763 131.9342,58.0681" stroke="black" /><polyline fill="none" points="131.7941,66.9727 131.7314,65.9585 131.6279,63.9523 131.7483,60.9109 132.1131,57.3193 132.6535,53.9046 133.1257,51.1509 133.9467,49.5225 135.0063,49.0412 136.3493,49.5086 137.7327,51.1003 139.0026,53.6173 139.8081,56.6178 140.437,59.6837 140.8696,62.1539 141.0631,63.6093 141.1046,64.3589" stroke="black" /><polyline fill="none" points="141.3072,63.1252 141.5529,62.1562 141.8681,60.1735 142.186,57.4193 142.5483,54.533 143.1075,52.1102 143.9283,50.57 144.8327,50.3747 145.8001,51.1053 146.7201,52.8056 147.6814,55.3437 148.5749,58.3885 149.3803,61.4331 149.9669,63.9699 150.2922,65.536 150.4001,66.2417" stroke="black" /><polyline fill="none" points="162.7123,55.9012 163.0008,55.307 163.0047,54.1609 162.3706,52.6378 161.0748,51.2228 159.3369,50.225 157.8166,50.0436 156.579,50.9872 155.8882,53.2112 155.6353,56.3183 155.888,59.8458 156.4063,63.0437 157.2365,65.2507 158.3129,66.3123 159.8341,66.2293 161.5135,65.0006 163.1065,63.2205 164.2142,61.549 164.7248,60.4707" stroke="black" /><polyline fill="none" points="164.9216,54.3657 165.0296,55.0273 165.2225,56.6811 165.3688,59.0621 165.5362,61.7078 165.7932,63.9569 166.0096,65.1479" stroke="black" /><polyline fill="none" points="170.2856,65.1843 170.2462,63.7955 170.3205,61.3491 170.4632,58.2417 170.6269,55.4649 170.7653,53.6138 170.8339,52.8867" stroke="black" /><polyline fill="none" points="170.533,63.7304 171.0215,62.652 171.7556,60.6486 172.647,57.7641 173.4723,54.8793 174.4725,52.3919 175.5574,50.9628 176.7487,50.6582 178.1789,51.4125 179.782,53.1812 181.3376,55.9858 182.7153,59.2527 183.6742,62.5181 184.1071,64.8781 184.2352,66.1129" stroke="black" /><polyline fill="none" points="209.0522,66.8135 208.8345,66.0192 208.6194,64.4314 208.342,61.7193 208.0887,58.3681 207.8584,54.7524 207.9129,51.6446 208.3391,49.4419 209.3341,48.5194 210.6125,48.5458 211.8885,49.2775 212.8336,50.0741 213.3167,50.6268" stroke="black" /><polyline fill="none" points="208.4826,59.229 208.6994,60.3098 208.848,61.9855 208.8864,63.6829 208.7723,64.8287" stroke="black" /><polyline fill="none" points="227.0487,57.2415 227.2499,56.4046 227.2993,54.8177 227.0637,52.7891 226.3424,50.9792 225.2659,49.9175 224.0985,49.6711 222.5975,50.3053 221.1589,52.0418 220.0479,54.7052 219.4421,57.8552 219.2562,60.72 219.7341,62.8156 220.6122,63.8766 222.0006,63.9474 223.6349,62.983 225.2049,61.4894 226.2017,60.038 226.7556,59.1802" stroke="black" /><polyline fill="none" points="226.1846,52.0146 226.4937,51.8614" stroke="black" /><polyline fill="none" points="226.8102,49.5039 226.7625,50.5838 226.8211,52.8103 226.8985,56.0067 227.1077,59.3578 227.3632,62.0478 227.5782,63.6576 227.6644,64.253" stroke="black" /><polyline fill="none" points="231.6495,32.7902 231.8012,33.5622 231.9294,34.7529 231.9915,35.9654 231.9446,36.8029" stroke="black" /><polyline fill="none" points="233.0059,48.9517 233.2905,49.5257 233.5284,50.8931 233.7847,53.3186 233.8844,56.4489 234.0495,59.7999 234.3038,62.8426 234.5166,65.0916 234.6004,66.3923 234.6645,67.0097" stroke="black" /><polyline fill="none" points="240.0789,62.8179 240.5626,63.1722 241.7284,63.9035 243.3129,64.6582 245.0535,64.8625 246.3783,64.2057 247.0889,62.6431 246.9204,60.306 245.981,57.7901 244.5127,55.2723 243.1979,52.9755 242.7181,51.431 243.2499,50.5952 244.1769,50.2456 244.9923,50.2924" stroke="black" /><polyline fill="none" points="251.8926,56.5094 252.7312,56.2257 253.9464,55.3481 255.1851,54.0518 256.0279,52.5117 255.9881,51.2551 255.3073,50.4814 254.1174,50.3672 252.7267,50.9797 251.4436,52.3861 250.8857,54.4121 251.0974,57.0137 252.058,59.7722 253.5922,62.3563 255.6142,64.1265 257.772,64.817 260.0651,64.5823 261.8966,63.9933 263.0004,63.49" stroke="black" /><polyline fill="none" points="261.7071,48.2325 262.7003,47.8612 264.3317,47.7564 266.5119,48.3589 268.5575,49.6222 269.9853,51.1038 270.7085,52.3626 270.9265,53.0687" stroke="black" /><polyline fill="none" points="261.0981,52.3744 261.4472,53.4116 262.2339,55.4421 263.2389,58.1126 264.5079,60.9162 265.9997,63.0372 267.2967,64.0776 268.6414,64.038 270.2322,62.8972 271.7168,60.5877 273.2709,57.2646 274.5634,53.0809 275.2389,48.8511 275.4275,45.1927 275.5463,42.6363 275.5949,41.2919 275.751,40.7634" stroke="black" /><polyline fill="none" points="275.5625,37.8091 275.7796,38.8017 275.9054,40.7198 276.2254,43.8949 276.785,47.9085 277.5851,52.518 278.3418,56.9069 279.1672,60.5466 279.6874,63.1714 280.3217,64.6283 281.0921,64.9615 281.7542,64.6992 282.1527,64.1716" stroke="black" /><polyline fill="none" points="309.1207,61.0661 309.1898,60.1626 309.3714,58.6202 309.4236,56.1958 309.4561,53.088 309.5352,49.2088 309.7262,44.8451 310.0488,40.6802 310.5226,37.4196 310.8162,35.3486 310.9954,34.4896" stroke="black" /><polyline fill="none" points="309.8896,55.2495 310.2896,54.3031 311.1094,53.0274 312.2813,51.9513 313.6488,51.6913 315.2987,52.6447 316.5263,54.6767 317.0687,57.2354 317.3031,59.6388 317.2975,61.314 317.295,62.0413" stroke="black" /><polyline fill="none" points="322.2425,32.8301 322.3707,34.0208 322.5195,35.6524 322.6466,37.1958 322.7096,38.1218" stroke="black" /><polyline fill="none" points="322.7724,52.229 322.9232,53.2655 323.0048,55.2275 323.1286,57.7407 323.2091,60.0333 323.3584,61.5327 323.4882,62.2605" stroke="black" /><polyline fill="none" points="331.6089,52.964 332.0297,52.3703 332.4724,51.8207" stroke="black" /><polyline fill="none" points="329.5104,60.8701 330.0813,61.5112 331.3561,62.5956 333.0716,63.7475 334.8108,64.3705 336.0903,64.0442 336.2714,62.6341 335.7484,60.847 335.0042,59.2795 334.3462,58.3074" stroke="black" /><polyline fill="none" points="359.3058,49.3981 359.0609,50.1026 358.8791,51.7552 358.9149,54.2019 359.2801,57.0466 359.6464,59.5386 359.9492,61.2589 360.4982,61.8559 361.1829,61.4614 362.4444,59.9448 364.084,57.4154 365.659,54.445 366.9684,51.7823 367.856,50.0219 368.211,49.3178" stroke="black" /><polyline fill="none" points="377.1231,53.7782 376.6631,52.9391 375.9613,51.8566 374.9063,50.9714 373.8266,50.8576 372.8535,51.8241 372.0753,53.8053 371.692,56.3609 371.6836,58.8737 372.0072,60.9688 372.7971,62.0515 374.0094,62.0335 375.3134,60.9799 376.5323,59.0222 377.2887,56.9528 377.6461,55.5433 377.7146,54.8603" stroke="black" /><polyline fill="none" points="376.0959,51.1517 376.4912,51.5939 376.7304,52.5646 376.7706,53.7109 376.569,54.6801" stroke="black" /><polyline fill="none" points="382.5081,51.7464 382.7479,52.5627 383.1385,54.3715 383.3947,56.8411 383.4308,59.2438 383.3592,60.8526 383.2908,61.5357" stroke="black" /><polyline fill="none" points="383.7814,40.1565 383.9161,39.4296 384.0728,38.7247" stroke="black" /><polyline fill="none" points="394.2583,51.2348 393.5085,51.3425 392.1619,51.9552 390.6581,53.4269 389.5927,55.6276 389.1879,58.0288 389.402,59.9031 390.4789,60.8325 392.2195,61.0587 394.5766,61.4634 397.4613,62.3107 400.6094,63.4895 403.7133,64.6682 406.5102,65.405 408.5152,65.6542 409.5067,65.7677" stroke="black" /><polyline fill="none" points="396.101,60.4546 396.0599,59.5507 396.4179,57.9649 397.4816,56.2712 398.9188,54.9535 400.4414,54.4517 401.4541,54.8078 401.5624,55.3812 401.1642,55.7987 400.7446,56.0618" stroke="black" /><polyline fill="none" points="427.993,54.7647 427.7472,55.7557 427.6971,57.541 427.9097,59.8782 428.3213,62.0176 428.9339,63.3863 429.771,63.5214 430.9207,62.4672 432.4266,60.3783 433.9344,57.7162 434.9785,55.3172 435.5348,53.754 435.6248,53.2033" stroke="black" /><polyline fill="none" points="430.1178,52.1708 430.9113,52.1515 432.1883,52.5966 433.508,53.4386 434.4305,54.4116 434.7149,55.0518" stroke="black" /><polyline fill="none" points="434.3093,57.6734 434.4603,58.6658 434.5866,60.4296 434.6459,62.4577 434.5965,64.0446 434.5937,64.8822" stroke="black" /><polyline fill="none" points="440.3828,34.4614 440.6883,35.3662 441.0788,37.2411 441.6849,40.5274 442.1993,44.8714 442.6675,49.8545 443.0041,54.6388 443.4751,58.7843 444.0161,61.7838 445.0669,63.9254 446.4739,65.0323 447.9279,65.2796 449.0763,64.6002 450.0514,63.0385 450.5226,60.5713 450.6208,57.5739 450.2569,54.3546 449.4065,51.6185 448.2664,49.8072 447.0781,49.2081 446.1725,49.7781 445.5715,51.4954 445.0999,54.0948 444.7375,57.0031 444.3324,59.4705 443.842,61.0999 443.5313,61.7381" stroke="black" /><polyline fill="none" points="461.2576,53.8625 460.5325,53.1768 459.6309,52.5345 458.4847,52.5307 457.3787,53.6952 456.556,55.8305 456.1725,58.4522 456.1198,60.9869 456.8633,62.7528 457.963,63.4839 459.5297,62.9822 461.1875,61.5991 462.3623,59.6413 462.7215,57.6807 462.5721,56.2254 462.1118,55.4745" stroke="black" /><polyline fill="none" points="461.1641,55.4272 461.3194,55.1191" stroke="black" /><polyline fill="none" points="465.5811,52.8852 465.4691,53.4138 465.4649,54.6481 465.6338,56.875 466.0429,59.7418 466.475,62.3442 466.9093,64.3074 467.2373,65.08 467.6136,64.5963 468.1037,63.0771 468.9276,60.5891 469.9075,57.5947 471.1074,54.7332 471.9959,52.6863 472.5283,51.6962" stroke="black" /><polyline fill="none" points="474.0963,57.3663 474.7346,57.6329 475.6167,57.5036 476.6772,56.7798 477.3429,55.4595 477.4136,54.0931 476.822,53.0552 475.6761,52.9411 473.9763,53.7289 472.5602,55.3332 471.5827,57.6003 471.4646,59.9584 472.0751,61.9442 473.6136,63.2499 475.661,64.0062 477.8642,64.3222 479.5387,64.5262 480.4423,64.5733" stroke="black" /><polyline fill="none" points="499.0724,50.0881 499.8218,50.1127 500.8141,49.9838 501.7407,49.7444 502.2928,49.4377" stroke="black" /><polyline fill="none" points="501.379,59.0009 501.559,57.9214 501.8524,55.8725 502.2381,52.5895 502.6923,48.6235 503.2345,44.7018 503.4889,41.1539 503.5194,38.6191 503.3915,37.3182 503.2171,36.7666" stroke="black" /><polyline fill="none" points="507.2391,59.9243 507.2641,59.0427 507.4684,57.28 507.6767,54.3271 508.1084,50.4932 508.6291,46.4172 508.9499,42.7813 508.9807,40.1804 508.8309,38.8353 508.4579,38.3051" stroke="black" /><polyline fill="none" points="508.0255,55.4965 508.6448,54.8593 509.6159,54.4879 510.6291,54.7117 511.1763,55.8597 511.3479,57.271 511.2343,58.2846" stroke="black" /><polyline fill="none" points="516.8708,53.5645 517.511,53.3021 518.2173,52.9959 518.7693,52.7332" stroke="black" /><polyline fill="none" points="517.3702,49.2679 516.9725,49.5531 516.5717,50.7641 516.2781,52.8792 516.4672,55.6351 517.142,58.1722 518.3709,59.7854 519.9774,60.5623 521.5413,60.8761 522.5992,60.9237" stroke="black" /><polyline fill="none" points="544.3127,53.7448 544.1826,53.1052 544.0336,51.5176 543.8657,49.0263 543.876,45.9625 544.0621,43.0536 544.2232,41.0262 544.359,39.9687" stroke="black" /><polyline fill="none" points="543.8154,57.4242 543.7952,56.8951 543.9757,55.6393 544.3571,53.6568 545.2458,51.5438 546.3759,49.8062 547.7895,48.9293 549.3319,49.0888 550.6502,50.3496 551.4369,52.3801 551.9573,54.9388 551.949,57.4074 551.458,59.2132 550.4194,59.9812 549.1409,60.021 548.0179,59.6646 547.446,59.31" stroke="black" /><polyline fill="none" points="566.3911,49.5208 567.1839,49.7219 568.2834,50.475 569.2692,52.3078 569.701,54.9763 569.2723,57.9506 568.249,60.7465 566.7216,62.659 565.0441,63.3367 563.3045,62.8239 561.7894,61.0995 560.6961,58.4728 560.1547,55.6055 560.3839,52.9833 561.3386,50.9366 562.7095,49.6627 564.2534,49.3814 565.5971,49.6504 566.3228,50.1598" stroke="black" /><polyline fill="none" points="575.4039,50.2564 575.7966,51.448 576.5613,53.4564 577.5452,55.8403 578.3984,57.7608 578.9681,58.7767" stroke="black" /><polyline fill="none" points="578.631,80.3768 578.9428,79.4301 579.3021,77.4475 579.8641,74.1871 580.65,69.9136 581.746,65.1562 583.2381,60.6205 584.7051,56.9665 585.5738,54.2802 585.9101,52.5841 585.825,51.6581" stroke="black" /><polyline fill="none" points="617.4078,52.734 616.9636,53.7244 616.0322,55.3965 614.5261,57.5516 612.8004,59.4855 611.2975,60.6707 610.0626,60.8429 609.2061,59.8922 608.8602,57.8632 608.8466,55.3503 609.3845,52.7291 610.736,50.6617 612.5475,49.4334 614.6201,49.2641 616.4692,49.9756 617.6102,51.5004 618.0441,53.5738 617.9702,55.91 617.9635,57.8938 618.2233,59.3053 618.5296,59.9676" stroke="black" /><polyline fill="none" points="623.5463,49.4924 623.5206,50.5945 623.3152,52.6878 623.0198,55.3098 622.6807,57.8435 622.4984,59.6063 622.5841,60.3339 623.0042,59.9606 623.538,58.5076 624.2297,55.9972 625.0327,53.2005 625.7689,50.58 626.5684,48.7972 627.5188,48.0069 628.4654,48.3628 629.4965,49.821 630.4585,52.1387 631.2878,54.6102 632.0085,56.5964 632.4902,57.5679" stroke="black" /><polyline fill="none" points="643.3692,47.3548 642.7316,46.8898 641.4328,46.3785 639.7363,46.1523 638.0592,46.7198 637.0186,48.0829 636.5484,50.2635 636.6937,52.9531 637.1257,55.5556 637.6038,57.6071 638.1732,58.7111 639.0555,58.5157 640.1843,57.1088 641.537,54.6887 642.6483,51.9592 643.3389,49.8014 643.6736,48.5902 643.7627,48.304" stroke="black" /><polyline fill="none" points="645.153,41.2551 644.797,42.2458 644.2845,43.8752 643.9254,45.7917 644.227,47.8867 644.946,50.3799 645.6854,53.3581 646.0053,56.5552 645.8198,59.2878 645.3956,60.8955 645.1952,61.49" stroke="black" /><polyline fill="none" points="644.5232,51.5687 644.9893,50.6005 645.4149,48.574 645.5579,45.3784 645.3725,41.5204 645.0111,37.5516 644.8239,34.2226 644.8087,32.1947" stroke="black" /></svg>