<?xml version="1.0" encoding="utf-8" ?>
<svg baseProfile="tiny" height="84px" version="1.2" width="348px" xmlns="http://www.w3.org/2000/svg" xmlns:ev="http://www.w3.org/2001/xml-events" xmlns:xlink="http://www.w3.org/1999/xlink"><defs /><rect fill="white" height="100%" width="100%" x="0" y="0" /><polyline fill="none" points="20.0,22.0" stroke="black" /><polyline fill="none" points="32.9993,38.7116 32.7085,40.1341 32.0436,42.4529 31.0729,45.1451 29.8913,47.2938 28.7475,48.2256 27.7543,47.7182 27.0636,45.9774 26.7141,43.2158 26.9625,39.8981 27.7165,36.7766 28.9242,34.4365 30.2649,33.4166 31.5622,33.7278 32.4569,34.6841 32.9814,35.5876" stroke="black" /><polyline fill="none" points="33.2343,35.3821 33.1625,36.462 33.264,38.4926 33.478,41.1109 33.9292,43.4739 34.5962,44.8366 35.5147,44.9564 36.7735,43.638 38.3774,41.3617 40.0388,38.7909 41.53,36.5343 42.844,35.0859 43.8459,34.9221 44.6343,35.9989 45.0776,38.0335 45.3129,40.3847 45.2939,42.309 45.4261,43.0093 45.8366,42.0854 46.7056,39.9942 47.8605,37.417 49.0579,35.1155 50.1521,33.9971 50.9114,34.4051 51.4737,36.116 52.1265,38.6689 52.7619,41.147 53.5148,42.8713 54.6096,43.1825 55.7857,42.1602 57.1446,40.6204 58.5727,39.3799 59.8882,39.1713 61.0507,39.959 61.9092,40.9429 62.3684,41.6101" stroke="black" /><polyline fill="none" points="62.7378,41.8527 63.4333,42.0497 64.6054,41.7741 66.0863,40.5683 67.264,38.3566 67.5998,35.6281 67.2156,33.3241 66.068,31.9661 64.3824,31.9195 62.6297,33.2308 61.0991,35.4646 60.1884,38.1024 59.9708,40.4946 60.4669,41.9565 61.5074,42.2079 63.0198,41.1013 64.6174,38.9267 66.0709,36.47 67.0107,34.5009 67.4393,33.462" stroke="black" /><polyline fill="none" points="67.6032,32.642 67.9081,31.6488 68.2453,30.565 68.5092,29.7261" stroke="black" /><polyline fill="none" points="68.8876,26.0587 68.815,27.5309 68.8495,30.3122 69.017,34.0087 69.505,37.7739 70.4468,40.9034 71.8125,42.9184 73.5146,43.6345 75.3586,43.3802 76.7938,42.658 77.6627,41.9838" stroke="black" /><polyline fill="none" points="102.5305,30.5377 101.4718,31.2111 100.1437,32.8375 99.01,35.3501 98.6073,38.2219 98.9348,40.6307 99.9358,41.8714 101.2402,41.8911 102.9756,40.3025 104.8638,37.5151 106.5954,34.244 107.9,31.4297 108.676,29.6733 108.9194,29.1141" stroke="black" /><polyline fill="none" points="109.252,27.3473 109.6034,26.2879 109.8894,24.7898 109.9218,23.4846 109.6643,23.2097 109.2876,24.4731 109.0417,27.2213 109.0382,31.0171 109.2782,35.0634 109.5938,38.4977 109.9977,40.7119 110.5726,41.4098 111.3541,40.5513 112.364,38.4892 113.6497,35.7774 115.022,33.2372 116.1966,31.5824 117.1536,31.3076 117.6837,32.2993 117.8733,34.3244 117.9023,36.8151 118.1747,39.1513 118.7866,40.644 120.0508,40.8308 121.6703,39.8188 123.3844,38.2947 124.7747,37.0566 125.7003,36.6826 126.1854,37.5632 126.6563,39.2292 127.3123,40.8203 128.3071,41.7578 129.5461,41.5412 130.9491,39.8975 132.4238,37.3762 133.6402,34.5675 134.3478,31.917 134.24,29.988 133.272,29.0742 131.6801,29.3127 130.0645,30.5902 128.7962,32.1623 128.1274,33.406" stroke="black" /><polyline fill="none" points="133.3866,34.7604 133.7654,35.964 134.2063,37.9608 134.6275,40.2498 135.0307,42.0466 135.6403,42.6917 136.532,41.9781 137.7247,40.0059 139.0671,37.1893 140.4883,34.2159 141.7314,31.8356 142.8634,30.5124 143.8102,30.4786 144.5789,31.6452 145.1852,33.8594 145.6624,36.6384 145.8449,39.1574 146.0835,40.7493 146.4434,41.0431 146.9366,40.0255 147.878,37.8792 149.1314,35.2579 150.3036,32.7555 151.3782,31.1196 152.0296,30.8132 152.2193,32.0286 152.2554,34.2278 152.2087,36.7232 152.3118,38.779 152.7945,39.8243 153.8863,39.4778 155.5066,38.276 157.3286,36.8591 158.7639,35.732 159.6674,35.2075" stroke="black" /><polyline fill="none" points="162.6885,40.434 162.0198,40.2606 161.1329,39.2279 160.3982,37.1862 160.5142,34.3829 161.3816,31.6591 162.9508,29.6381 164.7129,28.6804 166.1386,28.8191 166.9026,29.9101 166.9316,31.9959 166.1626,34.6755 165.0636,37.3378 164.0221,39.3006 163.3801,40.3655" stroke="black" /><polyline fill="none" points="160.5367,37.9873 161.2818,38.5734 162.8933,39.8645 165.1065,42.0796 167.2811,45.0942 168.6844,48.5239 168.9339,51.9117 168.157,54.6677 166.8352,56.395 165.3519,56.9557 164.0161,56.2293 163.0568,54.442 162.7648,51.7907 163.5331,48.4912 165.3505,44.9743 167.7532,41.712 170.1392,38.9947 171.8415,37.2816 172.7033,36.494" stroke="black" /><polyline fill="none" points="173.3194,35.6205 174.0354,34.7281 175.2927,32.9796 176.8123,30.7718 178.027,28.7476 178.5005,27.2125 177.9075,26.6295 176.6574,26.872 175.1914,28.1149 173.9239,30.3069 173.2794,33.1559 173.2539,35.9915 174.0091,38.3609 175.6387,39.7394 177.986,40.0484 180.5216,39.3208 182.7634,38.1434 184.1986,37.0163 184.8438,36.4067" stroke="black" /><polyline fill="none" points="197.9772,39.8633 198.134,39.942 198.271,39.5033 198.3239,38.1209 198.2934,35.4027 198.4528,31.673 198.606,27.4377 198.7662,23.5182 198.8231,20.5794 198.7579,18.9261 198.6532,18.2621" stroke="black" /><polyline fill="none" points="194.9862,32.4841 195.6549,32.6574 196.9073,32.6551 198.7923,32.0441 201.0853,30.2688 203.447,27.5657 205.377,24.6365 206.8833,22.2145 207.7987,20.8668 208.2098,20.7653 208.2318,21.7254 207.9497,24.0963 207.4406,27.696 206.9865,31.7729 206.7767,35.5057 206.7505,38.1263 206.9686,39.1881 207.4358,38.7667 208.3078,37.1308 209.4919,34.8175 210.8351,32.6208 211.9867,31.2078 212.9241,31.0227 213.5581,32.261 214.0833,34.5941 214.7148,37.4141 215.6937,39.9213 217.1862,41.3337 219.142,41.2496 221.4067,39.8304 223.5454,37.4069 225.1021,34.5769 225.9467,32.095 225.8846,30.4921 225.2041,29.9272 224.3328,30.5636 223.5127,32.2216 223.0565,34.4389 222.991,36.4293 223.0216,37.7306" stroke="black" /><polyline fill="none" points="223.0719,38.942 223.7059,39.7754 225.0032,40.4915 226.7266,40.5358 228.3272,39.8286 229.4048,38.8504 229.9066,38.1738" stroke="black" /><polyline fill="none" points="247.6163,34.4746 247.2934,33.761 247.4211,32.3613 248.2302,30.5269 249.871,28.8429 251.7544,27.8018 253.5172,27.8689 254.7396,29.412 255.4365,32.0634 255.6773,35.1101 255.6849,37.8678 255.662,39.5266 255.7793,39.785 256.1394,38.8642 256.9603,36.814 258.2712,34.1005 259.8184,31.5242 261.2805,29.611 262.5014,28.9022 263.1772,29.5938 263.3936,31.4402 263.2934,33.8882 263.1396,36.2891 263.1238,37.8589 263.5073,38.3284 264.2959,37.5833 265.5555,35.8726 267.0782,33.7153 268.8184,31.7974 270.3993,30.5727 271.4233,30.3569 271.7935,31.4219 271.813,33.3564 271.4852,35.6037 271.437,37.6689 271.8701,38.9324 272.9642,38.8261 274.6089,38.015 276.397,36.8659 277.7692,35.9452 278.6175,36.1579 278.9789,37.4891 279.0544,39.3063 279.3662,41.0581 280.101,41.8852 281.4291,41.271 283.0432,39.361 284.4778,36.6018 285.335,33.9167 285.399,31.9011 284.5735,31.0417 283.2557,31.4149 281.8804,32.69 280.8074,34.1487 280.3773,35.3649" stroke="black" /><polyline fill="none" points="290.5151,29.3423 290.6765,30.3064 290.7504,32.3008 290.6824,35.0632 290.4239,37.8122 290.2827,39.8074 290.4213,40.406 291.0318,39.6467 292.115,37.947 293.4156,35.8795 294.8123,34.1349 296.1537,33.33 297.1084,33.8271 297.7675,35.4686 298.2352,37.6915 298.8054,39.7308 299.8379,40.8683 301.4086,40.6943 303.303,39.2223 305.2543,37.0382 306.8723,34.7864 307.7468,32.9858 307.839,32.0312 307.3128,32.3171 306.5715,33.4135 305.9878,34.8037 305.7687,35.956" stroke="black" /><polyline fill="none" points="305.2778,37.8212 305.5188,39.0461 306.0842,40.6049 307.1939,41.7629 308.915,41.7693 311.0466,40.447 313.097,38.4338 314.6151,36.6057 315.3784,35.4574" stroke="black" /><polyline fill="none" points="316.3868,33.1677 315.9936,34.3689 315.7178,36.4357 315.7215,38.9279 316.257,41.02 317.3187,42.2189 319.0248,42.1883 321.3092,40.8818 323.7756,38.6402 325.9387,36.2025 327.3622,34.2791 328.0106,33.3151" stroke="black" /><polyline fill="none" points="320.033,64.0134 320.9828,64.4348 322.4329,64.7618 324.2225,64.4477 325.9264,63.1647 327.1238,60.6608 327.8708,57.021 328.1658,52.4225 327.926,47.3641 327.62,42.2591 327.6085,37.819 327.9341,34.5218 328.3737,32.4447" stroke="black" /></svg>