<?xml version="1.0" encoding="utf-8" ?>
<svg baseProfile="tiny" height="82px" version="1.2" width="562px" xmlns="http://www.w3.org/2000/svg" xmlns:ev="http://www.w3.org/2001/xml-events" xmlns:xlink="http://www.w3.org/1999/xlink"><defs /><rect fill="white" height="100%" width="100%" x="0" y="0" /><polyline fill="none" points="20.0,20.0" stroke="black" /><polyline fill="none" points="45.4246,41.7994 45.6101,42.5489 45.6743,44.0326 45.4062,46.3035 44.5162,49.1102 43.1091,51.9781 41.4739,54.2628 39.6231,55.5631 37.8153,55.8483 35.9321,55.0981 34.0295,53.641 32.4401,51.5624 31.2599,48.9302 30.5603,45.7662 30.4663,42.3262 30.8874,38.7543 31.9556,35.5655 33.7978,33.0865 36.1559,31.3715 39.0047,30.3504 41.8014,30.0146 44.2582,30.1833 45.9675,30.6081 46.9216,31.0065" stroke="black" /><polyline fill="none" points="37.9675,43.3001 38.6795,43.4693 40.2384,43.5681 42.3806,43.4388 44.5863,43.0484 46.2954,42.6009 47.3353,42.6904 47.9501,43.6167 48.5684,45.5333 48.9907,48.0447 49.2507,50.6549 49.3099,52.8225 49.2301,54.2159 49.1284,54.8081" stroke="black" /><polyline fill="none" points="45.5686,46.2048 45.993,47.0656 46.6519,48.7453 47.4193,50.9407 48.1631,53.1368 48.7514,54.8184 49.058,55.6825" stroke="black" /><polyline fill="none" points="49.8499,48.4221 50.232,48.6003 51.1822,48.8572 52.9441,48.6204 55.0937,47.9015 57.0872,46.6444 58.2699,45.0559 58.5572,43.4918 57.8456,42.4738 56.6756,41.9399 55.4091,42.1867 54.3301,43.2537 53.7219,45.1566 53.713,47.4205 54.3219,49.856 55.698,51.8934 57.7075,52.9467 59.8764,52.9345 61.9063,52.1481 63.229,50.5086 63.8524,48.2987 63.8835,45.9871 63.569,43.9679 63.2941,42.5371 63.3716,41.9219 63.7327,42.195 64.5609,43.1627 65.3205,45.0754 66.0504,47.6255 66.7313,50.1063 67.4025,52.2336 67.7233,53.616 67.8775,54.0834 67.7284,53.8045 67.4402,52.7514 67.1908,51.3906 67.0453,50.3807 66.8892,49.8426" stroke="black" /><polyline fill="none" points="65.834,45.7451 66.3686,44.5987 67.2207,42.9956 68.427,41.4065 69.6723,40.3821 70.8694,40.1843 72.1636,40.9506 73.8147,42.6975 75.6068,45.2894 77.4825,48.3505 79.3243,51.0353 81.0691,52.7561 82.5773,53.5873 84.1336,53.5919 85.7297,52.4636 87.19,50.6789 88.3521,48.3364 88.867,45.6107 88.5167,43.1445 87.5705,41.3076 86.2162,40.0713 84.8904,39.8718 83.6851,40.6357 82.852,42.0732 82.7202,44.1518 83.2093,46.5199 84.0939,48.6885 85.2247,50.3789 86.1006,51.3689 86.607,51.7794" stroke="black" /><polyline fill="none" points="86.8878,51.701 87.7738,52.1955 89.4372,52.6688 91.7221,52.5828 93.9666,51.8848 95.9448,50.9347 97.2188,50.0982 97.8656,49.6089" stroke="black" /><polyline fill="none" points="97.3822,43.1379 97.7562,43.8822 98.1751,45.4034 98.7724,47.4149 99.4581,49.2117 99.9361,50.3069 100.3456,50.6258" stroke="black" /><polyline fill="none" points="101.319,51.731 100.7788,50.9441 99.9155,49.5529 98.8889,47.3645 98.045,44.959 97.4119,42.5005 97.2178,40.5723 97.7752,39.4017 99.0608,38.9893 101.1846,39.0491 103.8186,39.6609 106.5271,40.4121 108.6702,41.1788 110.0751,41.6827 110.6693,41.8551" stroke="black" /><polyline fill="none" points="122.5354,43.7944 122.4973,44.1255 122.1506,45.2432 121.3978,47.0322 119.8529,49.173 117.6839,50.9064 115.3777,51.9362 113.4795,52.3653 111.9429,52.2187 110.8333,51.3058 109.9381,49.609 109.5248,47.4275 109.7647,44.9923 110.9365,43.0032 112.7108,41.4928 114.9501,40.6063 117.3195,40.1643 119.3542,40.4152 121.0948,41.1222 122.3134,42.5743 122.647,44.428 122.7802,46.7115 122.893,49.1135 123.0962,51.3715 123.8494,53.0486 124.6559,54.0876 125.1126,54.4052" stroke="black" /><polyline fill="none" points="126.6811,29.8402 126.7634,30.2623 126.8434,31.4627 127.1554,33.3876 127.6829,36.297 128.3443,39.7922 129.0587,43.4982 129.7437,46.9927 130.1031,49.7888 130.3111,51.3629 130.3553,52.1162" stroke="black" /><polyline fill="none" points="144.7165,31.4693 144.8797,32.2665 145.2521,33.8125 145.9355,36.3876 146.8032,39.6649 147.6716,42.9658 148.4131,45.9401 148.7367,48.2891 148.7747,49.6793 148.7246,50.4352" stroke="black" /><polyline fill="none" points="144.1752,35.8226 144.9405,35.3537 146.4285,34.5821 148.7718,34.0464 151.815,34.1047 155.2094,34.9315 158.5041,36.4213 161.4594,38.439 163.5953,40.6678 164.769,43.0643 165.1562,45.1523 165.0306,46.594 164.4341,47.1998 163.0485,47.4028 161.0922,47.4327 158.6622,47.3812 156.5378,47.2978 155.2374,47.1683 154.8094,47.0385" stroke="black" /><polyline fill="none" points="158.3648,49.4407 158.6246,49.4572 159.4441,49.2461 160.9634,48.7566 163.5078,47.8146 166.5876,46.6222 169.7807,45.2617 172.6688,43.9566 174.7539,42.6028 175.7781,41.2544 176.0261,39.9743 175.5343,39.2332 174.5421,39.166 173.5273,39.9955 172.6273,41.5763 172.237,43.6855 172.3969,46.0862 173.1217,48.4478 174.3507,50.277 175.9589,51.3177 177.8432,51.2426 179.8756,50.5504 181.505,49.7749 182.481,49.2531" stroke="black" /><polyline fill="none" points="214.3446,40.9311 214.576,41.6321 214.7363,43.184 214.7936,45.2809 214.4791,47.5767 213.7079,49.5549 212.4697,50.8384 210.5722,51.2911 208.1809,50.932 205.7161,49.6083 203.5637,47.6393 201.9698,45.3957 201.3583,42.8659 201.3956,39.9175 201.9697,36.7658 203.1321,33.5744 204.729,30.7484 206.7044,28.8317 209.0583,27.8242 211.3177,27.6681 213.1002,28.1853 214.3212,28.8593 214.8301,29.3641" stroke="black" /><polyline fill="none" points="214.888,43.5571 215.1971,44.5154 215.737,46.1512 216.5896,48.0142 217.4071,49.4537 218.0651,50.2374" stroke="black" /><polyline fill="none" points="231.389,38.2252 230.689,37.6313 229.3719,36.8892 227.4918,36.2568 225.3229,36.2689 223.5909,36.7407 222.354,38.0713 221.7746,40.1621 221.8212,42.7309 222.1277,45.3163 222.5926,47.6615 223.5795,49.2614 224.9189,49.9558 226.7745,49.6928 228.7456,48.4836 230.5319,46.5484 231.6743,44.3479 232.1889,42.4711 232.2241,41.1733 232.1112,40.4926" stroke="black" /><polyline fill="none" points="232.2294,43.9555 232.5309,44.6311 233.1108,46.0064 233.7965,47.8032 234.4829,49.6236 235.2455,50.7817 236.5007,50.9832 237.8964,50.2848 239.6694,48.7273 241.4192,46.3216 242.8544,43.6179 243.7227,40.8826 244.2977,38.6269 244.3553,37.2813 244.3156,36.6929" stroke="black" /><polyline fill="none" points="244.0409,42.1707 244.2061,43.0386 244.6708,44.5114 245.1916,46.3128 245.5927,48.0467 246.1368,48.9749 246.9666,49.1409 248.1324,48.661 249.8438,47.4353 251.4651,45.5047 252.6782,43.3022 253.3735,41.1375 253.708,39.5722 253.7594,38.8634" stroke="black" /><polyline fill="none" points="253.1894,43.0289 253.5412,43.8209 253.8129,45.1339 254.0164,46.5431 254.1122,47.4601 254.4963,47.709 254.9343,47.3433 255.3003,46.9325" stroke="black" /><polyline fill="none" points="257.4411,48.4773 257.2733,47.5152 257.062,45.8232 256.8505,43.2589 256.6909,40.0094 256.5891,36.2867 256.5077,32.4455 256.6257,28.9997 256.8638,26.4939 257.1302,25.0247 257.3255,24.4063" stroke="black" /><polyline fill="none" points="263.4996,27.7272 263.7323,28.4754 263.8003,30.1005 263.8737,32.7865 263.8512,36.2768 263.9504,39.9052 264.3507,43.3368 265.0623,46.0761 265.676,47.8278 266.2195,48.7325" stroke="black" /><polyline fill="none" points="264.9558,45.6311 265.6481,45.9422 267.1256,46.5149 269.4252,46.9708 272.2271,46.8235 275.1339,46.2017 277.5298,45.0044 279.206,43.3552 279.8856,41.4739 279.8818,39.6112 279.3432,38.0226 278.2114,37.1575 276.7015,37.1281 275.1684,37.9717 273.7901,39.3062 273.0392,41.1659 273.1023,43.4749 273.9194,45.7633 275.3714,47.9872 277.2136,49.8232 279.1281,50.8555 280.8697,50.7371 282.3277,49.7305 283.6569,48.3266 284.7359,47.2596 285.4063,46.7697" stroke="black" /><polyline fill="none" points="284.6742,22.5741 284.994,23.0605 285.321,23.8061 285.5543,24.5778" stroke="black" /><polyline fill="none" points="295.4635,47.2258 295.7336,47.6192 296.6247,48.3022 298.3862,48.9143 300.5413,49.2562 302.6579,49.0569 304.1891,48.1426 304.7447,46.9013 304.5227,45.6813 303.4499,44.3902 301.4144,43.2433 299.005,42.2245 296.6957,41.4152 295.0016,40.6834 294.248,39.8552 294.3585,38.7204 295.1241,37.4026 296.0612,36.3159 296.8716,35.775" stroke="black" /><polyline fill="none" points="331.3386,38.1575 331.8595,38.2376 333.0746,38.6995 334.9217,39.8516 336.8562,41.6143 338.4241,43.7643 339.2169,46.0298 339.385,47.8643 339.0453,49.2412 338.1509,50.1617 336.3871,50.3278 334.1588,49.8935 331.5354,48.8099 329.1768,47.0588 327.7681,44.6922 327.3445,42.1337 327.8659,39.6436 329.0422,37.8195 330.7357,36.8064 332.7378,36.7281 334.8496,37.2127 336.6157,37.9897 337.8908,38.9216 338.4082,39.7327 338.5166,40.2485" stroke="black" /><polyline fill="none" points="342.2967,46.5587 342.3102,47.0534 342.7217,47.443 343.9763,47.621 346.4024,47.5311 349.6691,47.1352 353.3153,46.8234 356.7756,46.6109 359.3164,46.3999 360.7752,46.2893 361.3891,46.3197" stroke="black" /><polyline fill="none" points="354.518,29.5778 354.6898,28.96 354.797,27.7074 354.7742,26.0104 354.4483,24.4395 353.6896,23.4227 352.833,23.1396 352.0512,23.8684 351.3378,25.3733 350.859,27.6972 350.6862,30.8615 350.6498,34.7059 351.2459,39.2639 352.3033,44.3045 353.6657,49.2896 355.2489,53.7263 356.8795,57.3129 358.1756,59.8712 359.2377,61.6342 359.785,62.6802 359.9399,63.1712" stroke="black" /><polyline fill="none" points="358.9718,45.8671 359.7467,45.7516 361.366,45.4715 363.4069,45.0856 365.4522,44.8646 366.8672,44.8731 367.6473,44.9461" stroke="black" /><polyline fill="none" points="368.2495,60.9398 368.1169,60.4011 367.7261,59.0442 367.0765,56.8455 366.051,53.8319 364.7915,50.0229 363.4917,45.602 362.3046,40.9894 361.4505,36.4856 361.2264,32.6012 361.4681,29.3642 362.2493,26.8907 363.4059,25.2085 364.5869,24.4217 365.7688,24.5309 366.8765,25.373 367.6562,26.2949 368.1716,27.0353" stroke="black" /><polyline fill="none" points="374.23,39.06 374.3698,39.8579 374.6295,41.5957 374.9085,44.0403 375.0519,46.7008 375.229,48.8652 375.5759,50.3412 376.0161,50.9186 376.6917,50.6172 377.3269,49.7039 377.701,48.7269 377.7989,47.9933" stroke="black" /><polyline fill="none" points="376.2743,35.3494 376.6132,35.6703" stroke="black" /><polyline fill="none" points="388.0783,44.5055 388.4705,44.1883 388.9944,43.5138 389.1506,42.3305 388.8109,41.1137 387.8133,39.9856 386.2689,39.5562 384.7477,39.9751 383.3878,41.1205 382.4892,42.7484 382.3848,44.9677 383.0586,47.1893 384.2291,49.468 385.8579,51.2627 387.7508,52.3663 389.9478,52.5185 392.1426,51.7275 394.0703,49.7885 395.5819,47.295 396.4516,44.6068 396.8636,42.4262 396.9669,41.0322 396.9273,40.4438" stroke="black" /><polyline fill="none" points="396.4087,43.9006 396.7063,44.4347 397.1377,45.5547 397.6808,47.3083 398.2074,49.3217 398.7028,51.053 399.364,51.9545 400.1951,52.1676 400.8255,51.9382" stroke="black" /><polyline fill="none" points="415.227,42.2544 414.6702,41.7273 413.5154,40.8864 411.8181,40.0368 409.7344,39.7165 407.6732,40.2208 405.99,41.6109 404.8921,43.7158 404.4617,46.0855 405.0477,48.5453 406.4041,50.7246 408.3315,52.2281 410.5159,52.7815 412.6714,52.2746 414.4195,50.6706 415.8772,48.7916 416.825,47.233 417.2723,46.3484" stroke="black" /><polyline fill="none" points="417.6261,41.1749 417.5657,41.5538 417.5666,42.4498 417.5907,44.194 417.7978,46.5934 418.1226,48.9896 418.2939,50.9419 418.47,52.2104 418.5529,52.6561" stroke="black" /><polyline fill="none" points="421.1925,25.8689 421.2812,26.5267 421.4122,27.8671 421.7116,30.1933 422.0903,33.6962 422.4399,37.8601 422.6526,42.1929 422.7831,46.1034 422.8884,49.0951 423.0852,51.1175 423.2855,52.4089 423.443,52.994" stroke="black" /><polyline fill="none" points="441.1036,39.1891 441.3808,39.8418 441.7054,41.3655 442.2181,43.733 442.7405,46.4539 443.5124,48.8143 444.3121,50.4665 444.9185,51.0866 445.3316,50.6744 445.7209,49.3905 446.0458,47.4718 446.4871,45.5026 446.9726,44.2868 447.5781,44.0109 448.4992,44.9289 449.653,46.595 450.9571,48.5872 452.0689,50.4431 453.0168,51.4783 453.8872,51.4073 454.6664,50.5843 455.2039,48.6833 455.4668,46.2239 455.5112,43.5347 455.4855,40.871 455.597,38.9109 455.7133,37.9881" stroke="black" /><polyline fill="none" points="454.6061,44.927 454.7755,45.0874" stroke="black" /><polyline fill="none" points="455.4668,46.2239 456.1846,46.6051 457.6131,47.1084 459.8802,47.2351 462.5578,46.8553 465.1677,45.7229 467.2999,44.3678 468.724,42.9849 469.0662,41.7023 468.5818,40.3715 467.2392,39.5594 465.5351,39.323 463.9438,39.7673 462.8706,41.0464 462.2873,42.9958 462.2345,45.3787 462.4238,47.9908 463.0766,50.3073 464.2074,51.9976 465.9787,52.9631 468.147,52.9274 470.3896,52.1588 472.3843,50.9489 473.8626,49.8238 474.6482,49.2364" stroke="black" /><polyline fill="none" points="474.28,28.0018 474.2548,28.8042 474.3266,30.5706 474.5721,33.5113 475.0527,37.2944 475.5718,41.6188 476.0818,45.6132 476.4999,48.8321 476.9648,51.1773 477.4053,52.6272 477.8016,53.3237" stroke="black" /><polyline fill="none" points="488.7466,39.6788 487.8403,39.3028 486.4169,38.988 484.6059,39.1554 483.006,40.1423 481.7393,42.1104 481.0778,44.6514 480.7933,47.1821 481.1366,49.3892 482.1535,51.2241 484.0235,52.352 486.2302,52.8576 488.6347,52.839 490.417,52.4837 491.4453,52.1491" stroke="black" /><polyline fill="none" points="499.4916,42.8748 499.2431,42.41 498.515,41.6518 497.0846,41.0779 495.3601,40.9599 493.9625,41.5876 493.0778,42.8615 492.844,44.6599 492.8955,46.5448 493.2852,48.727 494.0991,50.8976 495.4739,52.8878 497.3529,54.3455 499.4176,54.8314 501.1476,54.2889 502.4584,53.0742 503.1405,51.2871 503.2233,49.1391 502.9297,47.025 502.4547,45.1753 501.9742,43.9859 501.5837,43.5014" stroke="black" /><polyline fill="none" points="505.9317,41.2604 506.3826,41.366 506.8954,42.0122 507.5748,43.5734 508.2518,45.9128 508.911,48.4649 509.4854,50.5006 510.1767,51.6371 510.6053,51.7904 510.8203,51.03 511.0357,49.4207 511.3508,47.1485 511.6169,44.8069 512.0163,43.0276 512.6745,42.09 513.4501,41.9981 514.5813,42.8396 515.8248,44.3382 516.8246,46.4094 517.3741,48.3986 517.9056,49.7281 518.3145,50.0235 518.6525,49.4483 518.7978,47.8646 518.9029,45.6688 518.9072,43.2401 519.1358,41.2532 519.6449,40.0367 520.3237,39.8531 520.9072,40.4974 521.6839,42.1739 522.6246,44.6711 523.6463,47.5434 524.7296,50.0839 525.9757,51.6768 527.1431,52.1165 528.7578,51.6715 530.6157,50.6304 532.6059,49.2555 534.3247,47.4401 535.6072,45.1887 535.8433,42.6121 535.4006,40.2191 534.2881,38.3396 532.8016,37.4371 531.4089,37.3809 530.2553,38.3084 529.4247,39.8401 529.2458,41.92 529.7598,44.3346 530.6801,46.9503 532.2315,49.3601 534.1005,51.3132 536.1544,52.271 538.3024,52.3537 540.5114,52.0811 542.2014,51.7992 543.3539,51.6969" stroke="black" /></svg>