<?xml version="1.0" encoding="utf-8" ?>
<svg baseProfile="tiny" height="134px" version="1.2" width="618px" xmlns="http://www.w3.org/2000/svg" xmlns:ev="http://www.w3.org/2001/xml-events" xmlns:xlink="http://www.w3.org/1999/xlink"><defs /><rect fill="white" height="100%" width="100%" x="0" y="0" /><polyline fill="none" points="20.0,20.0" stroke="black" /><polyline fill="none" points="41.076,77.6461 40.0743,77.2757 38.5043,76.7907 36.5429,76.5291 34.3317,76.9767 31.905,78.3617 29.5319,80.7777 27.3925,83.4355 26.0066,86.0705 25.7002,87.9537 26.3025,89.0229 27.7669,89.225 30.2871,88.2976 33.402,86.3842 36.6822,84.2567 39.5721,81.9768 41.2999,80.1925 41.9515,79.1102 42.0713,78.467" stroke="black" /><polyline fill="none" points="38.3624,75.2272 37.4664,75.1399 36.6053,75.6313 36.2668,76.5349 37.1288,77.4719 38.747,77.9853 40.1969,78.036 41.1154,77.7992" stroke="black" /><polyline fill="none" points="38.1208,87.7146 39.0159,86.3735 40.5725,84.5272 42.3925,82.4987 43.8217,81.0444 44.7018,80.2787" stroke="black" /><polyline fill="none" points="47.3104,78.0795 48.1518,77.5115 49.1549,76.7794 50.0032,76.1116" stroke="black" /><polyline fill="none" points="39.0896,86.7545 39.8457,86.331 41.3248,84.8802 43.4787,82.3737 45.7884,79.427 48.0067,77.0754 50.0988,75.8176 51.9383,75.6698 53.2115,76.46 53.5761,78.064 53.0831,80.1096 52.3181,82.462 51.8483,84.5342 52.1925,85.7109 53.4127,85.8207 55.5751,84.9938 58.5463,83.346 61.7947,81.3166 64.6655,79.311 66.4379,77.605 66.9717,76.4142 66.3528,75.9452 64.6258,76.2762 62.2054,77.2105 59.9387,78.4562 58.31,79.8966 57.8603,81.3187 58.1367,82.3904 58.5671,83.0468" stroke="black" /><polyline fill="none" points="59.3925,83.4299 60.328,83.6704 61.6892,83.9153 63.0306,84.0838 63.9069,84.0946" stroke="black" /><polyline fill="none" points="86.0853,90.197 86.2648,89.0568 86.9927,86.8772 88.4272,83.5439 90.5476,79.3562 92.9174,75.1859 95.2026,71.5108 97.1923,68.8426 98.9515,67.6869 100.2639,67.5526 101.1246,67.7879" stroke="black" /><polyline fill="none" points="87.6675,81.1356 89.1579,80.9636 91.6555,80.3604 94.6693,79.5425 97.2435,78.9196 98.887,78.7081 99.5731,78.9312" stroke="black" /><polyline fill="none" points="98.8315,79.5061 98.2087,79.8136 97.3785,80.5829 96.9392,81.8554 97.4888,83.3219 99.172,84.341 101.7991,84.3983 104.621,83.8177 106.9213,82.4491 108.2216,80.6851 108.5262,78.8269 107.7893,77.172 106.3554,76.1702 104.4335,76.0616 102.5077,76.7296 100.9635,77.6747 100.1848,78.4225" stroke="black" /><polyline fill="none" points="111.8799,80.6889 111.4933,81.5641 110.9263,82.1511 110.9685,81.9035 111.7175,80.5022 112.7435,78.7192 113.6171,77.3265 114.1198,76.5847" stroke="black" /><polyline fill="none" points="113.8267,77.9174 114.987,77.4468 116.3039,76.8868 117.3645,76.4093" stroke="black" /><polyline fill="none" points="133.7557,85.0162 134.0994,84.0377 134.9457,82.3174 136.1665,79.8965 137.3467,77.6982 138.1025,76.1971 138.3059,75.4344" stroke="black" /><polyline fill="none" points="134.5459,83.743 135.3246,82.9953 136.7589,81.4662 138.9031,79.4602 141.5089,77.6618 143.8434,76.521 145.7671,76.6047 146.5671,77.7127 146.4416,79.1574 145.6834,80.3325 144.9719,80.8344 145.0866,80.266 146.3453,79.1006 148.1063,77.92 150.2386,77.1661 151.7882,77.2237 152.3974,78.1932 152.6588,79.8402 153.0407,81.1948 153.7756,81.7972 154.7569,81.7401 155.5629,81.32" stroke="black" /><polyline fill="none" points="156.4392,81.3308 157.7114,80.6926 159.6383,79.6488 161.844,78.1984 163.3979,76.7528 163.8157,75.4287 163.0697,74.6251 161.33,74.7798 159.0145,75.6462 156.9206,76.929 155.604,78.5665 155.2686,80.1469 155.9439,81.2463 157.2472,81.9634 159.7265,81.9854 162.9989,81.411 166.7341,80.6683 169.9335,80.0638 171.9435,79.6272 172.6556,79.4762" stroke="black" /><polyline fill="none" points="181.2323,88.3919 181.4699,87.8571 181.9888,87.2416 182.6254,86.7346" stroke="black" /><polyline fill="none" points="184.0515,65.8599 183.5161,65.2714 183.5803,64.3487 184.3513,63.3498 186.1618,62.8994 188.4346,63.0072 190.6374,63.7618 192.2621,64.9021 193.043,66.2845 192.2612,68.1596 190.381,70.3343 188.1824,72.7625 186.4948,75.0508 185.6821,76.6481 185.6713,77.5244" stroke="black" /><polyline fill="none" points="205.9734,70.9672 206.7085,69.7654 207.8318,67.6634 209.1344,65.1479 210.1511,63.1387 210.6884,61.8981" stroke="black" /><polyline fill="none" points="210.064,69.7982 210.4181,68.6701 211.3125,66.9782 212.4064,65.3002 213.359,64.2137" stroke="black" /><polyline fill="none" points="231.1753,85.1231 230.7433,85.5692 230.2629,86.7135 230.2395,88.4911 231.0125,90.349 232.7972,91.3501 234.893,91.1199 236.9201,89.3564 239.2953,86.1888 241.9429,81.9876 245.0455,77.367 247.983,72.9605 250.4428,69.2976 251.8142,66.5112 252.3055,64.4906 251.6829,62.9939 250.1215,62.3842 247.803,62.5738 245.8557,63.1902 244.562,63.7768" stroke="black" /><polyline fill="none" points="261.1151,79.7872 261.5575,79.1915 261.9725,78.2681 261.9926,77.618 261.1825,77.7371 259.5154,78.6486 257.4413,80.0079 255.6055,81.1833 254.4908,81.3564 254.1369,80.6803 254.6666,79.1886 255.7993,77.3128 256.9768,75.5152 257.6782,74.4364 257.5279,74.0751 256.0458,74.8491 253.8511,76.5008 251.4455,78.664 249.5182,80.4344 248.2252,81.3719 247.7368,81.1876 247.9593,80.1506 249.2011,78.5079 251.5534,76.3911 254.5163,74.1414 257.6115,72.1514 260.2987,70.9851 262.0755,70.6576 263.0145,70.8481" stroke="black" /><polyline fill="none" points="261.977,77.8425 262.6403,77.3122 263.8991,76.1468 266.0508,74.392 268.5731,72.713 271.1906,71.4666 273.327,71.0138 274.2237,71.452 273.8343,72.7279 272.5693,74.344 270.8467,76.0535 269.4099,77.2566 268.6718,77.7817" stroke="black" /><polyline fill="none" points="272.7012,75.3304 273.988,74.8435 276.0471,74.0595 278.2078,73.2575 279.657,72.9573 279.7667,73.5413 279.1941,74.9298 278.4655,76.7585 278.5721,78.4699 279.6783,79.499 281.9442,79.7067 285.1075,78.8992 288.7167,77.4461 291.8531,75.5843 294.2982,73.5742 296.3253,71.8107 297.9152,70.5681 299.5899,69.9077 300.8943,70.249 301.3219,71.3061 301.041,72.4643 300.7506,73.3963" stroke="black" /><polyline fill="none" points="288.975,78.4163 288.2841,77.5414 287.9341,76.0887 288.3685,74.1643 290.0592,72.5529 292.3869,71.5119 294.5233,71.059 295.9464,71.1329" stroke="black" /><polyline fill="none" points="291.651,78.8529 292.5366,79.0899 293.9733,79.691 295.7857,80.2931 297.4514,80.484 298.3211,79.8679 298.2378,78.1832 297.7205,75.892 296.9545,73.9343 296.4177,72.6441" stroke="black" /><polyline fill="none" points="336.4285,70.5893 336.94,70.8003" stroke="black" /><polyline fill="none" points="337.6955,70.0259 337.1874,69.765 336.2585,70.1515 334.6831,71.5455 333.0007,73.7589 331.3328,76.1238 329.9222,78.0304 329.36,79.2693 329.7736,79.4484 330.6821,78.6345 332.4702,76.704 335.0044,73.7729 338.1056,70.2548 341.4087,67.0765 344.5577,64.3135 346.7766,62.3127 348.2744,61.3143 348.9169,61.0833 348.8805,61.607 347.8631,63.2653 346.0618,65.7462 343.7039,68.6644 341.5206,71.5948 339.967,74.1179 339.3759,76.1316 339.5358,77.7966 340.6472,78.7509 342.1615,78.9564 344.0565,78.0107 346.4199,76.0951 348.9734,73.9673 351.2765,72.1979 353.0503,71.1936 353.8303,71.1475 353.5968,71.9833 352.8925,73.4629 352.3026,75.1008 351.9862,76.4069 352.0038,77.2351" stroke="black" /><polyline fill="none" points="356.2041,64.3965 356.8369,64.666 357.4627,65.0352 357.889,65.3906" stroke="black" /><polyline fill="none" points="357.1188,64.9361 358.1408,65.7339 359.6623,66.9172 361.1623,68.0488 362.12,68.6918" stroke="black" /><polyline fill="none" points="365.113,71.0549 364.1529,71.8902 362.4691,73.402 360.2571,75.303 358.1854,76.9882 356.6378,77.9832 355.7881,77.9492 355.9236,77.0816 356.8274,75.6158 358.6196,73.9863 361.436,72.403 364.968,70.6188 368.2859,68.6694 371.1248,66.7618 372.8156,65.1503 373.5565,64.2245" stroke="black" /><polyline fill="none" points="369.1276,69.1789 368.857,70.1875 368.4364,71.9123 368.5471,73.9247 369.2126,75.5246 370.2011,76.4453 371.0403,76.6289" stroke="black" /><polyline fill="none" points="405.3479,74.4283 404.0095,74.9366 402.0338,75.6011 399.9317,76.2819 398.6879,76.872 398.7942,77.5059 400.1751,77.8274 402.2861,78.0995 404.6906,78.1163 406.4013,77.6588 407.0872,76.8044 406.6588,75.3964 405.6898,73.4748 405.0004,71.4973 405.377,70.0451 406.4248,69.3912 407.6467,69.4762 408.4721,69.8593" stroke="black" /><polyline fill="none" points="406.4898,74.5828 406.8511,74.4325" stroke="black" /><polyline fill="none" points="414.088,69.097 414.8566,69.5764 415.6704,70.485 415.8123,72.0485 414.8705,74.0629 413.2268,76.0786 411.4589,77.3589 410.3083,77.3291 409.9502,76.3519 410.5118,74.7622 411.7287,73.1178 413.3754,71.7788 414.6487,70.7648 415.3688,70.1383" stroke="black" /><polyline fill="none" points="412.3965,86.2196 413.4426,85.5907 414.9802,84.0187 416.9276,81.5981 418.7074,79.0656 419.9665,77.1735 420.6077,76.2408" stroke="black" /><polyline fill="none" points="463.1021,70.9007 462.6907,69.97 461.9783,69.0434 460.7452,68.7572 458.8177,69.4501 456.1852,71.2718 453.1724,73.5181 450.4235,75.9331 448.5595,78.2341 447.9332,80.3957 448.3528,81.9284 449.546,82.7882 451.3391,82.5871 453.7728,81.1024 456.5605,78.4896 459.5076,75.3868 462.0099,72.5538 463.6216,70.6361 464.3058,69.8066" stroke="black" /><polyline fill="none" points="462.1654,72.8402 461.8425,73.5194 460.9533,75.1365 459.8039,77.6126 458.5977,80.1849 458.0548,82.227 458.4042,83.3288 459.5704,83.1342 461.5378,81.8677 464.375,79.9851 467.5212,77.6228 470.5641,75.3035 472.9015,73.762 474.2409,72.8778 474.6063,73.0285 474.1182,73.9218 472.6229,75.2461 470.5332,76.8299 468.4441,78.7645 466.7766,80.4027 466.0311,81.7541 466.276,82.1971 467.3591,81.3954 469.0893,79.937 470.8188,78.1277 472.0108,76.4816 472.5325,75.4654 472.5069,75.1128" stroke="black" /><polyline fill="none" points="473.6967,74.2182 474.5439,73.9263 476.4912,73.3099 479.2805,72.4764 482.0965,71.6197 484.6052,71.2178 486.1839,71.5781 486.542,72.5552 485.8488,74.2361 484.2817,76.232 482.5331,78.3156 481.514,79.9989 481.3061,81.1872 481.6507,81.6372" stroke="black" /><polyline fill="none" points="502.8871,68.1286 502.116,69.1274 500.4613,70.9419 497.757,73.4351 494.2995,75.9512 490.6778,78.3055 487.5088,79.9144 485.2733,80.7113 484.1407,80.7829 484.0251,79.9228 484.7844,78.3719 486.685,76.6246 489.6881,74.8789 493.3198,73.1016 497.0246,71.3545 500.4406,69.4369 502.9792,67.8844 504.6678,67.0245 505.5846,66.8126" stroke="black" /><polyline fill="none" points="494.9311,73.7148 494.4894,74.6614 494.067,76.4111 493.9128,78.6306 494.082,80.5218 494.3745,81.7198" stroke="black" /><polyline fill="none" points="495.852,73.8039 496.1537,74.1506 496.4554,74.4973" stroke="black" /><polyline fill="none" points="543.9421,74.8417 543.0671,75.5326 541.5777,77.133 539.8256,79.2665 538.2104,81.234 537.5671,82.9183 538.0034,83.8508 539.5159,84.0812 542.0333,83.5546 544.8677,82.0727 547.4943,79.975 549.9736,78.1928 551.7363,76.9872 552.87,76.5398" stroke="black" /><polyline fill="none" points="548.6511,79.5542 549.5209,78.9381 550.7536,78.1468 551.9296,77.4517 552.6289,77.1245" stroke="black" /><polyline fill="none" points="545.9684,82.0991 546.3327,82.6256 547.2027,83.087 549.1936,82.9247 551.8246,82.2055 554.4258,80.8327 556.9337,79.0024 559.0272,76.6421 560.4132,74.0071 561.6589,71.5879 562.3846,70.1599 562.6205,69.6501" stroke="black" /><polyline fill="none" points="570.3368,77.6038 569.1491,77.7467 567.0023,78.3492 564.2705,79.4373 561.8008,80.719 559.8594,81.6114 559.1844,81.5896 559.5728,80.6894 561.225,78.549 563.5012,75.7253 566.265,72.735 568.9838,70.3931 571.106,69.0622 572.3273,68.7963" stroke="black" /><polyline fill="none" points="572.5162,77.2541 571.9734,77.492 571.0793,78.4573 570.0886,80.0924 569.2998,82.0672 569.1733,83.8877 569.7634,85.1315 571.784,85.6228 575.0838,85.3761 579.0892,84.3515 582.9304,83.1652 586.1818,81.8125 588.4606,80.3923 589.789,79.3069 590.523,78.4809" stroke="black" /><polyline fill="none" points="576.657,84.7337 576.0704,83.44 575.5787,81.5014 575.5746,79.3962 576.4795,77.5547 578.1071,76.4901 580.3131,76.1172 582.2624,76.5534 583.4753,77.4897 583.6027,78.9019 582.4589,80.5764 580.6882,82.2575 579.1412,83.6034 578.1758,84.5136" stroke="black" /><polyline fill="none" points="566.9965,115.5605 567.4648,114.5908 568.3911,112.8008 569.7754,110.1908 571.7568,106.9206 574.4397,102.5715 577.6855,97.3344 581.1301,91.7603 584.3811,86.4484 587.3899,82.097 590.3567,79.0707 593.1672,77.2113 595.8301,76.3941 597.5775,76.4905 598.3113,77.4687 598.0068,79.3269 596.9537,81.8597 595.5306,84.6676 594.3882,87.0439" stroke="black" /></svg>