<?xml version="1.0" encoding="utf-8" ?>
<svg baseProfile="tiny" height="98px" version="1.2" width="468px" xmlns="http://www.w3.org/2000/svg" xmlns:ev="http://www.w3.org/2001/xml-events" xmlns:xlink="http://www.w3.org/1999/xlink"><defs /><rect fill="white" height="100%" width="100%" x="0" y="0" /><polyline fill="none" points="20.0,20.0" stroke="black" /><polyline fill="none" points="34.7407,56.1786 34.7151,55.2902 34.6271,53.8985 34.4222,52.4555 34.1276,51.6652 33.8582,51.8136 34.0972,53.1899 34.5294,55.4393 34.7051,58.273 34.3101,61.2021 33.0989,63.5876 31.5272,65.065 29.9673,65.2185 28.5523,64.1669 27.4155,61.9949 26.8224,58.9899 26.7686,55.6546 27.3655,52.6268 28.5087,50.3579 30.2287,49.1668 32.0911,48.9154 33.7462,49.3492 34.8461,50.0294 35.2607,50.5191" stroke="black" /><polyline fill="none" points="35.279,57.8089 35.7757,58.4837 36.6693,59.7486 37.9982,61.0509 39.3472,61.9847 40.4505,62.2962 41.038,62.1842" stroke="black" /><polyline fill="none" points="42.5677,50.4506 42.8647,50.9728 43.2206,52.4004 43.703,54.667 44.099,57.2178 44.4809,59.4835 45.307,60.7981 46.4798,60.8254 47.7479,59.5631 49.0414,57.3459 49.9873,54.6564 50.5104,52.382 50.9919,51.0122 51.3106,50.9815 51.57,51.9558 51.9867,54.0711 52.6654,56.8757 53.3762,59.8315 54.3086,62.3703 55.2833,63.9375 56.1539,64.0291 56.9498,63.0978 57.5813,61.8299 57.909,60.7939" stroke="black" /><polyline fill="none" points="63.8169,52.3003 63.5846,52.0469 63.3478,52.2961 63.1866,53.451 63.3171,55.7145 63.8286,58.4674 64.8605,61.1244 66.1996,63.1641 67.7165,64.0659 69.0611,63.6255 70.1502,61.7751 71.1135,59.002 71.7275,55.9408 71.9344,53.429 71.9647,51.921 71.8522,51.3838" stroke="black" /><polyline fill="none" points="64.5765,72.2323 65.0697,73.2925 66.1597,75.0786 67.5322,77.1354 69.1934,78.7591 70.966,79.1772 72.4814,78.3696 73.7035,76.6378 74.6143,74.1155 74.8642,70.5483 74.669,66.156 74.076,61.2741 73.213,56.6077 72.3421,52.8126 71.76,50.4612 71.503,49.2188 71.4565,48.7995" stroke="black" /><polyline fill="none" points="86.2551,37.4364 86.5523,37.9418 86.9084,39.3359 87.1526,42.0026 87.2027,45.7568 87.3994,49.9816 87.7164,53.8722 88.1603,56.6916 88.665,58.3384 89.2142,58.7622 89.9089,57.9138 90.7136,56.0106 91.6077,53.4882 92.8686,51.1702 94.1055,49.6563 95.3821,49.3159 96.5812,50.1478 97.5689,52.1341 98.2308,54.9386 98.654,58.1934 98.4772,61.0909 97.7039,63.229 96.2368,64.2548 94.4111,64.1547 92.6277,63.0661 91.3504,61.6135 90.7079,60.3844 90.6134,59.7132" stroke="black" /><polyline fill="none" points="103.7299,56.5297 104.4696,56.2682 105.5666,55.4066 106.6358,53.908 107.0537,52.1522 106.8985,50.7766 106.1313,50.3675 105.1206,50.945 104.2346,52.5793 103.8095,55.1227 103.9331,58.157 104.7624,60.9798 106.1835,63.2213 108.0677,64.2772 110.0277,64.3451 111.6398,63.9741 112.6322,63.5641" stroke="black" /><polyline fill="none" points="118.2456,37.4889 118.6231,38.3637 118.9924,40.1601 119.2673,43.1455 119.4148,47.2525 119.8257,51.8814 120.4383,56.445 121.1078,60.2718 121.5716,62.7394 121.7451,63.9475" stroke="black" /><polyline fill="none" points="115.3209,51.5393 115.8545,51.829 117.3124,51.842 119.4271,51.4756 121.7795,50.7761 123.4964,49.9369 124.4559,49.4595" stroke="black" /><polyline fill="none" points="125.1127,54.6939 126.1884,54.3348 127.919,53.8309 129.9008,53.3459 131.4285,53.0412 132.2506,52.9313" stroke="black" /><polyline fill="none" points="129.3331,36.3148 129.5633,36.8028 129.735,38.212 129.7448,40.8599 129.7603,44.7311 129.7376,49.1215 130.0838,53.4984 130.6038,57.173 131.0175,59.6234 131.1907,60.8651" stroke="black" /><polyline fill="none" points="139.5344,59.1971 139.7679,59.3165" stroke="black" /><polyline fill="none" points="138.1794,57.0567 138.0893,55.8996 138.2726,54.1417 138.658,52.285 139.5898,51.1538 140.8145,50.9972 141.9114,52.0126 142.4476,53.8942 142.1093,56.1033 141.1031,58.0549 140.1864,59.3706 139.5791,59.8176" stroke="black" /><polyline fill="none" points="137.267,56.0263 137.7445,56.969 138.8851,58.7221 140.6085,60.8826 142.6879,62.5938 144.4398,63.4474 145.6279,63.6424" stroke="black" /><polyline fill="none" points="150.1383,52.1534 150.7342,52.9799 151.5241,54.5957 152.2424,56.7137 152.6277,58.594 152.7188,59.6506" stroke="black" /><polyline fill="none" points="152.9912,62.9041 152.9992,62.016 152.9834,60.0384 152.9927,57.1394 153.123,53.8225 153.4848,50.8596 154.1393,48.888 155.3504,48.3794 156.8712,48.8455 158.4543,49.8317 159.7037,50.664 160.4031,51.1563" stroke="black" /><polyline fill="none" points="173.6691,40.6508 173.574,40.0467 173.3176,38.7373 173.0679,36.6906 173.1212,34.479 173.7584,32.5743 175.125,31.5476 176.8838,31.6304 178.6164,32.7687 179.7872,34.8907 180.0789,37.8595 179.5479,41.0052 178.6868,43.595 178.0021,45.1976 177.712,45.7815" stroke="black" /><polyline fill="none" points="176.2929,54.5164 176.2542,55.1026 176.1955,56.0405 176.4387,56.9476 176.8532,57.4373 177.3058,57.4246 177.6604,57.1262" stroke="black" /><polyline fill="none" points="200.9068,28.7625 201.6026,29.657 202.978,31.3954 205.048,34.1455 207.4325,37.3341 209.718,40.3543 211.4896,42.7498 212.5497,44.1335 212.981,44.6234" stroke="black" /><polyline fill="none" points="212.885,62.7881 212.6065,62.0818 212.3347,60.6214 212.3403,58.1245 212.7069,54.6254 213.1483,50.2555 213.612,45.2658 214.1747,40.4614 214.8144,36.3949 215.6958,33.4199 216.5323,31.7014 217.1087,30.9692" stroke="black" /><polyline fill="none" points="228.2113,52.3849 228.6884,53.3779 229.1581,55.192 229.253,57.6898 228.6275,60.1643 227.1862,62.045 225.5021,62.9684 223.9131,62.6357 222.6681,61.3174 221.9518,58.9649 221.7107,55.963 222.0744,52.7823 223.0203,50.076 224.377,48.2951 226.0561,47.9247 227.4576,48.6076 228.2506,49.8716 228.5921,51.0309 228.552,51.7679" stroke="black" /><polyline fill="none" points="227.1515,50.9677 227.4669,51.3057 227.7992,51.6271" stroke="black" /><polyline fill="none" points="235.7977,49.202 235.5852,50.4737 235.4983,52.6849 235.7581,55.4858 236.3378,58.1053 237.2263,59.9399 238.3427,60.6537 239.4208,60.0266 240.4583,58.3266 241.2322,56.1215 241.7365,54.0816 242.0311,52.9949 242.2985,53.0811 242.6555,54.3747 243.3375,56.8107 244.4321,59.9543 245.8464,62.9499 247.3322,65.4434 248.4082,66.9277 248.9213,67.6362" stroke="black" /><polyline fill="none" points="265.3032,31.1169 265.411,32.1736 265.4255,34.2852 265.4792,37.6373 265.6065,42.1295 265.9788,47.3278 266.6859,52.5626 267.9842,57.2833 269.6944,60.9183 271.6829,63.4164 273.6645,64.825 275.1173,65.3911 275.8877,65.4483" stroke="black" /><polyline fill="none" points="268.689,64.6463 268.4127,63.6886 267.9268,61.8074 267.3813,59.1045 267.14,56.1194 267.7353,53.2759 269.1788,51.1438 271.0,49.8866 272.5465,49.3474 273.402,49.2546" stroke="black" /><polyline fill="none" points="272.5349,48.7776 272.6511,48.8959" stroke="black" /><polyline fill="none" points="277.1978,50.1768 277.5078,51.118 277.9429,53.0491 278.5042,55.8527 278.9802,58.8399 279.5459,61.1576 280.1557,62.3026 280.7607,62.1069 281.4946,60.6221 282.2186,58.383 282.6415,56.0742 282.9263,54.2166 283.2703,53.231 283.6046,53.3178 284.0452,54.6456 284.4104,56.8945 284.7049,59.5616 285.0854,61.9782 285.5572,63.5576 285.8869,64.1639" stroke="black" /><polyline fill="none" points="293.6239,51.6649 293.7381,52.0178" stroke="black" /><polyline fill="none" points="293.3003,52.2485 292.795,52.5289 292.0659,53.4775 291.3947,55.4489 291.0858,58.1274 291.2798,60.7769 292.1328,62.829 293.4497,63.6117 295.0808,62.9896 296.718,61.6804 297.9249,59.7808 298.1285,57.6376 297.2752,55.619 295.8987,54.0147 294.7018,52.9314 294.068,52.6073" stroke="black" /><polyline fill="none" points="299.0794,52.5182 299.1375,53.5075 299.5402,55.3209 300.3073,57.6069 301.3611,59.6943 302.5918,60.7444 303.6995,60.5532 304.5293,59.5887 305.1086,58.5214 305.3832,57.8033" stroke="black" /><polyline fill="none" points="304.4298,51.9965 304.4883,52.9522 304.6446,54.2105 304.8353,55.3685 304.997,56.0235" stroke="black" /><polyline fill="none" points="304.6248,52.6853 304.8659,53.827 305.3019,55.6575 306.1534,57.8772 307.2408,59.9482 308.6194,61.318 310.0394,61.8167 311.0827,61.3401 311.5836,59.6688 311.5546,57.3057 311.1389,55.0731 310.6505,53.4767 310.3551,52.787" stroke="black" /><polyline fill="none" points="320.928,39.861 321.3073,40.5515 321.7193,41.326 322.0321,41.9489" stroke="black" /><polyline fill="none" points="321.678,49.6544 321.6012,50.7429 321.6478,53.0224 321.8046,56.0905 322.1791,59.1774 322.7265,61.6624 323.2487,63.2256 323.5453,63.7981" stroke="black" /><polyline fill="none" points="328.2096,37.0272 328.3351,37.9836 328.5023,39.8955 328.7412,43.1487 329.1725,47.3755 329.8847,52.0406 330.6336,56.3541 331.3584,59.6284 331.8441,61.5264 332.0538,62.4332" stroke="black" /><polyline fill="none" points="327.547,51.1147 328.7038,51.0581 330.4632,51.0739 332.222,51.1567 333.377,51.3011" stroke="black" /><polyline fill="none" points="350.2024,49.3909 350.2267,50.4133 350.326,52.4252 350.6863,55.227 351.1805,58.0468 351.9665,60.0983 353.2492,60.9477 354.7769,60.643 356.1809,59.1809 357.2731,56.9954 357.6308,54.4849 357.5321,52.4061 357.3257,51.1306" stroke="black" /><polyline fill="none" points="357.7165,52.4077 358.1265,53.4001 358.9638,55.3348 360.2306,57.9604 361.5653,60.4861 362.9071,62.2242 363.9235,62.8701 364.4137,62.4053 364.5271,60.9651 364.132,58.3138 363.2918,54.8374 362.3542,51.0082 361.5787,47.7837 361.1445,45.7521 361.0847,44.9472" stroke="black" /><polyline fill="none" points="373.8583,48.2291 372.8209,48.0522 371.3288,48.1226 369.8815,48.7967 368.9114,50.4637 368.6047,52.8909 368.8637,55.7756 369.5095,58.5129 370.5483,60.3991 371.8997,61.0648 373.2969,60.3568 374.3862,58.4896 374.8103,56.0468 374.7305,53.7335 374.4099,52.1219 374.0979,51.3985" stroke="black" /><polyline fill="none" points="373.8933,49.9219 374.0683,50.9625 374.3238,52.3724 374.5634,53.6817 374.6909,54.4202" stroke="black" /><polyline fill="none" points="375.3114,56.2356 376.0553,57.3651 377.0644,58.8321 378.0076,60.1644 378.5541,60.8899" stroke="black" /><polyline fill="none" points="381.4467,56.0226 381.9094,56.7473 382.9859,58.1646 384.695,60.0569 386.6066,61.7833 388.1711,62.9872 389.124,63.2471 389.2803,62.6285 388.5733,61.1139 387.1689,58.8893 385.4012,56.0581 383.8862,53.0783 383.0555,50.4064 383.0236,48.3616 383.737,47.2955 384.9764,47.3737 386.3251,48.341 387.5043,49.5246 388.1665,50.4355" stroke="black" /><polyline fill="none" points="400.9801,36.1889 400.9702,37.2949 400.9467,39.9089 400.911,43.8802 400.8712,48.3207 400.8354,52.3088 400.8106,55.0736 400.7987,56.3974 400.7942,56.9001" stroke="black" /><polyline fill="none" points="402.2721,62.1418 402.3863,62.4947" stroke="black" /><polyline fill="none" points="418.7631,41.4765 418.9931,41.9813 419.1485,43.3401 419.2094,45.8878 419.2411,49.8262 419.5826,54.7226 420.0885,59.9723 420.6502,64.6026 421.1553,68.076 421.4891,70.0899 421.6819,71.0134" stroke="black" /><polyline fill="none" points="419.2558,55.6581 420.3939,55.8191 422.5689,56.2073 425.3457,56.7685 427.8379,57.2936 429.4595,57.7271 430.0783,57.8667" stroke="black" /><polyline fill="none" points="428.826,42.4214 429.0856,43.379 429.3528,45.342 429.6072,48.7462 429.8012,53.2726 430.0081,58.218 430.2692,62.745 430.6552,66.4184 430.9701,68.6668 431.194,69.8587" stroke="black" /><polyline fill="none" points="439.4822,61.3027 440.4761,60.7251 441.6265,59.5121 442.4134,57.7261 442.2952,55.9654 441.2511,54.6657 439.8966,54.3351 438.6164,55.0778 437.6781,56.9295 437.3693,59.5912 437.795,62.5779 439.1771,65.4224 441.4369,67.571 444.1092,68.5669 446.655,68.7238 448.5009,68.4387" stroke="black" /></svg>