<?xml version="1.0" encoding="utf-8" ?>
<svg baseProfile="tiny" height="102px" version="1.2" width="564px" xmlns="http://www.w3.org/2000/svg" xmlns:ev="http://www.w3.org/2001/xml-events" xmlns:xlink="http://www.w3.org/1999/xlink"><defs /><rect fill="white" height="100%" width="100%" x="0" y="0" /><polyline fill="none" points="20.0,20.0" stroke="black" /><polyline fill="none" points="27.401,78.9261 27.5867,77.7876 28.0862,75.8197 29.2039,73.0111 31.1042,69.345 33.3864,64.899 35.7471,60.2457 37.8425,55.7922 39.373,52.0179 40.345,49.3438 40.9267,47.6598 41.0994,46.8481" stroke="black" /><polyline fill="none" points="37.7507,52.2338 38.2055,52.556 39.317,52.8342 41.1485,52.65 43.8028,51.7737 47.1006,50.0109 50.8886,48.2678 54.4806,46.7506 57.4366,45.9331 59.5296,45.6424 60.7989,46.0673 61.5144,46.891 61.5912,48.4843 60.9834,50.8222 59.5238,53.9913 57.3807,57.8816 54.6997,62.3584 52.2092,66.7493 50.2052,70.6685 49.0567,73.6629 48.5806,75.6318 48.8385,76.7881 49.7109,77.1971 51.5825,76.5935 54.2601,75.1335 57.6969,72.815 61.3794,70.2023 64.9198,67.6307 67.7169,65.5205 69.75,63.8009 71.0547,62.7538 71.8869,62.4128 72.1241,62.9134 71.6479,64.2976 70.6731,66.457 69.4022,69.0023 68.3451,71.4625 67.6869,73.3072 67.4385,74.2561" stroke="black" /><polyline fill="none" points="86.2884,77.1833 85.2442,76.9779 83.4341,76.625 81.2355,76.0462 79.3488,75.2693 78.3736,74.5054 78.2699,73.5891 79.1916,72.1759 80.7903,70.2051 82.546,67.8195 84.3222,65.5049 85.8762,64.0702 86.784,63.5919 87.3659,63.6619" stroke="black" /><polyline fill="none" points="104.5558,44.3053 104.3084,44.6462 103.8452,45.7035 103.1104,47.7089 102.1898,50.8527 101.0657,54.9941 99.8314,59.5521 98.414,64.0092 97.1208,67.6995 96.061,70.2297 95.6558,71.5934 95.6119,72.1062 96.2106,71.7559 97.4087,70.4472 99.0701,68.666 101.0808,66.922 103.1952,65.5096 104.9949,64.95 106.2166,65.3963 106.6968,66.8421 106.4085,69.3797 105.9147,72.3769 105.4536,75.1416 105.5182,77.0385 106.2197,77.6278 107.3031,77.4371 108.2557,77.0074 108.9506,76.5908" stroke="black" /><polyline fill="none" points="119.6893,64.7646 118.9207,65.2718 117.5936,66.2947 115.8883,68.004 114.3792,70.072 113.2922,72.1101 113.0832,73.8323 113.7651,74.912 115.1633,75.0379 116.8537,74.2868 118.4666,73.1351 119.5378,72.0786 120.0262,71.5602" stroke="black" /><polyline fill="none" points="120.8619,69.3718 121.1597,68.3547 121.5818,67.1554 121.973,66.142 122.1784,65.6825" stroke="black" /><polyline fill="none" points="121.0663,67.7663 120.8189,68.6919 120.5444,70.2946 120.5147,72.2112 121.1864,74.1323 122.5371,75.4491 124.7638,75.9121 127.491,75.5532 130.1256,74.5825 132.0654,73.4438 133.1693,72.7395" stroke="black" /><polyline fill="none" points="133.9145,71.6467 134.4413,71.3403 135.5227,70.6117 136.9142,69.147 138.1805,67.3032 138.9369,65.3455 139.131,63.9968 138.6986,63.6989 137.7731,64.6209 136.4414,66.3451 135.0836,68.7232 134.0462,71.2777 133.741,73.651 134.1811,75.5161 135.0517,76.5565 136.3602,76.5853 138.5643,75.8548 141.4194,74.6356 144.5901,73.1251 147.4021,71.226 149.423,68.6406 151.116,65.4807 153.2723,61.8483 156.0206,58.0289 158.868,54.6579 161.2671,51.9706 162.9789,50.0978 164.3182,49.3561 165.2737,49.441 165.8211,50.3749 165.6185,51.9338 164.6287,53.8821 162.7526,56.3565 160.2675,59.4379 157.2847,62.6866 154.2636,65.7233 151.8382,67.895 150.3215,68.9804 149.6519,69.3513" stroke="black" /><polyline fill="none" points="148.6181,70.6431 148.805,71.2352 149.2852,72.681 150.2847,74.5918 151.4075,76.3439 152.2576,77.3132" stroke="black" /><polyline fill="none" points="211.6166,54.962 211.2336,54.5959 210.3846,54.1878 208.7772,54.0301 206.559,54.5263 203.9524,55.9658 201.1675,58.3571 198.2173,61.3732 195.7463,64.6891 193.7059,67.7649 192.548,70.4081 192.4091,72.7179 193.1275,74.6409 194.622,75.8699 196.8841,76.615 199.9541,76.4568 203.8917,75.6551 208.272,74.3097 212.612,72.7991 216.3235,71.2165 218.8228,70.1235 220.2536,69.4323 220.87,69.223" stroke="black" /><polyline fill="none" points="221.8833,68.4449 222.5922,68.2627 224.1612,67.6237 226.3765,66.6129 228.6488,65.3471 230.2168,64.1468 230.8836,63.2613 230.7845,62.813 229.7992,62.8907 228.0172,63.5913 225.6395,65.1569 223.2178,67.2352 221.0297,69.3229 219.3029,70.9846 217.9525,72.0065 217.1017,72.8145 216.6582,73.9662 216.9805,75.2653 217.7568,76.3253 219.197,76.5699 221.3414,75.5796 223.9703,73.5797 226.5553,70.9232 228.7621,68.3686 230.3076,66.5593 231.2761,65.7326 231.7487,65.6112" stroke="black" /><polyline fill="none" points="230.7482,73.6865 230.722,72.5862 231.0039,70.7967 231.4968,68.4075 232.0701,66.349 232.408,64.9125 232.4136,64.1877" stroke="black" /><polyline fill="none" points="238.913,63.0672 239.0691,63.8452 239.3037,65.5852 239.6103,67.866 239.9906,70.0561 240.4465,71.5243 240.7529,72.051" stroke="black" /><polyline fill="none" points="240.8716,72.5937 241.2424,73.2633 242.3045,74.1944 243.7653,75.0946 245.1224,75.6633 246.0751,75.8182" stroke="black" /><polyline fill="none" points="235.8004,76.601 236.4831,75.9032 237.9643,74.5357 240.3598,72.5265 243.536,70.2912 247.0691,67.9064 250.2612,65.8588 252.6838,64.3417 254.052,63.4609 254.5339,63.1059" stroke="black" /><polyline fill="none" points="257.4435,74.588 257.449,73.8632 257.5553,72.3707 258.2509,70.1767 259.6208,67.4951 261.6641,64.3493 263.8138,60.8803 265.8131,57.6625 267.3661,55.0817 268.6427,53.5658 269.5056,53.0389 270.0707,52.9445" stroke="black" /><polyline fill="none" points="255.8849,67.9307 256.8833,68.1109 259.0773,68.2218 262.2874,68.0693 265.772,67.4833 268.983,66.7227 271.1189,65.9427 272.4031,65.4092 272.9093,65.6165 272.7777,66.5701 271.984,68.2925 270.8466,70.4221 269.4543,72.4947 268.4578,74.0219 267.8611,74.9101" stroke="black" /><polyline fill="none" points="273.2139,66.19 274.0441,65.8957 275.8093,65.6153 278.162,65.2648 280.5297,65.1255 282.3481,65.2682 283.2803,65.3521 283.4792,65.6407" stroke="black" /><polyline fill="none" points="282.6322,66.3553 281.8263,67.2118 280.6169,68.8007 279.4562,70.9293 278.9277,73.0364 279.0128,74.4197 279.8535,75.0379 281.3152,74.7454 283.2885,73.3508 285.4075,71.237 287.5134,68.8654 289.0048,66.6564 289.5155,64.9929 289.1755,64.1374 287.9435,63.9479 286.2148,64.487 284.8008,65.3427 283.9753,66.1049" stroke="black" /><polyline fill="none" points="295.9724,67.8699 295.6335,68.745 294.7725,70.3945 293.7295,72.5045 292.7658,74.3838 292.2541,75.4859 292.3643,75.654 293.2319,75.0104 294.4572,73.6093 296.4547,71.6076 298.8044,69.5732 300.9991,67.9067 302.7475,66.8773 303.899,66.7362 304.2951,67.36 304.2654,68.6919 303.6921,70.7505 302.7621,72.9585 302.0141,74.706 301.5986,75.7419" stroke="black" /><polyline fill="none" points="347.9593,72.0257 348.4925,70.9712 349.387,69.0658 350.784,66.2918 352.5415,63.2748 354.3251,60.1888 355.5885,57.2457 356.4513,54.9648 356.6753,53.4536 356.6388,52.6102" stroke="black" /><polyline fill="none" points="346.8849,50.3033 347.6275,50.4498 349.1433,50.5571 351.9555,50.4121 355.7148,49.9774 359.7112,49.4586 363.3986,49.0679 366.0753,48.8005 367.4352,48.7145 368.046,48.6453" stroke="black" /><polyline fill="none" points="358.743,63.1715 359.3313,61.9087 360.2343,59.7931 361.1465,57.4441 361.7544,55.6909 361.9794,54.741" stroke="black" /><polyline fill="none" points="357.4683,64.6408 356.8519,65.4347 356.0152,66.4771 355.2755,67.4298 355.0785,67.6792 355.4987,67.1113 356.4569,65.9568 357.6345,64.5772 359.1614,63.235 360.8173,62.1785 362.4256,61.7281 363.4959,61.8644 363.821,63.0935 363.5317,65.0698 362.9762,67.2694 362.6617,69.2915 363.0914,70.8288 364.2197,71.2714 365.984,71.0144 368.3674,69.8934 370.7741,68.1886 373.0258,66.2672 374.8319,64.3748 375.7639,62.7047 375.704,61.8604 374.8364,61.9193 373.4094,63.1019 371.8862,64.9354 370.8758,66.8129 370.4491,68.1289 370.4455,68.8069" stroke="black" /><polyline fill="none" points="370.2288,68.962 370.976,69.5765 372.2772,70.3768 373.6745,71.1108 374.7103,71.5263" stroke="black" /><polyline fill="none" points="385.8649,82.0979 386.3356,81.4385 387.2751,80.1663 388.7421,77.9797 390.5015,74.9161 392.7295,70.655 395.1275,65.6524 397.843,60.3116 400.6996,55.5377 403.3331,51.6671 405.5902,49.0209 407.6953,47.2573 409.4137,46.3904 410.5952,46.0867 411.3162,46.1857" stroke="black" /><polyline fill="none" points="389.6403,64.8487 390.6042,65.3082 392.3817,65.8936 395.3639,66.1763 399.2343,65.8864 403.4838,64.8866 407.4512,63.3377 410.7219,61.6674 412.8559,60.3494 414.1288,59.5115 414.7247,59.2312" stroke="black" /><polyline fill="none" points="413.1557,60.4549 412.474,61.1293 411.288,62.719 409.6285,65.0383 407.9186,67.449 406.7346,69.5768 406.0482,70.9526 406.3191,71.1973 407.1811,70.6938 408.6838,69.3739 410.4245,67.3619 412.1737,65.1398 413.6464,63.3978 414.8754,62.488 415.3611,62.6243 415.4724,63.9384 415.0159,66.0016 414.3614,68.3376 413.9908,70.5913 414.3542,72.0324 415.3238,72.3517 416.8414,71.8276 418.911,70.3667 421.6605,68.278 424.7769,65.7831 428.0792,62.7342 430.9079,59.2455 433.1538,55.7102 434.8066,52.385 436.0719,49.9799 436.8713,48.7021 437.2626,48.2734" stroke="black" /><polyline fill="none" points="428.5963,68.5314 428.6597,67.5283 428.8519,65.6416 429.3392,63.3926 430.0778,61.2938 430.8137,59.8498 431.3095,59.1446" stroke="black" /><polyline fill="none" points="425.2534,67.3222 425.8428,67.7901 427.4568,68.369 429.8684,68.8862 432.5153,68.7813 435.0202,68.1329 436.7788,67.4313 437.6689,66.812" stroke="black" /><polyline fill="none" points="447.3505,46.8986 446.7005,47.3637 445.9796,48.4342 445.071,50.1051 444.2446,52.6447 443.0831,55.9661 441.5265,59.8096 439.644,63.6167 438.0378,66.9437 436.8061,69.0929 436.2869,70.3818 436.343,70.7349 436.9659,70.3622 437.9549,69.0218 439.6041,66.9594 441.7184,64.3777 443.9803,62.1994 446.0461,60.8318 447.673,60.4992 448.565,61.0025 448.7679,62.367 448.4327,64.3182 448.0958,66.9007 447.9887,69.5859 448.3008,71.7265 449.1677,72.8603 450.3978,73.0965 451.7426,72.2147 453.5488,70.3223 455.5024,67.6639 457.697,64.8282 459.9738,62.2763 462.0994,60.5837 463.5078,59.8681 464.1849,59.8952 463.8469,60.747 462.5852,62.4741 460.6297,64.5944 458.4873,66.7073 456.5522,68.3139 455.3036,69.1294 454.7329,69.3639" stroke="black" /><polyline fill="none" points="454.593,70.5276 455.2328,70.904 456.7514,70.9412 459.0499,70.191 461.8769,68.503 464.6057,66.3433 466.9685,64.5667 468.7589,63.6559 469.9338,63.5157 470.4858,63.7482" stroke="black" /><polyline fill="none" points="467.709,72.3841 468.0376,71.1811 468.5147,69.1888 469.1403,66.992 469.6958,65.3771 469.9881,64.5001" stroke="black" /><polyline fill="none" points="468.3345,69.6026 468.298,68.7592 468.4734,67.2928 469.2998,65.3379 470.7492,63.595 472.7805,62.5067 475.221,62.3 477.6615,62.6781 479.6986,63.2037 481.1846,63.4735 481.8842,63.5248" stroke="black" /><polyline fill="none" points="500.0097,61.161 499.7193,61.4067 499.2897,62.2081 498.3849,63.7856 497.1429,66.1917 495.7207,69.0115 494.4489,71.5801 493.7159,73.5387 493.7711,74.4998 494.1418,74.5848 495.2215,73.9029 496.7914,72.6558 498.1866,71.0978 499.524,69.8181 500.5587,69.0877 500.9286,69.196 501.0044,70.228 500.799,71.8569 500.2528,73.823 500.1185,75.4313 500.6211,76.3167 501.6092,76.169 502.8214,75.0948 503.9812,72.9895 505.2876,70.1417 506.6285,67.0146 508.1366,64.3853 509.4179,62.7525 510.2388,62.1071" stroke="black" /><polyline fill="none" points="510.1211,61.5411 510.9103,62.2742 512.4076,62.8484 514.8994,63.1116 518.0721,62.7237 521.4933,61.9715 524.5118,61.3436 526.5834,61.0053 527.5267,60.809" stroke="black" /><polyline fill="none" points="518.6877,73.0852 518.8903,72.1111 519.388,70.7745 520.1453,69.3781 520.9083,68.4263 521.4397,68.0032" stroke="black" /><polyline fill="none" points="518.9277,72.3464 519.5086,71.8551 520.4985,70.4914 521.7535,68.3431 523.0179,65.9613 524.2459,63.9055 525.1816,62.7267 525.8531,62.3092" stroke="black" /><polyline fill="none" points="526.5143,60.9791 526.3547,62.0485 526.0672,63.9782 525.7097,66.4897 525.4223,69.004 525.5467,71.1606 526.0045,72.582 526.65,73.403" stroke="black" /><polyline fill="none" points="537.6983,76.089 538.3344,75.974 539.7128,75.421 541.4752,74.626 543.244,73.6675 544.0312,72.6933 543.509,71.7136 541.9062,70.8545 539.6534,69.8759 537.3025,69.0103 535.8893,68.0886 535.4651,66.9959 536.1066,65.5715 537.4953,64.177 539.4603,62.9925 541.3721,62.5543 542.9103,62.6858" stroke="black" /></svg>