<?xml version="1.0" encoding="utf-8" ?>
<svg baseProfile="tiny" height="100px" version="1.2" width="526px" xmlns="http://www.w3.org/2000/svg" xmlns:ev="http://www.w3.org/2001/xml-events" xmlns:xlink="http://www.w3.org/1999/xlink"><defs /><rect fill="white" height="100%" width="100%" x="0" y="0" /><polyline fill="none" points="20.0,20.0" stroke="black" /><polyline fill="none" points="30.937,29.24 31.4523,29.8781 32.3502,31.3271 33.3884,33.7802 34.4163,37.1048 34.9763,41.2736 34.8103,46.022 34.2902,51.2238 33.6412,56.2715 33.2182,60.6464 33.264,64.0899 33.4744,66.533 33.5881,67.9508 33.6451,68.6488" stroke="black" /><polyline fill="none" points="28.7707,53.5763 29.4225,53.7366 31.0791,53.6912 33.6973,53.4176 36.798,52.8882 39.5075,52.2671 41.3422,51.9186 42.0625,51.8183" stroke="black" /><polyline fill="none" points="39.112,38.0328 39.6055,38.6707 40.4369,40.206 41.1287,42.4806 41.2417,45.7724 40.7798,49.7546 39.9034,53.7754 39.2064,57.3843 38.9781,60.0619 39.0062,61.3479 39.1089,61.8721" stroke="black" /><polyline fill="none" points="49.0393,58.7663 50.0045,58.2331 51.6068,57.2718 53.4109,55.8335 54.5218,54.0599 54.5634,52.4043 53.8129,51.3929 52.2699,51.0475 50.276,51.9606 48.056,53.5465 45.7663,55.5019 43.8243,57.527 42.8841,59.6076 43.0994,61.6367 44.4034,63.7443 46.2793,65.4012 47.9872,66.533 49.0057,67.0029" stroke="black" /><polyline fill="none" points="63.6135,37.3247 63.7133,38.0886 63.8774,38.9404 64.0654,39.6182" stroke="black" /><polyline fill="none" points="63.0562,67.3896 64.0559,67.6195 66.0829,67.5785 69.118,67.0702 72.4651,65.9772 75.4657,64.7058 77.5956,63.3586 78.4385,62.1266 78.1027,61.0548 76.6308,60.2309 74.1564,59.4167 71.3513,58.9254 68.8725,58.4816 67.1803,57.8511 66.5146,57.0368 66.7676,55.9285 67.8331,54.307 69.554,52.5408 71.7091,50.9106 73.5542,49.6907 74.6947,49.0724" stroke="black" /><polyline fill="none" points="102.9796,50.8722 103.8781,50.4472 105.2121,50.0492 106.5443,49.8037 107.4374,49.8362" stroke="black" /><polyline fill="none" points="98.1459,59.6177 98.1323,60.7507 98.4384,62.4758 99.0926,64.2488 100.3892,65.1578 102.0492,64.829 103.8562,63.1511 105.6535,60.4706 107.3901,57.3971 108.8611,54.6691 110.1476,52.7888 111.0269,52.1456 111.6538,52.5672 112.1135,54.207 112.5165,56.9357 112.7957,60.905 112.7148,65.8288 112.3068,70.7704 111.4262,75.1399 110.1881,78.4372 108.6155,80.5538 106.5552,81.5532 104.0937,81.4801 101.8626,80.3638 100.2027,78.862 99.3692,77.501 99.2466,76.824" stroke="black" /><polyline fill="none" points="121.3342,53.9473 122.138,54.1531 123.231,53.8611 124.1356,52.935 124.3886,51.8267 123.5504,50.8578 121.9848,50.5775 119.7546,51.2045 117.4958,52.3976 115.6037,53.9003 114.6428,55.8935 114.8786,58.0318 116.2707,60.0533 118.28,61.4939 120.5375,62.2183 122.2585,62.2608 123.1982,62.0324" stroke="black" /><polyline fill="none" points="127.6363,51.7568 128.4614,52.0064 130.0314,51.9163 132.0403,51.57 133.7899,51.0462 134.7756,50.6222" stroke="black" /><polyline fill="none" points="132.5682,58.4187 132.575,57.8522 132.5471,56.5444 132.5969,54.2133 132.8766,50.8827 133.1849,46.9858 133.2748,43.1299 133.2944,39.6871 133.1925,37.2889 133.1213,35.9588 133.2368,35.4154" stroke="black" /><polyline fill="none" points="138.609,52.5859 139.5248,52.5315 141.0516,52.4191 142.6657,52.2859 143.8438,52.1693" stroke="black" /><polyline fill="none" points="140.5675,60.0619 140.2748,59.0342 140.1878,57.2027 140.5295,54.1561 141.3599,50.3309 142.1512,46.1347 142.4816,42.2163 142.6692,39.2986 142.797,37.7312 143.0017,37.0145" stroke="black" /><polyline fill="none" points="146.7802,52.6186 146.8348,53.5127 146.9452,55.2138 147.0718,57.3726 147.18,59.2479 147.2328,60.2945" stroke="black" /><polyline fill="none" points="147.3672,45.4783 147.3708,45.1732" stroke="black" /><polyline fill="none" points="151.0199,51.6018 151.0719,52.7138 151.0759,54.1956 151.0376,55.568 150.9628,56.3516" stroke="black" /><polyline fill="none" points="149.9077,58.932 150.0916,58.128 150.7859,56.5674 152.1396,54.5353 154.1251,52.5108 156.3455,50.8813 158.7093,50.0163 160.7346,50.1278 162.2233,51.366 163.1143,53.3814 163.3708,55.6072 163.1756,57.3481 162.9254,58.2168" stroke="black" /><polyline fill="none" points="163.7329,72.6303 164.9325,72.5357 166.922,71.9931 169.3562,70.7149 171.8021,68.4562 173.7821,65.0806 175.3562,61.0246 176.5152,57.0508 177.1218,53.724 177.3023,51.3946 177.2936,50.3049 177.0137,50.0183 176.5725,50.4706 175.7937,51.8123 174.3329,53.6905 172.3721,55.4756 170.2437,56.6921 168.3448,56.9526 167.4822,56.2014 167.7793,55.05 168.6844,54.0803 169.6283,53.5033" stroke="black" /><polyline fill="none" points="173.0786,51.0823 173.8839,51.1574 174.8846,51.3001 175.7761,51.4634" stroke="black" /><polyline fill="none" points="194.5677,52.6261 195.792,52.2922 197.6718,51.8136 199.9206,51.4484 201.902,51.5811 203.1098,52.6198 203.4588,54.4108 203.0612,56.6723 201.4881,58.8325 199.1356,60.5693 196.3362,61.4073 193.8923,61.6831 192.3706,61.3815 191.9687,60.3743 192.5125,58.6375 193.5617,56.5582 194.568,54.413 195.3487,52.9188 195.7482,52.3134" stroke="black" /><polyline fill="none" points="205.8795,52.4352 205.6711,53.4568 205.3651,55.349 204.9675,57.6104 204.836,59.4829 205.0445,60.2699 205.4863,59.774 206.27,58.0183 207.4331,55.5263 208.9907,52.843 211.0631,50.8413 213.1885,49.8645 214.756,49.9922 215.8338,50.964 216.1828,52.755 216.1358,54.8464 216.0041,56.7406 215.9254,57.851" stroke="black" /><polyline fill="none" points="231.8784,52.2463 231.844,53.2918 231.7328,55.2953 231.5497,57.8426 231.4104,60.3687 231.4991,62.0477 231.9073,62.532 232.7841,62.1067 233.9071,61.1396 235.202,60.3707 236.4636,60.5601 237.5635,61.5104 238.6847,62.5044 239.7691,62.9315 240.9144,61.9211 242.3578,59.6721 243.9823,56.8588 245.5627,54.0886 246.9595,52.1006 247.9286,51.2406 248.3675,50.9844" stroke="black" /><polyline fill="none" points="252.8594,56.181 253.2363,55.6407 254.033,54.6261 255.0971,53.1136 256.2046,51.6233 256.7182,50.5835 256.4607,50.2535 255.2364,50.5875 253.2168,51.8271 250.9065,53.6734 249.0045,56.0039 247.8882,58.235 247.8649,60.1741 248.9383,61.5163 250.8908,62.237 253.0452,62.4808 254.7452,62.4576 255.6416,62.2069" stroke="black" /><polyline fill="none" points="263.2087,59.9226 262.7252,60.2655 262.2241,60.2594 261.9062,59.5147 262.0387,57.5551 262.6814,54.839 263.6591,51.4513 264.5518,47.8883 265.1785,44.6926 265.2724,42.3185 265.0067,40.8553 264.7951,40.3298" stroke="black" /><polyline fill="none" points="266.0822,61.9837 266.2714,60.7439 266.7554,58.5488 267.6241,55.1599 268.6112,50.9878 269.2957,46.6161 269.4979,42.4782 269.229,39.4678 268.7475,37.8277 268.407,37.1481" stroke="black" /><polyline fill="none" points="278.852,42.0022 279.3421,42.9233 280.0404,44.6532 280.8346,47.4738 281.4684,50.9462 281.689,54.3482 281.5453,57.2447 281.4372,58.9867 281.4314,59.466 282.005,58.8845 283.4563,57.7906 285.6511,56.4877 287.9716,55.6004 290.1104,55.321 291.6936,55.9502 292.4197,57.1792 292.377,58.922 291.31,60.6742 289.2006,62.1307 286.4451,62.9474 284.1101,63.2244 282.5635,63.1841 282.0206,63.025" stroke="black" /><polyline fill="none" points="297.9917,57.7255 297.5898,58.527 297.289,59.9833 297.1594,61.7033 297.538,62.841 298.3864,62.9601 299.5737,62.0809 301.0775,60.2468 302.5879,57.8679 303.6378,55.7232 304.2016,54.1392 304.2971,53.4431" stroke="black" /><polyline fill="none" points="306.774,64.9349 307.0039,63.9353 307.463,62.0014 308.1317,58.9369 308.8286,55.3497 309.1776,51.6931 309.1927,48.6207 309.085,46.7018 308.9203,45.8936" stroke="black" /><polyline fill="none" points="304.2116,62.3764 305.2818,62.1713 307.3138,61.7163 309.8262,61.1799 311.9454,60.726 313.1899,60.523" stroke="black" /><polyline fill="none" points="325.0008,53.256 325.3657,53.718 325.4586,55.0483 325.4768,57.1623 325.2299,59.5781 324.9244,61.4267 324.7599,62.4271" stroke="black" /><polyline fill="none" points="325.7846,67.8217 326.5677,67.9401 328.2506,67.5245 330.574,66.3975 333.079,64.6625 335.2351,62.9451 336.5397,61.3701 336.4449,60.1922 335.1943,59.0876 332.853,58.0789 330.4217,57.3088 328.4033,56.6309 327.3002,55.9421 327.1587,55.0252 328.1131,53.5766 329.7883,51.9842 331.9387,50.7462 333.7137,49.9177 334.8058,49.7129" stroke="black" /><polyline fill="none" points="351.0089,68.6259 350.696,67.4673 350.414,65.5463 350.5019,63.6733 350.9087,62.4579 351.3922,62.115" stroke="black" /><polyline fill="none" points="349.1982,56.0962 349.5776,57.1685 350.2484,59.3774 350.9507,62.5891 351.4782,65.8423 351.6221,68.3718 351.5613,69.8093 351.3161,70.264" stroke="black" /><polyline fill="none" points="350.1384,57.6546 350.6082,56.6361 351.5217,54.9692 352.9173,53.0683 354.5038,51.6056 356.3406,51.0829 357.9471,51.5816 359.1082,52.8812 359.5209,54.8038 358.8401,57.0618 356.9845,59.1533 354.6315,60.9337 352.5909,62.1077 351.407,62.7036" stroke="black" /><polyline fill="none" points="363.8349,54.8556 364.2169,55.71 364.5482,57.1522 364.6606,58.6789 364.693,59.6163 364.7615,59.3557 365.3465,57.8155 366.7025,55.5873 368.7986,53.4334 371.2576,51.894 373.4668,51.2015 374.8185,51.1523" stroke="black" /><polyline fill="none" points="376.5946,59.3017 377.6039,58.7254 379.5115,57.746 381.8834,56.2055 383.9319,54.3779 385.1966,52.4973 385.3446,51.0609 384.7406,50.5524 383.4714,50.9948 381.8237,52.1081 379.9088,53.6976 378.2325,55.3772 377.166,57.0859 376.9713,58.7832 377.7137,60.47 379.4607,61.9728 381.9338,62.896 384.678,63.0161 387.1009,62.6747 388.6108,62.1481 389.2893,61.8948" stroke="black" /><polyline fill="none" points="390.0624,53.776 390.6286,53.8046 392.0687,53.6476 394.1887,53.1283 396.3976,52.4575 397.9086,51.8437 398.5228,51.5024" stroke="black" /><polyline fill="none" points="394.2767,40.3598 394.6455,40.495 395.1816,41.2205 395.6411,42.8822 395.6288,45.7149 395.1499,49.3046 394.5599,53.0674 394.0602,56.5697 393.9411,59.2268 394.0963,60.8194 394.2614,61.584" stroke="black" /><polyline fill="none" points="400.2948,60.0004 400.4832,58.826 400.9026,56.5647 401.532,53.1511 402.1451,49.2797 402.561,45.4931 402.7927,42.5323 402.6608,40.8092 402.4728,40.1314" stroke="black" /><polyline fill="none" points="398.1833,54.3748 399.4039,54.3458 401.3695,53.9772 403.5333,53.4366 405.1524,52.8895 405.8761,52.506" stroke="black" /><polyline fill="none" points="408.6643,50.7744 409.2253,51.2388 410.1042,52.4478 410.9986,54.1801 411.6108,55.8217 411.8369,56.9576" stroke="black" /><polyline fill="none" points="407.3857,68.3226 407.6401,67.1053 408.5178,64.7842 410.1455,61.7095 411.9721,58.3974 413.6452,55.1706 414.8075,52.744 415.3041,51.3118 415.4645,50.66" stroke="black" /><polyline fill="none" points="429.3395,38.4494 429.7477,38.9337 430.1672,40.2898 430.0949,42.6859 429.706,46.037 428.7899,49.7305 427.8781,53.0754 427.3658,55.8149 427.4539,57.5592 427.9043,58.153 428.7582,57.8146 429.9072,56.4991 431.4572,54.4476 433.2933,52.1598 435.3224,50.1358 437.4064,48.9842 439.1924,49.0492 440.4662,50.0451 441.1821,52.1238 441.1725,54.7386 440.4895,57.171 439.7488,58.9708 439.302,59.8806" stroke="black" /><polyline fill="none" points="442.1823,55.9275 442.1516,56.668 442.4825,58.1538 443.3745,60.0821 444.6401,61.7534 445.6946,62.8556 446.3433,63.2774" stroke="black" /><polyline fill="none" points="442.3377,55.6897 442.3889,55.0583 443.0149,53.7366 444.2332,52.0951 445.8635,50.6111 447.3335,49.7789 448.4442,49.8359 448.5382,51.0791 447.972,52.8591 446.6415,54.7825 445.0568,56.0928 443.6563,56.5771 442.961,56.4162" stroke="black" /><polyline fill="none" points="453.6882,57.7218 453.3895,57.1952 452.8805,56.0342 452.3567,54.2846 452.3658,51.7134 452.8626,48.4507 453.6432,45.1479 454.2691,42.0175 454.4486,39.7752 454.2433,38.7268" stroke="black" /><polyline fill="none" points="456.5578,54.662 456.6151,55.3382 456.7356,56.1895 456.8789,56.9539" stroke="black" /><polyline fill="none" points="456.5356,63.7703 456.855,62.5756 457.1137,60.988 457.262,59.5298 457.2499,58.7234" stroke="black" /><polyline fill="none" points="456.8099,66.3232 456.5584,65.4921 456.2507,63.8976 456.1708,61.4779 456.8167,58.5003 458.1606,55.4657 460.0852,53.07 461.9571,51.4364 463.4904,50.7793 464.6433,50.9457 465.2615,52.0862 465.4991,54.0721 465.0758,56.6601 464.065,59.1757 462.5208,60.7479 460.9694,61.0997 459.6216,60.822 458.9307,60.2907" stroke="black" /><polyline fill="none" points="469.5753,41.2644 469.5704,41.6783 469.5552,42.942 469.529,45.1208 469.4052,48.17 469.4503,51.6789 469.6478,55.1897 470.18,58.0507 470.8329,59.9325 471.39,60.7237" stroke="black" /><polyline fill="none" points="474.5782,56.5345 475.3009,56.2382 477.01,55.4524 479.378,54.2388 481.6851,52.654 483.5336,51.1508 484.2649,50.1354 483.9221,49.6519 482.897,49.7267 481.1884,50.4689 478.9511,51.6841 476.7747,53.2705 475.1189,55.0593 474.6622,56.797 475.2954,58.5043 477.0461,59.7021 479.2842,60.2302 481.3559,60.1025 482.8207,59.7061 483.5874,59.3666" stroke="black" /><polyline fill="none" points="486.1672,62.2958 486.3599,62.5814 487.2288,62.8098 488.9321,62.5034 491.1867,61.6588 493.4038,60.3126 494.9646,59.1764 495.2817,58.1779 494.548,57.5807 492.7228,57.1447 490.114,56.634 487.3981,55.9694 485.2516,55.072 484.2638,53.8617 484.4729,52.7746 485.7285,51.6566 487.7266,50.3949 490.0505,49.2243 492.067,48.2462 493.4467,47.6744" stroke="black" /><polyline fill="none" points="498.6765,53.1196 497.8743,52.7831 497.0965,52.2289 497.0634,51.3569 498.122,50.3019 499.944,49.1906 502.0025,48.3437 503.6429,47.8404 504.516,47.7202" stroke="black" /><polyline fill="none" points="498.7014,65.5625 499.7115,64.9209 501.6243,63.5057 503.9571,61.5943 506.1602,59.5942 507.511,57.8018 507.4634,56.3194 506.1474,55.2141 504.4572,54.4311 502.9577,54.0862" stroke="black" /></svg>