<?xml version="1.0" encoding="utf-8" ?>
<svg baseProfile="tiny" height="100px" version="1.2" width="656px" xmlns="http://www.w3.org/2000/svg" xmlns:ev="http://www.w3.org/2001/xml-events" xmlns:xlink="http://www.w3.org/1999/xlink"><defs /><rect fill="white" height="100%" width="100%" x="0" y="0" /><polyline fill="none" points="20.0,20.0" stroke="black" /><polyline fill="none" points="28.4794,74.6436 28.4925,73.8131 28.856,72.1126 29.5493,69.4294 30.9735,65.9495 32.9496,61.6477 35.1585,56.8106 37.3436,52.0631 39.3192,47.7836 40.8988,44.4185 42.351,42.0166 43.5867,40.5319 44.7417,39.899 45.7271,40.0492 46.4723,41.2059 46.8887,43.2779 46.8673,46.0615 46.4264,49.8263 45.8413,54.1949 45.4325,58.7684 45.3619,63.2574 45.5939,67.0552 46.0443,69.8237 46.4849,71.7839 47.0511,72.8929 47.6333,72.9918 48.1121,72.5279 48.4138,71.904 48.5117,71.3892" stroke="black" /><polyline fill="none" points="33.4771,60.9375 33.92,61.3262 35.152,61.5027 37.4403,61.6061 40.6346,61.2074 44.2375,60.5232 47.5047,59.7664 49.9383,59.1985 51.3377,58.7266 51.9223,58.6685" stroke="black" /><polyline fill="none" points="59.8465,55.8746 59.7728,56.2776 59.8438,57.4686 60.0144,59.4694 60.2894,61.9657 60.2737,64.3901 60.1749,66.3867 59.9538,67.5955 59.8096,68.1994" stroke="black" /><polyline fill="none" points="59.2137,71.8271 59.1609,70.9058 59.389,69.248 59.9659,66.8324 61.1793,63.9105 62.936,60.7052 65.0065,57.5274 67.0252,54.7977 68.9406,52.9196 70.5052,51.9339 71.7204,51.751 72.7195,52.4627 73.4558,54.1805 73.8647,56.7239 74.0632,59.8027 74.106,62.7894 73.8915,65.0086 73.9138,66.4458 74.3058,67.2153 74.8851,67.4938 75.4676,67.5703" stroke="black" /><polyline fill="none" points="91.2652,60.9266 90.2889,60.1928 88.7999,59.2265 86.9939,58.4347 85.4003,58.4096 83.9507,59.2175 82.776,61.1073 81.8821,63.6975 81.4125,66.4291 81.3961,68.8984 81.9525,70.6359 82.9309,71.235 84.305,70.9423 86.0324,69.6 87.7724,67.4497 89.38,65.1626 90.5537,63.3401 91.2889,62.274 91.5175,62.0082" stroke="black" /><polyline fill="none" points="91.5976,61.2013 92.0788,60.5802 92.8179,59.2673 93.8871,56.9492 95.1034,53.8477 96.2765,50.6333 97.2164,47.9765 97.7815,46.3016 97.9257,45.6977" stroke="black" /><polyline fill="none" points="98.3637,43.5493 98.3474,44.5818 98.3174,46.4896 98.2676,49.6544 98.1584,53.7387 98.066,58.1824 98.2226,62.4954 98.6609,66.0271 99.2081,68.3481 99.6807,69.7026 99.896,70.2897" stroke="black" /><polyline fill="none" points="130.4845,39.6546 130.8074,40.5352 131.2718,42.4059 131.6313,45.2404 131.6817,49.17 131.2277,53.7653 130.6331,58.7399 130.2667,63.4713 130.1365,67.4654 130.294,70.2967 130.58,72.0972 130.7903,72.9986" stroke="black" /><polyline fill="none" points="157.6938,55.3942 157.6587,56.2018 157.3194,57.7905 156.8544,60.2303 156.247,63.1618 155.8384,66.2984 155.5217,69.3018 155.5534,71.5698 155.845,73.0112 156.466,73.4925 157.0118,73.0521 157.7063,71.716 158.7962,69.5105 160.2281,66.9737 161.9047,64.5754 163.4386,62.6912 164.6861,61.8802 165.6256,62.097 166.5945,63.3022 167.66,65.4967 168.6315,67.9591 169.3608,70.1258 170.0571,71.5287 170.6378,71.7174 171.5712,70.9015 172.9454,69.1719 174.7603,66.5513 176.9199,63.4198 179.1904,60.3798 181.5004,57.6772 183.6617,55.8702 185.2256,54.9295 186.1287,54.6069" stroke="black" /><polyline fill="none" points="198.6078,54.8258 197.9362,54.703 196.4976,54.815 194.3305,55.5667 192.1269,57.2158 190.4232,59.9055 189.358,63.3911 188.8316,66.8851 188.5139,69.9558 188.3652,72.2659 188.5913,73.594 189.2807,74.009 190.2975,73.5984 191.6896,72.161 193.3227,69.6723 195.0787,66.5119 196.9512,63.084 198.7728,60.0369 200.2645,57.9725 201.2908,56.9559 201.8572,56.6281" stroke="black" /><polyline fill="none" points="202.3627,55.8952 202.4002,56.3672 202.2706,57.4653 202.1294,59.304 202.0492,61.5478 202.3078,63.6622 202.779,65.1065 203.3295,65.7887" stroke="black" /><polyline fill="none" points="221.091,71.2992 221.8531,71.3786 223.1356,71.1967 224.8064,70.5944 226.3048,69.5403 226.8889,68.0903 226.4857,66.6022 224.98,65.2763 222.4157,64.1583 219.465,63.3486 216.7811,62.7002 214.6142,62.015 213.4363,61.2556 213.2705,60.3774 214.1849,59.3366 215.7969,58.1945 217.8791,57.1272 219.9775,56.4643 221.7545,56.2453 222.8294,56.4194 223.5217,56.6548" stroke="black" /><polyline fill="none" points="257.6171,69.9434 257.8362,70.2836 258.5242,70.7883 260.0434,71.2613 262.2192,71.3853 264.5837,70.9286 266.7055,70.1987 268.248,69.1903 268.9383,68.1235 268.7547,66.9532 267.561,65.7669 265.3128,64.5417 262.481,63.3072 259.5173,61.8911 257.1141,60.5287 255.5859,59.2025 255.1768,58.096 255.6409,57.1379 257.0922,56.2178 259.1948,55.2855 261.4534,54.4231 263.5906,54.1424 265.2919,54.461 266.292,55.1054 266.866,55.7206" stroke="black" /><polyline fill="none" points="271.4249,42.7934 271.5023,43.5804 271.7452,45.268 271.95,47.9429 271.8735,51.3766 271.6791,55.1677 271.4876,58.7793 271.4157,61.9212 271.6287,64.0798 271.8804,65.2063" stroke="black" /><polyline fill="none" points="271.1382,59.582 271.7674,59.547 273.2715,59.5482 275.4729,59.4706 277.9886,59.3979 280.0346,59.2056 281.2281,58.9775" stroke="black" /><polyline fill="none" points="285.9681,71.6244 286.2057,70.7975 286.6379,69.0082 287.3551,66.2356 288.2368,62.9942 288.96,59.84 289.4035,57.3325 289.6499,55.9445 289.6367,55.3606" stroke="black" /><polyline fill="none" points="297.7134,67.1171 297.3884,66.3711 297.0982,64.8399 297.0231,62.4814 297.6133,59.2129 298.8206,55.2582 300.3452,51.1063 301.8452,47.0888 302.9328,43.6037 303.4192,41.2315 303.5758,39.8421 303.5611,39.3479" stroke="black" /><polyline fill="none" points="309.9536,68.2527 309.6787,67.1707 309.3724,65.2352 309.1928,62.3811 309.3623,58.7468 310.0123,54.5363 311.0695,50.1302 312.1656,46.1063 313.0897,43.0227 313.6352,41.1678 313.8058,40.3174" stroke="black" /><polyline fill="none" points="354.6324,55.2835 354.12,55.0285 353.0911,54.7878 351.4259,55.031 349.2977,56.1649 347.1775,58.2194 345.3395,60.8846 343.9735,63.5123 343.2887,65.6567 343.2202,67.1599 343.4999,67.9276 344.5559,67.8769 345.8487,67.0441 347.3801,65.317 349.1668,63.0552 350.9304,60.8379 352.3973,58.9302 353.7441,57.5146 354.6294,56.8999 355.1891,56.9985 355.5345,57.8795 355.3932,59.7182 354.9279,62.1805 354.1466,64.75 353.4597,67.0292 353.187,68.6638 353.647,69.3894 354.5431,69.5158 355.5331,69.3742 356.1876,69.16" stroke="black" /><polyline fill="none" points="382.2309,71.9721 382.9916,72.1413 384.608,72.1443 387.0149,71.8454 389.6519,71.1909 392.047,70.2183 393.6569,69.211 394.1644,68.3434 393.7507,67.5286 392.4156,66.7668 389.8931,65.8515 386.7218,64.7913 383.216,63.5911 380.1811,62.4208 378.2432,61.4474 377.5594,60.6733 377.6833,59.9344 378.5486,59.1622 380.1826,58.043 382.7636,56.6692 385.7946,55.2352 388.6428,54.0003 390.8758,53.3395 392.1555,53.3372 392.6903,53.5926 392.9088,53.9777" stroke="black" /><polyline fill="none" points="398.1809,57.069 399.1909,57.0849 400.9416,57.1125 403.0739,57.146 404.8246,57.1736 405.8347,57.1895" stroke="black" /><polyline fill="none" points="401.2313,38.7075 401.3978,39.5408 401.7098,41.1173 402.0293,43.6368 402.2218,47.0972 402.3595,51.1854 402.2682,55.5618 402.2239,59.8043 402.3504,63.1739 402.4021,65.5993 402.3788,67.0807 402.2773,67.82" stroke="black" /><polyline fill="none" points="420.7721,55.2693 421.584,55.0352 422.9311,55.0339 424.338,55.5051 425.1516,56.5955 424.7933,57.9594 423.4048,59.1723 420.9837,60.369 418.0941,61.3787 415.1233,61.8483 412.5446,61.6505 410.6957,60.7234 409.8437,59.2283 409.7555,57.7002 410.7187,56.4132 412.5334,55.2295 414.8337,54.5697 417.2831,54.4287 419.2519,54.8638 420.3179,55.599 420.7569,56.2345" stroke="black" /><polyline fill="none" points="430.1214,53.2164 430.0695,53.6645 430.1199,54.743 430.1351,56.6291 430.2972,59.1685 430.7061,61.7119 431.3203,64.0564 432.1702,65.6862 433.3938,66.4015 434.542,66.195 435.8387,65.1154 437.3273,63.2529 439.0464,61.0125 440.8777,58.7738 442.5002,56.9584 443.7306,55.8103 444.477,55.4629 444.9847,56.0097 445.3198,57.5416 445.3293,59.7868 444.9987,62.2512 444.8083,64.3585 444.6753,65.681 444.8011,66.2443" stroke="black" /><polyline fill="none" points="454.1838,39.2491 454.0601,38.5512 454.0507,37.7204 454.3261,37.3431 454.9685,37.892 455.864,39.4776 456.6977,42.1399 457.3184,45.4949 457.5804,48.8217 457.5822,51.5607 457.4666,53.1978 457.457,53.8038" stroke="black" /><polyline fill="none" points="456.61,54.8456 456.7726,55.9258 456.9869,57.9946 457.345,60.9189 457.9016,64.0707 458.7121,66.7775 459.4217,68.7644 459.921,69.8498 460.0938,70.2791" stroke="black" /><polyline fill="none" points="453.857,57.1596 453.6189,56.5946 453.8336,55.7897 454.9476,54.9093 457.0673,54.314 459.61,53.9499 461.9927,53.7629 463.5859,53.8104 464.3708,53.8677" stroke="black" /><polyline fill="none" points="486.9085,78.2895 487.2298,77.8455 487.6525,76.6623 488.3174,74.3604 488.9529,71.0701 489.3507,67.1924 489.7702,63.36 490.3405,59.934 491.3516,57.0313 492.8027,54.6969 494.4424,53.2185 495.8674,52.5449 497.1222,52.6994 497.9841,53.5661 498.3441,54.9412 497.7968,56.9083 496.5509,59.0439 494.6814,60.8555 492.4332,62.4814 490.4344,63.9541 488.7413,65.9705 487.6194,68.7816 486.9197,71.8688 486.7605,74.8522 486.675,77.4327 486.7842,79.0509 486.8146,79.9718" stroke="black" /><polyline fill="none" points="504.8262,58.1864 504.446,58.0906 504.2808,58.6043 504.2856,59.7269 504.5775,61.1459 504.9856,62.3198 505.4089,62.5285 505.92,61.4365 507.0488,59.6133 508.4739,57.5029 509.9604,55.7751 511.0761,54.7824 511.6422,54.477" stroke="black" /><polyline fill="none" points="524.5052,58.8328 523.8413,58.2162 522.7072,57.5249 521.207,57.2767 519.6526,57.6115 518.311,58.6905 517.412,60.1805 517.1169,61.8147 517.5179,63.4375 518.3935,64.8657 519.7773,65.3814 521.6284,64.737 523.7163,63.3106 525.6107,61.3423 527.2104,59.5489 527.8615,58.1224 527.8991,57.1576 527.5952,56.5017" stroke="black" /><polyline fill="none" points="526.5565,42.6109 526.8826,43.2895 527.419,44.8695 528.2748,47.5546 529.3163,51.2754 530.3301,55.3324 531.2555,59.2983 532.08,62.5442 532.6279,64.8203 533.0117,66.106 533.2263,66.738" stroke="black" /><polyline fill="none" points="526.85,58.1962 527.5904,58.2303 529.165,58.0306 531.7315,57.5771 534.7035,57.0402 537.6965,56.5934 539.9221,56.4039 541.0889,56.4447" stroke="black" /><polyline fill="none" points="544.1107,61.2967 544.8734,61.3312 546.4908,61.2668 548.9462,60.7442 551.6113,59.731 553.7451,58.2379 554.9812,56.7307 555.0234,55.4741 554.0255,54.6951 552.191,54.2846 549.7665,54.2689 547.111,54.6761 544.6667,55.9173 542.8461,57.4826 541.8306,59.2403 541.5996,61.0776 542.2019,62.7484 543.6575,64.4102 546.0098,66.1535 549.314,67.328 552.9431,67.8341 556.3832,67.5066 559.1595,66.5625 560.9257,65.6025 561.7664,64.9646" stroke="black" /><polyline fill="none" points="564.0793,70.6361 564.093,71.1976 564.5298,71.9678 565.6857,72.7044 567.6142,72.847 569.7995,72.3651 571.4094,71.3577 572.2365,70.1584 571.9456,68.6721 570.6436,67.2372 568.4006,65.6752 565.6383,64.3072 562.8083,62.9605 560.6021,61.9155 559.1829,60.7931 558.5928,59.7735 558.8328,58.7894 560.0618,57.7312 561.9438,56.5485 564.2701,55.6646 566.5014,55.116 568.0508,55.0955 568.943,55.4687 569.2968,55.8111" stroke="black" /><polyline fill="none" points="571.7894,45.7924 572.2473,46.6527 573.0253,48.5733 573.9638,51.7087 574.7111,55.582 575.0739,59.6288 575.2671,63.0443 575.3436,65.313 575.4371,66.5044 575.5648,66.9554" stroke="black" /><polyline fill="none" points="575.0329,59.3812 575.9531,59.3957 577.412,59.4186 579.0281,59.4441 580.2177,59.4628 580.8012,59.472" stroke="black" /><polyline fill="none" points="589.9417,59.2791 589.6577,58.7807 588.8125,58.2735 587.4234,58.0945 585.7073,58.7185 584.3356,60.2909 583.2913,62.4522 582.9189,64.7139 582.9794,66.5782 583.3212,67.6837 583.9913,67.8963 585.2339,67.3995 586.982,66.1697 589.4354,64.345 592.0922,62.4336 594.2509,60.7838 595.8625,59.6641 596.8116,59.275 597.2057,59.9098 597.228,61.347 596.9272,63.3404 596.335,65.3067 595.887,66.6691 595.8788,67.1854 596.4681,66.8354 597.8791,65.6228 599.7447,64.0582 601.7692,62.3838 603.608,61.0882 604.919,60.5251 605.6102,60.8278 605.9293,61.9554 605.902,63.6837 605.7882,65.2085 605.772,66.241" stroke="black" /><polyline fill="none" points="605.7766,65.9492 606.1182,65.6403 606.9841,64.8232 608.7557,63.5265 611.2266,62.0163 614.0124,60.4662 616.5867,59.5189 618.8329,59.442 620.5741,60.0755 621.6976,61.4403 621.9629,63.1282 621.4458,64.6018 620.6436,65.6444 620.0287,66.196" stroke="black" /><polyline fill="none" points="630.5162,47.4576 630.7505,46.8327 631.2136,45.942 631.9232,45.0776 632.5352,44.7055 632.7515,45.2253 632.4816,46.6803 632.043,48.8736 631.5902,51.9647 631.419,55.7112 631.2667,59.6826 631.0741,63.3615 630.937,66.3677 630.9059,68.3428 630.9791,69.3992" stroke="black" /><polyline fill="none" points="629.2617,54.42 630.0767,53.9838 631.5459,53.3559 633.3963,52.7564 634.951,52.3992 635.9403,52.3025" stroke="black" /><polyline fill="none" points="632.0215,80.1919 632.5754,79.2352 633.4983,77.6558 634.7845,75.8126 635.9091,74.2588 636.3546,73.0534 636.2035,72.6694 635.7966,72.8426" stroke="black" /></svg>