<?xml version="1.0" encoding="utf-8" ?>
<svg baseProfile="tiny" height="86px" version="1.2" width="508px" xmlns="http://www.w3.org/2000/svg" xmlns:ev="http://www.w3.org/2001/xml-events" xmlns:xlink="http://www.w3.org/1999/xlink"><defs /><rect fill="white" height="100%" width="100%" x="0" y="0" /><polyline fill="none" points="20.0,20.0" stroke="black" /><polyline fill="none" points="29.72,53.7152 30.6839,53.3445 32.6703,52.6381 35.4877,51.5489 38.4462,50.2634 40.8121,49.2162 42.0536,48.3589 42.0179,47.6613 40.6345,47.2217 38.2765,46.9454 35.4801,46.597 32.9051,46.1427 31.3318,45.3159 30.907,44.0334 31.7779,42.2121 33.7383,40.2594 36.2014,38.5268 38.5306,37.5004 40.2544,37.2043 41.0191,37.3731" stroke="black" /><polyline fill="none" points="45.2777,41.9185 45.2867,43.2034 45.3613,45.7702 45.5493,49.4465 45.9988,53.4307 46.6882,56.9301 47.265,59.3389 47.7396,60.4865" stroke="black" /><polyline fill="none" points="45.7358,50.1363 46.4285,50.0064 47.9417,49.2863 49.9991,48.1226 52.0871,46.4469 53.3926,44.6223 53.4604,42.9932 52.3203,41.7662 50.5284,41.1018 48.718,41.5535 47.5172,42.4655 46.9998,43.4371" stroke="black" /><polyline fill="none" points="58.1063,39.9581 58.2453,41.1985 58.3891,43.2704 58.3448,45.7299 58.2329,47.6069 58.1999,48.4403 58.2574,48.4562" stroke="black" /><polyline fill="none" points="59.2897,35.38 59.3206,35.9833 59.3524,36.6055" stroke="black" /><polyline fill="none" points="60.4915,50.0053 60.8232,49.1 61.5205,47.2119 62.5002,44.9314 63.8554,42.9719 65.9534,41.8628 68.6832,41.6475 71.5207,41.6914 74.0329,41.6574 75.5614,41.9762 76.251,43.264 76.7476,45.5825 77.0847,48.4761 77.2714,51.0183 77.3911,52.6188 77.3267,53.2081" stroke="black" /><polyline fill="none" points="79.7639,53.556 80.71,53.2052 82.5828,52.1265 84.9947,50.1318 87.4512,47.53 89.2459,44.9243 89.9757,42.562 89.6467,40.9344 88.5785,40.0061 86.9364,40.0523 85.3096,41.1373 84.0574,43.2617 83.4136,45.8275 83.406,48.2662 83.7737,49.9107 84.1395,50.7804" stroke="black" /><polyline fill="none" points="84.3139,51.6032 85.0433,52.1896 86.5079,52.7385 88.6788,52.6841 90.9993,51.488 93.1966,48.994 94.9991,45.8019 96.3463,42.5764 97.1732,40.2659 97.6046,39.0908" stroke="black" /><polyline fill="none" points="97.6116,37.0112 97.9027,36.0513 98.3999,33.9466 98.9263,30.9332 99.1988,27.7627 99.145,25.2326 98.9258,23.9018 98.4167,23.9278 97.895,25.1831 97.4688,27.5676 97.2977,31.2433 97.4745,35.8085 97.9326,40.6996 98.6145,45.1633 99.4257,48.8266 100.4458,51.4018 102.0267,53.1166 104.2039,53.5534 106.5325,52.8861 108.618,51.5319 109.9514,50.254 110.4615,49.5097" stroke="black" /><polyline fill="none" points="110.3701,49.571 110.7313,48.8721 111.5117,47.131 112.5919,44.5996 113.4673,41.7574 113.6295,39.3864 113.0047,37.8873 111.7571,37.5163 110.3194,38.2325 109.1319,40.1457 108.5346,42.8792 108.8416,45.9256 110.0976,48.6777 112.0812,50.5042 114.4483,51.3282 116.4205,51.4542 117.658,51.2586" stroke="black" /><polyline fill="none" points="124.8654,47.6766 123.9996,48.1178 122.5411,48.7973 120.9115,49.8257 119.8285,50.8262 119.8236,51.4691 120.99,51.7308 122.8269,51.4289 124.6378,50.618 125.7,49.5808 125.6571,48.3733 124.5214,46.8625 122.895,44.9988 121.4286,42.9379 120.6724,41.0864 121.2473,39.3937 122.9616,38.1719 125.2931,37.5612 127.5525,37.3889 129.0752,37.5945 129.6649,38.0369" stroke="black" /><polyline fill="none" points="128.4304,55.6599 129.5509,55.3946 131.5721,54.6297 133.9447,53.7144 136.0428,52.6053 137.265,51.3709 137.3212,50.2528 136.035,49.1278 133.8198,47.5777 131.2286,46.0658 129.067,44.4563 127.8776,43.005 127.9725,41.9038 129.0941,40.9203 131.1641,40.0016 133.7755,39.3199 136.1688,39.1786 137.834,39.5849 138.5861,40.2458 138.6885,40.7698" stroke="black" /><polyline fill="none" points="148.7951,57.2834 148.8871,56.1257 149.0883,54.8868 149.3427,53.9476" stroke="black" /><polyline fill="none" points="148.0445,48.8916 148.1346,47.6961 148.3751,45.3778 148.8546,41.8186 149.6151,37.4701 150.5347,32.9055 151.3391,29.0462 151.9074,26.4843 152.1294,25.2821" stroke="black" /><polyline fill="none" points="159.4759,33.6579 159.45,32.4117 159.4343,30.2577 159.5453,27.6247 159.7559,25.4591 159.8431,24.2071" stroke="black" /><polyline fill="none" points="163.928,33.4869 164.05,32.1764 164.3229,30.1211 164.7577,27.9062 165.2046,26.2956 165.4875,25.544" stroke="black" /><polyline fill="none" points="188.8759,26.786 189.1199,27.4918 189.5451,29.1523 190.2302,31.4611 190.8119,33.9642 190.7396,35.877 190.3373,36.8804 189.9191,37.2043" stroke="black" /><polyline fill="none" points="194.365,29.1515 194.6173,29.6489 194.9236,31.2021 195.3017,33.7912 195.675,37.0233 196.1014,39.8178 196.6653,41.6036 197.1375,42.3355" stroke="black" /><polyline fill="none" points="209.3493,29.4247 209.688,30.5036 210.4481,32.4305 211.666,34.8066 213.0211,36.911 214.0322,38.2013 214.5832,38.6268" stroke="black" /><polyline fill="none" points="210.239,67.145 210.6308,65.9342 211.4596,63.6614 212.7367,60.1748 214.3301,55.4813 216.045,49.8364 217.5974,43.973 218.8666,38.4833 219.8475,34.0101 220.4613,30.8599 220.7966,28.9147 220.9596,28.0369" stroke="black" /><polyline fill="none" points="221.1973,54.4873 221.0583,53.2469 221.4834,51.5807 222.6626,49.8759 224.5504,48.7209 226.5324,48.2982 228.2469,48.9287 229.2894,50.4632 229.4767,52.6462 228.745,54.9708 227.0679,56.5498 225.1589,57.2901 223.7155,57.156 222.9185,55.9871 222.8563,54.4025 223.2036,53.0616 223.4193,52.1055" stroke="black" /><polyline fill="none" points="231.7368,47.3137 231.7284,48.2592 232.0341,50.1716 232.5535,52.5644 233.5683,54.6673 234.9555,55.9195 236.3873,55.8274 237.5302,54.5214 238.3465,52.7407 238.7527,51.0754 239.1352,50.0541 239.854,50.4331 240.9559,52.0212 242.3618,54.0096 243.7451,55.9236 244.8137,57.2299 245.3289,57.6949" stroke="black" /><polyline fill="none" points="262.4578,44.835 263.7031,44.0531 265.7331,42.7206 268.1189,40.9541 270.1184,39.3964 271.3116,38.3336 271.7873,38.0257" stroke="black" /><polyline fill="none" points="267.0968,53.1225 267.1415,51.7782 267.3216,49.3873 267.6792,46.4015 267.943,43.7984 268.155,42.0297 268.1788,41.3858" stroke="black" /><polyline fill="none" points="268.7184,40.1107 268.6344,39.2077 268.6061,37.5458 268.6266,35.7302 268.6892,34.366" stroke="black" /><polyline fill="none" points="276.5076,30.904 276.4872,31.9825 276.5144,34.3627 276.5807,37.8751 276.7841,41.8529 277.0137,45.6027 277.3885,48.4944 277.9171,49.9606 278.5425,50.3633 279.4079,49.5441 280.4102,48.0752 281.5879,46.7107 282.6336,46.0902 283.6138,46.7772 284.0907,48.3406 284.5536,49.9992 285.177,51.1014 286.473,50.9406 288.2738,49.5632 290.356,47.7744 291.9215,45.8608 293.0997,44.8744 293.7479,45.3516 294.2692,47.045 294.9017,49.4321 295.5801,51.6089 296.0604,52.8696" stroke="black" /><polyline fill="none" points="294.9145,40.075 294.9348,40.4709" stroke="black" /><polyline fill="none" points="295.7448,52.2431 296.3544,51.9662 297.4041,50.6839 298.6327,48.4662 299.6834,45.7284 300.6621,43.4291 301.6542,42.1308 302.4697,42.1836 303.0641,43.4574 303.5898,45.6042 304.0226,48.1528 304.7971,50.3625 305.977,51.6252 307.2937,51.5012 308.5111,50.1725 309.7194,48.2961 310.6066,46.7953 311.4047,46.5087 312.0978,47.494 312.8242,48.7611 313.6922,49.4727 314.7872,49.0765 316.036,47.2547 317.4325,44.2535 318.6492,40.6945 319.6048,37.2054 320.1364,34.6643 320.3338,33.35" stroke="black" /><polyline fill="none" points="320.2303,30.2176 320.3829,30.9847 320.5959,32.5616 320.8411,35.1386 321.0684,38.4726 321.2177,42.1319 321.3661,45.7724 321.5345,48.6936 321.8006,50.5701 322.0784,51.1986 322.138,50.5151 322.2064,48.5269 322.7225,45.6841 323.8579,42.753 325.569,40.3594 327.3215,38.7765 328.5238,38.2614 329.084,38.4974 328.9427,39.4308 327.9216,40.9006 326.4098,42.7547 324.7781,44.4827 323.8155,45.9873 324.0343,46.9401 325.468,47.6229 328.0439,48.096 331.2173,48.4251 334.254,48.6667 336.5129,48.8536 337.6875,48.907" stroke="black" /><polyline fill="none" points="358.3528,40.516 358.8679,41.7183 359.7968,43.6177 361.2491,45.7738 363.0268,47.2706 364.7283,47.2781 366.1825,46.1452 367.2481,44.8054 367.7041,43.7425" stroke="black" /><polyline fill="none" points="367.6584,42.4784 367.8878,43.6386 368.3665,45.9768 368.8127,49.5264 368.729,53.8025 367.9995,58.0172 366.5754,61.5868 364.5995,63.975 362.426,65.088 360.1879,64.9379 357.9852,63.6329 356.3482,61.5618 355.5253,59.1466 355.7393,56.6785 357.2488,54.4086 360.0639,52.1665 363.7926,50.0478 367.6977,48.0524 371.188,46.0782 373.8653,44.4669 375.6844,43.4477 376.8659,42.8958 377.1719,43.3338 376.4264,44.2792 375.1264,45.1018 373.8506,45.6585 373.0298,45.8706" stroke="black" /><polyline fill="none" points="372.2379,46.6483 372.4868,47.4483 373.1044,48.4374 374.4419,49.0873 376.127,48.7743 377.7896,47.6496 378.813,46.5955 379.4338,46.1668 380.0313,46.0228 381.2534,45.5256 382.7177,44.222 383.9753,42.57 384.6706,41.3814" stroke="black" /><polyline fill="none" points="384.8445,41.8261 384.739,42.7199 384.4778,44.2643 384.2832,46.3724 384.3317,48.4302 385.1437,49.5228 386.4764,49.3412 388.1037,47.897 389.5349,45.5745 390.5372,43.3684 391.1296,42.015 391.699,42.0615 392.3717,43.388 393.0806,45.0529 393.5846,46.407" stroke="black" /><polyline fill="none" points="422.1465,39.4078 421.3329,39.3927 419.8667,39.9214 417.933,41.2867 416.2592,43.3003 415.3342,45.5402 415.5041,47.3839 416.8913,48.6361 419.2656,49.2329 422.4546,49.1265 426.0869,48.4493 429.6386,47.3036 432.5744,45.9437 434.2568,44.837 434.6576,44.1738 433.7894,44.1993 432.2105,45.1118 430.5861,46.6125 429.5104,48.1229 429.2535,49.3836 430.0245,50.0435 431.6042,49.8871 433.8052,48.9429 435.8994,47.7583 437.4131,46.6791 438.1798,46.1485" stroke="black" /><polyline fill="none" points="439.3319,44.653 438.8436,45.4529 438.2822,46.6725 438.1723,47.85 439.0564,48.5042 440.6801,48.0998 442.6235,46.923 444.4113,45.6596 445.5304,44.9975 445.9654,45.3722 445.93,46.527 445.8317,47.9308 446.1042,48.8241 447.056,48.5864 448.5658,47.4318 450.2299,45.9668 451.4651,44.6183 452.1676,43.9397" stroke="black" /><polyline fill="none" points="452.6278,43.3302 452.8269,44.2652 453.5281,45.7792 454.6677,47.3654 456.3126,48.113 458.3163,47.7458 460.3531,46.5454 461.9398,45.0466 463.0179,43.9518 463.4076,43.4404" stroke="black" /><polyline fill="none" points="463.9443,42.1088 464.6207,40.9211 465.7454,38.5198 467.0795,35.4083 468.3507,32.5459 468.9949,30.3581 469.0623,29.0882 468.4349,28.6478 467.4719,29.0373 466.1897,30.5772 465.0862,33.3933 464.1601,37.0887 463.6602,40.9892 463.7095,44.5402 464.4811,47.4305 465.8049,49.2908 467.6195,50.0297 470.037,49.6225 472.6939,48.3525 475.2411,46.7856 477.2295,45.3797 478.4623,44.3527 478.5692,43.8557 477.7764,43.8774 476.5286,44.9808 475.4572,46.9447 474.9101,49.1842 475.1931,51.0221 476.1207,51.7874 477.3805,51.2883 478.7869,49.5908 480.149,47.0261 481.2602,44.3608 481.9507,42.3407 482.2738,41.2657" stroke="black" /><polyline fill="none" points="482.3596,39.6169 482.6072,38.5457 482.8584,36.4348 483.084,33.4556 483.0965,30.374 482.672,27.6171 481.5913,25.7066 480.381,24.9557 479.1962,25.073 478.5459,26.0325 478.4122,27.8539 478.931,30.6059 479.9819,34.5216 481.8603,39.0943 483.9537,43.8071 485.9515,48.128 487.3278,51.3843 488.1256,53.3093" stroke="black" /></svg>