<?xml version="1.0" encoding="utf-8" ?>
<svg baseProfile="tiny" height="92px" version="1.2" width="542px" xmlns="http://www.w3.org/2000/svg" xmlns:ev="http://www.w3.org/2001/xml-events" xmlns:xlink="http://www.w3.org/1999/xlink"><defs /><rect fill="white" height="100%" width="100%" x="0" y="0" /><polyline fill="none" points="20.0,20.0" stroke="black" /><polyline fill="none" points="31.6122,39.5874 32.4146,39.7417 34.3052,40.144 37.1449,40.4643 40.8003,40.5527 45.2464,40.4357 49.9263,40.3883 54.4553,40.4486 58.5019,40.7045 61.5157,40.8393 63.3666,40.8055 64.2899,40.7244" stroke="black" /><polyline fill="none" points="49.3342,36.369 49.5388,37.134 49.6994,38.9294 49.9484,41.8795 50.1857,46.0645 50.4776,51.1481 50.8365,56.7182 51.3156,62.0273 51.6871,66.3881 52.2014,69.5868 52.652,71.6044 52.8914,72.6513" stroke="black" /><polyline fill="none" points="73.2831,30.8157 73.3029,31.4323 73.2911,32.6674 73.4276,34.515 73.6717,37.3108 73.9671,40.9024 74.2508,44.9317 74.4492,48.7064 74.3949,51.8205 74.518,54.0544 74.8734,55.5091 75.543,56.3365 76.8502,56.1916 78.6905,55.0265 80.8185,53.209 83.0667,51.1305 85.2138,49.1067 86.866,47.6904 88.1277,46.9297 88.9798,47.0309 89.5573,48.1956 90.0353,50.2637 90.8646,52.8607 91.9716,55.2945 93.4128,56.9201 95.2843,57.5288 97.529,56.9423 100.0092,55.6794 102.4713,53.8513 104.6599,51.5175 106.4838,49.041 107.8766,46.7585 108.55,44.4991 108.6514,42.8496 107.9752,41.8167 106.809,41.5455 105.646,42.1745 104.6121,43.6224 103.8766,45.5494 103.7893,47.6357 104.1297,49.4253 104.6335,50.6952 105.115,51.2714" stroke="black" /><polyline fill="none" points="105.1298,51.7339 105.5019,52.1078 106.586,53.0247 108.5345,54.4283 111.4611,55.8519 114.8055,56.6705 118.1508,56.7174 121.0951,56.2885 123.111,55.7865 124.1057,55.523" stroke="black" /><polyline fill="none" points="158.8526,26.5761 158.6461,27.3544 158.5174,28.9533 158.6272,31.5734 159.3818,35.0474 160.7497,39.1961 162.7624,43.4013 165.0148,47.0587 167.191,49.9468 169.0549,51.919 170.7829,52.8667 172.2774,52.9473 173.7107,51.9239 175.0836,49.822 176.5529,46.7139 177.9285,43.0944 179.1741,39.4276 179.952,36.4189 180.2996,34.4271 180.3445,33.4225" stroke="black" /><polyline fill="none" points="180.4752,35.0903 180.8423,36.1074 181.6187,37.8572 182.8293,40.3134 184.277,42.942 186.0728,45.1993 187.9533,46.888 189.8281,47.5995 191.6219,47.3875 193.0311,46.4163 194.0783,44.5821 194.9374,41.6994 195.5389,38.0019 195.8454,33.9279 195.8028,30.1996 195.2769,27.4385 194.6861,25.8627 194.2535,25.2079" stroke="black" /><polyline fill="none" points="207.3448,37.1855 206.5764,37.2873 205.43,37.6328 203.942,38.5551 202.4307,40.3528 201.2019,42.9387 200.2168,45.9026 199.7373,48.5931 199.9533,50.5153 200.7531,51.3899 202.0121,51.3495 203.5747,50.3476 205.1292,48.2914 206.5154,45.8033 207.5784,43.6599 208.2541,42.275 208.5741,41.8274" stroke="black" /><polyline fill="none" points="208.5263,40.3371 208.5917,40.7722 209.0424,41.9924 209.6945,43.8749 210.6117,46.0061 211.8797,47.8431 213.3831,49.0038 215.263,49.072 217.5765,48.2261 219.6838,46.5636 221.5126,44.2414 222.7795,42.04 223.5216,40.3186 224.0299,39.3248 224.3341,39.1864 224.4417,40.1347 224.5467,41.8032 224.4386,44.0445 224.3554,46.2593 224.6652,47.8955 225.1757,48.5737 226.0701,48.3906 227.321,47.2958 228.8099,45.6018 230.366,43.597 231.7762,41.854 232.8241,40.843 233.6206,40.8174 234.0905,41.8312 234.3721,43.3912 234.8932,45.2007 235.6671,46.8735 236.6558,48.025 237.9562,48.4719 239.3355,48.1704 240.6769,46.6869 242.3084,44.6282 243.8016,42.2653 245.0726,40.1924 246.1387,38.9493 246.8715,38.5399 247.2519,39.1707 247.5848,40.7291 247.7503,42.6787 248.1421,44.4666 248.8126,45.3196 249.7269,44.9559 250.9414,43.5279 252.5962,41.3913 254.507,39.2207 256.4801,37.3826 258.0294,35.9695 259.2505,35.5445 260.0818,35.8007 260.6361,37.0433 260.9798,38.9357 261.156,41.2193 261.0099,43.076 261.0511,44.3608 261.4033,44.9153 262.3226,44.7058 263.8562,43.6019 265.9104,41.8898 268.099,39.5559 270.0629,37.4351 271.4358,36.1307 272.1628,35.5414" stroke="black" /><polyline fill="none" points="272.729,34.7516 272.8093,35.6493 272.7377,37.4264 272.7473,40.1269 272.717,43.1888 272.8915,46.2184 273.4067,48.6454 274.3539,50.1069 275.3153,50.4104 276.3589,50.0682 277.0338,49.4549 277.4052,49.0057" stroke="black" /><polyline fill="none" points="274.8415,26.0412 275.3355,26.2054 275.8543,26.343" stroke="black" /><polyline fill="none" points="278.4449,46.9403 278.9364,47.0274 280.0388,46.9149 281.792,46.2412 283.9597,44.8598 285.8979,42.7398 287.2676,40.5352 287.8249,38.6653 287.6344,37.5397 286.7708,37.0787 285.6202,37.2957 284.3154,38.315 283.0785,39.8466 282.2692,41.8789 282.3178,44.1923 283.0303,46.3558 284.0844,47.9424 285.3557,49.0848 287.1701,49.5153 289.6825,49.2546 293.1217,48.2181 296.6414,46.4846 299.6837,44.3035 302.0223,41.8362 303.5486,39.7037 304.4034,38.2873 304.8395,37.4502" stroke="black" /><polyline fill="none" points="303.959,38.8675 303.867,39.2048 303.8983,40.1812 304.0539,41.8224 304.3214,43.743 304.346,45.3113 304.4147,45.8492 304.6743,45.1207 305.0318,43.4372 305.8834,41.1206 307.3765,38.7577 309.449,36.8135 312.0552,35.4694 314.8196,35.0463 317.1727,35.4337 319.0451,36.0681 320.2469,36.6468 320.8461,36.8848" stroke="black" /><polyline fill="none" points="348.2382,64.8653 348.2101,63.9916 348.1125,62.5543 348.0126,60.2426 348.1225,57.2553 348.4886,53.4367 349.1814,48.5787 350.3733,43.2417 351.847,37.8699 353.4624,32.9052 355.1606,28.9152 356.7591,25.8286 358.2556,23.5685 359.8903,22.41 361.5771,22.0729 362.9746,22.3366 363.8896,22.796" stroke="black" /><polyline fill="none" points="340.6829,42.6526 341.5292,42.574 343.279,42.5949 345.9803,42.6111 349.6373,42.7509 354.2981,42.9099 359.4181,42.9513 364.5373,42.9669 369.247,43.0472 372.7697,43.0112 375.3932,43.0042 377.0186,43.1578 378.0198,43.8973 378.8169,45.4922 379.4797,47.7087 379.859,49.9086 380.3229,51.5399 380.9619,52.2139 382.1149,52.074 383.7297,51.0961 385.5154,49.0325 387.2001,46.2261 388.4671,43.2274 389.5152,40.6216 390.1835,39.0053 390.4985,38.4036" stroke="black" /><polyline fill="none" points="390.8387,36.1806 390.7093,36.9564 390.7845,38.4973 391.1463,40.955 391.8587,43.9159 392.514,46.6985 392.8435,48.9515 393.1691,50.2786 393.484,50.4742 393.916,49.5087 394.7344,47.759 395.9225,45.5088 397.1935,43.4359 398.6641,41.974 399.8794,41.3691 400.9453,41.7207 401.7416,43.2899 402.4044,45.5064 402.8392,47.8331 403.4183,49.8466 404.1757,51.0055 405.4182,51.2485 407.3023,50.6479 409.693,49.0021 412.0855,46.6103 414.4076,44.4265 416.3383,42.8726 417.6978,41.9544 418.69,41.6139 419.2495,41.4159" stroke="black" /><polyline fill="none" points="420.8601,41.1069 420.2409,41.0497 419.32,41.2078 417.8577,42.1293 416.2884,43.723 414.9917,45.7967 414.1824,47.829 414.0587,49.5821 414.9172,50.6863 416.4265,51.2294 418.527,50.9562 421.1166,49.8956 424.0644,47.9747 427.1523,45.612 429.8788,43.2095 432.0226,41.0829 433.5663,39.49 434.5146,38.585 435.1173,38.1284" stroke="black" /><polyline fill="none" points="435.9605,36.3522 436.3576,35.9022 437.1974,34.8206 438.5554,33.0536 440.1049,30.8432 441.3983,28.6668 441.8138,27.1873 441.5561,26.3725 440.8093,26.345 439.8327,27.1737 438.624,28.7816 437.3446,31.3949 436.1472,34.9572 435.5838,39.0394 435.6437,43.3073 436.0758,47.1517 436.2983,50.0769 436.3394,52.1591 436.1669,53.1935 435.8618,53.3062 435.0446,52.6894 434.0278,51.4616 433.0375,50.2588 432.5884,49.09 432.8787,47.7174 434.0402,46.2397 435.8432,44.7156 438.3417,43.2207 441.431,42.5042 444.822,42.3695 448.0007,42.8334 450.556,43.9088 452.2326,45.6555 453.0736,47.8149 453.2606,50.4325 453.0356,53.0376 452.7137,55.0286 452.4151,56.1442" stroke="black" /><polyline fill="none" points="460.7523,37.0223 461.0125,37.9142 461.3787,38.9056 461.7383,39.6914" stroke="black" /><polyline fill="none" points="466.4579,45.6874 466.0964,46.445 465.6295,47.9261 465.1028,49.9493 464.9144,52.0903 465.3551,53.7995 466.1059,54.7529 467.2083,54.6403 468.6143,53.5663 469.8098,51.5473 470.581,49.1304 470.7115,46.7855 470.2194,45.0779 469.7488,44.0384 469.7919,43.7798 470.673,43.983 472.5612,44.3082 475.2467,44.6336 478.1884,44.9249 480.7339,44.8946 482.4869,45.0184 483.4832,45.6037 483.7747,46.6747 483.4396,48.2545 482.7448,49.8459 482.0633,51.051 481.9604,51.8516 482.8904,51.9761 484.462,51.2569 486.3198,49.834 488.3127,47.8151 490.3338,45.8725 492.2155,44.3974 493.89,43.6748 494.8697,43.7462 495.5716,44.7783 495.9825,46.3599 496.3287,48.3294 497.0056,50.1853 498.3076,51.4811 500.0971,51.938 502.6302,51.5223 505.6243,50.243 508.8895,48.5948 512.3122,47.0445 515.5359,45.7063 518.0285,44.8289 519.8736,44.6153 521.4111,45.2347 522.6882,46.5569 523.618,48.2762 523.7072,50.2539 522.6964,52.4213 520.9671,54.6375 518.7437,56.6895 516.208,57.8255 513.8971,57.9511 512.1366,57.5961" stroke="black" /></svg>