<?xml version="1.0" encoding="utf-8" ?>
<svg baseProfile="tiny" height="102px" version="1.2" width="462px" xmlns="http://www.w3.org/2000/svg" xmlns:ev="http://www.w3.org/2001/xml-events" xmlns:xlink="http://www.w3.org/1999/xlink"><defs /><rect fill="white" height="100%" width="100%" x="0" y="0" /><polyline fill="none" points="20.0,20.0" stroke="black" /><polyline fill="none" points="36.4018,53.719 35.9766,54.7976 35.038,56.8614 33.6726,59.534 32.0226,62.0923 30.0775,63.8542 28.0932,64.3573 26.4908,63.7047 25.4076,61.8703 25.0432,59.2838 25.518,56.4945 26.9712,53.9305 29.2078,52.0407 31.9004,51.149 34.5141,50.8915 36.2276,51.3654 36.9493,52.0833 37.0849,52.6327" stroke="black" /><polyline fill="none" points="36.63,53.165 36.795,53.7456 37.0629,55.4807 37.4631,58.4014 37.876,61.9287 38.2091,65.0748 38.7705,67.1366 39.3373,67.9712 39.8325,68.1371" stroke="black" /><polyline fill="none" points="65.7156,67.4935 65.7498,66.3126 65.8188,63.9357 65.8868,60.5437 66.0371,56.9267 66.2205,53.7349 66.384,51.7548 66.4985,50.9399" stroke="black" /><polyline fill="none" points="65.8607,64.0582 66.2315,62.7659 66.9474,60.5441 67.872,57.9193 68.8293,55.7349 69.5937,54.454 70.1499,54.6064 70.6114,55.938 71.0664,58.0119 71.6439,60.0439 72.3644,61.3224 73.1084,61.2682 73.8356,60.2286 74.6298,58.9637 75.3352,58.1508 75.9737,58.0784 76.4512,59.3802 76.7954,61.6175 76.9652,64.1225 77.1166,66.2179 77.1883,67.4018" stroke="black" /><polyline fill="none" points="83.3356,52.3977 83.3225,52.8519 83.2935,53.8511 83.2404,55.6829 83.1307,58.4223 82.9935,61.5851 83.067,64.7994 83.3108,67.3672 83.9633,68.9013 84.9974,69.2949 86.2892,68.6354 87.7271,66.6012 89.0073,63.7292 89.8547,60.6324 90.3488,58.2224 90.5086,56.8937" stroke="black" /><polyline fill="none" points="97.628,42.3269 97.6114,42.9021 97.5701,44.3252 97.4604,47.0646 97.3074,50.7724 97.2932,54.9236 97.5597,58.7951 98.3687,61.7277 99.7084,63.6 101.3963,64.4368 102.9484,64.2091 104.1181,63.0611 104.8051,60.7931 105.2281,57.6992 105.5838,54.3154 105.9761,51.2358 106.2477,49.183 106.3787,48.3231" stroke="black" /><polyline fill="none" points="104.9661,61.5099 105.6851,62.3186 106.837,63.3521 108.1655,64.0421 109.2755,63.9076 110.1365,62.4325 110.5104,59.9888 110.325,56.453 109.7835,52.1341 109.0678,47.5526 108.473,43.5049 108.2269,40.4977 108.1808,38.9508 108.2126,38.376" stroke="black" /><polyline fill="none" points="104.5675,60.1044 104.3369,59.1734 104.3189,57.7031 105.0346,56.0117 106.7243,54.697 109.2861,54.1349 112.2251,54.6746 115.002,56.1037 117.0554,57.9208 118.3247,59.6092 118.8006,60.4412 118.7688,59.9706 118.4864,58.7351 118.2071,57.3936 117.9934,56.4025" stroke="black" /><polyline fill="none" points="117.1485,39.029 117.4335,40.1736 117.8024,41.5632 118.1462,42.7701" stroke="black" /><polyline fill="none" points="124.6612,60.5505 124.3696,61.7239 124.0636,63.3969 124.1324,65.202 124.7635,66.4324 126.155,66.5182 128.0153,65.5873 129.8935,63.5205 131.3853,60.6697 132.1945,57.8446 132.0764,55.6441 131.3118,54.3189 130.1878,53.8923 128.8864,54.3546 127.663,55.7889 126.4178,58.4953 125.3045,62.4025 124.4791,66.8333 124.2182,71.1289 124.3737,74.6487 124.7764,76.9635 125.2275,78.1281 125.7115,78.1573 126.1202,77.1236 126.5152,74.9987 126.7168,71.7014 126.789,67.6427 126.6827,63.4728 126.5181,59.7407 126.3349,57.1747 126.2248,55.7472 126.1511,55.1541" stroke="black" /><polyline fill="none" points="135.5564,40.1384 135.523,41.289 135.4256,43.6044 135.2748,47.2365 135.3092,51.7983 135.5201,56.547 136.1052,60.9277 136.9339,64.2246 137.7358,66.354 138.5858,67.3483 139.4959,67.3141 140.3543,65.9298 141.2532,63.668 141.8724,61.1252 142.2219,58.9989 142.5879,57.8731 142.9901,58.1121 143.5276,59.4307 144.2262,61.4662 144.7761,63.4064 145.1636,64.6753" stroke="black" /><polyline fill="none" points="142.9063,47.4123 143.04,46.4616 143.508,45.4751 144.4135,45.0771 145.5625,45.6862 146.6447,47.0358 147.3652,48.3143 147.6928,49.036" stroke="black" /><polyline fill="none" points="150.2386,52.6856 150.0891,53.1359 149.7855,54.2029 149.2736,55.6578 148.9412,57.1936 149.3416,58.5386 150.7171,59.6998 152.9761,60.1743 155.9237,59.8961 158.7012,58.6887 160.8418,56.978 162.1405,55.5611 162.5569,54.7852" stroke="black" /><polyline fill="none" points="158.1905,42.8552 158.6934,43.2789 159.5394,43.3641 160.4249,43.1321 161.0463,42.6047" stroke="black" /><polyline fill="none" points="160.6882,58.0948 161.234,59.1258 161.8148,60.5215 162.4748,61.7982 162.8855,62.2647 162.981,61.5856 162.9522,59.9635 162.9073,57.8561 162.7671,55.8974 162.7901,54.5799 162.8371,54.0055" stroke="black" /><polyline fill="none" points="169.5803,36.2155 170.0077,37.1522 170.5112,39.1214 171.0255,42.2879 171.4636,46.5129 171.8596,51.1457 172.2177,55.5199 172.6271,59.1682 172.8277,61.659 172.8794,63.009 172.8614,63.6297" stroke="black" /><polyline fill="none" points="176.5458,53.615 176.8356,54.5931 177.2132,55.6798 177.5671,56.5386" stroke="black" /><polyline fill="none" points="167.8951,52.5308 168.3859,52.8481 169.7426,53.6147 172.266,54.9 175.5301,56.7674 178.834,58.833 181.6574,60.7482 183.6915,62.186 185.0387,62.7554 186.2553,62.0785 187.3923,60.4902 188.3097,58.638 188.9751,57.1117 189.27,56.3475" stroke="black" /><polyline fill="none" points="176.7886,82.3502 177.103,81.435 177.7946,79.5308 178.8855,76.3956 180.3411,72.1801 182.2987,67.3731 184.2576,62.5206 185.9602,58.1456 187.4492,54.8705 188.4617,52.8695 189.0344,51.9315" stroke="black" /><polyline fill="none" points="189.5728,59.4928 190.036,59.7183 190.5455,59.9149" stroke="black" /><polyline fill="none" points="207.7887,49.9751 207.7486,50.8376 207.8749,52.7504 208.116,55.409 208.3523,58.2341 208.3938,60.4627 208.1,61.7118 207.4944,61.6942 206.8301,60.5689 206.2791,58.1437 206.1806,54.7468 206.7142,50.9743 207.9302,47.7064 209.4997,45.3124 211.0038,44.1287 212.0808,44.0842 212.7457,45.1944 212.8953,47.3503 213.2064,50.2079 213.7474,53.4964 214.3183,56.801 214.5472,59.8835 214.1382,62.4929 212.8735,64.3048 211.1469,64.8002 209.4601,64.4483 208.1935,63.7145 207.4834,63.1182" stroke="black" /><polyline fill="none" points="220.0623,54.6644 219.9848,55.7682 220.0359,57.6637 220.3477,59.9759 221.247,61.8808 222.5464,63.0548 224.0349,62.9313 225.2873,61.5433 226.2195,59.1764 226.9024,56.5294 227.4959,54.3496 227.8779,53.1939" stroke="black" /><polyline fill="none" points="232.1483,40.2112 232.3232,40.9739 232.5786,42.6177 232.9044,45.4909 233.2466,49.3646 233.8037,53.6688 234.4244,57.8687 234.7517,61.2116 234.8283,63.2745 234.7081,64.2862" stroke="black" /><polyline fill="none" points="229.1614,53.8675 230.2903,54.1275 232.6147,54.4374 235.8394,54.5308 239.2299,54.1291 241.8999,53.4944 243.508,52.9046 244.0791,52.5424" stroke="black" /><polyline fill="none" points="262.0348,38.4109 262.1176,39.2164 262.175,40.3696 262.1884,41.4761 262.1388,42.1413" stroke="black" /><polyline fill="none" points="262.3743,39.7693 262.7495,40.4165 263.199,41.1114 263.5777,41.6376" stroke="black" /><polyline fill="none" points="262.759,57.8568 262.894,58.9516 263.0897,60.5634 263.2711,62.1445 263.3633,63.1472" stroke="black" /><polyline fill="none" points="263.688,64.49 263.7628,63.477 263.8874,61.2684 264.1332,58.0178 264.3904,54.3736 264.6815,51.1244 264.897,48.9185 265.0778,47.9085" stroke="black" /><polyline fill="none" points="271.3508,34.3172 271.9063,33.9697 272.7897,33.8134 273.7125,34.3857 274.2516,36.1741 274.3299,39.2219 274.073,43.3813 273.5433,48.063 272.9592,52.5311 272.3516,56.2409 271.8117,58.6647 271.5499,59.8541" stroke="black" /><polyline fill="none" points="272.333,46.9521 273.4388,47.4842 275.4559,48.467 278.0684,49.8155 280.4235,51.1565 281.9449,51.9885 282.5854,52.3707" stroke="black" /><polyline fill="none" points="298.1446,49.8217 298.2605,51.0524 298.5316,53.1967 298.762,55.7034 299.2037,57.7163 299.583,58.7425 299.7891,58.4303 299.8918,56.9787 299.7149,54.7159 299.2704,52.2787 299.0078,50.3619 298.8377,49.4327" stroke="black" /><polyline fill="none" points="299.3225,36.3706 299.6331,37.1523 300.0013,38.0418 300.3138,38.763" stroke="black" /><polyline fill="none" points="305.682,47.4947 306.0028,47.9282 306.3819,48.4392 306.7027,48.8728" stroke="black" /><polyline fill="none" points="304.8247,60.8642 305.9283,60.4265 307.5871,59.6564 309.3022,58.5091 310.2121,56.9142 309.8725,55.0407 308.5194,53.1074 306.8504,51.6196 305.5008,50.6107 305.1399,49.9942 305.8165,49.6502 307.0632,49.5045 308.0161,49.5624 308.4508,49.7265 308.2665,49.8121 307.9044,49.7562" stroke="black" /><polyline fill="none" points="326.6556,55.2242 327.2018,55.7249 328.3708,56.1678 330.1611,56.0834 332.1075,55.3216 333.4771,54.0734 333.8426,52.9627 333.1295,52.4723 331.4493,52.9388 329.5161,54.2919 327.8088,56.2122 326.9147,58.3075 327.1017,60.2221 328.3927,61.6838 330.2996,62.2846 332.4136,62.0125 333.9979,61.1948 334.9304,60.3884" stroke="black" /><polyline fill="none" points="339.3695,59.8808 339.9306,58.8212 341.0643,56.8237 342.7502,54.0695 344.5172,51.1357 346.0261,48.74 346.9458,47.3272 347.2938,46.8222" stroke="black" /><polyline fill="none" points="339.3371,49.5007 339.9458,50.4578 341.1817,52.2512 343.0221,54.6228 345.0472,56.8937 346.6972,58.5174 347.6727,59.3639" stroke="black" /><polyline fill="none" points="346.9745,59.4042 347.8803,59.5214 348.8764,59.6563 349.661,59.77" stroke="black" /><polyline fill="none" points="356.0641,57.8949 356.0355,58.879 356.1369,60.6093 356.3229,62.5541 356.5524,64.0457 356.636,64.8208" stroke="black" /><polyline fill="none" points="356.6167,67.578 356.7347,68.7329 356.9633,70.2548 356.9649,71.77 356.6544,72.5489 356.3128,72.3117 356.0144,71.1061 356.0745,69.032 356.5568,65.9853 357.1885,62.4883 358.1947,59.1386 359.799,56.0638 361.6234,53.2378 363.3469,50.7574 364.4997,48.624 364.7841,47.1777 364.3854,46.8176 363.4707,47.5336 362.0702,49.3264 360.6041,51.8142 359.2867,54.3973 358.3663,56.3556 357.9134,57.3425" stroke="black" /><polyline fill="none" points="354.8768,51.2846 354.9413,52.1955 355.1985,53.7788 355.8288,55.5547 357.2236,57.0952 359.6571,58.3476 362.7459,59.4675 365.937,60.1964 369.0237,60.3465 371.528,59.6766 373.4812,58.1574 374.692,56.1167 374.9289,54.2144 374.1834,52.7534 372.7449,52.1965 370.9886,52.6759 369.4952,54.0115 368.7841,56.0667 369.0884,58.6362 370.2107,61.2142 371.9175,63.4911 373.9244,64.822 375.9963,64.9578 377.9917,64.0763 379.4813,62.3467 380.084,59.8489 379.9078,57.0407 379.3972,54.2682 379.1906,51.9894 379.6566,50.5483 380.9237,50.2214 382.5879,50.8303 384.1865,52.1342 385.4472,53.5951 386.2011,54.7685 386.4725,55.337" stroke="black" /><polyline fill="none" points="386.6871,59.4342 386.6274,60.4477 386.6302,61.9175 386.6794,63.3584 386.7585,64.285" stroke="black" /><polyline fill="none" points="386.8408,65.1056 387.0482,63.7024 387.5138,61.231 388.0682,58.3076 388.5303,55.9573 388.7346,54.6601" stroke="black" /><polyline fill="none" points="389.4355,45.1195 389.6755,46.2477 390.0344,48.5006 390.4565,51.7099 390.8885,55.1014 391.5336,57.9383 392.664,59.7136 393.9609,60.4482 395.3652,60.0949 396.3536,58.9266 396.7132,57.4976 396.3525,56.3507 395.5131,56.0385 394.4781,56.7206 393.9225,58.1137 394.097,59.937 395.3,61.8204 397.1425,63.0708 399.1633,63.4021 400.7661,62.994 401.6946,62.3239" stroke="black" /><polyline fill="none" points="402.4576,60.5733 402.6726,60.4734" stroke="black" /><polyline fill="none" points="403.7885,57.5209 403.5294,58.6194 403.0919,60.122 402.6445,61.4424 402.268,61.886 402.2538,60.8098 402.557,58.7125 403.2323,56.3229 403.8629,54.432 404.3167,53.4148" stroke="black" /><polyline fill="none" points="403.4019,60.4037 404.1178,59.2274 405.2147,57.4561 406.6147,55.6785 407.931,54.7015 408.9275,54.8213 409.6792,56.0704 409.9508,58.1995 409.8018,60.7256 409.521,63.0963 409.2443,64.8005 409.0839,65.6292" stroke="black" /><polyline fill="none" points="420.7096,53.4658 419.7626,53.7262 417.9499,54.5828 415.6061,55.9846 413.4118,57.9816 411.9064,60.2563 411.4478,62.4855 412.0924,64.2921 413.4688,65.4229 415.4369,65.48 417.8587,64.5199 420.3835,62.6233 422.783,60.3443 424.5137,58.1368 425.4703,56.4978 425.5105,55.6353 424.6328,55.5947 423.2163,56.3719 421.8535,57.9082 420.8908,59.7591 420.6323,61.3577 420.8019,62.3021" stroke="black" /><polyline fill="none" points="420.7617,63.1646 421.4041,64.0014 422.2412,64.9197 423.0082,65.6389" stroke="black" /><polyline fill="none" points="436.7736,59.1135 435.4214,59.2409 433.0447,59.6872 430.3116,60.411 428.0639,61.6338 426.862,63.3717 427.0226,65.1492 427.843,66.6427 429.1853,67.3786 430.9728,66.8698 432.9464,65.1694 434.8792,62.7859 436.5382,60.44 437.5122,58.7258 437.9602,57.9054" stroke="black" /><polyline fill="none" points="433.3583,61.9388 434.1969,61.2358 435.1908,60.401 436.0294,59.698" stroke="black" /><polyline fill="none" points="438.4716,56.4656 438.876,55.5834 439.7315,53.7748 440.9633,51.0074 442.2359,47.8775 443.2753,44.953 443.7606,42.8458 443.5625,41.84 442.8461,41.9859 441.8265,43.1837 440.5897,45.6024 439.3952,49.174 438.6086,53.8332 438.4171,58.8732 438.6711,63.6989 439.1305,67.7124 439.423,70.6907 439.4923,72.4806" stroke="black" /></svg>