<?xml version="1.0" encoding="utf-8" ?>
<svg baseProfile="tiny" height="88px" version="1.2" width="678px" xmlns="http://www.w3.org/2000/svg" xmlns:ev="http://www.w3.org/2001/xml-events" xmlns:xlink="http://www.w3.org/1999/xlink"><defs /><rect fill="white" height="100%" width="100%" x="0" y="0" /><polyline fill="none" points="20.0,20.0" stroke="black" /><polyline fill="none" points="32.3362,40.0786 32.798,40.2574 34.1818,40.7129 36.7224,41.0898 40.1483,41.2863 43.9712,41.151 47.6044,40.9658 50.5152,41.0116 52.5166,41.3731 53.6282,41.6996" stroke="black" /><polyline fill="none" points="48.0021,43.1935 47.6704,44.0628 47.3611,45.9823 47.1835,49.0305 47.1836,52.8294 47.3447,56.5979 47.6594,59.9859 48.0622,62.456 48.4439,63.9297 48.7006,64.5978" stroke="black" /><polyline fill="none" points="62.2252,64.5791 62.3868,63.3094 62.7649,60.8226 63.1997,57.2031 63.5451,53.1814 63.7048,49.2983 63.5879,46.3371 63.3369,44.672 63.1334,43.9759" stroke="black" /><polyline fill="none" points="62.3461,62.6636 62.7867,61.846 63.7721,60.0468 65.2819,57.5629 66.9503,54.9409 68.6045,52.9119 70.0077,51.7505 70.9216,51.6502 71.749,52.5486 72.2773,54.5849 72.4464,57.4642 72.5405,60.6144 72.7067,63.359 72.9629,65.2664 73.3869,66.2004" stroke="black" /><polyline fill="none" points="79.8042,61.3757 80.3462,61.5258 81.6314,61.1482 83.2013,60.2256 84.8331,58.4127 86.1859,56.1477 86.7302,53.8729 86.588,52.2594 86.1348,51.2183 85.0593,51.3221 83.7879,52.346 82.5658,54.4197 81.3866,57.2468 80.7501,60.2509 81.1289,62.8563 82.1901,64.6118 83.9016,65.2759 86.2944,65.0363 89.1753,63.6817 91.9657,61.871 94.571,60.2259 96.2704,59.0582 97.0405,58.5298" stroke="black" /><polyline fill="none" points="139.8686,41.6138 140.0417,42.149 140.2411,42.6566" stroke="black" /><polyline fill="none" points="139.2792,49.3588 138.9784,50.416 138.4067,52.6643 137.5816,55.6725 137.0036,58.891 136.6341,61.7817 136.6244,63.8564 137.0249,64.9525 137.5412,65.1571 138.0053,64.1772 138.5834,62.2251 139.146,59.5458 139.4977,55.8203 139.8345,51.3946 140.1913,46.6451 140.9814,41.9942 142.3284,38.1936 143.9991,35.6793 145.6922,34.2153 147.4604,33.7466 148.6826,34.2055 149.4344,35.348 149.5777,37.0154 148.8718,39.2936 147.5832,42.0422 146.1314,44.7135 144.6188,47.0627 143.4952,48.7032 142.9176,49.416" stroke="black" /><polyline fill="none" points="154.3455,61.0002 154.6468,59.97 155.4404,58.0133 156.5135,55.2692 157.9842,52.2204 159.6206,49.3566 161.3779,47.1099 162.8596,45.839 164.2576,45.7014 165.1418,46.7333 165.7188,48.5262 166.0604,50.6473 166.2065,52.4493 166.1194,53.4211" stroke="black" /><polyline fill="none" points="169.1621,59.6608 169.4921,58.7108 169.9946,57.0027 170.3292,55.0019 170.403,53.4107 170.3555,52.4418" stroke="black" /><polyline fill="none" points="173.655,41.6485 174.3586,41.7951 175.0628,41.9687" stroke="black" /><polyline fill="none" points="177.7812,50.694 177.7177,51.5036 177.9073,52.8198 178.0478,54.3525 178.2632,55.6142 178.3314,56.2863 178.6002,56.2536 179.2035,55.4864 180.4056,53.7365 181.893,51.4686 183.5419,49.1972 185.125,47.6278 186.4589,47.0067 187.4651,47.4433 187.9814,48.9141 188.0055,51.3114 187.6859,54.0125 187.2235,56.3394 187.0631,57.6629 187.3112,57.9271 188.1581,57.2085 189.63,55.4798 191.5483,53.2027 193.5668,50.5733 195.4857,48.3231 197.1026,47.0763 198.307,46.7004 199.0983,47.1685 199.4541,48.6966 199.5533,50.823 199.4457,53.3578 199.4709,55.809 199.7185,57.3125 200.2892,57.5429 201.3016,57.0094 202.3891,56.2049 203.1855,55.6491" stroke="black" /><polyline fill="none" points="208.8488,53.3731 209.7931,53.4338 211.296,53.1593 213.192,52.3645 214.6422,50.8787 215.4684,49.1907 215.4145,47.9256 214.4902,47.5411 212.9638,47.9778 211.3234,49.3868 209.722,51.3607 208.5595,53.7025 208.0169,56.0581 208.2433,57.8314 209.2088,58.8886 210.9919,59.12 213.2936,58.3974 215.8525,57.1035 218.3581,55.8378 220.2506,54.8814 221.3227,54.6161" stroke="black" /><polyline fill="none" points="251.9707,51.5115 252.0515,50.2435 252.3557,48.0816 252.8604,45.215 253.4952,42.13 254.1896,39.3133 254.6359,37.4986 254.9923,36.5211" stroke="black" /><polyline fill="none" points="249.9678,58.6669 250.1953,57.9616 250.8329,56.2776 251.7147,53.4029 253.0032,49.388 254.4734,45.0459 256.2701,40.8585 257.946,37.3203 259.5337,34.7001 260.8205,33.1369 261.9906,32.4115 262.9131,32.7152 263.4849,34.2656 263.5119,36.7976 263.2009,39.9026 262.8629,43.0082 262.6154,45.3036 262.6395,46.4346 262.7793,46.6741 263.2469,45.8559 263.9894,44.0349 265.2235,41.2605 266.8226,37.9126 268.6137,34.7222 270.1263,32.3729 271.4189,31.0791 272.1689,30.8745 272.5093,31.6755 272.5455,33.3721 272.2774,35.9643 271.4438,39.8348 270.4114,44.4909 269.3538,49.2283 268.5025,53.5303 268.086,56.7453 267.9422,58.8498 268.0488,60.06 268.4562,60.2129 269.0017,59.2583 269.7242,57.7611 270.367,56.3195 270.673,55.5047" stroke="black" /><polyline fill="none" points="275.9868,58.3282 276.0029,59.0823 276.0218,59.971 276.0379,60.725" stroke="black" /><polyline fill="none" points="276.3908,59.5859 276.6956,58.7173 277.123,57.2802 277.3235,55.3092 277.2054,53.5604 277.1516,52.2953 277.0599,51.7853" stroke="black" /><polyline fill="none" points="282.0367,48.9043 282.2109,49.4933 282.435,51.1589 282.7015,53.5511 282.7606,56.3249 282.5945,58.6455 282.4329,59.9152" stroke="black" /><polyline fill="none" points="282.7291,58.6426 283.0998,58.3384 283.7788,57.327 284.8416,55.3645 286.215,52.8027 287.7219,50.1842 289.3754,48.1283 290.9471,47.2865 292.1131,47.6389 292.7113,49.1618 292.6885,51.8835 292.3769,54.9615 292.0349,57.8786 291.7312,60.0674 291.8355,61.1698 292.2395,61.1612 292.8405,60.2862 293.484,58.8715 293.9681,57.568 294.0844,56.7034" stroke="black" /><polyline fill="none" points="297.4857,59.5407 297.649,58.3517 297.9812,56.2432 298.5157,53.5106 299.0589,51.182 299.4015,49.5582 299.5768,48.9348" stroke="black" /><polyline fill="none" points="301.2193,40.0358 301.6588,40.4305 302.1819,40.9582 302.6237,41.4607" stroke="black" /><polyline fill="none" points="309.5132,62.5984 310.293,62.5279 311.8738,62.117 313.9864,61.3715 316.0365,60.2232 317.1641,58.7712 316.9153,57.2139 315.5327,55.546 313.4803,54.054 311.3825,52.9671 309.9117,52.2171 309.6028,51.631 310.0234,51.137 310.8233,50.7428 311.4387,50.5411" stroke="black" /><polyline fill="none" points="328.4261,61.3064 328.1883,60.2607 328.1418,58.0794 328.6958,54.9962 329.782,51.6052 330.8488,48.565 331.5816,46.2862 331.8521,45.068 331.7592,44.5042" stroke="black" /><polyline fill="none" points="325.0285,49.7936 325.7854,49.9122 327.5347,49.821 330.2495,49.5207 333.3155,49.2668 336.1134,49.0725 338.0288,49.1933 338.976,49.3887" stroke="black" /><polyline fill="none" points="344.5718,54.0652 344.9328,54.5695 345.2944,55.1006" stroke="black" /><polyline fill="none" points="345.562,56.2804 346.131,56.4299 347.5497,55.9955 349.6307,55.0352 351.8865,53.4245 353.8472,51.8739 355.1353,50.3647 355.5988,49.3579 355.3953,48.6617 354.4488,48.4933 352.6852,49.1775 350.2403,50.7653 347.8281,52.6218 345.9362,54.8714 344.8808,57.184 344.8975,59.2312 345.7982,61.0441 347.3854,62.1958 349.596,62.2564 352.4328,61.3608 355.4953,59.679 358.3349,57.6517 360.5603,55.88 361.9389,54.8269 362.4431,54.4659" stroke="black" /><polyline fill="none" points="366.1731,49.9679 365.8121,50.73 365.3131,52.5996 364.6955,55.2262 364.216,58.0114 363.7771,60.1762 363.721,61.3359 363.9376,61.3851 364.5954,60.6437 365.5854,59.0599 367.0155,56.6316 368.8387,53.683 370.9563,50.6473 372.6815,48.1588 374.1609,46.7802 375.0966,46.4369 375.5848,46.5882" stroke="black" /><polyline fill="none" points="427.3785,59.7374 427.441,58.8739 427.783,57.2231 428.3233,54.7599 429.0635,51.5649 429.94,47.1816 430.8,42.0173 431.8707,36.633 432.9489,31.5987 433.6983,27.5684 434.0718,24.8662 434.3055,23.1908 434.2637,22.4912" stroke="black" /><polyline fill="none" points="440.2786,59.4895 440.2884,58.681 440.4459,57.2228 441.1283,55.1068 442.3727,52.8171 444.1615,50.7853 445.94,49.535 447.2556,49.3184 447.9449,50.0581 448.2434,51.4258 447.9902,53.4518 447.1531,55.8945 445.7735,58.1601 444.1153,60.0005 442.3024,60.9013 440.7089,60.7197 439.6093,59.6924 439.1658,57.8428 439.3898,55.7096 439.8922,54.0015 440.3557,52.9948" stroke="black" /><polyline fill="none" points="455.8217,56.8414 455.7684,55.6032 455.8394,53.8773 456.5212,51.7344 457.6683,49.9318 459.3161,48.8728 461.0586,48.4585 462.3633,48.9965 462.8016,50.6037 462.5794,52.8177 461.6346,55.2627 460.4698,57.4967 459.3651,58.7596 458.049,58.9493 456.7402,58.2228 455.7953,56.8689 455.4624,55.1517 455.6492,53.8006 456.1425,52.9279" stroke="black" /><polyline fill="none" points="469.787,59.8039 469.2124,60.6514 468.2395,61.7767 467.1829,62.7691 466.5464,63.2407 466.2925,62.7073 466.4741,61.1138 467.1169,58.4059 468.0874,54.6403 469.3358,50.0065 470.7195,45.3969 471.8969,41.2227 472.3408,38.034 472.2995,36.0951 472.0669,35.2917 471.8469,35.0809" stroke="black" /><polyline fill="none" points="476.8265,52.5681 475.9149,52.7761 474.4257,53.697 472.4375,55.2211 470.6946,56.8748 469.2988,58.3864 468.9717,59.471 469.5802,60.2125 470.9628,60.6141 472.629,60.4169 474.5508,59.5677 476.3087,58.6142 477.7216,57.9106 478.4172,57.6802" stroke="black" /><polyline fill="none" points="486.6795,55.9955 486.5094,56.8612 486.7266,58.2037 487.6961,59.4494 489.4328,60.032 491.4772,59.8807 493.1377,59.4143 494.1547,59.0962" stroke="black" /><polyline fill="none" points="486.0756,55.4695 487.0486,55.6104 488.7406,55.3588 490.9041,54.4775 493.1095,53.0295 494.7974,51.3232 495.5795,50.0941 495.3789,49.5326 494.1396,49.532 492.3152,49.8942 490.6387,50.8729 489.2687,52.33 488.4643,53.7751 488.1922,54.9125" stroke="black" /><polyline fill="none" points="505.7609,56.2895 505.3702,56.9175 504.438,57.4223 502.8227,57.4836 501.1147,56.9812 499.7406,55.7172 499.167,54.086 499.7485,52.2954 501.087,50.6234 502.705,49.4304 504.5856,49.1748 506.2994,49.9466 507.603,51.697 508.7347,54.2324 509.3089,57.1569 509.7415,59.7611 509.7766,61.4038 509.7124,62.1865 509.7055,61.8633 509.9261,60.8348 510.3718,58.9933 511.4707,56.1948 512.5209,52.3736 513.747,47.9558 515.1065,43.4814 516.6162,39.7312 517.7455,37.0938 518.8685,35.4264 519.9846,34.7021 521.0034,34.4648 521.7059,34.5576" stroke="black" /><polyline fill="none" points="548.6309,57.7741 548.6904,56.776 548.8107,54.8336 548.9442,52.2443 549.0535,49.7902 549.0964,48.0111 549.0254,47.2043" stroke="black" /><polyline fill="none" points="546.298,69.6784 546.3638,68.9765 546.5483,67.5177 546.8473,65.1135 547.6396,61.8366 548.8508,57.985 550.4946,54.205 552.2313,50.9888 554.1536,48.9002 555.9126,48.0006 557.3634,47.8081 557.9152,48.416 557.6471,49.7419 556.425,51.8155 554.6207,54.3865 552.7626,56.9587 551.2322,58.4731 550.3785,58.8685 550.4398,57.9511 551.082,56.4826 551.8051,55.0123 552.3787,54.111" stroke="black" /><polyline fill="none" points="567.5934,47.4285 567.1523,48.2192 566.3771,49.7714 565.6678,51.888 565.3091,54.0241 565.4307,55.9344 566.1859,57.2385 567.5175,57.7759 569.1018,57.5267 571.1771,56.297 573.1567,54.3689 574.7639,52.6642 575.7626,51.4844 576.2639,50.9888" stroke="black" /><polyline fill="none" points="580.3213,55.5364 581.2386,55.5977 582.8568,55.671 585.0438,55.8938 587.1782,56.1717 588.6381,56.41 589.2867,56.504" stroke="black" /><polyline fill="none" points="576.5855,57.2325 577.5172,56.7008 579.4091,55.7175 582.2339,54.2563 585.1354,52.6049 587.7448,51.1483 589.494,49.7909 590.3351,48.8031 590.3512,48.2908 589.6229,48.2525 587.9842,48.476 585.7863,49.0077 583.723,49.5367 582.3575,49.9429 581.7714,50.2518" stroke="black" /><polyline fill="none" points="597.1727,57.3867 597.5434,57.0825 598.7902,56.1668 600.783,54.8581 603.2003,53.2439 605.1025,51.4791 605.9591,49.9521 605.6961,48.9878 604.3909,48.4228 602.5814,48.2189 601.0705,48.1164 600.0981,48.0024" stroke="black" /><polyline fill="none" points="596.3803,58.131 597.4031,58.0823 599.7958,57.8427 603.5311,57.386 607.6937,56.7585 611.5573,56.0026 614.4005,55.4032 615.8466,54.9952 616.462,54.7935" stroke="black" /><polyline fill="none" points="623.7355,57.2789 623.418,56.2888 623.3206,54.2433 623.5199,50.9521 624.0469,46.6031 624.5883,41.6612 625.3198,36.796 625.934,32.7415 626.3505,29.5265 626.4937,27.395 626.3865,26.158 626.1057,25.6251" stroke="black" /><polyline fill="none" points="631.2288,52.3774 631.9519,52.1734 633.5488,51.2503 635.8332,49.7198 638.1944,47.9991 639.9408,46.507 640.5413,45.6051 640.0227,45.2929 638.6487,45.2952 636.3992,45.9359 633.6294,47.4497 630.8413,49.3682 628.4847,51.3043 627.2815,53.0004 627.2816,54.2667 628.2946,55.0264 630.2686,55.3615 633.0916,55.0859 636.2848,54.479 639.506,53.9254 641.9257,53.6853 643.2986,53.6291" stroke="black" /><polyline fill="none" points="652.0458,55.7329 651.8183,55.1719 651.439,53.8059 650.9897,51.6871 650.4768,49.1115 649.5388,46.8145 648.3492,45.358 647.1299,45.0337 645.8007,45.8703 644.8387,47.5073 644.503,49.4543 644.7889,51.4959 645.9,53.0618 647.7788,53.9917 649.7751,54.1108 651.3232,53.4312 652.3706,52.0079 653.0552,49.9996 653.8,47.0201 654.6669,43.4452 655.638,39.7065 656.3817,36.6731 656.9076,34.8029 657.217,34.1497" stroke="black" /><polyline fill="none" points="649.262,66.7038 650.2274,66.4946 651.9073,65.6775 654.001,64.0433 656.1651,61.9227 658.0616,59.8885 659.3525,58.5139" stroke="black" /></svg>