<?xml version="1.0" encoding="utf-8" ?>
<svg baseProfile="tiny" height="94px" version="1.2" width="802px" xmlns="http://www.w3.org/2000/svg" xmlns:ev="http://www.w3.org/2001/xml-events" xmlns:xlink="http://www.w3.org/1999/xlink"><defs /><rect fill="white" height="100%" width="100%" x="0" y="0" /><polyline fill="none" points="20.0,20.0" stroke="black" /><polyline fill="none" points="32.132,64.5872 32.5525,64.6664 33.4191,64.6288 34.9305,64.7238 37.1963,64.7545 39.9919,64.6394 43.317,64.3506 47.0013,63.6663 50.4311,62.7331 53.1639,62.0034 54.9726,61.1721 55.8886,60.5466 55.7413,59.877 54.7858,59.4681 52.8801,59.1257 50.0786,58.7094 47.0213,57.9324 44.1567,56.8736 41.9309,55.416 40.5717,53.9208 40.1605,52.1634 40.529,50.0896 41.9023,47.8367 43.9481,45.6883 46.5864,44.0087 49.598,43.192 52.8985,43.2112 55.8393,43.57 58.194,44.0472 59.6529,44.4504 60.1867,44.6682" stroke="black" /><polyline fill="none" points="59.9394,55.1034 61.031,55.1752 62.9031,55.0145 65.4421,54.4548 67.9766,53.5035 70.1445,52.2767 71.4443,50.9477 71.9035,49.4882 71.4436,48.3745 70.1764,47.6055 68.5252,47.5121 66.3479,47.8999 63.7282,48.7402 61.1144,50.1119 58.8987,52.0664 57.2441,54.1825 56.7377,56.4257 56.9556,58.4091 58.0373,60.1031 59.9536,61.3963 62.7315,62.2044 65.8649,62.2814 68.9346,61.6598 71.4673,60.5408 73.358,59.5408 74.4136,58.8857 74.9704,58.6558" stroke="black" /><polyline fill="none" points="80.9154,55.0375 81.5533,54.5549 82.8888,53.9247 84.9756,52.9505 87.3688,51.861 89.4798,50.5509 90.581,48.9723 90.7304,47.3205 89.8199,45.9322 88.1876,45.0274 86.1138,44.659 83.8219,44.7964 81.3112,45.3837 78.9466,46.5289 76.7256,48.008 74.8719,49.8187 74.0268,51.7859 74.1325,53.7426 75.1306,55.4655 76.9633,56.7876 79.3236,57.7682 82.1252,58.1845 85.0625,58.2356 87.5775,58.0398 89.2797,57.6852 90.1432,57.3679" stroke="black" /><polyline fill="none" points="98.4671,36.3264 98.9196,36.7688 99.4569,37.2943 99.9093,37.7367" stroke="black" /><polyline fill="none" points="100.1346,47.9149 100.2263,48.6131 100.4094,49.9816 100.626,51.8531 100.8128,53.5571 100.9092,54.6748" stroke="black" /><polyline fill="none" points="108.0747,50.1478 108.4483,51.0387 108.8321,52.8524 109.1652,55.1421 109.1352,57.4639 108.9298,59.1163 108.7428,59.9016" stroke="black" /><polyline fill="none" points="109.196,55.3935 109.5524,54.7463 110.3192,53.2833 111.5276,51.2841 112.9882,49.3379 114.8448,47.7789 116.8207,46.8899 118.7739,46.4765 120.7601,46.5103 122.6425,47.2725 124.1996,48.9612 125.3696,51.0459 126.0088,53.1924 126.194,54.7565 126.1754,55.5958" stroke="black" /><polyline fill="none" points="141.4321,54.307 141.0875,53.4998 140.2634,52.3343 138.935,51.0905 137.1377,50.4392 135.4057,50.6263 133.9609,51.4815 133.1652,52.8609 133.1578,54.7069 133.7914,56.35 134.8417,57.7368 136.2456,58.2245 137.9185,57.7584 139.6638,56.2566 141.2923,54.3086 142.418,52.4221 143.0205,51.2687 143.1826,50.7634" stroke="black" /><polyline fill="none" points="131.577,70.9745 131.4702,71.4232 131.4226,72.1789 131.9382,73.2639 133.0944,74.1181 134.8569,74.1544 136.834,73.3772 138.5212,71.6802 139.806,69.0089 141.0248,65.4432 142.1265,61.4034 143.0315,57.2819 143.5792,53.7237 143.7721,50.9526 143.7248,49.2191 143.6573,48.185 143.6539,47.8774" stroke="black" /><polyline fill="none" points="184.5925,34.6113 184.7976,35.4481 185.2631,37.0651 185.8235,39.66 186.254,43.1513 186.5763,46.9794 186.8698,50.724 186.9612,53.9115 186.9871,56.2326 186.8911,57.6601 186.6761,58.4456" stroke="black" /><polyline fill="none" points="181.2896,46.9265 182.0456,47.002 183.6694,47.1517 186.1046,47.3203 188.7353,47.4588 190.9455,47.5181 192.3711,47.4463 192.9584,47.4397" stroke="black" /><polyline fill="none" points="197.3019,53.2089 197.4613,52.4519 197.9478,50.9362 198.5925,48.5516 198.9777,45.4707 199.2464,41.9716 199.0415,38.6456 198.5647,36.0218 198.2676,34.4589 198.1489,33.8449" stroke="black" /><polyline fill="none" points="198.6255,48.9988 199.3448,48.2915 200.4249,47.3285 201.9257,46.4727 203.7403,46.1728 205.8427,46.5969 208.1505,47.8857 210.1874,49.9607 211.5864,52.5182 212.3422,55.083 212.6172,57.1776 212.5468,58.381 212.4964,58.885" stroke="black" /><polyline fill="none" points="225.2893,54.8547 224.7371,55.5042 223.5182,56.5526 221.7676,57.579 219.7879,58.1325 217.6293,57.6811 215.7966,56.359 214.6841,54.4136 214.1595,52.5175 214.5069,51.0593 215.6137,49.9841 217.0306,49.1292 218.7302,48.5509 220.7139,48.361 222.3723,49.0977 223.8452,50.7594 225.0698,52.7315 225.9017,54.5962 226.3629,55.8217 226.6488,56.3779" stroke="black" /><polyline fill="none" points="225.5589,53.9567 226.1645,53.0829 226.8795,51.9842 227.4838,50.9985 227.7575,50.4641" stroke="black" /><polyline fill="none" points="227.3244,51.7555 227.642,52.6469 228.0538,54.4603 228.5827,56.7479 229.0001,59.0647 229.3261,60.7112 229.5865,61.4914" stroke="black" /><polyline fill="none" points="239.833,32.2615 239.9514,32.8476 240.2464,34.2147 240.5491,36.2811 240.9444,39.1295 241.2071,42.6227 241.6652,46.0857 241.9556,49.5507 242.0728,52.542 241.7625,54.811 241.3325,56.382 240.8394,57.3105" stroke="black" /><polyline fill="none" points="235.3433,51.0228 235.9315,51.1002 237.2472,51.1974 239.5149,51.3959 242.5386,51.6698 245.7615,52.2492 248.5646,52.8053 250.6421,53.5094 251.7946,54.0279 252.3014,54.3299" stroke="black" /><polyline fill="none" points="286.1899,33.3671 286.0262,33.7325 285.8411,34.6855 285.6354,36.31 285.6072,38.7995 285.95,41.9562 286.3572,45.8673 286.7104,49.9469 287.0868,53.6066 287.314,56.4289 287.4738,58.2172 287.6509,59.0543" stroke="black" /><polyline fill="none" points="281.139,49.4496 282.1454,49.4104 284.1294,49.2484 286.9207,48.7418 289.793,47.9826 292.0203,47.0628 293.3825,46.3204 293.9645,45.8385" stroke="black" /><polyline fill="none" points="296.4354,54.2296 296.4276,53.5305 296.357,52.2167 296.4175,50.1184 296.5557,47.4598 296.7128,43.9899 296.8376,40.1287 296.8822,36.6042 296.8485,33.5839 296.7394,31.3196 296.5573,30.0351 296.354,29.3661" stroke="black" /><polyline fill="none" points="296.5446,51.4874 297.0691,50.8663 298.0892,49.5403 299.498,47.9584 300.7707,46.7136 301.9679,46.2247 303.3441,46.7408 304.6439,47.929 305.922,49.6768 307.1488,51.8447 307.7057,54.1319 307.8382,55.9764 307.851,57.123" stroke="black" /><polyline fill="none" points="316.441,54.9296 317.0851,55.0063 318.4799,54.6831 320.5969,53.9044 322.6536,52.7347 324.2895,51.4579 324.8037,49.9138 324.2838,48.4373 322.8979,47.0543 321.0149,46.2362 318.6341,45.9271 316.2894,46.3448 314.0024,46.9297 312.2506,47.8442 311.2299,49.1142 310.9969,50.7949 311.6035,52.5222 313.0512,54.436 315.3361,56.1725 318.4279,57.5365 321.5678,58.2008 324.2534,58.2547 326.0401,57.9551 326.8486,57.7224" stroke="black" /><polyline fill="none" points="331.0486,43.0758 331.3077,43.7441 331.8839,45.248 332.7742,47.3358 333.8633,49.701 335.285,51.7828 336.4204,53.2805 337.211,53.9429" stroke="black" /><polyline fill="none" points="335.8888,63.2993 335.7667,62.3777 335.8058,60.8669 336.1145,58.4582 336.9472,55.3723 338.1934,51.7504 339.7497,48.3488 341.0024,45.3142 341.8485,43.4309 342.1732,42.4483 342.2256,42.1401" stroke="black" /><polyline fill="none" points="365.2349,63.8952 365.3231,64.2858 365.778,64.952 366.8473,65.5274 368.1651,65.8204 369.45,65.6662 370.8106,64.784 371.9904,62.7291 373.3012,59.8896 374.6605,56.3784 375.5742,53.0399 375.6832,50.2697 374.8485,48.1534 373.1525,46.5501 371.3254,45.7314 369.3094,45.5301 367.5227,45.8297 365.8802,46.5193 364.4944,47.6535 363.506,49.3147 363.1065,51.1091 363.3502,52.8964 364.4549,54.1427 366.1956,54.7386 368.5183,54.8526 371.1411,54.292 373.5293,52.755 375.3526,50.7209 376.5861,48.4697 377.1811,46.645 377.3097,45.6367 377.3616,45.2726" stroke="black" /><polyline fill="none" points="377.0656,48.8279 377.4776,48.1521 377.7435,46.9185 377.8124,45.5752 377.6334,44.5703 377.4044,44.0974" stroke="black" /><polyline fill="none" points="380.5054,51.3068 381.2341,51.4385 382.6603,51.4226 384.5887,51.2892 386.8194,50.677 388.6533,49.5938 389.9539,48.3486 390.612,47.1666 390.2894,45.8277 389.2426,44.7486 387.9188,43.9242 386.0417,43.6375 384.0602,44.0232 382.4252,45.3839 380.9636,47.2462 380.2878,49.3514 380.6207,51.6132 381.5971,53.8957 383.1573,55.8641 385.2442,57.4071 387.7702,58.1901 390.4247,57.9647 393.0985,56.956 395.2953,55.8128 396.6836,54.9023 397.3504,54.5033" stroke="black" /><polyline fill="none" points="400.1969,33.8584 400.3687,34.2201 400.5745,35.1128 400.7613,36.8168 400.9313,39.5279 400.8298,42.9692 400.7035,46.6905 400.4901,50.1331 400.4365,52.8467 400.5394,54.5516 400.8011,55.4437" stroke="black" /><polyline fill="none" points="395.2826,47.1425 396.2915,47.3271 398.0552,47.4752 400.322,47.5898 402.5309,47.5372 404.3729,47.181 405.5415,46.6366 406.0946,46.0711 406.2577,45.6497" stroke="black" /><polyline fill="none" points="413.3473,44.3401 413.9808,43.466 414.8303,41.8902 415.9547,39.8919 416.9127,38.0073 417.5142,36.77 417.8156,36.2072" stroke="black" /><polyline fill="none" points="429.2492,55.7699 429.9433,55.3147 431.6396,54.4288 434.1713,53.2258 437.0098,51.9356 439.5686,50.6485 441.5681,49.3676 442.5881,48.0417 442.9933,46.7506 442.8426,45.7734 441.9408,45.1681 440.5959,44.9593 438.8102,45.3428 436.303,46.2378 433.6625,47.7216 431.4194,49.7324 429.6831,52.0452 429.0372,54.3179 429.3676,56.356 430.3679,58.2747 432.1733,59.653 434.7822,60.3511 437.4678,60.4051 439.9533,60.0697 441.7098,59.5747 442.574,59.3133" stroke="black" /><polyline fill="none" points="448.6254,60.2248 448.5608,59.4424 448.5716,57.904 448.7974,55.58 449.1301,52.8074 449.5181,49.9782 449.661,47.7391 449.5059,46.3703 449.2477,45.7859" stroke="black" /><polyline fill="none" points="448.534,57.0374 448.9214,56.6694 449.6367,55.5987 450.764,53.852 452.2778,51.6536 453.7969,49.9305 455.4359,48.9333 456.8625,48.9454 457.713,49.9708 457.7332,51.7885 457.2784,53.6396 456.5716,55.4654 456.1909,56.4486 456.1642,56.5608 456.7717,55.8548 457.6212,54.279 458.8528,51.86 460.3352,49.3542 462.0711,47.0134 463.7049,45.5408 465.4341,45.102 466.8094,45.5342 467.6611,46.6714 467.7392,48.6564 467.2057,50.9837 466.3945,53.482 465.8036,55.6702 465.5401,57.1275 465.5756,57.7984" stroke="black" /><polyline fill="none" points="478.624,59.1353 478.9552,58.74 479.343,58.4001" stroke="black" /><polyline fill="none" points="507.5976,33.8361 508.1044,34.1381 508.7864,35.1094 509.619,37.03 510.321,39.7911 510.5554,43.2566 510.7376,47.0584 511.0301,50.719 511.2046,53.8217 511.342,56.1136 511.4132,57.4833 511.6994,58.0674 512.1167,57.867 512.7195,56.7415 513.5089,54.8029 514.3755,52.248 515.4651,49.6348 516.6169,47.5802 517.4136,46.2847 517.9962,45.8587 518.507,46.5243 518.9437,48.0577 519.3573,50.0389 519.6641,52.4688 519.8285,54.6765 520.0172,56.5483 520.3951,57.8307 520.8771,58.4126 521.4311,57.931 521.9754,56.5824 522.2578,54.3138 522.7844,51.3712 523.3889,47.8963 524.4124,44.3608 525.6878,40.8504 526.7988,37.6496 527.6371,35.0671 528.3455,33.3811 528.6158,32.539" stroke="black" /><polyline fill="none" points="529.6838,53.0843 530.2438,53.134 531.418,53.0929 533.3174,52.876 535.3832,52.5173 537.4467,51.9629 539.2828,51.0754 540.7233,49.8287 541.8244,48.2502 542.5341,46.676 542.1841,45.3933 541.0555,44.5109 539.2057,44.1679 537.0269,44.416 534.9398,45.3622 532.9749,47.2301 531.1559,49.6557 529.8429,52.2994 529.0043,54.8539 528.974,57.1477 529.891,59.1233 531.5581,60.643 533.7497,61.5415 536.0196,61.9358 537.8653,61.9152 539.0386,61.7902 539.5979,61.784" stroke="black" /><polyline fill="none" points="558.4229,39.3668 558.8663,38.9983 559.6667,38.0384 560.9059,36.2905 562.3038,33.7298 563.7824,30.8884 565.2639,28.2988 566.2227,26.4981 566.7447,25.6532" stroke="black" /><polyline fill="none" points="571.0666,52.0637 570.6443,51.8167 570.3034,51.345 570.1875,50.9827 570.6362,51.0895 571.3742,52.0602 572.3173,53.8677 573.2095,56.1233 574.1862,58.4338 575.0724,60.158 575.8943,61.1277 576.6201,61.0078 577.4749,59.9075 578.3753,57.8837 579.4935,55.326 580.6932,52.5437 581.9565,50.4599 583.0612,49.189 583.8398,48.7888" stroke="black" /><polyline fill="none" points="587.3138,59.3503 587.9825,59.1191 588.9859,58.8003 590.4904,58.28 592.3563,57.56 594.2465,56.5041 595.6879,55.3413 596.4286,54.0465 595.9957,52.8486 594.8099,51.855 593.0698,51.315 591.0554,51.2535 589.0189,51.7237 587.2661,52.5544 585.934,53.4922 585.3887,54.7569 585.5463,56.3493 586.574,58.2118 588.5807,60.0913 591.4224,61.598 594.814,62.2594 598.562,62.2736 601.856,61.7054 604.5062,61.0885 606.2351,60.6218 607.0439,60.417" stroke="black" /><polyline fill="none" points="622.5831,59.3767 622.9351,58.338 623.757,56.7905 625.0526,55.0979 626.3256,53.8811 627.3255,53.2546" stroke="black" /><polyline fill="none" points="625.1813,39.0423 625.1838,39.266 625.1381,40.1895 625.2966,41.8659 625.5164,44.017 625.4059,46.6474 625.0745,49.5319 624.6309,52.3896 624.0726,54.997 623.9835,57.0397 624.4135,57.9859 625.5089,58.3932 627.3254,58.2611 629.8364,57.7017 632.59,56.3285 635.1667,54.1461 637.3728,51.3246 639.7203,48.6414 642.0187,46.5741 644.2413,45.2348 646.2778,44.7646 647.8457,44.9149 648.7505,45.7998 649.185,47.1375 648.838,48.6237 647.2881,50.0954 645.0916,51.2666 642.9194,52.1019 641.3036,52.6793 640.5793,52.9391" stroke="black" /><polyline fill="none" points="624.8884,52.9182 625.3536,51.99 626.3463,50.7203 627.9254,49.3602 629.9839,48.3584 632.2991,47.8012 634.6498,47.9148 636.3607,48.3432 637.3799,49.4506 637.7062,51.1251 637.6413,52.832 637.6864,54.3698 638.5966,55.7301 640.2584,56.7744 642.7001,57.5303 645.4749,58.0588 648.2677,57.692 650.7178,56.6858 652.7754,55.6 654.0537,54.8586 654.6929,54.4879" stroke="black" /><polyline fill="none" points="652.5511,55.5466 651.9262,54.6865 651.2966,53.407 651.1409,51.9823 651.9081,50.5473 653.5695,49.0464 655.9316,47.6776 658.5187,46.4181 660.9449,45.7758 663.1293,46.0311 664.6476,46.7414 665.4139,47.7397 665.3428,48.8873 664.0946,49.8241 662.0361,50.826 659.5596,51.9724 656.9666,52.7005 654.9289,53.0588 653.8112,53.1552 653.3616,52.9644" stroke="black" /><polyline fill="none" points="653.4453,55.4527 653.7569,55.8129 654.7963,56.2208 656.757,56.4786 659.4116,56.2533 662.2277,55.4667 664.6786,54.5444 666.2357,53.7159 666.9857,53.2601" stroke="black" /><polyline fill="none" points="671.2857,47.5904 671.4836,47.784 671.6533,47.9499" stroke="black" /><polyline fill="none" points="670.2971,51.7408 669.7739,52.4738 669.1699,53.4875 668.7902,54.5545 668.825,55.1694 669.4089,54.8553 670.0663,53.6173 670.853,51.427 671.8578,48.7307 673.0612,46.284 674.3289,44.5918 675.7731,43.6807 677.0611,43.8061 678.0222,44.7184 678.6558,46.3615 678.6276,48.8511 678.014,51.515 677.2572,53.8728 676.6622,55.6974 676.3922,56.5675" stroke="black" /><polyline fill="none" points="701.0402,52.2093 700.5962,52.5219 699.7097,53.2869 698.157,54.5069 696.3835,55.981 694.4949,57.1768 692.6523,57.477 691.0241,56.9358 689.6105,55.5811 688.6395,53.7739 688.4508,51.9021 689.185,50.02 690.5916,48.2423 692.7853,46.8194 695.3497,46.0356 698.0051,45.8941 700.1635,46.3176 701.655,47.14 702.1733,48.4768 702.1345,50.0155 701.926,51.3883 701.7117,52.2297" stroke="black" /><polyline fill="none" points="701.7215,58.1311 701.5475,57.5737 701.2255,56.2907 701.0944,54.5581 701.5498,52.763 702.2859,51.0487 702.7476,49.8129 702.8799,49.1401 702.5679,48.7521" stroke="black" /><polyline fill="none" points="707.6504,55.5758 707.4984,54.4867 707.3346,52.3349 707.3538,49.0343 707.4506,45.1735 707.8292,41.5054 708.1868,38.4528 708.1609,36.1316 708.0859,34.4264 708.24,33.194 708.455,32.4085 708.8717,32.1521" stroke="black" /><polyline fill="none" points="712.8979,54.6223 713.4843,54.5318 714.854,54.4606 717.1437,54.1274 719.879,53.6215 722.5833,52.8362 724.5315,51.9754 725.7238,51.0391 725.9956,50.3369 725.4282,49.616 723.9118,49.0735 721.586,48.6799 718.6772,48.6844 715.776,49.36 713.4667,50.4486 712.0294,51.9749 711.3492,53.6886 711.6796,55.7266 712.7082,57.673 714.4903,59.4711 716.7385,60.425 719.0078,60.7633 720.5999,60.5777 721.5771,60.427" stroke="black" /><polyline fill="none" points="727.5577,52.4731 727.307,52.5598 727.0612,53.0939 726.5445,54.4142 725.9787,56.3504 725.5248,58.2853 725.3421,59.4621 725.2893,59.7423 725.5618,59.096 725.9974,58.0283 726.7397,56.8733 727.3129,55.6083 727.6885,54.1777 727.6714,52.6396 727.8214,51.0437 728.3365,49.5836 729.3591,48.4814 730.6409,48.0476 731.7337,48.2312 732.3835,48.8113 732.8375,49.3936" stroke="black" /><polyline fill="none" points="739.6738,40.4233 739.7676,41.3172 740.0116,43.1325 740.0972,45.7886 740.2144,48.78 740.2474,51.7443 740.3314,54.2606 740.6027,56.0196 740.9508,57.1345 741.0689,57.6925" stroke="black" /><polyline fill="none" points="736.0593,54.8955 736.759,54.9437 738.1284,54.8445 740.2526,54.709 742.7943,54.4009 745.5585,53.9786 748.1012,53.7544 749.8357,53.791 750.7878,53.8923" stroke="black" /><polyline fill="none" points="753.306,56.4933 753.668,56.3494 754.6695,55.8628 756.3685,55.2286 758.707,54.2515 761.1841,53.1611 763.0982,51.7413 764.1727,50.275 764.2142,48.9879 763.2836,48.2991 761.3779,47.9567 758.9455,48.0398 756.0676,48.2956 753.194,48.943 750.9689,50.0585 749.6738,51.8071 748.9955,53.6885 749.1852,55.6442 750.0708,57.3125 751.7357,58.6365 754.3176,59.4188 757.4274,59.8876 760.31,60.0512 762.6575,59.8852 764.2192,59.4762 765.1657,59.0741 765.6374,58.7332" stroke="black" /><polyline fill="none" points="778.8076,58.4466 779.0518,57.7726 779.3749,56.6503 779.4979,55.1386 779.1753,53.7997 777.8786,52.8911 776.0574,52.6038 773.5135,52.716 770.9739,53.2198 768.8573,54.0265 767.4734,55.3285 766.9042,56.9571 767.1463,58.6045 767.9402,59.5746 769.2842,59.6995 771.2889,58.894 773.5358,57.2188 775.9982,54.814 778.0931,52.0497 779.6019,49.4038 780.4209,47.6046 780.859,46.7607" stroke="black" /><polyline fill="none" points="780.8069,42.0904 780.898,42.7327 781.1354,43.9607 781.2141,46.0016 781.3292,48.7972 781.4216,52.0685 781.3185,55.37 781.5486,58.444 782.0794,60.8994 782.6854,62.5708 783.3951,63.5138" stroke="black" /></svg>